%TF.GenerationSoftware,KiCad,Pcbnew,(5.1.8)-1*%
%TF.CreationDate,2022-12-08T11:32:54+02:00*%
%TF.ProjectId,Scale,5363616c-652e-46b6-9963-61645f706362,rev?*%
%TF.SameCoordinates,Original*%
%TF.FileFunction,Copper,L4,Bot*%
%TF.FilePolarity,Positive*%
%FSLAX46Y46*%
G04 Gerber Fmt 4.6, Leading zero omitted, Abs format (unit mm)*
G04 Created by KiCad (PCBNEW (5.1.8)-1) date 2022-12-08 11:32:54*
%MOMM*%
%LPD*%
G01*
G04 APERTURE LIST*
%TA.AperFunction,ComponentPad*%
%ADD10C,1.498000*%
%TD*%
%TA.AperFunction,ComponentPad*%
%ADD11C,1.950000*%
%TD*%
%TA.AperFunction,ComponentPad*%
%ADD12R,2.550000X2.550000*%
%TD*%
%TA.AperFunction,ComponentPad*%
%ADD13C,2.550000*%
%TD*%
%TA.AperFunction,ComponentPad*%
%ADD14R,1.508000X1.508000*%
%TD*%
%TA.AperFunction,ComponentPad*%
%ADD15C,1.508000*%
%TD*%
%TA.AperFunction,ComponentPad*%
%ADD16R,1.430000X1.430000*%
%TD*%
%TA.AperFunction,ComponentPad*%
%ADD17C,1.430000*%
%TD*%
%TA.AperFunction,ComponentPad*%
%ADD18C,2.480000*%
%TD*%
%TA.AperFunction,ComponentPad*%
%ADD19C,1.000000*%
%TD*%
%TA.AperFunction,ComponentPad*%
%ADD20C,1.300000*%
%TD*%
%TA.AperFunction,ComponentPad*%
%ADD21C,2.184400*%
%TD*%
%TA.AperFunction,ComponentPad*%
%ADD22C,1.408000*%
%TD*%
%TA.AperFunction,ViaPad*%
%ADD23C,0.560000*%
%TD*%
%TA.AperFunction,ViaPad*%
%ADD24C,0.800000*%
%TD*%
%TA.AperFunction,ViaPad*%
%ADD25C,1.100000*%
%TD*%
%TA.AperFunction,Conductor*%
%ADD26C,1.150000*%
%TD*%
%TA.AperFunction,Conductor*%
%ADD27C,0.200000*%
%TD*%
%TA.AperFunction,Conductor*%
%ADD28C,0.100000*%
%TD*%
G04 APERTURE END LIST*
D10*
%TO.P,SW1,1*%
%TO.N,Net-(SW1-Pad1)*%
X190995000Y-78500000D03*
%TO.P,SW1,2*%
%TO.N,GND*%
X190995000Y-74000000D03*
D11*
%TO.P,SW1,S1*%
X188505000Y-79755000D03*
%TO.P,SW1,S2*%
X188505000Y-72745000D03*
%TD*%
D12*
%TO.P,J3,1*%
%TO.N,/PSU/+VDC*%
X98350000Y-137050000D03*
D13*
%TO.P,J3,2*%
%TO.N,/PSU/-VDC*%
X103350000Y-137050000D03*
%TO.P,J3,3*%
%TO.N,GNDPWR*%
X108350000Y-137050000D03*
%TD*%
D12*
%TO.P,J1,1*%
%TO.N,/CPU/IN1*%
X113300000Y-65450000D03*
D13*
%TO.P,J1,2*%
%TO.N,/CPU/IN2*%
X108300000Y-65450000D03*
%TO.P,J1,3*%
%TO.N,/CPU/IN3*%
X103300000Y-65450000D03*
%TO.P,J1,4*%
%TO.N,GND3*%
X98300000Y-65450000D03*
%TD*%
D12*
%TO.P,J5,1*%
%TO.N,/RS485/RS485A*%
X130800000Y-65450000D03*
D13*
%TO.P,J5,2*%
%TO.N,/RS485/RS485B*%
X125800000Y-65450000D03*
%TO.P,J5,3*%
%TO.N,GND2*%
X120800000Y-65450000D03*
%TD*%
D12*
%TO.P,J2,1*%
%TO.N,/EXC+*%
X175800000Y-65450000D03*
D13*
%TO.P,J2,2*%
%TO.N,GNDS*%
X170800000Y-65450000D03*
%TO.P,J2,3*%
%TO.N,/Ref+*%
X165800000Y-65450000D03*
%TO.P,J2,4*%
%TO.N,/Ref-*%
X160800000Y-65450000D03*
%TO.P,J2,5*%
%TO.N,/Sig+*%
X155800000Y-65450000D03*
%TO.P,J2,6*%
%TO.N,/Sig-*%
X150800000Y-65450000D03*
%TD*%
D12*
%TO.P,J4,1*%
%TO.N,/4-20mA/4-20B*%
X143300000Y-65450000D03*
D13*
%TO.P,J4,2*%
%TO.N,/4-20mA/4-20A*%
X138300000Y-65450000D03*
%TD*%
D14*
%TO.P,U15,1*%
%TO.N,GND*%
X164560000Y-96150000D03*
D15*
%TO.P,U15,2*%
%TO.N,Net-(L3-Pad2)*%
X162020000Y-96150000D03*
%TO.P,U15,3*%
%TO.N,GNDS*%
X159480000Y-96150000D03*
%TO.P,U15,4*%
%TO.N,Net-(C53-Pad1)*%
X156940000Y-96150000D03*
%TD*%
D16*
%TO.P,U1,1*%
%TO.N,GND*%
X151295000Y-121960000D03*
D17*
%TO.P,U1,2*%
%TO.N,+3V3*%
X150025000Y-124500000D03*
%TO.P,U1,3*%
%TO.N,/CPU/UEIPRST*%
X148755000Y-121960000D03*
%TO.P,U1,4*%
%TO.N,/CPU/URX*%
X147485000Y-124500000D03*
%TO.P,U1,5*%
%TO.N,/CPU/UTX*%
X146215000Y-121960000D03*
%TO.P,U1,6*%
%TO.N,Net-(U1-Pad6)*%
X144945000Y-124500000D03*
%TO.P,U1,7*%
%TO.N,Net-(U1-Pad7)*%
X143675000Y-121960000D03*
%TO.P,U1,8*%
%TO.N,Net-(U1-Pad8)*%
X142405000Y-124500000D03*
D18*
%TO.P,U1,S2*%
%TO.N,Net-(C18-Pad1)*%
X154875000Y-118950000D03*
%TO.P,U1,S1*%
%TO.N,Net-(U1-PadS1)*%
X138825000Y-118950000D03*
%TD*%
D19*
%TO.P,J6,1*%
%TO.N,Net-(C61-Pad1)*%
X99980000Y-88770000D03*
%TO.P,J6,2*%
%TO.N,Net-(J6-Pad2)*%
X99980000Y-87500000D03*
%TO.P,J6,3*%
%TO.N,Net-(J6-Pad3)*%
X101250000Y-88770000D03*
%TO.P,J6,4*%
%TO.N,GND*%
X101250000Y-87500000D03*
%TO.P,J6,5*%
%TO.N,Net-(J6-Pad5)*%
X102520000Y-88770000D03*
%TO.P,J6,6*%
%TO.N,Net-(J6-Pad6)*%
X102520000Y-87500000D03*
%TD*%
D20*
%TO.P,Con1,R8*%
%TO.N,/Ethernet/RX-*%
X172230000Y-121960000D03*
%TO.P,Con1,R7*%
%TO.N,/Ethernet/RX+*%
X170960000Y-124500000D03*
%TO.P,Con1,R6*%
%TO.N,Net-(Con1-PadR6)*%
X169690000Y-121960000D03*
%TO.P,Con1,R5*%
%TO.N,Net-(Con1-PadR5)*%
X168419999Y-124500000D03*
%TO.P,Con1,R4*%
%TO.N,Net-(Con1-PadR4)*%
X167149999Y-121960000D03*
%TO.P,Con1,R3*%
%TO.N,Net-(C17-Pad1)*%
X165880000Y-124500000D03*
%TO.P,Con1,R2*%
%TO.N,/Ethernet/TX-*%
X164610000Y-121960000D03*
%TO.P,Con1,R1*%
%TO.N,/Ethernet/TX+*%
X163340000Y-124500000D03*
D21*
%TO.P,Con1,S1*%
%TO.N,Net-(Con1-PadS1)*%
X159910000Y-127800000D03*
%TO.P,Con1,S2*%
%TO.N,Net-(C14-Pad1)*%
X175660000Y-127800000D03*
D22*
%TO.P,Con1,L1*%
%TO.N,+3V3*%
X174111260Y-134228590D03*
%TO.P,Con1,L4*%
%TO.N,Net-(Con1-PadL4)*%
X161461260Y-135748590D03*
%TO.P,Con1,L3*%
%TO.N,+3V3*%
X163999410Y-134228090D03*
%TO.P,Con1,L2*%
%TO.N,Net-(Con1-PadL2)*%
X171569410Y-135748090D03*
%TD*%
D23*
%TO.N,GND*%
X132500000Y-127000000D03*
X133500000Y-127000000D03*
X133500000Y-128000000D03*
X132500000Y-128000000D03*
X132500000Y-129000000D03*
X133500000Y-129000000D03*
X133500000Y-130000000D03*
X132500000Y-130000000D03*
X130500000Y-127000000D03*
X131500000Y-127000000D03*
X131500000Y-128000000D03*
X130500000Y-128000000D03*
X130500000Y-129000000D03*
X131500000Y-129000000D03*
X134500000Y-127000000D03*
X135500000Y-127000000D03*
X135500000Y-128000000D03*
X134500000Y-128000000D03*
X134500000Y-129000000D03*
X135500000Y-129000000D03*
X135500000Y-130000000D03*
X134500000Y-130000000D03*
X131500000Y-130000000D03*
X130500000Y-130000000D03*
X130500000Y-131000000D03*
X131500000Y-131000000D03*
X132500000Y-131000000D03*
X133500000Y-131000000D03*
X134500000Y-131000000D03*
X135500000Y-131000000D03*
X135500000Y-132000000D03*
X135500000Y-133000000D03*
X134500000Y-133000000D03*
X134500000Y-132000000D03*
X133500000Y-132000000D03*
X133500000Y-133000000D03*
X132500000Y-133000000D03*
X132500000Y-132000000D03*
X131500000Y-132000000D03*
X131500000Y-133000000D03*
X130500000Y-133000000D03*
X130500000Y-132000000D03*
X122000000Y-129000000D03*
X123000000Y-129000000D03*
X123000000Y-130000000D03*
X122000000Y-130000000D03*
X123000000Y-131000000D03*
X122000000Y-131000000D03*
X174700000Y-110250000D03*
X174000000Y-92250000D03*
X174750000Y-84775000D03*
X92750000Y-78250000D03*
X99500000Y-80750000D03*
X133750000Y-91000000D03*
X129750000Y-91000000D03*
X126250000Y-88500000D03*
X123500000Y-89250000D03*
X125075000Y-96000000D03*
X122800000Y-93500000D03*
X104000000Y-117000000D03*
X100750000Y-82750000D03*
X183750000Y-110250000D03*
X179250000Y-107782400D03*
X179750000Y-111325000D03*
X185250000Y-113800000D03*
X181250000Y-116000000D03*
X180250000Y-116000000D03*
X182750000Y-116000000D03*
X184750000Y-116000000D03*
X179500000Y-122250000D03*
X181250000Y-122250000D03*
X183000000Y-122250000D03*
X184750000Y-122250000D03*
X186500000Y-122250000D03*
X179750000Y-114300000D03*
X173750000Y-117500000D03*
X166250000Y-116250000D03*
X169275000Y-101025000D03*
D24*
X133000000Y-116000000D03*
D23*
X130250000Y-118500000D03*
D24*
X131750000Y-118500000D03*
X135250000Y-119750000D03*
X134750000Y-135000000D03*
D23*
X122000000Y-128000000D03*
X123000000Y-128000000D03*
X121000000Y-128000000D03*
X121000000Y-127000000D03*
X122000000Y-127000000D03*
X123000000Y-127000000D03*
X121000000Y-126000000D03*
X121000000Y-125000000D03*
X120000000Y-125000000D03*
X120000000Y-126000000D03*
X120000000Y-127000000D03*
X120000000Y-128000000D03*
X122000000Y-132000000D03*
X123000000Y-132000000D03*
X125000000Y-128000000D03*
X125000000Y-127000000D03*
X118000000Y-134500000D03*
X118000000Y-135500000D03*
X117000000Y-135500000D03*
X117000000Y-134500000D03*
X116000000Y-134500000D03*
X116000000Y-135500000D03*
X115000000Y-135500000D03*
X115000000Y-134500000D03*
X118000000Y-136500000D03*
X119000000Y-136500000D03*
X120000000Y-136500000D03*
X117000000Y-136500000D03*
X116000000Y-136500000D03*
X115000000Y-136500000D03*
X114000000Y-134500000D03*
X113000000Y-134500000D03*
X112000000Y-134500000D03*
X112000000Y-135500000D03*
X113000000Y-135500000D03*
X114000000Y-135500000D03*
X114000000Y-136500000D03*
X113000000Y-136500000D03*
X112000000Y-136500000D03*
X191500000Y-108500000D03*
X193000000Y-115250000D03*
X193000000Y-117000000D03*
X125000000Y-99925000D03*
X125000000Y-103700000D03*
X97500000Y-94000000D03*
X97500000Y-108750000D03*
X106750000Y-100000000D03*
X105250000Y-100000000D03*
X103750000Y-100000000D03*
X102250000Y-100000000D03*
X100750000Y-100000000D03*
X100750000Y-98500000D03*
X102250000Y-98500000D03*
X103750000Y-98500000D03*
X105250000Y-98500000D03*
X106750000Y-98500000D03*
X108250000Y-98500000D03*
X108250000Y-100000000D03*
X108250000Y-101500000D03*
X108250000Y-103000000D03*
X108250000Y-104500000D03*
X108250000Y-106000000D03*
X108250000Y-107500000D03*
X109750000Y-107500000D03*
X109750000Y-106000000D03*
X109750000Y-104500000D03*
X109750000Y-103000000D03*
X109750000Y-101500000D03*
X109750000Y-100000000D03*
X111250000Y-100000000D03*
X111250000Y-101500000D03*
X111250000Y-103000000D03*
X111250000Y-104500000D03*
X111250000Y-106000000D03*
X111250000Y-107500000D03*
X112750000Y-107500000D03*
X112750000Y-106000000D03*
X112750000Y-104500000D03*
X112750000Y-103000000D03*
X112750000Y-101500000D03*
X112750000Y-100000000D03*
X112750000Y-98500000D03*
X111250000Y-98500000D03*
X109750000Y-98500000D03*
X112750000Y-97000000D03*
X111250000Y-97000000D03*
X109750000Y-97000000D03*
X108250000Y-97000000D03*
X106750000Y-97000000D03*
X105250000Y-97000000D03*
X103750000Y-97000000D03*
X102250000Y-97000000D03*
X100750000Y-97000000D03*
X100750000Y-95500000D03*
X102250000Y-95500000D03*
X103750000Y-95500000D03*
X105250000Y-95500000D03*
X106750000Y-95500000D03*
X108250000Y-95500000D03*
X109750000Y-95500000D03*
X111250000Y-95500000D03*
X112750000Y-95500000D03*
X102250000Y-101500000D03*
X100750000Y-101500000D03*
X100750000Y-103000000D03*
X102250000Y-103000000D03*
X102250000Y-104500000D03*
X100750000Y-104500000D03*
X100750000Y-106000000D03*
X102250000Y-106000000D03*
X103750000Y-106000000D03*
X105250000Y-106000000D03*
X106750000Y-106000000D03*
X106750000Y-107500000D03*
X105250000Y-107500000D03*
X103750000Y-107500000D03*
X102250000Y-107500000D03*
%TO.N,+3V3*%
X172500000Y-92250000D03*
X93250000Y-81600000D03*
X97400000Y-81600000D03*
X99500000Y-84250000D03*
X126600000Y-96000000D03*
X127250000Y-91000000D03*
X102250000Y-113250000D03*
X98000000Y-115000000D03*
X119250000Y-107250000D03*
X119250000Y-117250000D03*
X126575000Y-117250000D03*
X192000000Y-102750000D03*
%TO.N,+3.3VA*%
X176250000Y-110250000D03*
X176250000Y-114750000D03*
X187350000Y-120250000D03*
X165750000Y-114250000D03*
X160425000Y-114250000D03*
D25*
%TO.N,GNDPWR*%
X158000000Y-138900000D03*
X177499986Y-138900000D03*
D23*
%TO.N,Net-(C16-Pad1)*%
X167850000Y-114250000D03*
X173150000Y-114250000D03*
D24*
%TO.N,+5V*%
X121250000Y-93500000D03*
X135500000Y-121250000D03*
X167000000Y-99500000D03*
D23*
%TO.N,GND1*%
X141200000Y-98400000D03*
X142350000Y-98400000D03*
X141775000Y-98850000D03*
X141775000Y-97950000D03*
X134175000Y-97075000D03*
X134000000Y-103750000D03*
X137250000Y-103000000D03*
%TO.N,GND2*%
X124750000Y-81750000D03*
X124000000Y-80500000D03*
X126750000Y-80500000D03*
X133750000Y-83000000D03*
X127000000Y-82500000D03*
X128750000Y-72750000D03*
X130850000Y-72750000D03*
X133300000Y-76500000D03*
%TO.N,GNDS*%
X149500000Y-96750000D03*
X150250000Y-96000000D03*
X150250000Y-97500000D03*
X148750000Y-97500000D03*
X148750000Y-96000000D03*
X153250000Y-67750000D03*
X163250000Y-67750000D03*
X150500000Y-79250000D03*
X153500000Y-79250000D03*
X160500000Y-79250000D03*
X163500000Y-79250000D03*
X167250000Y-80000000D03*
X159250000Y-80000000D03*
X157300000Y-80000000D03*
X149250000Y-80000000D03*
X168050000Y-91942600D03*
X158000000Y-87750000D03*
X161250000Y-85750000D03*
X154750000Y-85500000D03*
X149500000Y-84500000D03*
X153250000Y-97000000D03*
X172500000Y-78000000D03*
X167250000Y-84000000D03*
X154750000Y-92500000D03*
%TO.N,+5VD*%
X165500000Y-91000000D03*
X152500000Y-92750000D03*
X166075000Y-85425000D03*
%TO.N,+5VA*%
X155400000Y-78500000D03*
X152400000Y-78500000D03*
X162400000Y-78500000D03*
X165400000Y-78500000D03*
X151000000Y-84500000D03*
X174050000Y-78000000D03*
%TO.N,GND3*%
X110800000Y-73750000D03*
X105325000Y-73750000D03*
X100275000Y-73750000D03*
X112000000Y-78500000D03*
%TO.N,Net-(C61-Pad1)*%
X100000000Y-108750000D03*
%TO.N,Net-(Con1-PadL4)*%
X184750000Y-137250000D03*
%TO.N,Net-(Con1-PadL2)*%
X182750000Y-135750000D03*
%TO.N,Net-(J6-Pad6)*%
X114000000Y-91250011D03*
%TO.N,Net-(Q1-Pad1)*%
X142250000Y-95750000D03*
X140000000Y-95750000D03*
%TO.N,Net-(R9-Pad1)*%
X189250000Y-115250000D03*
X189250000Y-129250000D03*
%TO.N,Net-(R10-Pad1)*%
X188250000Y-116250000D03*
X188250000Y-128500000D03*
%TD*%
D26*
%TO.N,GNDPWR*%
X108350000Y-137050000D02*
X110200000Y-138900000D01*
X110200000Y-138900000D02*
X177499986Y-138900000D01*
%TD*%
D27*
%TO.N,GND*%
X193900000Y-63541422D02*
X193900000Y-138958578D01*
X193458578Y-139400000D01*
X179100000Y-139400000D01*
X179100000Y-137192875D01*
X184170000Y-137192875D01*
X184170000Y-137307125D01*
X184192289Y-137419180D01*
X184236011Y-137524733D01*
X184299485Y-137619728D01*
X184380272Y-137700515D01*
X184475267Y-137763989D01*
X184580820Y-137807711D01*
X184692875Y-137830000D01*
X184807125Y-137830000D01*
X184919180Y-137807711D01*
X185024733Y-137763989D01*
X185119728Y-137700515D01*
X185200515Y-137619728D01*
X185263989Y-137524733D01*
X185307711Y-137419180D01*
X185330000Y-137307125D01*
X185330000Y-137192875D01*
X185307711Y-137080820D01*
X185263989Y-136975267D01*
X185200515Y-136880272D01*
X185119728Y-136799485D01*
X185024733Y-136736011D01*
X184919180Y-136692289D01*
X184807125Y-136670000D01*
X184692875Y-136670000D01*
X184580820Y-136692289D01*
X184475267Y-136736011D01*
X184380272Y-136799485D01*
X184299485Y-136880272D01*
X184236011Y-136975267D01*
X184192289Y-137080820D01*
X184170000Y-137192875D01*
X179100000Y-137192875D01*
X179100000Y-137000000D01*
X179098079Y-136980491D01*
X179092388Y-136961732D01*
X179083147Y-136944443D01*
X179070711Y-136929289D01*
X179055557Y-136916853D01*
X179038268Y-136907612D01*
X179019509Y-136901921D01*
X179000000Y-136900000D01*
X110850000Y-136900000D01*
X110850000Y-135649705D01*
X160457260Y-135649705D01*
X160457260Y-135847475D01*
X160495843Y-136041446D01*
X160571527Y-136224162D01*
X160681402Y-136388603D01*
X160821247Y-136528448D01*
X160985688Y-136638323D01*
X161168404Y-136714007D01*
X161362375Y-136752590D01*
X161560145Y-136752590D01*
X161754116Y-136714007D01*
X161936832Y-136638323D01*
X162101273Y-136528448D01*
X162241118Y-136388603D01*
X162350993Y-136224162D01*
X162426677Y-136041446D01*
X162465260Y-135847475D01*
X162465260Y-135649705D01*
X162465161Y-135649205D01*
X170565410Y-135649205D01*
X170565410Y-135846975D01*
X170603993Y-136040946D01*
X170679677Y-136223662D01*
X170789552Y-136388103D01*
X170929397Y-136527948D01*
X171093838Y-136637823D01*
X171276554Y-136713507D01*
X171470525Y-136752090D01*
X171668295Y-136752090D01*
X171862266Y-136713507D01*
X172044982Y-136637823D01*
X172209423Y-136527948D01*
X172349268Y-136388103D01*
X172459143Y-136223662D01*
X172534827Y-136040946D01*
X172573410Y-135846975D01*
X172573410Y-135692875D01*
X182170000Y-135692875D01*
X182170000Y-135807125D01*
X182192289Y-135919180D01*
X182236011Y-136024733D01*
X182299485Y-136119728D01*
X182380272Y-136200515D01*
X182475267Y-136263989D01*
X182580820Y-136307711D01*
X182692875Y-136330000D01*
X182807125Y-136330000D01*
X182919180Y-136307711D01*
X183024733Y-136263989D01*
X183119728Y-136200515D01*
X183200515Y-136119728D01*
X183263989Y-136024733D01*
X183307711Y-135919180D01*
X183330000Y-135807125D01*
X183330000Y-135692875D01*
X183307711Y-135580820D01*
X183263989Y-135475267D01*
X183200515Y-135380272D01*
X183119728Y-135299485D01*
X183024733Y-135236011D01*
X182919180Y-135192289D01*
X182807125Y-135170000D01*
X182692875Y-135170000D01*
X182580820Y-135192289D01*
X182475267Y-135236011D01*
X182380272Y-135299485D01*
X182299485Y-135380272D01*
X182236011Y-135475267D01*
X182192289Y-135580820D01*
X182170000Y-135692875D01*
X172573410Y-135692875D01*
X172573410Y-135649205D01*
X172534827Y-135455234D01*
X172459143Y-135272518D01*
X172349268Y-135108077D01*
X172209423Y-134968232D01*
X172044982Y-134858357D01*
X171862266Y-134782673D01*
X171668295Y-134744090D01*
X171470525Y-134744090D01*
X171276554Y-134782673D01*
X171093838Y-134858357D01*
X170929397Y-134968232D01*
X170789552Y-135108077D01*
X170679677Y-135272518D01*
X170603993Y-135455234D01*
X170565410Y-135649205D01*
X162465161Y-135649205D01*
X162426677Y-135455734D01*
X162350993Y-135273018D01*
X162241118Y-135108577D01*
X162101273Y-134968732D01*
X161936832Y-134858857D01*
X161754116Y-134783173D01*
X161560145Y-134744590D01*
X161362375Y-134744590D01*
X161168404Y-134783173D01*
X160985688Y-134858857D01*
X160821247Y-134968732D01*
X160681402Y-135108577D01*
X160571527Y-135273018D01*
X160495843Y-135455734D01*
X160457260Y-135649705D01*
X110850000Y-135649705D01*
X110850000Y-134750000D01*
X110848079Y-134730491D01*
X110842388Y-134711732D01*
X110833147Y-134694443D01*
X110820711Y-134679289D01*
X110805557Y-134666853D01*
X110788268Y-134657612D01*
X110769509Y-134651921D01*
X110750000Y-134650000D01*
X106000000Y-134650000D01*
X105980491Y-134651921D01*
X105961732Y-134657612D01*
X105944443Y-134666853D01*
X105929289Y-134679289D01*
X105916853Y-134694443D01*
X105907612Y-134711732D01*
X105901921Y-134730491D01*
X105900000Y-134750000D01*
X105900000Y-139400000D01*
X91041422Y-139400000D01*
X90600000Y-138958578D01*
X90600000Y-135775000D01*
X96773549Y-135775000D01*
X96773549Y-138325000D01*
X96779341Y-138383810D01*
X96796496Y-138440360D01*
X96824353Y-138492477D01*
X96861842Y-138538158D01*
X96907523Y-138575647D01*
X96959640Y-138603504D01*
X97016190Y-138620659D01*
X97075000Y-138626451D01*
X99625000Y-138626451D01*
X99683810Y-138620659D01*
X99740360Y-138603504D01*
X99792477Y-138575647D01*
X99838158Y-138538158D01*
X99875647Y-138492477D01*
X99903504Y-138440360D01*
X99920659Y-138383810D01*
X99926451Y-138325000D01*
X99926451Y-136894876D01*
X101775000Y-136894876D01*
X101775000Y-137205124D01*
X101835526Y-137509411D01*
X101954253Y-137796042D01*
X102126617Y-138054004D01*
X102345996Y-138273383D01*
X102603958Y-138445747D01*
X102890589Y-138564474D01*
X103194876Y-138625000D01*
X103505124Y-138625000D01*
X103809411Y-138564474D01*
X104096042Y-138445747D01*
X104354004Y-138273383D01*
X104573383Y-138054004D01*
X104745747Y-137796042D01*
X104864474Y-137509411D01*
X104925000Y-137205124D01*
X104925000Y-136894876D01*
X104864474Y-136590589D01*
X104745747Y-136303958D01*
X104573383Y-136045996D01*
X104354004Y-135826617D01*
X104096042Y-135654253D01*
X103809411Y-135535526D01*
X103505124Y-135475000D01*
X103194876Y-135475000D01*
X102890589Y-135535526D01*
X102603958Y-135654253D01*
X102345996Y-135826617D01*
X102126617Y-136045996D01*
X101954253Y-136303958D01*
X101835526Y-136590589D01*
X101775000Y-136894876D01*
X99926451Y-136894876D01*
X99926451Y-135775000D01*
X99920659Y-135716190D01*
X99903504Y-135659640D01*
X99875647Y-135607523D01*
X99838158Y-135561842D01*
X99792477Y-135524353D01*
X99740360Y-135496496D01*
X99683810Y-135479341D01*
X99625000Y-135473549D01*
X97075000Y-135473549D01*
X97016190Y-135479341D01*
X96959640Y-135496496D01*
X96907523Y-135524353D01*
X96861842Y-135561842D01*
X96824353Y-135607523D01*
X96796496Y-135659640D01*
X96779341Y-135716190D01*
X96773549Y-135775000D01*
X90600000Y-135775000D01*
X90600000Y-134129205D01*
X162995410Y-134129205D01*
X162995410Y-134326975D01*
X163033993Y-134520946D01*
X163109677Y-134703662D01*
X163219552Y-134868103D01*
X163359397Y-135007948D01*
X163523838Y-135117823D01*
X163706554Y-135193507D01*
X163900525Y-135232090D01*
X164098295Y-135232090D01*
X164292266Y-135193507D01*
X164474982Y-135117823D01*
X164639423Y-135007948D01*
X164779268Y-134868103D01*
X164889143Y-134703662D01*
X164964827Y-134520946D01*
X165003410Y-134326975D01*
X165003410Y-134129705D01*
X173107260Y-134129705D01*
X173107260Y-134327475D01*
X173145843Y-134521446D01*
X173221527Y-134704162D01*
X173331402Y-134868603D01*
X173471247Y-135008448D01*
X173635688Y-135118323D01*
X173818404Y-135194007D01*
X174012375Y-135232590D01*
X174210145Y-135232590D01*
X174404116Y-135194007D01*
X174586832Y-135118323D01*
X174751273Y-135008448D01*
X174891118Y-134868603D01*
X175000993Y-134704162D01*
X175076677Y-134521446D01*
X175115260Y-134327475D01*
X175115260Y-134129705D01*
X175076677Y-133935734D01*
X175000993Y-133753018D01*
X174891118Y-133588577D01*
X174751273Y-133448732D01*
X174586832Y-133338857D01*
X174404116Y-133263173D01*
X174210145Y-133224590D01*
X174012375Y-133224590D01*
X173818404Y-133263173D01*
X173635688Y-133338857D01*
X173471247Y-133448732D01*
X173331402Y-133588577D01*
X173221527Y-133753018D01*
X173145843Y-133935734D01*
X173107260Y-134129705D01*
X165003410Y-134129705D01*
X165003410Y-134129205D01*
X164964827Y-133935234D01*
X164889143Y-133752518D01*
X164779268Y-133588077D01*
X164639423Y-133448232D01*
X164474982Y-133338357D01*
X164292266Y-133262673D01*
X164098295Y-133224090D01*
X163900525Y-133224090D01*
X163706554Y-133262673D01*
X163523838Y-133338357D01*
X163359397Y-133448232D01*
X163219552Y-133588077D01*
X163109677Y-133752518D01*
X163033993Y-133935234D01*
X162995410Y-134129205D01*
X90600000Y-134129205D01*
X90600000Y-130657942D01*
X138750000Y-130657942D01*
X138750000Y-131042058D01*
X138824938Y-131418794D01*
X138971933Y-131773671D01*
X139185336Y-132093052D01*
X139456948Y-132364664D01*
X139776329Y-132578067D01*
X140131206Y-132725062D01*
X140507942Y-132800000D01*
X140892058Y-132800000D01*
X141268794Y-132725062D01*
X141623671Y-132578067D01*
X141943052Y-132364664D01*
X142214664Y-132093052D01*
X142428067Y-131773671D01*
X142575062Y-131418794D01*
X142650000Y-131042058D01*
X142650000Y-130657942D01*
X151050000Y-130657942D01*
X151050000Y-131042058D01*
X151124938Y-131418794D01*
X151271933Y-131773671D01*
X151485336Y-132093052D01*
X151756948Y-132364664D01*
X152076329Y-132578067D01*
X152431206Y-132725062D01*
X152807942Y-132800000D01*
X153192058Y-132800000D01*
X153568794Y-132725062D01*
X153923671Y-132578067D01*
X154243052Y-132364664D01*
X154514664Y-132093052D01*
X154728067Y-131773671D01*
X154875062Y-131418794D01*
X154950000Y-131042058D01*
X154950000Y-130657943D01*
X160120000Y-130657943D01*
X160120000Y-131042059D01*
X160194938Y-131418795D01*
X160341933Y-131773672D01*
X160555336Y-132093053D01*
X160826948Y-132364665D01*
X161146329Y-132578068D01*
X161501206Y-132725063D01*
X161877942Y-132800001D01*
X162262058Y-132800001D01*
X162638794Y-132725063D01*
X162993671Y-132578068D01*
X163313052Y-132364665D01*
X163584664Y-132093053D01*
X163798067Y-131773672D01*
X163945062Y-131418795D01*
X164020000Y-131042059D01*
X164020000Y-130657943D01*
X171550000Y-130657943D01*
X171550000Y-131042059D01*
X171624938Y-131418795D01*
X171771933Y-131773672D01*
X171985336Y-132093053D01*
X172256948Y-132364665D01*
X172576329Y-132578068D01*
X172931206Y-132725063D01*
X173307942Y-132800001D01*
X173692058Y-132800001D01*
X174068794Y-132725063D01*
X174423671Y-132578068D01*
X174743052Y-132364665D01*
X175014664Y-132093053D01*
X175228067Y-131773672D01*
X175375062Y-131418795D01*
X175450000Y-131042059D01*
X175450000Y-130657943D01*
X175375062Y-130281207D01*
X175228067Y-129926330D01*
X175014664Y-129606949D01*
X174743052Y-129335337D01*
X174529842Y-129192875D01*
X188670000Y-129192875D01*
X188670000Y-129307125D01*
X188692289Y-129419180D01*
X188736011Y-129524733D01*
X188799485Y-129619728D01*
X188880272Y-129700515D01*
X188975267Y-129763989D01*
X189080820Y-129807711D01*
X189192875Y-129830000D01*
X189307125Y-129830000D01*
X189419180Y-129807711D01*
X189524733Y-129763989D01*
X189619728Y-129700515D01*
X189700515Y-129619728D01*
X189763989Y-129524733D01*
X189807711Y-129419180D01*
X189830000Y-129307125D01*
X189830000Y-129192875D01*
X189807711Y-129080820D01*
X189763989Y-128975267D01*
X189700515Y-128880272D01*
X189619728Y-128799485D01*
X189524733Y-128736011D01*
X189419180Y-128692289D01*
X189307125Y-128670000D01*
X189192875Y-128670000D01*
X189080820Y-128692289D01*
X188975267Y-128736011D01*
X188880272Y-128799485D01*
X188799485Y-128880272D01*
X188736011Y-128975267D01*
X188692289Y-129080820D01*
X188670000Y-129192875D01*
X174529842Y-129192875D01*
X174423671Y-129121934D01*
X174068794Y-128974939D01*
X173692058Y-128900001D01*
X173307942Y-128900001D01*
X172931206Y-128974939D01*
X172576329Y-129121934D01*
X172256948Y-129335337D01*
X171985336Y-129606949D01*
X171771933Y-129926330D01*
X171624938Y-130281207D01*
X171550000Y-130657943D01*
X164020000Y-130657943D01*
X163945062Y-130281207D01*
X163798067Y-129926330D01*
X163584664Y-129606949D01*
X163313052Y-129335337D01*
X162993671Y-129121934D01*
X162638794Y-128974939D01*
X162262058Y-128900001D01*
X161877942Y-128900001D01*
X161501206Y-128974939D01*
X161146329Y-129121934D01*
X160826948Y-129335337D01*
X160555336Y-129606949D01*
X160341933Y-129926330D01*
X160194938Y-130281207D01*
X160120000Y-130657943D01*
X154950000Y-130657943D01*
X154950000Y-130657942D01*
X154875062Y-130281206D01*
X154728067Y-129926329D01*
X154514664Y-129606948D01*
X154243052Y-129335336D01*
X153923671Y-129121933D01*
X153568794Y-128974938D01*
X153192058Y-128900000D01*
X152807942Y-128900000D01*
X152431206Y-128974938D01*
X152076329Y-129121933D01*
X151756948Y-129335336D01*
X151485336Y-129606948D01*
X151271933Y-129926329D01*
X151124938Y-130281206D01*
X151050000Y-130657942D01*
X142650000Y-130657942D01*
X142575062Y-130281206D01*
X142428067Y-129926329D01*
X142214664Y-129606948D01*
X141943052Y-129335336D01*
X141623671Y-129121933D01*
X141268794Y-128974938D01*
X140892058Y-128900000D01*
X140507942Y-128900000D01*
X140131206Y-128974938D01*
X139776329Y-129121933D01*
X139456948Y-129335336D01*
X139185336Y-129606948D01*
X138971933Y-129926329D01*
X138824938Y-130281206D01*
X138750000Y-130657942D01*
X90600000Y-130657942D01*
X90600000Y-127662880D01*
X158517800Y-127662880D01*
X158517800Y-127937120D01*
X158571302Y-128206090D01*
X158676249Y-128459454D01*
X158828608Y-128687476D01*
X159022524Y-128881392D01*
X159250546Y-129033751D01*
X159503910Y-129138698D01*
X159772880Y-129192200D01*
X160047120Y-129192200D01*
X160316090Y-129138698D01*
X160569454Y-129033751D01*
X160797476Y-128881392D01*
X160991392Y-128687476D01*
X161143751Y-128459454D01*
X161248698Y-128206090D01*
X161302200Y-127937120D01*
X161302200Y-127662880D01*
X174267800Y-127662880D01*
X174267800Y-127937120D01*
X174321302Y-128206090D01*
X174426249Y-128459454D01*
X174578608Y-128687476D01*
X174772524Y-128881392D01*
X175000546Y-129033751D01*
X175253910Y-129138698D01*
X175522880Y-129192200D01*
X175797120Y-129192200D01*
X176066090Y-129138698D01*
X176319454Y-129033751D01*
X176547476Y-128881392D01*
X176741392Y-128687476D01*
X176893751Y-128459454D01*
X176900618Y-128442875D01*
X187670000Y-128442875D01*
X187670000Y-128557125D01*
X187692289Y-128669180D01*
X187736011Y-128774733D01*
X187799485Y-128869728D01*
X187880272Y-128950515D01*
X187975267Y-129013989D01*
X188080820Y-129057711D01*
X188192875Y-129080000D01*
X188307125Y-129080000D01*
X188419180Y-129057711D01*
X188524733Y-129013989D01*
X188619728Y-128950515D01*
X188700515Y-128869728D01*
X188763989Y-128774733D01*
X188807711Y-128669180D01*
X188830000Y-128557125D01*
X188830000Y-128442875D01*
X188807711Y-128330820D01*
X188763989Y-128225267D01*
X188700515Y-128130272D01*
X188619728Y-128049485D01*
X188524733Y-127986011D01*
X188419180Y-127942289D01*
X188307125Y-127920000D01*
X188192875Y-127920000D01*
X188080820Y-127942289D01*
X187975267Y-127986011D01*
X187880272Y-128049485D01*
X187799485Y-128130272D01*
X187736011Y-128225267D01*
X187692289Y-128330820D01*
X187670000Y-128442875D01*
X176900618Y-128442875D01*
X176998698Y-128206090D01*
X177052200Y-127937120D01*
X177052200Y-127662880D01*
X176998698Y-127393910D01*
X176893751Y-127140546D01*
X176741392Y-126912524D01*
X176547476Y-126718608D01*
X176319454Y-126566249D01*
X176066090Y-126461302D01*
X175797120Y-126407800D01*
X175522880Y-126407800D01*
X175253910Y-126461302D01*
X175000546Y-126566249D01*
X174772524Y-126718608D01*
X174578608Y-126912524D01*
X174426249Y-127140546D01*
X174321302Y-127393910D01*
X174267800Y-127662880D01*
X161302200Y-127662880D01*
X161248698Y-127393910D01*
X161143751Y-127140546D01*
X160991392Y-126912524D01*
X160797476Y-126718608D01*
X160569454Y-126566249D01*
X160316090Y-126461302D01*
X160047120Y-126407800D01*
X159772880Y-126407800D01*
X159503910Y-126461302D01*
X159250546Y-126566249D01*
X159022524Y-126718608D01*
X158828608Y-126912524D01*
X158676249Y-127140546D01*
X158571302Y-127393910D01*
X158517800Y-127662880D01*
X90600000Y-127662880D01*
X90600000Y-124400031D01*
X141390000Y-124400031D01*
X141390000Y-124599969D01*
X141429006Y-124796065D01*
X141505519Y-124980783D01*
X141616598Y-125147025D01*
X141757975Y-125288402D01*
X141924217Y-125399481D01*
X142108935Y-125475994D01*
X142305031Y-125515000D01*
X142504969Y-125515000D01*
X142701065Y-125475994D01*
X142885783Y-125399481D01*
X143052025Y-125288402D01*
X143193402Y-125147025D01*
X143304481Y-124980783D01*
X143380994Y-124796065D01*
X143420000Y-124599969D01*
X143420000Y-124400031D01*
X143930000Y-124400031D01*
X143930000Y-124599969D01*
X143969006Y-124796065D01*
X144045519Y-124980783D01*
X144156598Y-125147025D01*
X144297975Y-125288402D01*
X144464217Y-125399481D01*
X144648935Y-125475994D01*
X144845031Y-125515000D01*
X145044969Y-125515000D01*
X145241065Y-125475994D01*
X145425783Y-125399481D01*
X145592025Y-125288402D01*
X145733402Y-125147025D01*
X145844481Y-124980783D01*
X145920994Y-124796065D01*
X145960000Y-124599969D01*
X145960000Y-124400031D01*
X146470000Y-124400031D01*
X146470000Y-124599969D01*
X146509006Y-124796065D01*
X146585519Y-124980783D01*
X146696598Y-125147025D01*
X146837975Y-125288402D01*
X147004217Y-125399481D01*
X147188935Y-125475994D01*
X147385031Y-125515000D01*
X147584969Y-125515000D01*
X147781065Y-125475994D01*
X147965783Y-125399481D01*
X148132025Y-125288402D01*
X148273402Y-125147025D01*
X148384481Y-124980783D01*
X148460994Y-124796065D01*
X148500000Y-124599969D01*
X148500000Y-124400031D01*
X149010000Y-124400031D01*
X149010000Y-124599969D01*
X149049006Y-124796065D01*
X149125519Y-124980783D01*
X149236598Y-125147025D01*
X149377975Y-125288402D01*
X149544217Y-125399481D01*
X149728935Y-125475994D01*
X149925031Y-125515000D01*
X150124969Y-125515000D01*
X150321065Y-125475994D01*
X150505783Y-125399481D01*
X150672025Y-125288402D01*
X150813402Y-125147025D01*
X150924481Y-124980783D01*
X151000994Y-124796065D01*
X151040000Y-124599969D01*
X151040000Y-124401509D01*
X162340000Y-124401509D01*
X162340000Y-124598491D01*
X162378429Y-124791689D01*
X162453811Y-124973678D01*
X162563249Y-125137463D01*
X162702537Y-125276751D01*
X162866322Y-125386189D01*
X163048311Y-125461571D01*
X163241509Y-125500000D01*
X163438491Y-125500000D01*
X163631689Y-125461571D01*
X163813678Y-125386189D01*
X163977463Y-125276751D01*
X164116751Y-125137463D01*
X164226189Y-124973678D01*
X164301571Y-124791689D01*
X164340000Y-124598491D01*
X164340000Y-124406433D01*
X164930000Y-124406433D01*
X164930000Y-124593567D01*
X164966508Y-124777105D01*
X165038121Y-124949994D01*
X165142087Y-125105590D01*
X165274410Y-125237913D01*
X165430006Y-125341879D01*
X165602895Y-125413492D01*
X165786433Y-125450000D01*
X165973567Y-125450000D01*
X166157105Y-125413492D01*
X166329994Y-125341879D01*
X166485590Y-125237913D01*
X166617913Y-125105590D01*
X166721879Y-124949994D01*
X166793492Y-124777105D01*
X166830000Y-124593567D01*
X166830000Y-124406433D01*
X167469999Y-124406433D01*
X167469999Y-124593567D01*
X167506507Y-124777105D01*
X167578120Y-124949994D01*
X167682086Y-125105590D01*
X167814409Y-125237913D01*
X167970005Y-125341879D01*
X168142894Y-125413492D01*
X168326432Y-125450000D01*
X168513566Y-125450000D01*
X168697104Y-125413492D01*
X168869993Y-125341879D01*
X169025589Y-125237913D01*
X169157912Y-125105590D01*
X169261878Y-124949994D01*
X169333491Y-124777105D01*
X169369999Y-124593567D01*
X169369999Y-124406433D01*
X169369020Y-124401509D01*
X169960000Y-124401509D01*
X169960000Y-124598491D01*
X169998429Y-124791689D01*
X170073811Y-124973678D01*
X170183249Y-125137463D01*
X170322537Y-125276751D01*
X170486322Y-125386189D01*
X170668311Y-125461571D01*
X170861509Y-125500000D01*
X171058491Y-125500000D01*
X171251689Y-125461571D01*
X171433678Y-125386189D01*
X171597463Y-125276751D01*
X171736751Y-125137463D01*
X171846189Y-124973678D01*
X171921571Y-124791689D01*
X171960000Y-124598491D01*
X171960000Y-124401509D01*
X171921571Y-124208311D01*
X171846189Y-124026322D01*
X171736751Y-123862537D01*
X171597463Y-123723249D01*
X171433678Y-123613811D01*
X171251689Y-123538429D01*
X171058491Y-123500000D01*
X170861509Y-123500000D01*
X170668311Y-123538429D01*
X170486322Y-123613811D01*
X170322537Y-123723249D01*
X170183249Y-123862537D01*
X170073811Y-124026322D01*
X169998429Y-124208311D01*
X169960000Y-124401509D01*
X169369020Y-124401509D01*
X169333491Y-124222895D01*
X169261878Y-124050006D01*
X169157912Y-123894410D01*
X169025589Y-123762087D01*
X168869993Y-123658121D01*
X168697104Y-123586508D01*
X168513566Y-123550000D01*
X168326432Y-123550000D01*
X168142894Y-123586508D01*
X167970005Y-123658121D01*
X167814409Y-123762087D01*
X167682086Y-123894410D01*
X167578120Y-124050006D01*
X167506507Y-124222895D01*
X167469999Y-124406433D01*
X166830000Y-124406433D01*
X166793492Y-124222895D01*
X166721879Y-124050006D01*
X166617913Y-123894410D01*
X166485590Y-123762087D01*
X166329994Y-123658121D01*
X166157105Y-123586508D01*
X165973567Y-123550000D01*
X165786433Y-123550000D01*
X165602895Y-123586508D01*
X165430006Y-123658121D01*
X165274410Y-123762087D01*
X165142087Y-123894410D01*
X165038121Y-124050006D01*
X164966508Y-124222895D01*
X164930000Y-124406433D01*
X164340000Y-124406433D01*
X164340000Y-124401509D01*
X164301571Y-124208311D01*
X164226189Y-124026322D01*
X164116751Y-123862537D01*
X163977463Y-123723249D01*
X163813678Y-123613811D01*
X163631689Y-123538429D01*
X163438491Y-123500000D01*
X163241509Y-123500000D01*
X163048311Y-123538429D01*
X162866322Y-123613811D01*
X162702537Y-123723249D01*
X162563249Y-123862537D01*
X162453811Y-124026322D01*
X162378429Y-124208311D01*
X162340000Y-124401509D01*
X151040000Y-124401509D01*
X151040000Y-124400031D01*
X151000994Y-124203935D01*
X150924481Y-124019217D01*
X150813402Y-123852975D01*
X150672025Y-123711598D01*
X150505783Y-123600519D01*
X150321065Y-123524006D01*
X150124969Y-123485000D01*
X149925031Y-123485000D01*
X149728935Y-123524006D01*
X149544217Y-123600519D01*
X149377975Y-123711598D01*
X149236598Y-123852975D01*
X149125519Y-124019217D01*
X149049006Y-124203935D01*
X149010000Y-124400031D01*
X148500000Y-124400031D01*
X148460994Y-124203935D01*
X148384481Y-124019217D01*
X148273402Y-123852975D01*
X148132025Y-123711598D01*
X147965783Y-123600519D01*
X147781065Y-123524006D01*
X147584969Y-123485000D01*
X147385031Y-123485000D01*
X147188935Y-123524006D01*
X147004217Y-123600519D01*
X146837975Y-123711598D01*
X146696598Y-123852975D01*
X146585519Y-124019217D01*
X146509006Y-124203935D01*
X146470000Y-124400031D01*
X145960000Y-124400031D01*
X145920994Y-124203935D01*
X145844481Y-124019217D01*
X145733402Y-123852975D01*
X145592025Y-123711598D01*
X145425783Y-123600519D01*
X145241065Y-123524006D01*
X145044969Y-123485000D01*
X144845031Y-123485000D01*
X144648935Y-123524006D01*
X144464217Y-123600519D01*
X144297975Y-123711598D01*
X144156598Y-123852975D01*
X144045519Y-124019217D01*
X143969006Y-124203935D01*
X143930000Y-124400031D01*
X143420000Y-124400031D01*
X143380994Y-124203935D01*
X143304481Y-124019217D01*
X143193402Y-123852975D01*
X143052025Y-123711598D01*
X142885783Y-123600519D01*
X142701065Y-123524006D01*
X142504969Y-123485000D01*
X142305031Y-123485000D01*
X142108935Y-123524006D01*
X141924217Y-123600519D01*
X141757975Y-123711598D01*
X141616598Y-123852975D01*
X141505519Y-124019217D01*
X141429006Y-124203935D01*
X141390000Y-124400031D01*
X90600000Y-124400031D01*
X90600000Y-121181056D01*
X134800000Y-121181056D01*
X134800000Y-121318944D01*
X134826901Y-121454182D01*
X134879668Y-121581574D01*
X134956274Y-121696224D01*
X135053776Y-121793726D01*
X135168426Y-121870332D01*
X135295818Y-121923099D01*
X135431056Y-121950000D01*
X135568944Y-121950000D01*
X135704182Y-121923099D01*
X135831574Y-121870332D01*
X135846990Y-121860031D01*
X142660000Y-121860031D01*
X142660000Y-122059969D01*
X142699006Y-122256065D01*
X142775519Y-122440783D01*
X142886598Y-122607025D01*
X143027975Y-122748402D01*
X143194217Y-122859481D01*
X143378935Y-122935994D01*
X143575031Y-122975000D01*
X143774969Y-122975000D01*
X143971065Y-122935994D01*
X144155783Y-122859481D01*
X144322025Y-122748402D01*
X144463402Y-122607025D01*
X144574481Y-122440783D01*
X144650994Y-122256065D01*
X144690000Y-122059969D01*
X144690000Y-121860031D01*
X145200000Y-121860031D01*
X145200000Y-122059969D01*
X145239006Y-122256065D01*
X145315519Y-122440783D01*
X145426598Y-122607025D01*
X145567975Y-122748402D01*
X145734217Y-122859481D01*
X145918935Y-122935994D01*
X146115031Y-122975000D01*
X146314969Y-122975000D01*
X146511065Y-122935994D01*
X146695783Y-122859481D01*
X146862025Y-122748402D01*
X147003402Y-122607025D01*
X147114481Y-122440783D01*
X147190994Y-122256065D01*
X147230000Y-122059969D01*
X147230000Y-121860031D01*
X147740000Y-121860031D01*
X147740000Y-122059969D01*
X147779006Y-122256065D01*
X147855519Y-122440783D01*
X147966598Y-122607025D01*
X148107975Y-122748402D01*
X148274217Y-122859481D01*
X148458935Y-122935994D01*
X148655031Y-122975000D01*
X148854969Y-122975000D01*
X149051065Y-122935994D01*
X149235783Y-122859481D01*
X149402025Y-122748402D01*
X149475427Y-122675000D01*
X150228306Y-122675000D01*
X150235064Y-122743612D01*
X150255077Y-122809587D01*
X150287577Y-122870391D01*
X150331315Y-122923685D01*
X150384609Y-122967423D01*
X150445413Y-122999923D01*
X150511388Y-123019936D01*
X150580000Y-123026694D01*
X151057500Y-123025000D01*
X151145000Y-122937500D01*
X151145000Y-122110000D01*
X151445000Y-122110000D01*
X151445000Y-122937500D01*
X151532500Y-123025000D01*
X152010000Y-123026694D01*
X152078612Y-123019936D01*
X152144587Y-122999923D01*
X152205391Y-122967423D01*
X152258685Y-122923685D01*
X152302423Y-122870391D01*
X152334923Y-122809587D01*
X152354936Y-122743612D01*
X152361694Y-122675000D01*
X152360000Y-122197500D01*
X152272500Y-122110000D01*
X151445000Y-122110000D01*
X151145000Y-122110000D01*
X150317500Y-122110000D01*
X150230000Y-122197500D01*
X150228306Y-122675000D01*
X149475427Y-122675000D01*
X149543402Y-122607025D01*
X149654481Y-122440783D01*
X149730994Y-122256065D01*
X149770000Y-122059969D01*
X149770000Y-121861509D01*
X163610000Y-121861509D01*
X163610000Y-122058491D01*
X163648429Y-122251689D01*
X163723811Y-122433678D01*
X163833249Y-122597463D01*
X163972537Y-122736751D01*
X164136322Y-122846189D01*
X164318311Y-122921571D01*
X164511509Y-122960000D01*
X164708491Y-122960000D01*
X164901689Y-122921571D01*
X165083678Y-122846189D01*
X165247463Y-122736751D01*
X165386751Y-122597463D01*
X165496189Y-122433678D01*
X165571571Y-122251689D01*
X165610000Y-122058491D01*
X165610000Y-121866433D01*
X166199999Y-121866433D01*
X166199999Y-122053567D01*
X166236507Y-122237105D01*
X166308120Y-122409994D01*
X166412086Y-122565590D01*
X166544409Y-122697913D01*
X166700005Y-122801879D01*
X166872894Y-122873492D01*
X167056432Y-122910000D01*
X167243566Y-122910000D01*
X167427104Y-122873492D01*
X167599993Y-122801879D01*
X167755589Y-122697913D01*
X167887912Y-122565590D01*
X167991878Y-122409994D01*
X168063491Y-122237105D01*
X168099999Y-122053567D01*
X168099999Y-121866433D01*
X168740000Y-121866433D01*
X168740000Y-122053567D01*
X168776508Y-122237105D01*
X168848121Y-122409994D01*
X168952087Y-122565590D01*
X169084410Y-122697913D01*
X169240006Y-122801879D01*
X169412895Y-122873492D01*
X169596433Y-122910000D01*
X169783567Y-122910000D01*
X169967105Y-122873492D01*
X170139994Y-122801879D01*
X170295590Y-122697913D01*
X170427913Y-122565590D01*
X170531879Y-122409994D01*
X170603492Y-122237105D01*
X170640000Y-122053567D01*
X170640000Y-121866433D01*
X170639021Y-121861509D01*
X171230000Y-121861509D01*
X171230000Y-122058491D01*
X171268429Y-122251689D01*
X171343811Y-122433678D01*
X171453249Y-122597463D01*
X171592537Y-122736751D01*
X171756322Y-122846189D01*
X171938311Y-122921571D01*
X172131509Y-122960000D01*
X172328491Y-122960000D01*
X172521689Y-122921571D01*
X172703678Y-122846189D01*
X172867463Y-122736751D01*
X173006751Y-122597463D01*
X173116189Y-122433678D01*
X173191571Y-122251689D01*
X173230000Y-122058491D01*
X173230000Y-121861509D01*
X173191571Y-121668311D01*
X173116189Y-121486322D01*
X173006751Y-121322537D01*
X172867463Y-121183249D01*
X172703678Y-121073811D01*
X172521689Y-120998429D01*
X172328491Y-120960000D01*
X172131509Y-120960000D01*
X171938311Y-120998429D01*
X171756322Y-121073811D01*
X171592537Y-121183249D01*
X171453249Y-121322537D01*
X171343811Y-121486322D01*
X171268429Y-121668311D01*
X171230000Y-121861509D01*
X170639021Y-121861509D01*
X170603492Y-121682895D01*
X170531879Y-121510006D01*
X170427913Y-121354410D01*
X170295590Y-121222087D01*
X170139994Y-121118121D01*
X169967105Y-121046508D01*
X169783567Y-121010000D01*
X169596433Y-121010000D01*
X169412895Y-121046508D01*
X169240006Y-121118121D01*
X169084410Y-121222087D01*
X168952087Y-121354410D01*
X168848121Y-121510006D01*
X168776508Y-121682895D01*
X168740000Y-121866433D01*
X168099999Y-121866433D01*
X168063491Y-121682895D01*
X167991878Y-121510006D01*
X167887912Y-121354410D01*
X167755589Y-121222087D01*
X167599993Y-121118121D01*
X167427104Y-121046508D01*
X167243566Y-121010000D01*
X167056432Y-121010000D01*
X166872894Y-121046508D01*
X166700005Y-121118121D01*
X166544409Y-121222087D01*
X166412086Y-121354410D01*
X166308120Y-121510006D01*
X166236507Y-121682895D01*
X166199999Y-121866433D01*
X165610000Y-121866433D01*
X165610000Y-121861509D01*
X165571571Y-121668311D01*
X165496189Y-121486322D01*
X165386751Y-121322537D01*
X165247463Y-121183249D01*
X165083678Y-121073811D01*
X164901689Y-120998429D01*
X164708491Y-120960000D01*
X164511509Y-120960000D01*
X164318311Y-120998429D01*
X164136322Y-121073811D01*
X163972537Y-121183249D01*
X163833249Y-121322537D01*
X163723811Y-121486322D01*
X163648429Y-121668311D01*
X163610000Y-121861509D01*
X149770000Y-121861509D01*
X149770000Y-121860031D01*
X149730994Y-121663935D01*
X149654481Y-121479217D01*
X149543402Y-121312975D01*
X149475427Y-121245000D01*
X150228306Y-121245000D01*
X150230000Y-121722500D01*
X150317500Y-121810000D01*
X151145000Y-121810000D01*
X151145000Y-120982500D01*
X151445000Y-120982500D01*
X151445000Y-121810000D01*
X152272500Y-121810000D01*
X152360000Y-121722500D01*
X152361694Y-121245000D01*
X152354936Y-121176388D01*
X152334923Y-121110413D01*
X152302423Y-121049609D01*
X152258685Y-120996315D01*
X152205391Y-120952577D01*
X152144587Y-120920077D01*
X152078612Y-120900064D01*
X152010000Y-120893306D01*
X151532500Y-120895000D01*
X151445000Y-120982500D01*
X151145000Y-120982500D01*
X151057500Y-120895000D01*
X150580000Y-120893306D01*
X150511388Y-120900064D01*
X150445413Y-120920077D01*
X150384609Y-120952577D01*
X150331315Y-120996315D01*
X150287577Y-121049609D01*
X150255077Y-121110413D01*
X150235064Y-121176388D01*
X150228306Y-121245000D01*
X149475427Y-121245000D01*
X149402025Y-121171598D01*
X149235783Y-121060519D01*
X149051065Y-120984006D01*
X148854969Y-120945000D01*
X148655031Y-120945000D01*
X148458935Y-120984006D01*
X148274217Y-121060519D01*
X148107975Y-121171598D01*
X147966598Y-121312975D01*
X147855519Y-121479217D01*
X147779006Y-121663935D01*
X147740000Y-121860031D01*
X147230000Y-121860031D01*
X147190994Y-121663935D01*
X147114481Y-121479217D01*
X147003402Y-121312975D01*
X146862025Y-121171598D01*
X146695783Y-121060519D01*
X146511065Y-120984006D01*
X146314969Y-120945000D01*
X146115031Y-120945000D01*
X145918935Y-120984006D01*
X145734217Y-121060519D01*
X145567975Y-121171598D01*
X145426598Y-121312975D01*
X145315519Y-121479217D01*
X145239006Y-121663935D01*
X145200000Y-121860031D01*
X144690000Y-121860031D01*
X144650994Y-121663935D01*
X144574481Y-121479217D01*
X144463402Y-121312975D01*
X144322025Y-121171598D01*
X144155783Y-121060519D01*
X143971065Y-120984006D01*
X143774969Y-120945000D01*
X143575031Y-120945000D01*
X143378935Y-120984006D01*
X143194217Y-121060519D01*
X143027975Y-121171598D01*
X142886598Y-121312975D01*
X142775519Y-121479217D01*
X142699006Y-121663935D01*
X142660000Y-121860031D01*
X135846990Y-121860031D01*
X135946224Y-121793726D01*
X136043726Y-121696224D01*
X136120332Y-121581574D01*
X136173099Y-121454182D01*
X136200000Y-121318944D01*
X136200000Y-121181056D01*
X136173099Y-121045818D01*
X136120332Y-120918426D01*
X136043726Y-120803776D01*
X135946224Y-120706274D01*
X135831574Y-120629668D01*
X135704182Y-120576901D01*
X135568944Y-120550000D01*
X135431056Y-120550000D01*
X135295818Y-120576901D01*
X135168426Y-120629668D01*
X135053776Y-120706274D01*
X134956274Y-120803776D01*
X134879668Y-120918426D01*
X134826901Y-121045818D01*
X134800000Y-121181056D01*
X90600000Y-121181056D01*
X90600000Y-118798323D01*
X137285000Y-118798323D01*
X137285000Y-119101677D01*
X137344182Y-119399201D01*
X137460270Y-119679463D01*
X137628804Y-119931693D01*
X137843307Y-120146196D01*
X138095537Y-120314730D01*
X138375799Y-120430818D01*
X138673323Y-120490000D01*
X138976677Y-120490000D01*
X139274201Y-120430818D01*
X139554463Y-120314730D01*
X139806693Y-120146196D01*
X140021196Y-119931693D01*
X140189730Y-119679463D01*
X140305818Y-119399201D01*
X140365000Y-119101677D01*
X140365000Y-118798323D01*
X153335000Y-118798323D01*
X153335000Y-119101677D01*
X153394182Y-119399201D01*
X153510270Y-119679463D01*
X153678804Y-119931693D01*
X153893307Y-120146196D01*
X154145537Y-120314730D01*
X154425799Y-120430818D01*
X154723323Y-120490000D01*
X155026677Y-120490000D01*
X155324201Y-120430818D01*
X155604463Y-120314730D01*
X155786832Y-120192875D01*
X186770000Y-120192875D01*
X186770000Y-120307125D01*
X186792289Y-120419180D01*
X186836011Y-120524733D01*
X186899485Y-120619728D01*
X186980272Y-120700515D01*
X187075267Y-120763989D01*
X187180820Y-120807711D01*
X187292875Y-120830000D01*
X187407125Y-120830000D01*
X187519180Y-120807711D01*
X187624733Y-120763989D01*
X187719728Y-120700515D01*
X187800515Y-120619728D01*
X187863989Y-120524733D01*
X187907711Y-120419180D01*
X187930000Y-120307125D01*
X187930000Y-120192875D01*
X187907711Y-120080820D01*
X187863989Y-119975267D01*
X187800515Y-119880272D01*
X187719728Y-119799485D01*
X187624733Y-119736011D01*
X187519180Y-119692289D01*
X187407125Y-119670000D01*
X187292875Y-119670000D01*
X187180820Y-119692289D01*
X187075267Y-119736011D01*
X186980272Y-119799485D01*
X186899485Y-119880272D01*
X186836011Y-119975267D01*
X186792289Y-120080820D01*
X186770000Y-120192875D01*
X155786832Y-120192875D01*
X155856693Y-120146196D01*
X156071196Y-119931693D01*
X156239730Y-119679463D01*
X156355818Y-119399201D01*
X156415000Y-119101677D01*
X156415000Y-118798323D01*
X156355818Y-118500799D01*
X156239730Y-118220537D01*
X156071196Y-117968307D01*
X155856693Y-117753804D01*
X155604463Y-117585270D01*
X155324201Y-117469182D01*
X155026677Y-117410000D01*
X154723323Y-117410000D01*
X154425799Y-117469182D01*
X154145537Y-117585270D01*
X153893307Y-117753804D01*
X153678804Y-117968307D01*
X153510270Y-118220537D01*
X153394182Y-118500799D01*
X153335000Y-118798323D01*
X140365000Y-118798323D01*
X140305818Y-118500799D01*
X140189730Y-118220537D01*
X140021196Y-117968307D01*
X139806693Y-117753804D01*
X139554463Y-117585270D01*
X139274201Y-117469182D01*
X138976677Y-117410000D01*
X138673323Y-117410000D01*
X138375799Y-117469182D01*
X138095537Y-117585270D01*
X137843307Y-117753804D01*
X137628804Y-117968307D01*
X137460270Y-118220537D01*
X137344182Y-118500799D01*
X137285000Y-118798323D01*
X90600000Y-118798323D01*
X90600000Y-117192875D01*
X118670000Y-117192875D01*
X118670000Y-117307125D01*
X118692289Y-117419180D01*
X118736011Y-117524733D01*
X118799485Y-117619728D01*
X118880272Y-117700515D01*
X118975267Y-117763989D01*
X119080820Y-117807711D01*
X119192875Y-117830000D01*
X119307125Y-117830000D01*
X119419180Y-117807711D01*
X119524733Y-117763989D01*
X119619728Y-117700515D01*
X119700515Y-117619728D01*
X119763989Y-117524733D01*
X119807711Y-117419180D01*
X119830000Y-117307125D01*
X119830000Y-117192875D01*
X125995000Y-117192875D01*
X125995000Y-117307125D01*
X126017289Y-117419180D01*
X126061011Y-117524733D01*
X126124485Y-117619728D01*
X126205272Y-117700515D01*
X126300267Y-117763989D01*
X126405820Y-117807711D01*
X126517875Y-117830000D01*
X126632125Y-117830000D01*
X126744180Y-117807711D01*
X126849733Y-117763989D01*
X126944728Y-117700515D01*
X127025515Y-117619728D01*
X127088989Y-117524733D01*
X127132711Y-117419180D01*
X127155000Y-117307125D01*
X127155000Y-117192875D01*
X127132711Y-117080820D01*
X127088989Y-116975267D01*
X127025515Y-116880272D01*
X126944728Y-116799485D01*
X126849733Y-116736011D01*
X126744180Y-116692289D01*
X126632125Y-116670000D01*
X126517875Y-116670000D01*
X126405820Y-116692289D01*
X126300267Y-116736011D01*
X126205272Y-116799485D01*
X126124485Y-116880272D01*
X126061011Y-116975267D01*
X126017289Y-117080820D01*
X125995000Y-117192875D01*
X119830000Y-117192875D01*
X119807711Y-117080820D01*
X119763989Y-116975267D01*
X119700515Y-116880272D01*
X119619728Y-116799485D01*
X119524733Y-116736011D01*
X119419180Y-116692289D01*
X119307125Y-116670000D01*
X119192875Y-116670000D01*
X119080820Y-116692289D01*
X118975267Y-116736011D01*
X118880272Y-116799485D01*
X118799485Y-116880272D01*
X118736011Y-116975267D01*
X118692289Y-117080820D01*
X118670000Y-117192875D01*
X90600000Y-117192875D01*
X90600000Y-116192875D01*
X187670000Y-116192875D01*
X187670000Y-116307125D01*
X187692289Y-116419180D01*
X187736011Y-116524733D01*
X187799485Y-116619728D01*
X187880272Y-116700515D01*
X187975267Y-116763989D01*
X188080820Y-116807711D01*
X188192875Y-116830000D01*
X188307125Y-116830000D01*
X188419180Y-116807711D01*
X188524733Y-116763989D01*
X188619728Y-116700515D01*
X188700515Y-116619728D01*
X188763989Y-116524733D01*
X188807711Y-116419180D01*
X188830000Y-116307125D01*
X188830000Y-116192875D01*
X188807711Y-116080820D01*
X188763989Y-115975267D01*
X188700515Y-115880272D01*
X188619728Y-115799485D01*
X188524733Y-115736011D01*
X188419180Y-115692289D01*
X188307125Y-115670000D01*
X188192875Y-115670000D01*
X188080820Y-115692289D01*
X187975267Y-115736011D01*
X187880272Y-115799485D01*
X187799485Y-115880272D01*
X187736011Y-115975267D01*
X187692289Y-116080820D01*
X187670000Y-116192875D01*
X90600000Y-116192875D01*
X90600000Y-114942875D01*
X97420000Y-114942875D01*
X97420000Y-115057125D01*
X97442289Y-115169180D01*
X97486011Y-115274733D01*
X97549485Y-115369728D01*
X97630272Y-115450515D01*
X97725267Y-115513989D01*
X97830820Y-115557711D01*
X97942875Y-115580000D01*
X98057125Y-115580000D01*
X98169180Y-115557711D01*
X98274733Y-115513989D01*
X98369728Y-115450515D01*
X98450515Y-115369728D01*
X98513989Y-115274733D01*
X98557711Y-115169180D01*
X98580000Y-115057125D01*
X98580000Y-114942875D01*
X98557711Y-114830820D01*
X98513989Y-114725267D01*
X98450515Y-114630272D01*
X98369728Y-114549485D01*
X98274733Y-114486011D01*
X98169180Y-114442289D01*
X98057125Y-114420000D01*
X97942875Y-114420000D01*
X97830820Y-114442289D01*
X97725267Y-114486011D01*
X97630272Y-114549485D01*
X97549485Y-114630272D01*
X97486011Y-114725267D01*
X97442289Y-114830820D01*
X97420000Y-114942875D01*
X90600000Y-114942875D01*
X90600000Y-114192875D01*
X159845000Y-114192875D01*
X159845000Y-114307125D01*
X159867289Y-114419180D01*
X159911011Y-114524733D01*
X159974485Y-114619728D01*
X160055272Y-114700515D01*
X160150267Y-114763989D01*
X160255820Y-114807711D01*
X160367875Y-114830000D01*
X160482125Y-114830000D01*
X160594180Y-114807711D01*
X160699733Y-114763989D01*
X160794728Y-114700515D01*
X160875515Y-114619728D01*
X160938989Y-114524733D01*
X160982711Y-114419180D01*
X161005000Y-114307125D01*
X161005000Y-114192875D01*
X165170000Y-114192875D01*
X165170000Y-114307125D01*
X165192289Y-114419180D01*
X165236011Y-114524733D01*
X165299485Y-114619728D01*
X165380272Y-114700515D01*
X165475267Y-114763989D01*
X165580820Y-114807711D01*
X165692875Y-114830000D01*
X165807125Y-114830000D01*
X165919180Y-114807711D01*
X166024733Y-114763989D01*
X166119728Y-114700515D01*
X166200515Y-114619728D01*
X166263989Y-114524733D01*
X166307711Y-114419180D01*
X166330000Y-114307125D01*
X166330000Y-114192875D01*
X167270000Y-114192875D01*
X167270000Y-114307125D01*
X167292289Y-114419180D01*
X167336011Y-114524733D01*
X167399485Y-114619728D01*
X167480272Y-114700515D01*
X167575267Y-114763989D01*
X167680820Y-114807711D01*
X167792875Y-114830000D01*
X167907125Y-114830000D01*
X168019180Y-114807711D01*
X168124733Y-114763989D01*
X168219728Y-114700515D01*
X168300515Y-114619728D01*
X168363989Y-114524733D01*
X168407711Y-114419180D01*
X168430000Y-114307125D01*
X168430000Y-114192875D01*
X172570000Y-114192875D01*
X172570000Y-114307125D01*
X172592289Y-114419180D01*
X172636011Y-114524733D01*
X172699485Y-114619728D01*
X172780272Y-114700515D01*
X172875267Y-114763989D01*
X172980820Y-114807711D01*
X173092875Y-114830000D01*
X173207125Y-114830000D01*
X173319180Y-114807711D01*
X173424733Y-114763989D01*
X173519728Y-114700515D01*
X173527368Y-114692875D01*
X175670000Y-114692875D01*
X175670000Y-114807125D01*
X175692289Y-114919180D01*
X175736011Y-115024733D01*
X175799485Y-115119728D01*
X175880272Y-115200515D01*
X175975267Y-115263989D01*
X176080820Y-115307711D01*
X176192875Y-115330000D01*
X176307125Y-115330000D01*
X176419180Y-115307711D01*
X176524733Y-115263989D01*
X176619728Y-115200515D01*
X176627368Y-115192875D01*
X188670000Y-115192875D01*
X188670000Y-115307125D01*
X188692289Y-115419180D01*
X188736011Y-115524733D01*
X188799485Y-115619728D01*
X188880272Y-115700515D01*
X188975267Y-115763989D01*
X189080820Y-115807711D01*
X189192875Y-115830000D01*
X189307125Y-115830000D01*
X189419180Y-115807711D01*
X189524733Y-115763989D01*
X189619728Y-115700515D01*
X189700515Y-115619728D01*
X189763989Y-115524733D01*
X189807711Y-115419180D01*
X189830000Y-115307125D01*
X189830000Y-115192875D01*
X189807711Y-115080820D01*
X189763989Y-114975267D01*
X189700515Y-114880272D01*
X189619728Y-114799485D01*
X189524733Y-114736011D01*
X189419180Y-114692289D01*
X189307125Y-114670000D01*
X189192875Y-114670000D01*
X189080820Y-114692289D01*
X188975267Y-114736011D01*
X188880272Y-114799485D01*
X188799485Y-114880272D01*
X188736011Y-114975267D01*
X188692289Y-115080820D01*
X188670000Y-115192875D01*
X176627368Y-115192875D01*
X176700515Y-115119728D01*
X176763989Y-115024733D01*
X176807711Y-114919180D01*
X176830000Y-114807125D01*
X176830000Y-114692875D01*
X176807711Y-114580820D01*
X176763989Y-114475267D01*
X176700515Y-114380272D01*
X176619728Y-114299485D01*
X176524733Y-114236011D01*
X176419180Y-114192289D01*
X176307125Y-114170000D01*
X176192875Y-114170000D01*
X176080820Y-114192289D01*
X175975267Y-114236011D01*
X175880272Y-114299485D01*
X175799485Y-114380272D01*
X175736011Y-114475267D01*
X175692289Y-114580820D01*
X175670000Y-114692875D01*
X173527368Y-114692875D01*
X173600515Y-114619728D01*
X173663989Y-114524733D01*
X173707711Y-114419180D01*
X173730000Y-114307125D01*
X173730000Y-114192875D01*
X173707711Y-114080820D01*
X173663989Y-113975267D01*
X173600515Y-113880272D01*
X173519728Y-113799485D01*
X173424733Y-113736011D01*
X173319180Y-113692289D01*
X173207125Y-113670000D01*
X173092875Y-113670000D01*
X172980820Y-113692289D01*
X172875267Y-113736011D01*
X172780272Y-113799485D01*
X172699485Y-113880272D01*
X172636011Y-113975267D01*
X172592289Y-114080820D01*
X172570000Y-114192875D01*
X168430000Y-114192875D01*
X168407711Y-114080820D01*
X168363989Y-113975267D01*
X168300515Y-113880272D01*
X168219728Y-113799485D01*
X168124733Y-113736011D01*
X168019180Y-113692289D01*
X167907125Y-113670000D01*
X167792875Y-113670000D01*
X167680820Y-113692289D01*
X167575267Y-113736011D01*
X167480272Y-113799485D01*
X167399485Y-113880272D01*
X167336011Y-113975267D01*
X167292289Y-114080820D01*
X167270000Y-114192875D01*
X166330000Y-114192875D01*
X166307711Y-114080820D01*
X166263989Y-113975267D01*
X166200515Y-113880272D01*
X166119728Y-113799485D01*
X166024733Y-113736011D01*
X165919180Y-113692289D01*
X165807125Y-113670000D01*
X165692875Y-113670000D01*
X165580820Y-113692289D01*
X165475267Y-113736011D01*
X165380272Y-113799485D01*
X165299485Y-113880272D01*
X165236011Y-113975267D01*
X165192289Y-114080820D01*
X165170000Y-114192875D01*
X161005000Y-114192875D01*
X160982711Y-114080820D01*
X160938989Y-113975267D01*
X160875515Y-113880272D01*
X160794728Y-113799485D01*
X160699733Y-113736011D01*
X160594180Y-113692289D01*
X160482125Y-113670000D01*
X160367875Y-113670000D01*
X160255820Y-113692289D01*
X160150267Y-113736011D01*
X160055272Y-113799485D01*
X159974485Y-113880272D01*
X159911011Y-113975267D01*
X159867289Y-114080820D01*
X159845000Y-114192875D01*
X90600000Y-114192875D01*
X90600000Y-113192875D01*
X101670000Y-113192875D01*
X101670000Y-113307125D01*
X101692289Y-113419180D01*
X101736011Y-113524733D01*
X101799485Y-113619728D01*
X101880272Y-113700515D01*
X101975267Y-113763989D01*
X102080820Y-113807711D01*
X102192875Y-113830000D01*
X102307125Y-113830000D01*
X102419180Y-113807711D01*
X102524733Y-113763989D01*
X102619728Y-113700515D01*
X102700515Y-113619728D01*
X102763989Y-113524733D01*
X102807711Y-113419180D01*
X102830000Y-113307125D01*
X102830000Y-113192875D01*
X102807711Y-113080820D01*
X102763989Y-112975267D01*
X102700515Y-112880272D01*
X102619728Y-112799485D01*
X102524733Y-112736011D01*
X102419180Y-112692289D01*
X102307125Y-112670000D01*
X102192875Y-112670000D01*
X102080820Y-112692289D01*
X101975267Y-112736011D01*
X101880272Y-112799485D01*
X101799485Y-112880272D01*
X101736011Y-112975267D01*
X101692289Y-113080820D01*
X101670000Y-113192875D01*
X90600000Y-113192875D01*
X90600000Y-112541422D01*
X91041422Y-112100000D01*
X96500000Y-112100000D01*
X96519509Y-112098079D01*
X96538268Y-112092388D01*
X96555557Y-112083147D01*
X96570711Y-112070711D01*
X96583147Y-112055557D01*
X96592388Y-112038268D01*
X96598079Y-112019509D01*
X96600000Y-112000000D01*
X96600000Y-110192875D01*
X175670000Y-110192875D01*
X175670000Y-110307125D01*
X175692289Y-110419180D01*
X175736011Y-110524733D01*
X175799485Y-110619728D01*
X175880272Y-110700515D01*
X175975267Y-110763989D01*
X176080820Y-110807711D01*
X176192875Y-110830000D01*
X176307125Y-110830000D01*
X176419180Y-110807711D01*
X176524733Y-110763989D01*
X176619728Y-110700515D01*
X176700515Y-110619728D01*
X176763989Y-110524733D01*
X176807711Y-110419180D01*
X176830000Y-110307125D01*
X176830000Y-110192875D01*
X176807711Y-110080820D01*
X176763989Y-109975267D01*
X176700515Y-109880272D01*
X176619728Y-109799485D01*
X176524733Y-109736011D01*
X176419180Y-109692289D01*
X176307125Y-109670000D01*
X176192875Y-109670000D01*
X176080820Y-109692289D01*
X175975267Y-109736011D01*
X175880272Y-109799485D01*
X175799485Y-109880272D01*
X175736011Y-109975267D01*
X175692289Y-110080820D01*
X175670000Y-110192875D01*
X96600000Y-110192875D01*
X96600000Y-108692875D01*
X99420000Y-108692875D01*
X99420000Y-108807125D01*
X99442289Y-108919180D01*
X99486011Y-109024733D01*
X99549485Y-109119728D01*
X99630272Y-109200515D01*
X99725267Y-109263989D01*
X99830820Y-109307711D01*
X99942875Y-109330000D01*
X100057125Y-109330000D01*
X100169180Y-109307711D01*
X100274733Y-109263989D01*
X100369728Y-109200515D01*
X100450515Y-109119728D01*
X100513989Y-109024733D01*
X100557711Y-108919180D01*
X100580000Y-108807125D01*
X100580000Y-108692875D01*
X100557711Y-108580820D01*
X100513989Y-108475267D01*
X100450515Y-108380272D01*
X100369728Y-108299485D01*
X100274733Y-108236011D01*
X100169180Y-108192289D01*
X100057125Y-108170000D01*
X99942875Y-108170000D01*
X99830820Y-108192289D01*
X99725267Y-108236011D01*
X99630272Y-108299485D01*
X99549485Y-108380272D01*
X99486011Y-108475267D01*
X99442289Y-108580820D01*
X99420000Y-108692875D01*
X96600000Y-108692875D01*
X96600000Y-107192875D01*
X118670000Y-107192875D01*
X118670000Y-107307125D01*
X118692289Y-107419180D01*
X118736011Y-107524733D01*
X118799485Y-107619728D01*
X118880272Y-107700515D01*
X118975267Y-107763989D01*
X119080820Y-107807711D01*
X119192875Y-107830000D01*
X119307125Y-107830000D01*
X119419180Y-107807711D01*
X119524733Y-107763989D01*
X119619728Y-107700515D01*
X119700515Y-107619728D01*
X119763989Y-107524733D01*
X119807711Y-107419180D01*
X119830000Y-107307125D01*
X119830000Y-107192875D01*
X119807711Y-107080820D01*
X119763989Y-106975267D01*
X119700515Y-106880272D01*
X119619728Y-106799485D01*
X119524733Y-106736011D01*
X119419180Y-106692289D01*
X119307125Y-106670000D01*
X119192875Y-106670000D01*
X119080820Y-106692289D01*
X118975267Y-106736011D01*
X118880272Y-106799485D01*
X118799485Y-106880272D01*
X118736011Y-106975267D01*
X118692289Y-107080820D01*
X118670000Y-107192875D01*
X96600000Y-107192875D01*
X96600000Y-95942875D01*
X126020000Y-95942875D01*
X126020000Y-96057125D01*
X126042289Y-96169180D01*
X126086011Y-96274733D01*
X126149485Y-96369728D01*
X126230272Y-96450515D01*
X126325267Y-96513989D01*
X126430820Y-96557711D01*
X126542875Y-96580000D01*
X126657125Y-96580000D01*
X126769180Y-96557711D01*
X126874733Y-96513989D01*
X126969728Y-96450515D01*
X127050515Y-96369728D01*
X127113989Y-96274733D01*
X127157711Y-96169180D01*
X127180000Y-96057125D01*
X127180000Y-95942875D01*
X127157711Y-95830820D01*
X127113989Y-95725267D01*
X127050515Y-95630272D01*
X126969728Y-95549485D01*
X126874733Y-95486011D01*
X126769180Y-95442289D01*
X126657125Y-95420000D01*
X126542875Y-95420000D01*
X126430820Y-95442289D01*
X126325267Y-95486011D01*
X126230272Y-95549485D01*
X126149485Y-95630272D01*
X126086011Y-95725267D01*
X126042289Y-95830820D01*
X126020000Y-95942875D01*
X96600000Y-95942875D01*
X96600000Y-93431056D01*
X120550000Y-93431056D01*
X120550000Y-93568944D01*
X120576901Y-93704182D01*
X120629668Y-93831574D01*
X120706274Y-93946224D01*
X120803776Y-94043726D01*
X120918426Y-94120332D01*
X121045818Y-94173099D01*
X121181056Y-94200000D01*
X121318944Y-94200000D01*
X121454182Y-94173099D01*
X121581574Y-94120332D01*
X121696224Y-94043726D01*
X121793726Y-93946224D01*
X121870332Y-93831574D01*
X121923099Y-93704182D01*
X121950000Y-93568944D01*
X121950000Y-93431056D01*
X121923099Y-93295818D01*
X121870332Y-93168426D01*
X121793726Y-93053776D01*
X121696224Y-92956274D01*
X121581574Y-92879668D01*
X121454182Y-92826901D01*
X121318944Y-92800000D01*
X121181056Y-92800000D01*
X121045818Y-92826901D01*
X120918426Y-92879668D01*
X120803776Y-92956274D01*
X120706274Y-93053776D01*
X120629668Y-93168426D01*
X120576901Y-93295818D01*
X120550000Y-93431056D01*
X96600000Y-93431056D01*
X96600000Y-91192886D01*
X113420000Y-91192886D01*
X113420000Y-91307136D01*
X113442289Y-91419191D01*
X113486011Y-91524744D01*
X113549485Y-91619739D01*
X113630272Y-91700526D01*
X113725267Y-91764000D01*
X113830820Y-91807722D01*
X113942875Y-91830011D01*
X114057125Y-91830011D01*
X114169180Y-91807722D01*
X114274733Y-91764000D01*
X114369728Y-91700526D01*
X114450515Y-91619739D01*
X114513989Y-91524744D01*
X114557711Y-91419191D01*
X114580000Y-91307136D01*
X114580000Y-91192886D01*
X114557711Y-91080831D01*
X114513989Y-90975278D01*
X114492338Y-90942875D01*
X126670000Y-90942875D01*
X126670000Y-91057125D01*
X126692289Y-91169180D01*
X126736011Y-91274733D01*
X126799485Y-91369728D01*
X126880272Y-91450515D01*
X126975267Y-91513989D01*
X127080820Y-91557711D01*
X127192875Y-91580000D01*
X127307125Y-91580000D01*
X127419180Y-91557711D01*
X127524733Y-91513989D01*
X127619728Y-91450515D01*
X127700515Y-91369728D01*
X127763989Y-91274733D01*
X127807711Y-91169180D01*
X127830000Y-91057125D01*
X127830000Y-90942875D01*
X127807711Y-90830820D01*
X127763989Y-90725267D01*
X127700515Y-90630272D01*
X127619728Y-90549485D01*
X127524733Y-90486011D01*
X127419180Y-90442289D01*
X127307125Y-90420000D01*
X127192875Y-90420000D01*
X127080820Y-90442289D01*
X126975267Y-90486011D01*
X126880272Y-90549485D01*
X126799485Y-90630272D01*
X126736011Y-90725267D01*
X126692289Y-90830820D01*
X126670000Y-90942875D01*
X114492338Y-90942875D01*
X114450515Y-90880283D01*
X114369728Y-90799496D01*
X114274733Y-90736022D01*
X114169180Y-90692300D01*
X114057125Y-90670011D01*
X113942875Y-90670011D01*
X113830820Y-90692300D01*
X113725267Y-90736022D01*
X113630272Y-90799496D01*
X113549485Y-90880283D01*
X113486011Y-90975278D01*
X113442289Y-91080831D01*
X113420000Y-91192886D01*
X96600000Y-91192886D01*
X96600000Y-90500000D01*
X96598079Y-90480491D01*
X96592388Y-90461732D01*
X96583147Y-90444443D01*
X96570711Y-90429289D01*
X96555557Y-90416853D01*
X96538268Y-90407612D01*
X96519509Y-90401921D01*
X96500000Y-90400000D01*
X91041422Y-90400000D01*
X90600000Y-89958578D01*
X90600000Y-87421207D01*
X99180000Y-87421207D01*
X99180000Y-87578793D01*
X99210743Y-87733351D01*
X99271049Y-87878942D01*
X99358599Y-88009970D01*
X99470030Y-88121401D01*
X99490382Y-88135000D01*
X99470030Y-88148599D01*
X99358599Y-88260030D01*
X99271049Y-88391058D01*
X99210743Y-88536649D01*
X99180000Y-88691207D01*
X99180000Y-88848793D01*
X99210743Y-89003351D01*
X99271049Y-89148942D01*
X99358599Y-89279970D01*
X99470030Y-89391401D01*
X99601058Y-89478951D01*
X99746649Y-89539257D01*
X99901207Y-89570000D01*
X100058793Y-89570000D01*
X100213351Y-89539257D01*
X100358942Y-89478951D01*
X100489970Y-89391401D01*
X100601401Y-89279970D01*
X100615000Y-89259618D01*
X100628599Y-89279970D01*
X100740030Y-89391401D01*
X100871058Y-89478951D01*
X101016649Y-89539257D01*
X101171207Y-89570000D01*
X101328793Y-89570000D01*
X101483351Y-89539257D01*
X101628942Y-89478951D01*
X101759970Y-89391401D01*
X101871401Y-89279970D01*
X101885000Y-89259618D01*
X101898599Y-89279970D01*
X102010030Y-89391401D01*
X102141058Y-89478951D01*
X102286649Y-89539257D01*
X102441207Y-89570000D01*
X102598793Y-89570000D01*
X102753351Y-89539257D01*
X102898942Y-89478951D01*
X103029970Y-89391401D01*
X103141401Y-89279970D01*
X103228951Y-89148942D01*
X103289257Y-89003351D01*
X103320000Y-88848793D01*
X103320000Y-88691207D01*
X103289257Y-88536649D01*
X103228951Y-88391058D01*
X103141401Y-88260030D01*
X103029970Y-88148599D01*
X103009618Y-88135000D01*
X103029970Y-88121401D01*
X103141401Y-88009970D01*
X103228951Y-87878942D01*
X103289257Y-87733351D01*
X103320000Y-87578793D01*
X103320000Y-87421207D01*
X103289257Y-87266649D01*
X103228951Y-87121058D01*
X103141401Y-86990030D01*
X103029970Y-86878599D01*
X102898942Y-86791049D01*
X102753351Y-86730743D01*
X102598793Y-86700000D01*
X102441207Y-86700000D01*
X102286649Y-86730743D01*
X102141058Y-86791049D01*
X102010030Y-86878599D01*
X101898599Y-86990030D01*
X101811049Y-87121058D01*
X101789818Y-87172314D01*
X101462132Y-87500000D01*
X101789818Y-87827686D01*
X101811049Y-87878942D01*
X101898599Y-88009970D01*
X102010030Y-88121401D01*
X102030382Y-88135000D01*
X102010030Y-88148599D01*
X101898599Y-88260030D01*
X101885000Y-88280382D01*
X101871401Y-88260030D01*
X101759970Y-88148599D01*
X101628942Y-88061049D01*
X101577686Y-88039818D01*
X101250000Y-87712132D01*
X100922314Y-88039818D01*
X100871058Y-88061049D01*
X100740030Y-88148599D01*
X100628599Y-88260030D01*
X100615000Y-88280382D01*
X100601401Y-88260030D01*
X100489970Y-88148599D01*
X100469618Y-88135000D01*
X100489970Y-88121401D01*
X100601401Y-88009970D01*
X100688951Y-87878942D01*
X100710182Y-87827686D01*
X101037868Y-87500000D01*
X100710182Y-87172314D01*
X100688951Y-87121058D01*
X100601401Y-86990030D01*
X100489970Y-86878599D01*
X100465630Y-86862335D01*
X100824467Y-86862335D01*
X101250000Y-87287868D01*
X101675533Y-86862335D01*
X101622880Y-86731580D01*
X101465804Y-86673599D01*
X101300434Y-86647377D01*
X101133127Y-86653921D01*
X100970311Y-86692979D01*
X100877120Y-86731580D01*
X100824467Y-86862335D01*
X100465630Y-86862335D01*
X100358942Y-86791049D01*
X100213351Y-86730743D01*
X100058793Y-86700000D01*
X99901207Y-86700000D01*
X99746649Y-86730743D01*
X99601058Y-86791049D01*
X99470030Y-86878599D01*
X99358599Y-86990030D01*
X99271049Y-87121058D01*
X99210743Y-87266649D01*
X99180000Y-87421207D01*
X90600000Y-87421207D01*
X90600000Y-84192875D01*
X98920000Y-84192875D01*
X98920000Y-84307125D01*
X98942289Y-84419180D01*
X98986011Y-84524733D01*
X99049485Y-84619728D01*
X99130272Y-84700515D01*
X99225267Y-84763989D01*
X99330820Y-84807711D01*
X99442875Y-84830000D01*
X99557125Y-84830000D01*
X99669180Y-84807711D01*
X99774733Y-84763989D01*
X99869728Y-84700515D01*
X99950515Y-84619728D01*
X100013989Y-84524733D01*
X100057711Y-84419180D01*
X100080000Y-84307125D01*
X100080000Y-84192875D01*
X100057711Y-84080820D01*
X100013989Y-83975267D01*
X99950515Y-83880272D01*
X99869728Y-83799485D01*
X99774733Y-83736011D01*
X99669180Y-83692289D01*
X99557125Y-83670000D01*
X99442875Y-83670000D01*
X99330820Y-83692289D01*
X99225267Y-83736011D01*
X99130272Y-83799485D01*
X99049485Y-83880272D01*
X98986011Y-83975267D01*
X98942289Y-84080820D01*
X98920000Y-84192875D01*
X90600000Y-84192875D01*
X90600000Y-81542875D01*
X92670000Y-81542875D01*
X92670000Y-81657125D01*
X92692289Y-81769180D01*
X92736011Y-81874733D01*
X92799485Y-81969728D01*
X92880272Y-82050515D01*
X92975267Y-82113989D01*
X93080820Y-82157711D01*
X93192875Y-82180000D01*
X93307125Y-82180000D01*
X93419180Y-82157711D01*
X93524733Y-82113989D01*
X93619728Y-82050515D01*
X93700515Y-81969728D01*
X93763989Y-81874733D01*
X93807711Y-81769180D01*
X93830000Y-81657125D01*
X93830000Y-81542875D01*
X96820000Y-81542875D01*
X96820000Y-81657125D01*
X96842289Y-81769180D01*
X96886011Y-81874733D01*
X96949485Y-81969728D01*
X97030272Y-82050515D01*
X97125267Y-82113989D01*
X97230820Y-82157711D01*
X97342875Y-82180000D01*
X97457125Y-82180000D01*
X97569180Y-82157711D01*
X97674733Y-82113989D01*
X97769728Y-82050515D01*
X97850515Y-81969728D01*
X97913989Y-81874733D01*
X97957711Y-81769180D01*
X97980000Y-81657125D01*
X97980000Y-81542875D01*
X97957711Y-81430820D01*
X97913989Y-81325267D01*
X97850515Y-81230272D01*
X97769728Y-81149485D01*
X97674733Y-81086011D01*
X97569180Y-81042289D01*
X97457125Y-81020000D01*
X97342875Y-81020000D01*
X97230820Y-81042289D01*
X97125267Y-81086011D01*
X97030272Y-81149485D01*
X96949485Y-81230272D01*
X96886011Y-81325267D01*
X96842289Y-81430820D01*
X96820000Y-81542875D01*
X93830000Y-81542875D01*
X93807711Y-81430820D01*
X93763989Y-81325267D01*
X93700515Y-81230272D01*
X93619728Y-81149485D01*
X93524733Y-81086011D01*
X93419180Y-81042289D01*
X93307125Y-81020000D01*
X93192875Y-81020000D01*
X93080820Y-81042289D01*
X92975267Y-81086011D01*
X92880272Y-81149485D01*
X92799485Y-81230272D01*
X92736011Y-81325267D01*
X92692289Y-81430820D01*
X92670000Y-81542875D01*
X90600000Y-81542875D01*
X90600000Y-76791422D01*
X91041422Y-76350000D01*
X97958578Y-76350000D01*
X98400000Y-76791422D01*
X98400000Y-79000000D01*
X98401921Y-79019509D01*
X98407612Y-79038268D01*
X98416853Y-79055557D01*
X98429289Y-79070711D01*
X101929289Y-82570711D01*
X101944443Y-82583147D01*
X101961732Y-82592388D01*
X101980491Y-82598079D01*
X102000000Y-82600000D01*
X115458578Y-82600000D01*
X115900000Y-83041422D01*
X115900000Y-85750000D01*
X115901921Y-85769509D01*
X115907612Y-85788268D01*
X115916853Y-85805557D01*
X115929289Y-85820711D01*
X116929289Y-86820711D01*
X116944443Y-86833147D01*
X116961732Y-86842388D01*
X116980491Y-86848079D01*
X117000000Y-86850000D01*
X123708578Y-86850000D01*
X124679289Y-87820711D01*
X124694443Y-87833147D01*
X124711732Y-87842388D01*
X124730491Y-87848079D01*
X124750000Y-87850000D01*
X134208578Y-87850000D01*
X135150000Y-88791422D01*
X135150000Y-92708578D01*
X134208578Y-93650000D01*
X130250000Y-93650000D01*
X130230491Y-93651921D01*
X130211732Y-93657612D01*
X130194443Y-93666853D01*
X130179289Y-93679289D01*
X128679289Y-95179289D01*
X128666853Y-95194443D01*
X128657612Y-95211732D01*
X128651921Y-95230491D01*
X128650000Y-95250000D01*
X128650000Y-105250000D01*
X128651921Y-105269509D01*
X128657612Y-105288268D01*
X128666853Y-105305557D01*
X128679289Y-105320711D01*
X129679289Y-106320711D01*
X129694443Y-106333147D01*
X129711732Y-106342388D01*
X129730491Y-106348079D01*
X129750000Y-106350000D01*
X153250000Y-106350000D01*
X153269509Y-106348079D01*
X153288268Y-106342388D01*
X153305557Y-106333147D01*
X153320711Y-106320711D01*
X156948547Y-102692875D01*
X191420000Y-102692875D01*
X191420000Y-102807125D01*
X191442289Y-102919180D01*
X191486011Y-103024733D01*
X191549485Y-103119728D01*
X191630272Y-103200515D01*
X191725267Y-103263989D01*
X191830820Y-103307711D01*
X191942875Y-103330000D01*
X192057125Y-103330000D01*
X192169180Y-103307711D01*
X192274733Y-103263989D01*
X192369728Y-103200515D01*
X192450515Y-103119728D01*
X192513989Y-103024733D01*
X192557711Y-102919180D01*
X192580000Y-102807125D01*
X192580000Y-102692875D01*
X192557711Y-102580820D01*
X192513989Y-102475267D01*
X192450515Y-102380272D01*
X192369728Y-102299485D01*
X192274733Y-102236011D01*
X192169180Y-102192289D01*
X192057125Y-102170000D01*
X191942875Y-102170000D01*
X191830820Y-102192289D01*
X191725267Y-102236011D01*
X191630272Y-102299485D01*
X191549485Y-102380272D01*
X191486011Y-102475267D01*
X191442289Y-102580820D01*
X191420000Y-102692875D01*
X156948547Y-102692875D01*
X160210366Y-99431056D01*
X166300000Y-99431056D01*
X166300000Y-99568944D01*
X166326901Y-99704182D01*
X166379668Y-99831574D01*
X166456274Y-99946224D01*
X166553776Y-100043726D01*
X166668426Y-100120332D01*
X166795818Y-100173099D01*
X166931056Y-100200000D01*
X167068944Y-100200000D01*
X167204182Y-100173099D01*
X167331574Y-100120332D01*
X167446224Y-100043726D01*
X167543726Y-99946224D01*
X167620332Y-99831574D01*
X167673099Y-99704182D01*
X167700000Y-99568944D01*
X167700000Y-99431056D01*
X167673099Y-99295818D01*
X167620332Y-99168426D01*
X167543726Y-99053776D01*
X167446224Y-98956274D01*
X167331574Y-98879668D01*
X167204182Y-98826901D01*
X167068944Y-98800000D01*
X166931056Y-98800000D01*
X166795818Y-98826901D01*
X166668426Y-98879668D01*
X166553776Y-98956274D01*
X166456274Y-99053776D01*
X166379668Y-99168426D01*
X166326901Y-99295818D01*
X166300000Y-99431056D01*
X160210366Y-99431056D01*
X161320711Y-98320711D01*
X161333147Y-98305557D01*
X161342388Y-98288268D01*
X161348079Y-98269509D01*
X161350000Y-98250000D01*
X161350000Y-96969955D01*
X161520744Y-97084043D01*
X161712559Y-97163496D01*
X161916190Y-97204000D01*
X162123810Y-97204000D01*
X162327441Y-97163496D01*
X162519256Y-97084043D01*
X162691886Y-96968695D01*
X162756581Y-96904000D01*
X163454306Y-96904000D01*
X163461064Y-96972612D01*
X163481077Y-97038587D01*
X163513577Y-97099391D01*
X163557315Y-97152685D01*
X163610609Y-97196423D01*
X163671413Y-97228923D01*
X163737388Y-97248936D01*
X163806000Y-97255694D01*
X164322500Y-97254000D01*
X164410000Y-97166500D01*
X164410000Y-96300000D01*
X164710000Y-96300000D01*
X164710000Y-97166500D01*
X164797500Y-97254000D01*
X165314000Y-97255694D01*
X165382612Y-97248936D01*
X165448587Y-97228923D01*
X165509391Y-97196423D01*
X165562685Y-97152685D01*
X165606423Y-97099391D01*
X165638923Y-97038587D01*
X165658936Y-96972612D01*
X165665694Y-96904000D01*
X165664000Y-96387500D01*
X165576500Y-96300000D01*
X164710000Y-96300000D01*
X164410000Y-96300000D01*
X163543500Y-96300000D01*
X163456000Y-96387500D01*
X163454306Y-96904000D01*
X162756581Y-96904000D01*
X162838695Y-96821886D01*
X162954043Y-96649256D01*
X163033496Y-96457441D01*
X163074000Y-96253810D01*
X163074000Y-96046190D01*
X163033496Y-95842559D01*
X162954043Y-95650744D01*
X162838695Y-95478114D01*
X162756581Y-95396000D01*
X163454306Y-95396000D01*
X163456000Y-95912500D01*
X163543500Y-96000000D01*
X164410000Y-96000000D01*
X164410000Y-95133500D01*
X164710000Y-95133500D01*
X164710000Y-96000000D01*
X165576500Y-96000000D01*
X165664000Y-95912500D01*
X165665694Y-95396000D01*
X165658936Y-95327388D01*
X165638923Y-95261413D01*
X165606423Y-95200609D01*
X165562685Y-95147315D01*
X165509391Y-95103577D01*
X165448587Y-95071077D01*
X165382612Y-95051064D01*
X165314000Y-95044306D01*
X164797500Y-95046000D01*
X164710000Y-95133500D01*
X164410000Y-95133500D01*
X164322500Y-95046000D01*
X163806000Y-95044306D01*
X163737388Y-95051064D01*
X163671413Y-95071077D01*
X163610609Y-95103577D01*
X163557315Y-95147315D01*
X163513577Y-95200609D01*
X163481077Y-95261413D01*
X163461064Y-95327388D01*
X163454306Y-95396000D01*
X162756581Y-95396000D01*
X162691886Y-95331305D01*
X162519256Y-95215957D01*
X162327441Y-95136504D01*
X162123810Y-95096000D01*
X161916190Y-95096000D01*
X161712559Y-95136504D01*
X161520744Y-95215957D01*
X161350000Y-95330045D01*
X161350000Y-95041422D01*
X161791422Y-94600000D01*
X170250000Y-94600000D01*
X170269509Y-94598079D01*
X170288268Y-94592388D01*
X170305557Y-94583147D01*
X170320711Y-94570711D01*
X171320711Y-93570711D01*
X171333147Y-93555557D01*
X171342388Y-93538268D01*
X171348079Y-93519509D01*
X171350000Y-93500000D01*
X171350000Y-92192875D01*
X171920000Y-92192875D01*
X171920000Y-92307125D01*
X171942289Y-92419180D01*
X171986011Y-92524733D01*
X172049485Y-92619728D01*
X172130272Y-92700515D01*
X172225267Y-92763989D01*
X172330820Y-92807711D01*
X172442875Y-92830000D01*
X172557125Y-92830000D01*
X172669180Y-92807711D01*
X172774733Y-92763989D01*
X172869728Y-92700515D01*
X172950515Y-92619728D01*
X173013989Y-92524733D01*
X173057711Y-92419180D01*
X173080000Y-92307125D01*
X173080000Y-92192875D01*
X173057711Y-92080820D01*
X173013989Y-91975267D01*
X172950515Y-91880272D01*
X172869728Y-91799485D01*
X172774733Y-91736011D01*
X172669180Y-91692289D01*
X172557125Y-91670000D01*
X172442875Y-91670000D01*
X172330820Y-91692289D01*
X172225267Y-91736011D01*
X172130272Y-91799485D01*
X172049485Y-91880272D01*
X171986011Y-91975267D01*
X171942289Y-92080820D01*
X171920000Y-92192875D01*
X171350000Y-92192875D01*
X171350000Y-84541422D01*
X175157196Y-80734226D01*
X187737907Y-80734226D01*
X187848752Y-80913444D01*
X188087363Y-81019212D01*
X188342023Y-81076397D01*
X188602947Y-81082802D01*
X188860107Y-81038180D01*
X189103620Y-80944246D01*
X189161248Y-80913444D01*
X189272093Y-80734226D01*
X188505000Y-79967132D01*
X187737907Y-80734226D01*
X175157196Y-80734226D01*
X176038475Y-79852947D01*
X187177198Y-79852947D01*
X187221820Y-80110107D01*
X187315754Y-80353620D01*
X187346556Y-80411248D01*
X187525774Y-80522093D01*
X188292868Y-79755000D01*
X188717132Y-79755000D01*
X189484226Y-80522093D01*
X189663444Y-80411248D01*
X189769212Y-80172637D01*
X189826397Y-79917977D01*
X189832802Y-79657053D01*
X189788180Y-79399893D01*
X189694246Y-79156380D01*
X189663444Y-79098752D01*
X189484226Y-78987907D01*
X188717132Y-79755000D01*
X188292868Y-79755000D01*
X187525774Y-78987907D01*
X187346556Y-79098752D01*
X187240788Y-79337363D01*
X187183603Y-79592023D01*
X187177198Y-79852947D01*
X176038475Y-79852947D01*
X177115648Y-78775774D01*
X187737907Y-78775774D01*
X188505000Y-79542868D01*
X189272093Y-78775774D01*
X189161248Y-78596556D01*
X188922637Y-78490788D01*
X188667977Y-78433603D01*
X188407053Y-78427198D01*
X188149893Y-78471820D01*
X187906380Y-78565754D01*
X187848752Y-78596556D01*
X187737907Y-78775774D01*
X177115648Y-78775774D01*
X177494740Y-78396682D01*
X189946000Y-78396682D01*
X189946000Y-78603318D01*
X189986312Y-78805982D01*
X190065388Y-78996888D01*
X190180188Y-79168699D01*
X190326301Y-79314812D01*
X190498112Y-79429612D01*
X190689018Y-79508688D01*
X190891682Y-79549000D01*
X191098318Y-79549000D01*
X191300982Y-79508688D01*
X191491888Y-79429612D01*
X191663699Y-79314812D01*
X191809812Y-79168699D01*
X191924612Y-78996888D01*
X192003688Y-78805982D01*
X192044000Y-78603318D01*
X192044000Y-78396682D01*
X192003688Y-78194018D01*
X191924612Y-78003112D01*
X191809812Y-77831301D01*
X191663699Y-77685188D01*
X191491888Y-77570388D01*
X191300982Y-77491312D01*
X191098318Y-77451000D01*
X190891682Y-77451000D01*
X190689018Y-77491312D01*
X190498112Y-77570388D01*
X190326301Y-77685188D01*
X190180188Y-77831301D01*
X190065388Y-78003112D01*
X189986312Y-78194018D01*
X189946000Y-78396682D01*
X177494740Y-78396682D01*
X180070711Y-75820711D01*
X180083147Y-75805557D01*
X180092388Y-75788268D01*
X180098079Y-75769509D01*
X180100000Y-75750000D01*
X180100000Y-74817198D01*
X190389934Y-74817198D01*
X190473267Y-74973300D01*
X190673173Y-75056384D01*
X190885447Y-75098871D01*
X191101931Y-75099129D01*
X191314305Y-75057149D01*
X191514410Y-74974543D01*
X191516733Y-74973300D01*
X191600066Y-74817198D01*
X190995000Y-74212132D01*
X190389934Y-74817198D01*
X180100000Y-74817198D01*
X180100000Y-74106931D01*
X189895871Y-74106931D01*
X189937851Y-74319305D01*
X190020457Y-74519410D01*
X190021700Y-74521733D01*
X190177802Y-74605066D01*
X190782868Y-74000000D01*
X191207132Y-74000000D01*
X191812198Y-74605066D01*
X191968300Y-74521733D01*
X192051384Y-74321827D01*
X192093871Y-74109553D01*
X192094129Y-73893069D01*
X192052149Y-73680695D01*
X191969543Y-73480590D01*
X191968300Y-73478267D01*
X191812198Y-73394934D01*
X191207132Y-74000000D01*
X190782868Y-74000000D01*
X190177802Y-73394934D01*
X190021700Y-73478267D01*
X189938616Y-73678173D01*
X189896129Y-73890447D01*
X189895871Y-74106931D01*
X180100000Y-74106931D01*
X180100000Y-73724226D01*
X187737907Y-73724226D01*
X187848752Y-73903444D01*
X188087363Y-74009212D01*
X188342023Y-74066397D01*
X188602947Y-74072802D01*
X188860107Y-74028180D01*
X189103620Y-73934246D01*
X189161248Y-73903444D01*
X189272093Y-73724226D01*
X188505000Y-72957132D01*
X187737907Y-73724226D01*
X180100000Y-73724226D01*
X180100000Y-72842947D01*
X187177198Y-72842947D01*
X187221820Y-73100107D01*
X187315754Y-73343620D01*
X187346556Y-73401248D01*
X187525774Y-73512093D01*
X188292868Y-72745000D01*
X188717132Y-72745000D01*
X189484226Y-73512093D01*
X189663444Y-73401248D01*
X189760273Y-73182802D01*
X190389934Y-73182802D01*
X190995000Y-73787868D01*
X191600066Y-73182802D01*
X191516733Y-73026700D01*
X191316827Y-72943616D01*
X191104553Y-72901129D01*
X190888069Y-72900871D01*
X190675695Y-72942851D01*
X190475590Y-73025457D01*
X190473267Y-73026700D01*
X190389934Y-73182802D01*
X189760273Y-73182802D01*
X189769212Y-73162637D01*
X189826397Y-72907977D01*
X189832802Y-72647053D01*
X189788180Y-72389893D01*
X189694246Y-72146380D01*
X189663444Y-72088752D01*
X189484226Y-71977907D01*
X188717132Y-72745000D01*
X188292868Y-72745000D01*
X187525774Y-71977907D01*
X187346556Y-72088752D01*
X187240788Y-72327363D01*
X187183603Y-72582023D01*
X187177198Y-72842947D01*
X180100000Y-72842947D01*
X180100000Y-71765774D01*
X187737907Y-71765774D01*
X188505000Y-72532868D01*
X189272093Y-71765774D01*
X189161248Y-71586556D01*
X188922637Y-71480788D01*
X188667977Y-71423603D01*
X188407053Y-71417198D01*
X188149893Y-71461820D01*
X187906380Y-71555754D01*
X187848752Y-71586556D01*
X187737907Y-71765774D01*
X180100000Y-71765774D01*
X180100000Y-63541422D01*
X180541422Y-63100000D01*
X193458578Y-63100000D01*
X193900000Y-63541422D01*
%TA.AperFunction,Conductor*%
D28*
G36*
X193900000Y-63541422D02*
G01*
X193900000Y-138958578D01*
X193458578Y-139400000D01*
X179100000Y-139400000D01*
X179100000Y-137192875D01*
X184170000Y-137192875D01*
X184170000Y-137307125D01*
X184192289Y-137419180D01*
X184236011Y-137524733D01*
X184299485Y-137619728D01*
X184380272Y-137700515D01*
X184475267Y-137763989D01*
X184580820Y-137807711D01*
X184692875Y-137830000D01*
X184807125Y-137830000D01*
X184919180Y-137807711D01*
X185024733Y-137763989D01*
X185119728Y-137700515D01*
X185200515Y-137619728D01*
X185263989Y-137524733D01*
X185307711Y-137419180D01*
X185330000Y-137307125D01*
X185330000Y-137192875D01*
X185307711Y-137080820D01*
X185263989Y-136975267D01*
X185200515Y-136880272D01*
X185119728Y-136799485D01*
X185024733Y-136736011D01*
X184919180Y-136692289D01*
X184807125Y-136670000D01*
X184692875Y-136670000D01*
X184580820Y-136692289D01*
X184475267Y-136736011D01*
X184380272Y-136799485D01*
X184299485Y-136880272D01*
X184236011Y-136975267D01*
X184192289Y-137080820D01*
X184170000Y-137192875D01*
X179100000Y-137192875D01*
X179100000Y-137000000D01*
X179098079Y-136980491D01*
X179092388Y-136961732D01*
X179083147Y-136944443D01*
X179070711Y-136929289D01*
X179055557Y-136916853D01*
X179038268Y-136907612D01*
X179019509Y-136901921D01*
X179000000Y-136900000D01*
X110850000Y-136900000D01*
X110850000Y-135649705D01*
X160457260Y-135649705D01*
X160457260Y-135847475D01*
X160495843Y-136041446D01*
X160571527Y-136224162D01*
X160681402Y-136388603D01*
X160821247Y-136528448D01*
X160985688Y-136638323D01*
X161168404Y-136714007D01*
X161362375Y-136752590D01*
X161560145Y-136752590D01*
X161754116Y-136714007D01*
X161936832Y-136638323D01*
X162101273Y-136528448D01*
X162241118Y-136388603D01*
X162350993Y-136224162D01*
X162426677Y-136041446D01*
X162465260Y-135847475D01*
X162465260Y-135649705D01*
X162465161Y-135649205D01*
X170565410Y-135649205D01*
X170565410Y-135846975D01*
X170603993Y-136040946D01*
X170679677Y-136223662D01*
X170789552Y-136388103D01*
X170929397Y-136527948D01*
X171093838Y-136637823D01*
X171276554Y-136713507D01*
X171470525Y-136752090D01*
X171668295Y-136752090D01*
X171862266Y-136713507D01*
X172044982Y-136637823D01*
X172209423Y-136527948D01*
X172349268Y-136388103D01*
X172459143Y-136223662D01*
X172534827Y-136040946D01*
X172573410Y-135846975D01*
X172573410Y-135692875D01*
X182170000Y-135692875D01*
X182170000Y-135807125D01*
X182192289Y-135919180D01*
X182236011Y-136024733D01*
X182299485Y-136119728D01*
X182380272Y-136200515D01*
X182475267Y-136263989D01*
X182580820Y-136307711D01*
X182692875Y-136330000D01*
X182807125Y-136330000D01*
X182919180Y-136307711D01*
X183024733Y-136263989D01*
X183119728Y-136200515D01*
X183200515Y-136119728D01*
X183263989Y-136024733D01*
X183307711Y-135919180D01*
X183330000Y-135807125D01*
X183330000Y-135692875D01*
X183307711Y-135580820D01*
X183263989Y-135475267D01*
X183200515Y-135380272D01*
X183119728Y-135299485D01*
X183024733Y-135236011D01*
X182919180Y-135192289D01*
X182807125Y-135170000D01*
X182692875Y-135170000D01*
X182580820Y-135192289D01*
X182475267Y-135236011D01*
X182380272Y-135299485D01*
X182299485Y-135380272D01*
X182236011Y-135475267D01*
X182192289Y-135580820D01*
X182170000Y-135692875D01*
X172573410Y-135692875D01*
X172573410Y-135649205D01*
X172534827Y-135455234D01*
X172459143Y-135272518D01*
X172349268Y-135108077D01*
X172209423Y-134968232D01*
X172044982Y-134858357D01*
X171862266Y-134782673D01*
X171668295Y-134744090D01*
X171470525Y-134744090D01*
X171276554Y-134782673D01*
X171093838Y-134858357D01*
X170929397Y-134968232D01*
X170789552Y-135108077D01*
X170679677Y-135272518D01*
X170603993Y-135455234D01*
X170565410Y-135649205D01*
X162465161Y-135649205D01*
X162426677Y-135455734D01*
X162350993Y-135273018D01*
X162241118Y-135108577D01*
X162101273Y-134968732D01*
X161936832Y-134858857D01*
X161754116Y-134783173D01*
X161560145Y-134744590D01*
X161362375Y-134744590D01*
X161168404Y-134783173D01*
X160985688Y-134858857D01*
X160821247Y-134968732D01*
X160681402Y-135108577D01*
X160571527Y-135273018D01*
X160495843Y-135455734D01*
X160457260Y-135649705D01*
X110850000Y-135649705D01*
X110850000Y-134750000D01*
X110848079Y-134730491D01*
X110842388Y-134711732D01*
X110833147Y-134694443D01*
X110820711Y-134679289D01*
X110805557Y-134666853D01*
X110788268Y-134657612D01*
X110769509Y-134651921D01*
X110750000Y-134650000D01*
X106000000Y-134650000D01*
X105980491Y-134651921D01*
X105961732Y-134657612D01*
X105944443Y-134666853D01*
X105929289Y-134679289D01*
X105916853Y-134694443D01*
X105907612Y-134711732D01*
X105901921Y-134730491D01*
X105900000Y-134750000D01*
X105900000Y-139400000D01*
X91041422Y-139400000D01*
X90600000Y-138958578D01*
X90600000Y-135775000D01*
X96773549Y-135775000D01*
X96773549Y-138325000D01*
X96779341Y-138383810D01*
X96796496Y-138440360D01*
X96824353Y-138492477D01*
X96861842Y-138538158D01*
X96907523Y-138575647D01*
X96959640Y-138603504D01*
X97016190Y-138620659D01*
X97075000Y-138626451D01*
X99625000Y-138626451D01*
X99683810Y-138620659D01*
X99740360Y-138603504D01*
X99792477Y-138575647D01*
X99838158Y-138538158D01*
X99875647Y-138492477D01*
X99903504Y-138440360D01*
X99920659Y-138383810D01*
X99926451Y-138325000D01*
X99926451Y-136894876D01*
X101775000Y-136894876D01*
X101775000Y-137205124D01*
X101835526Y-137509411D01*
X101954253Y-137796042D01*
X102126617Y-138054004D01*
X102345996Y-138273383D01*
X102603958Y-138445747D01*
X102890589Y-138564474D01*
X103194876Y-138625000D01*
X103505124Y-138625000D01*
X103809411Y-138564474D01*
X104096042Y-138445747D01*
X104354004Y-138273383D01*
X104573383Y-138054004D01*
X104745747Y-137796042D01*
X104864474Y-137509411D01*
X104925000Y-137205124D01*
X104925000Y-136894876D01*
X104864474Y-136590589D01*
X104745747Y-136303958D01*
X104573383Y-136045996D01*
X104354004Y-135826617D01*
X104096042Y-135654253D01*
X103809411Y-135535526D01*
X103505124Y-135475000D01*
X103194876Y-135475000D01*
X102890589Y-135535526D01*
X102603958Y-135654253D01*
X102345996Y-135826617D01*
X102126617Y-136045996D01*
X101954253Y-136303958D01*
X101835526Y-136590589D01*
X101775000Y-136894876D01*
X99926451Y-136894876D01*
X99926451Y-135775000D01*
X99920659Y-135716190D01*
X99903504Y-135659640D01*
X99875647Y-135607523D01*
X99838158Y-135561842D01*
X99792477Y-135524353D01*
X99740360Y-135496496D01*
X99683810Y-135479341D01*
X99625000Y-135473549D01*
X97075000Y-135473549D01*
X97016190Y-135479341D01*
X96959640Y-135496496D01*
X96907523Y-135524353D01*
X96861842Y-135561842D01*
X96824353Y-135607523D01*
X96796496Y-135659640D01*
X96779341Y-135716190D01*
X96773549Y-135775000D01*
X90600000Y-135775000D01*
X90600000Y-134129205D01*
X162995410Y-134129205D01*
X162995410Y-134326975D01*
X163033993Y-134520946D01*
X163109677Y-134703662D01*
X163219552Y-134868103D01*
X163359397Y-135007948D01*
X163523838Y-135117823D01*
X163706554Y-135193507D01*
X163900525Y-135232090D01*
X164098295Y-135232090D01*
X164292266Y-135193507D01*
X164474982Y-135117823D01*
X164639423Y-135007948D01*
X164779268Y-134868103D01*
X164889143Y-134703662D01*
X164964827Y-134520946D01*
X165003410Y-134326975D01*
X165003410Y-134129705D01*
X173107260Y-134129705D01*
X173107260Y-134327475D01*
X173145843Y-134521446D01*
X173221527Y-134704162D01*
X173331402Y-134868603D01*
X173471247Y-135008448D01*
X173635688Y-135118323D01*
X173818404Y-135194007D01*
X174012375Y-135232590D01*
X174210145Y-135232590D01*
X174404116Y-135194007D01*
X174586832Y-135118323D01*
X174751273Y-135008448D01*
X174891118Y-134868603D01*
X175000993Y-134704162D01*
X175076677Y-134521446D01*
X175115260Y-134327475D01*
X175115260Y-134129705D01*
X175076677Y-133935734D01*
X175000993Y-133753018D01*
X174891118Y-133588577D01*
X174751273Y-133448732D01*
X174586832Y-133338857D01*
X174404116Y-133263173D01*
X174210145Y-133224590D01*
X174012375Y-133224590D01*
X173818404Y-133263173D01*
X173635688Y-133338857D01*
X173471247Y-133448732D01*
X173331402Y-133588577D01*
X173221527Y-133753018D01*
X173145843Y-133935734D01*
X173107260Y-134129705D01*
X165003410Y-134129705D01*
X165003410Y-134129205D01*
X164964827Y-133935234D01*
X164889143Y-133752518D01*
X164779268Y-133588077D01*
X164639423Y-133448232D01*
X164474982Y-133338357D01*
X164292266Y-133262673D01*
X164098295Y-133224090D01*
X163900525Y-133224090D01*
X163706554Y-133262673D01*
X163523838Y-133338357D01*
X163359397Y-133448232D01*
X163219552Y-133588077D01*
X163109677Y-133752518D01*
X163033993Y-133935234D01*
X162995410Y-134129205D01*
X90600000Y-134129205D01*
X90600000Y-130657942D01*
X138750000Y-130657942D01*
X138750000Y-131042058D01*
X138824938Y-131418794D01*
X138971933Y-131773671D01*
X139185336Y-132093052D01*
X139456948Y-132364664D01*
X139776329Y-132578067D01*
X140131206Y-132725062D01*
X140507942Y-132800000D01*
X140892058Y-132800000D01*
X141268794Y-132725062D01*
X141623671Y-132578067D01*
X141943052Y-132364664D01*
X142214664Y-132093052D01*
X142428067Y-131773671D01*
X142575062Y-131418794D01*
X142650000Y-131042058D01*
X142650000Y-130657942D01*
X151050000Y-130657942D01*
X151050000Y-131042058D01*
X151124938Y-131418794D01*
X151271933Y-131773671D01*
X151485336Y-132093052D01*
X151756948Y-132364664D01*
X152076329Y-132578067D01*
X152431206Y-132725062D01*
X152807942Y-132800000D01*
X153192058Y-132800000D01*
X153568794Y-132725062D01*
X153923671Y-132578067D01*
X154243052Y-132364664D01*
X154514664Y-132093052D01*
X154728067Y-131773671D01*
X154875062Y-131418794D01*
X154950000Y-131042058D01*
X154950000Y-130657943D01*
X160120000Y-130657943D01*
X160120000Y-131042059D01*
X160194938Y-131418795D01*
X160341933Y-131773672D01*
X160555336Y-132093053D01*
X160826948Y-132364665D01*
X161146329Y-132578068D01*
X161501206Y-132725063D01*
X161877942Y-132800001D01*
X162262058Y-132800001D01*
X162638794Y-132725063D01*
X162993671Y-132578068D01*
X163313052Y-132364665D01*
X163584664Y-132093053D01*
X163798067Y-131773672D01*
X163945062Y-131418795D01*
X164020000Y-131042059D01*
X164020000Y-130657943D01*
X171550000Y-130657943D01*
X171550000Y-131042059D01*
X171624938Y-131418795D01*
X171771933Y-131773672D01*
X171985336Y-132093053D01*
X172256948Y-132364665D01*
X172576329Y-132578068D01*
X172931206Y-132725063D01*
X173307942Y-132800001D01*
X173692058Y-132800001D01*
X174068794Y-132725063D01*
X174423671Y-132578068D01*
X174743052Y-132364665D01*
X175014664Y-132093053D01*
X175228067Y-131773672D01*
X175375062Y-131418795D01*
X175450000Y-131042059D01*
X175450000Y-130657943D01*
X175375062Y-130281207D01*
X175228067Y-129926330D01*
X175014664Y-129606949D01*
X174743052Y-129335337D01*
X174529842Y-129192875D01*
X188670000Y-129192875D01*
X188670000Y-129307125D01*
X188692289Y-129419180D01*
X188736011Y-129524733D01*
X188799485Y-129619728D01*
X188880272Y-129700515D01*
X188975267Y-129763989D01*
X189080820Y-129807711D01*
X189192875Y-129830000D01*
X189307125Y-129830000D01*
X189419180Y-129807711D01*
X189524733Y-129763989D01*
X189619728Y-129700515D01*
X189700515Y-129619728D01*
X189763989Y-129524733D01*
X189807711Y-129419180D01*
X189830000Y-129307125D01*
X189830000Y-129192875D01*
X189807711Y-129080820D01*
X189763989Y-128975267D01*
X189700515Y-128880272D01*
X189619728Y-128799485D01*
X189524733Y-128736011D01*
X189419180Y-128692289D01*
X189307125Y-128670000D01*
X189192875Y-128670000D01*
X189080820Y-128692289D01*
X188975267Y-128736011D01*
X188880272Y-128799485D01*
X188799485Y-128880272D01*
X188736011Y-128975267D01*
X188692289Y-129080820D01*
X188670000Y-129192875D01*
X174529842Y-129192875D01*
X174423671Y-129121934D01*
X174068794Y-128974939D01*
X173692058Y-128900001D01*
X173307942Y-128900001D01*
X172931206Y-128974939D01*
X172576329Y-129121934D01*
X172256948Y-129335337D01*
X171985336Y-129606949D01*
X171771933Y-129926330D01*
X171624938Y-130281207D01*
X171550000Y-130657943D01*
X164020000Y-130657943D01*
X163945062Y-130281207D01*
X163798067Y-129926330D01*
X163584664Y-129606949D01*
X163313052Y-129335337D01*
X162993671Y-129121934D01*
X162638794Y-128974939D01*
X162262058Y-128900001D01*
X161877942Y-128900001D01*
X161501206Y-128974939D01*
X161146329Y-129121934D01*
X160826948Y-129335337D01*
X160555336Y-129606949D01*
X160341933Y-129926330D01*
X160194938Y-130281207D01*
X160120000Y-130657943D01*
X154950000Y-130657943D01*
X154950000Y-130657942D01*
X154875062Y-130281206D01*
X154728067Y-129926329D01*
X154514664Y-129606948D01*
X154243052Y-129335336D01*
X153923671Y-129121933D01*
X153568794Y-128974938D01*
X153192058Y-128900000D01*
X152807942Y-128900000D01*
X152431206Y-128974938D01*
X152076329Y-129121933D01*
X151756948Y-129335336D01*
X151485336Y-129606948D01*
X151271933Y-129926329D01*
X151124938Y-130281206D01*
X151050000Y-130657942D01*
X142650000Y-130657942D01*
X142575062Y-130281206D01*
X142428067Y-129926329D01*
X142214664Y-129606948D01*
X141943052Y-129335336D01*
X141623671Y-129121933D01*
X141268794Y-128974938D01*
X140892058Y-128900000D01*
X140507942Y-128900000D01*
X140131206Y-128974938D01*
X139776329Y-129121933D01*
X139456948Y-129335336D01*
X139185336Y-129606948D01*
X138971933Y-129926329D01*
X138824938Y-130281206D01*
X138750000Y-130657942D01*
X90600000Y-130657942D01*
X90600000Y-127662880D01*
X158517800Y-127662880D01*
X158517800Y-127937120D01*
X158571302Y-128206090D01*
X158676249Y-128459454D01*
X158828608Y-128687476D01*
X159022524Y-128881392D01*
X159250546Y-129033751D01*
X159503910Y-129138698D01*
X159772880Y-129192200D01*
X160047120Y-129192200D01*
X160316090Y-129138698D01*
X160569454Y-129033751D01*
X160797476Y-128881392D01*
X160991392Y-128687476D01*
X161143751Y-128459454D01*
X161248698Y-128206090D01*
X161302200Y-127937120D01*
X161302200Y-127662880D01*
X174267800Y-127662880D01*
X174267800Y-127937120D01*
X174321302Y-128206090D01*
X174426249Y-128459454D01*
X174578608Y-128687476D01*
X174772524Y-128881392D01*
X175000546Y-129033751D01*
X175253910Y-129138698D01*
X175522880Y-129192200D01*
X175797120Y-129192200D01*
X176066090Y-129138698D01*
X176319454Y-129033751D01*
X176547476Y-128881392D01*
X176741392Y-128687476D01*
X176893751Y-128459454D01*
X176900618Y-128442875D01*
X187670000Y-128442875D01*
X187670000Y-128557125D01*
X187692289Y-128669180D01*
X187736011Y-128774733D01*
X187799485Y-128869728D01*
X187880272Y-128950515D01*
X187975267Y-129013989D01*
X188080820Y-129057711D01*
X188192875Y-129080000D01*
X188307125Y-129080000D01*
X188419180Y-129057711D01*
X188524733Y-129013989D01*
X188619728Y-128950515D01*
X188700515Y-128869728D01*
X188763989Y-128774733D01*
X188807711Y-128669180D01*
X188830000Y-128557125D01*
X188830000Y-128442875D01*
X188807711Y-128330820D01*
X188763989Y-128225267D01*
X188700515Y-128130272D01*
X188619728Y-128049485D01*
X188524733Y-127986011D01*
X188419180Y-127942289D01*
X188307125Y-127920000D01*
X188192875Y-127920000D01*
X188080820Y-127942289D01*
X187975267Y-127986011D01*
X187880272Y-128049485D01*
X187799485Y-128130272D01*
X187736011Y-128225267D01*
X187692289Y-128330820D01*
X187670000Y-128442875D01*
X176900618Y-128442875D01*
X176998698Y-128206090D01*
X177052200Y-127937120D01*
X177052200Y-127662880D01*
X176998698Y-127393910D01*
X176893751Y-127140546D01*
X176741392Y-126912524D01*
X176547476Y-126718608D01*
X176319454Y-126566249D01*
X176066090Y-126461302D01*
X175797120Y-126407800D01*
X175522880Y-126407800D01*
X175253910Y-126461302D01*
X175000546Y-126566249D01*
X174772524Y-126718608D01*
X174578608Y-126912524D01*
X174426249Y-127140546D01*
X174321302Y-127393910D01*
X174267800Y-127662880D01*
X161302200Y-127662880D01*
X161248698Y-127393910D01*
X161143751Y-127140546D01*
X160991392Y-126912524D01*
X160797476Y-126718608D01*
X160569454Y-126566249D01*
X160316090Y-126461302D01*
X160047120Y-126407800D01*
X159772880Y-126407800D01*
X159503910Y-126461302D01*
X159250546Y-126566249D01*
X159022524Y-126718608D01*
X158828608Y-126912524D01*
X158676249Y-127140546D01*
X158571302Y-127393910D01*
X158517800Y-127662880D01*
X90600000Y-127662880D01*
X90600000Y-124400031D01*
X141390000Y-124400031D01*
X141390000Y-124599969D01*
X141429006Y-124796065D01*
X141505519Y-124980783D01*
X141616598Y-125147025D01*
X141757975Y-125288402D01*
X141924217Y-125399481D01*
X142108935Y-125475994D01*
X142305031Y-125515000D01*
X142504969Y-125515000D01*
X142701065Y-125475994D01*
X142885783Y-125399481D01*
X143052025Y-125288402D01*
X143193402Y-125147025D01*
X143304481Y-124980783D01*
X143380994Y-124796065D01*
X143420000Y-124599969D01*
X143420000Y-124400031D01*
X143930000Y-124400031D01*
X143930000Y-124599969D01*
X143969006Y-124796065D01*
X144045519Y-124980783D01*
X144156598Y-125147025D01*
X144297975Y-125288402D01*
X144464217Y-125399481D01*
X144648935Y-125475994D01*
X144845031Y-125515000D01*
X145044969Y-125515000D01*
X145241065Y-125475994D01*
X145425783Y-125399481D01*
X145592025Y-125288402D01*
X145733402Y-125147025D01*
X145844481Y-124980783D01*
X145920994Y-124796065D01*
X145960000Y-124599969D01*
X145960000Y-124400031D01*
X146470000Y-124400031D01*
X146470000Y-124599969D01*
X146509006Y-124796065D01*
X146585519Y-124980783D01*
X146696598Y-125147025D01*
X146837975Y-125288402D01*
X147004217Y-125399481D01*
X147188935Y-125475994D01*
X147385031Y-125515000D01*
X147584969Y-125515000D01*
X147781065Y-125475994D01*
X147965783Y-125399481D01*
X148132025Y-125288402D01*
X148273402Y-125147025D01*
X148384481Y-124980783D01*
X148460994Y-124796065D01*
X148500000Y-124599969D01*
X148500000Y-124400031D01*
X149010000Y-124400031D01*
X149010000Y-124599969D01*
X149049006Y-124796065D01*
X149125519Y-124980783D01*
X149236598Y-125147025D01*
X149377975Y-125288402D01*
X149544217Y-125399481D01*
X149728935Y-125475994D01*
X149925031Y-125515000D01*
X150124969Y-125515000D01*
X150321065Y-125475994D01*
X150505783Y-125399481D01*
X150672025Y-125288402D01*
X150813402Y-125147025D01*
X150924481Y-124980783D01*
X151000994Y-124796065D01*
X151040000Y-124599969D01*
X151040000Y-124401509D01*
X162340000Y-124401509D01*
X162340000Y-124598491D01*
X162378429Y-124791689D01*
X162453811Y-124973678D01*
X162563249Y-125137463D01*
X162702537Y-125276751D01*
X162866322Y-125386189D01*
X163048311Y-125461571D01*
X163241509Y-125500000D01*
X163438491Y-125500000D01*
X163631689Y-125461571D01*
X163813678Y-125386189D01*
X163977463Y-125276751D01*
X164116751Y-125137463D01*
X164226189Y-124973678D01*
X164301571Y-124791689D01*
X164340000Y-124598491D01*
X164340000Y-124406433D01*
X164930000Y-124406433D01*
X164930000Y-124593567D01*
X164966508Y-124777105D01*
X165038121Y-124949994D01*
X165142087Y-125105590D01*
X165274410Y-125237913D01*
X165430006Y-125341879D01*
X165602895Y-125413492D01*
X165786433Y-125450000D01*
X165973567Y-125450000D01*
X166157105Y-125413492D01*
X166329994Y-125341879D01*
X166485590Y-125237913D01*
X166617913Y-125105590D01*
X166721879Y-124949994D01*
X166793492Y-124777105D01*
X166830000Y-124593567D01*
X166830000Y-124406433D01*
X167469999Y-124406433D01*
X167469999Y-124593567D01*
X167506507Y-124777105D01*
X167578120Y-124949994D01*
X167682086Y-125105590D01*
X167814409Y-125237913D01*
X167970005Y-125341879D01*
X168142894Y-125413492D01*
X168326432Y-125450000D01*
X168513566Y-125450000D01*
X168697104Y-125413492D01*
X168869993Y-125341879D01*
X169025589Y-125237913D01*
X169157912Y-125105590D01*
X169261878Y-124949994D01*
X169333491Y-124777105D01*
X169369999Y-124593567D01*
X169369999Y-124406433D01*
X169369020Y-124401509D01*
X169960000Y-124401509D01*
X169960000Y-124598491D01*
X169998429Y-124791689D01*
X170073811Y-124973678D01*
X170183249Y-125137463D01*
X170322537Y-125276751D01*
X170486322Y-125386189D01*
X170668311Y-125461571D01*
X170861509Y-125500000D01*
X171058491Y-125500000D01*
X171251689Y-125461571D01*
X171433678Y-125386189D01*
X171597463Y-125276751D01*
X171736751Y-125137463D01*
X171846189Y-124973678D01*
X171921571Y-124791689D01*
X171960000Y-124598491D01*
X171960000Y-124401509D01*
X171921571Y-124208311D01*
X171846189Y-124026322D01*
X171736751Y-123862537D01*
X171597463Y-123723249D01*
X171433678Y-123613811D01*
X171251689Y-123538429D01*
X171058491Y-123500000D01*
X170861509Y-123500000D01*
X170668311Y-123538429D01*
X170486322Y-123613811D01*
X170322537Y-123723249D01*
X170183249Y-123862537D01*
X170073811Y-124026322D01*
X169998429Y-124208311D01*
X169960000Y-124401509D01*
X169369020Y-124401509D01*
X169333491Y-124222895D01*
X169261878Y-124050006D01*
X169157912Y-123894410D01*
X169025589Y-123762087D01*
X168869993Y-123658121D01*
X168697104Y-123586508D01*
X168513566Y-123550000D01*
X168326432Y-123550000D01*
X168142894Y-123586508D01*
X167970005Y-123658121D01*
X167814409Y-123762087D01*
X167682086Y-123894410D01*
X167578120Y-124050006D01*
X167506507Y-124222895D01*
X167469999Y-124406433D01*
X166830000Y-124406433D01*
X166793492Y-124222895D01*
X166721879Y-124050006D01*
X166617913Y-123894410D01*
X166485590Y-123762087D01*
X166329994Y-123658121D01*
X166157105Y-123586508D01*
X165973567Y-123550000D01*
X165786433Y-123550000D01*
X165602895Y-123586508D01*
X165430006Y-123658121D01*
X165274410Y-123762087D01*
X165142087Y-123894410D01*
X165038121Y-124050006D01*
X164966508Y-124222895D01*
X164930000Y-124406433D01*
X164340000Y-124406433D01*
X164340000Y-124401509D01*
X164301571Y-124208311D01*
X164226189Y-124026322D01*
X164116751Y-123862537D01*
X163977463Y-123723249D01*
X163813678Y-123613811D01*
X163631689Y-123538429D01*
X163438491Y-123500000D01*
X163241509Y-123500000D01*
X163048311Y-123538429D01*
X162866322Y-123613811D01*
X162702537Y-123723249D01*
X162563249Y-123862537D01*
X162453811Y-124026322D01*
X162378429Y-124208311D01*
X162340000Y-124401509D01*
X151040000Y-124401509D01*
X151040000Y-124400031D01*
X151000994Y-124203935D01*
X150924481Y-124019217D01*
X150813402Y-123852975D01*
X150672025Y-123711598D01*
X150505783Y-123600519D01*
X150321065Y-123524006D01*
X150124969Y-123485000D01*
X149925031Y-123485000D01*
X149728935Y-123524006D01*
X149544217Y-123600519D01*
X149377975Y-123711598D01*
X149236598Y-123852975D01*
X149125519Y-124019217D01*
X149049006Y-124203935D01*
X149010000Y-124400031D01*
X148500000Y-124400031D01*
X148460994Y-124203935D01*
X148384481Y-124019217D01*
X148273402Y-123852975D01*
X148132025Y-123711598D01*
X147965783Y-123600519D01*
X147781065Y-123524006D01*
X147584969Y-123485000D01*
X147385031Y-123485000D01*
X147188935Y-123524006D01*
X147004217Y-123600519D01*
X146837975Y-123711598D01*
X146696598Y-123852975D01*
X146585519Y-124019217D01*
X146509006Y-124203935D01*
X146470000Y-124400031D01*
X145960000Y-124400031D01*
X145920994Y-124203935D01*
X145844481Y-124019217D01*
X145733402Y-123852975D01*
X145592025Y-123711598D01*
X145425783Y-123600519D01*
X145241065Y-123524006D01*
X145044969Y-123485000D01*
X144845031Y-123485000D01*
X144648935Y-123524006D01*
X144464217Y-123600519D01*
X144297975Y-123711598D01*
X144156598Y-123852975D01*
X144045519Y-124019217D01*
X143969006Y-124203935D01*
X143930000Y-124400031D01*
X143420000Y-124400031D01*
X143380994Y-124203935D01*
X143304481Y-124019217D01*
X143193402Y-123852975D01*
X143052025Y-123711598D01*
X142885783Y-123600519D01*
X142701065Y-123524006D01*
X142504969Y-123485000D01*
X142305031Y-123485000D01*
X142108935Y-123524006D01*
X141924217Y-123600519D01*
X141757975Y-123711598D01*
X141616598Y-123852975D01*
X141505519Y-124019217D01*
X141429006Y-124203935D01*
X141390000Y-124400031D01*
X90600000Y-124400031D01*
X90600000Y-121181056D01*
X134800000Y-121181056D01*
X134800000Y-121318944D01*
X134826901Y-121454182D01*
X134879668Y-121581574D01*
X134956274Y-121696224D01*
X135053776Y-121793726D01*
X135168426Y-121870332D01*
X135295818Y-121923099D01*
X135431056Y-121950000D01*
X135568944Y-121950000D01*
X135704182Y-121923099D01*
X135831574Y-121870332D01*
X135846990Y-121860031D01*
X142660000Y-121860031D01*
X142660000Y-122059969D01*
X142699006Y-122256065D01*
X142775519Y-122440783D01*
X142886598Y-122607025D01*
X143027975Y-122748402D01*
X143194217Y-122859481D01*
X143378935Y-122935994D01*
X143575031Y-122975000D01*
X143774969Y-122975000D01*
X143971065Y-122935994D01*
X144155783Y-122859481D01*
X144322025Y-122748402D01*
X144463402Y-122607025D01*
X144574481Y-122440783D01*
X144650994Y-122256065D01*
X144690000Y-122059969D01*
X144690000Y-121860031D01*
X145200000Y-121860031D01*
X145200000Y-122059969D01*
X145239006Y-122256065D01*
X145315519Y-122440783D01*
X145426598Y-122607025D01*
X145567975Y-122748402D01*
X145734217Y-122859481D01*
X145918935Y-122935994D01*
X146115031Y-122975000D01*
X146314969Y-122975000D01*
X146511065Y-122935994D01*
X146695783Y-122859481D01*
X146862025Y-122748402D01*
X147003402Y-122607025D01*
X147114481Y-122440783D01*
X147190994Y-122256065D01*
X147230000Y-122059969D01*
X147230000Y-121860031D01*
X147740000Y-121860031D01*
X147740000Y-122059969D01*
X147779006Y-122256065D01*
X147855519Y-122440783D01*
X147966598Y-122607025D01*
X148107975Y-122748402D01*
X148274217Y-122859481D01*
X148458935Y-122935994D01*
X148655031Y-122975000D01*
X148854969Y-122975000D01*
X149051065Y-122935994D01*
X149235783Y-122859481D01*
X149402025Y-122748402D01*
X149475427Y-122675000D01*
X150228306Y-122675000D01*
X150235064Y-122743612D01*
X150255077Y-122809587D01*
X150287577Y-122870391D01*
X150331315Y-122923685D01*
X150384609Y-122967423D01*
X150445413Y-122999923D01*
X150511388Y-123019936D01*
X150580000Y-123026694D01*
X151057500Y-123025000D01*
X151145000Y-122937500D01*
X151145000Y-122110000D01*
X151445000Y-122110000D01*
X151445000Y-122937500D01*
X151532500Y-123025000D01*
X152010000Y-123026694D01*
X152078612Y-123019936D01*
X152144587Y-122999923D01*
X152205391Y-122967423D01*
X152258685Y-122923685D01*
X152302423Y-122870391D01*
X152334923Y-122809587D01*
X152354936Y-122743612D01*
X152361694Y-122675000D01*
X152360000Y-122197500D01*
X152272500Y-122110000D01*
X151445000Y-122110000D01*
X151145000Y-122110000D01*
X150317500Y-122110000D01*
X150230000Y-122197500D01*
X150228306Y-122675000D01*
X149475427Y-122675000D01*
X149543402Y-122607025D01*
X149654481Y-122440783D01*
X149730994Y-122256065D01*
X149770000Y-122059969D01*
X149770000Y-121861509D01*
X163610000Y-121861509D01*
X163610000Y-122058491D01*
X163648429Y-122251689D01*
X163723811Y-122433678D01*
X163833249Y-122597463D01*
X163972537Y-122736751D01*
X164136322Y-122846189D01*
X164318311Y-122921571D01*
X164511509Y-122960000D01*
X164708491Y-122960000D01*
X164901689Y-122921571D01*
X165083678Y-122846189D01*
X165247463Y-122736751D01*
X165386751Y-122597463D01*
X165496189Y-122433678D01*
X165571571Y-122251689D01*
X165610000Y-122058491D01*
X165610000Y-121866433D01*
X166199999Y-121866433D01*
X166199999Y-122053567D01*
X166236507Y-122237105D01*
X166308120Y-122409994D01*
X166412086Y-122565590D01*
X166544409Y-122697913D01*
X166700005Y-122801879D01*
X166872894Y-122873492D01*
X167056432Y-122910000D01*
X167243566Y-122910000D01*
X167427104Y-122873492D01*
X167599993Y-122801879D01*
X167755589Y-122697913D01*
X167887912Y-122565590D01*
X167991878Y-122409994D01*
X168063491Y-122237105D01*
X168099999Y-122053567D01*
X168099999Y-121866433D01*
X168740000Y-121866433D01*
X168740000Y-122053567D01*
X168776508Y-122237105D01*
X168848121Y-122409994D01*
X168952087Y-122565590D01*
X169084410Y-122697913D01*
X169240006Y-122801879D01*
X169412895Y-122873492D01*
X169596433Y-122910000D01*
X169783567Y-122910000D01*
X169967105Y-122873492D01*
X170139994Y-122801879D01*
X170295590Y-122697913D01*
X170427913Y-122565590D01*
X170531879Y-122409994D01*
X170603492Y-122237105D01*
X170640000Y-122053567D01*
X170640000Y-121866433D01*
X170639021Y-121861509D01*
X171230000Y-121861509D01*
X171230000Y-122058491D01*
X171268429Y-122251689D01*
X171343811Y-122433678D01*
X171453249Y-122597463D01*
X171592537Y-122736751D01*
X171756322Y-122846189D01*
X171938311Y-122921571D01*
X172131509Y-122960000D01*
X172328491Y-122960000D01*
X172521689Y-122921571D01*
X172703678Y-122846189D01*
X172867463Y-122736751D01*
X173006751Y-122597463D01*
X173116189Y-122433678D01*
X173191571Y-122251689D01*
X173230000Y-122058491D01*
X173230000Y-121861509D01*
X173191571Y-121668311D01*
X173116189Y-121486322D01*
X173006751Y-121322537D01*
X172867463Y-121183249D01*
X172703678Y-121073811D01*
X172521689Y-120998429D01*
X172328491Y-120960000D01*
X172131509Y-120960000D01*
X171938311Y-120998429D01*
X171756322Y-121073811D01*
X171592537Y-121183249D01*
X171453249Y-121322537D01*
X171343811Y-121486322D01*
X171268429Y-121668311D01*
X171230000Y-121861509D01*
X170639021Y-121861509D01*
X170603492Y-121682895D01*
X170531879Y-121510006D01*
X170427913Y-121354410D01*
X170295590Y-121222087D01*
X170139994Y-121118121D01*
X169967105Y-121046508D01*
X169783567Y-121010000D01*
X169596433Y-121010000D01*
X169412895Y-121046508D01*
X169240006Y-121118121D01*
X169084410Y-121222087D01*
X168952087Y-121354410D01*
X168848121Y-121510006D01*
X168776508Y-121682895D01*
X168740000Y-121866433D01*
X168099999Y-121866433D01*
X168063491Y-121682895D01*
X167991878Y-121510006D01*
X167887912Y-121354410D01*
X167755589Y-121222087D01*
X167599993Y-121118121D01*
X167427104Y-121046508D01*
X167243566Y-121010000D01*
X167056432Y-121010000D01*
X166872894Y-121046508D01*
X166700005Y-121118121D01*
X166544409Y-121222087D01*
X166412086Y-121354410D01*
X166308120Y-121510006D01*
X166236507Y-121682895D01*
X166199999Y-121866433D01*
X165610000Y-121866433D01*
X165610000Y-121861509D01*
X165571571Y-121668311D01*
X165496189Y-121486322D01*
X165386751Y-121322537D01*
X165247463Y-121183249D01*
X165083678Y-121073811D01*
X164901689Y-120998429D01*
X164708491Y-120960000D01*
X164511509Y-120960000D01*
X164318311Y-120998429D01*
X164136322Y-121073811D01*
X163972537Y-121183249D01*
X163833249Y-121322537D01*
X163723811Y-121486322D01*
X163648429Y-121668311D01*
X163610000Y-121861509D01*
X149770000Y-121861509D01*
X149770000Y-121860031D01*
X149730994Y-121663935D01*
X149654481Y-121479217D01*
X149543402Y-121312975D01*
X149475427Y-121245000D01*
X150228306Y-121245000D01*
X150230000Y-121722500D01*
X150317500Y-121810000D01*
X151145000Y-121810000D01*
X151145000Y-120982500D01*
X151445000Y-120982500D01*
X151445000Y-121810000D01*
X152272500Y-121810000D01*
X152360000Y-121722500D01*
X152361694Y-121245000D01*
X152354936Y-121176388D01*
X152334923Y-121110413D01*
X152302423Y-121049609D01*
X152258685Y-120996315D01*
X152205391Y-120952577D01*
X152144587Y-120920077D01*
X152078612Y-120900064D01*
X152010000Y-120893306D01*
X151532500Y-120895000D01*
X151445000Y-120982500D01*
X151145000Y-120982500D01*
X151057500Y-120895000D01*
X150580000Y-120893306D01*
X150511388Y-120900064D01*
X150445413Y-120920077D01*
X150384609Y-120952577D01*
X150331315Y-120996315D01*
X150287577Y-121049609D01*
X150255077Y-121110413D01*
X150235064Y-121176388D01*
X150228306Y-121245000D01*
X149475427Y-121245000D01*
X149402025Y-121171598D01*
X149235783Y-121060519D01*
X149051065Y-120984006D01*
X148854969Y-120945000D01*
X148655031Y-120945000D01*
X148458935Y-120984006D01*
X148274217Y-121060519D01*
X148107975Y-121171598D01*
X147966598Y-121312975D01*
X147855519Y-121479217D01*
X147779006Y-121663935D01*
X147740000Y-121860031D01*
X147230000Y-121860031D01*
X147190994Y-121663935D01*
X147114481Y-121479217D01*
X147003402Y-121312975D01*
X146862025Y-121171598D01*
X146695783Y-121060519D01*
X146511065Y-120984006D01*
X146314969Y-120945000D01*
X146115031Y-120945000D01*
X145918935Y-120984006D01*
X145734217Y-121060519D01*
X145567975Y-121171598D01*
X145426598Y-121312975D01*
X145315519Y-121479217D01*
X145239006Y-121663935D01*
X145200000Y-121860031D01*
X144690000Y-121860031D01*
X144650994Y-121663935D01*
X144574481Y-121479217D01*
X144463402Y-121312975D01*
X144322025Y-121171598D01*
X144155783Y-121060519D01*
X143971065Y-120984006D01*
X143774969Y-120945000D01*
X143575031Y-120945000D01*
X143378935Y-120984006D01*
X143194217Y-121060519D01*
X143027975Y-121171598D01*
X142886598Y-121312975D01*
X142775519Y-121479217D01*
X142699006Y-121663935D01*
X142660000Y-121860031D01*
X135846990Y-121860031D01*
X135946224Y-121793726D01*
X136043726Y-121696224D01*
X136120332Y-121581574D01*
X136173099Y-121454182D01*
X136200000Y-121318944D01*
X136200000Y-121181056D01*
X136173099Y-121045818D01*
X136120332Y-120918426D01*
X136043726Y-120803776D01*
X135946224Y-120706274D01*
X135831574Y-120629668D01*
X135704182Y-120576901D01*
X135568944Y-120550000D01*
X135431056Y-120550000D01*
X135295818Y-120576901D01*
X135168426Y-120629668D01*
X135053776Y-120706274D01*
X134956274Y-120803776D01*
X134879668Y-120918426D01*
X134826901Y-121045818D01*
X134800000Y-121181056D01*
X90600000Y-121181056D01*
X90600000Y-118798323D01*
X137285000Y-118798323D01*
X137285000Y-119101677D01*
X137344182Y-119399201D01*
X137460270Y-119679463D01*
X137628804Y-119931693D01*
X137843307Y-120146196D01*
X138095537Y-120314730D01*
X138375799Y-120430818D01*
X138673323Y-120490000D01*
X138976677Y-120490000D01*
X139274201Y-120430818D01*
X139554463Y-120314730D01*
X139806693Y-120146196D01*
X140021196Y-119931693D01*
X140189730Y-119679463D01*
X140305818Y-119399201D01*
X140365000Y-119101677D01*
X140365000Y-118798323D01*
X153335000Y-118798323D01*
X153335000Y-119101677D01*
X153394182Y-119399201D01*
X153510270Y-119679463D01*
X153678804Y-119931693D01*
X153893307Y-120146196D01*
X154145537Y-120314730D01*
X154425799Y-120430818D01*
X154723323Y-120490000D01*
X155026677Y-120490000D01*
X155324201Y-120430818D01*
X155604463Y-120314730D01*
X155786832Y-120192875D01*
X186770000Y-120192875D01*
X186770000Y-120307125D01*
X186792289Y-120419180D01*
X186836011Y-120524733D01*
X186899485Y-120619728D01*
X186980272Y-120700515D01*
X187075267Y-120763989D01*
X187180820Y-120807711D01*
X187292875Y-120830000D01*
X187407125Y-120830000D01*
X187519180Y-120807711D01*
X187624733Y-120763989D01*
X187719728Y-120700515D01*
X187800515Y-120619728D01*
X187863989Y-120524733D01*
X187907711Y-120419180D01*
X187930000Y-120307125D01*
X187930000Y-120192875D01*
X187907711Y-120080820D01*
X187863989Y-119975267D01*
X187800515Y-119880272D01*
X187719728Y-119799485D01*
X187624733Y-119736011D01*
X187519180Y-119692289D01*
X187407125Y-119670000D01*
X187292875Y-119670000D01*
X187180820Y-119692289D01*
X187075267Y-119736011D01*
X186980272Y-119799485D01*
X186899485Y-119880272D01*
X186836011Y-119975267D01*
X186792289Y-120080820D01*
X186770000Y-120192875D01*
X155786832Y-120192875D01*
X155856693Y-120146196D01*
X156071196Y-119931693D01*
X156239730Y-119679463D01*
X156355818Y-119399201D01*
X156415000Y-119101677D01*
X156415000Y-118798323D01*
X156355818Y-118500799D01*
X156239730Y-118220537D01*
X156071196Y-117968307D01*
X155856693Y-117753804D01*
X155604463Y-117585270D01*
X155324201Y-117469182D01*
X155026677Y-117410000D01*
X154723323Y-117410000D01*
X154425799Y-117469182D01*
X154145537Y-117585270D01*
X153893307Y-117753804D01*
X153678804Y-117968307D01*
X153510270Y-118220537D01*
X153394182Y-118500799D01*
X153335000Y-118798323D01*
X140365000Y-118798323D01*
X140305818Y-118500799D01*
X140189730Y-118220537D01*
X140021196Y-117968307D01*
X139806693Y-117753804D01*
X139554463Y-117585270D01*
X139274201Y-117469182D01*
X138976677Y-117410000D01*
X138673323Y-117410000D01*
X138375799Y-117469182D01*
X138095537Y-117585270D01*
X137843307Y-117753804D01*
X137628804Y-117968307D01*
X137460270Y-118220537D01*
X137344182Y-118500799D01*
X137285000Y-118798323D01*
X90600000Y-118798323D01*
X90600000Y-117192875D01*
X118670000Y-117192875D01*
X118670000Y-117307125D01*
X118692289Y-117419180D01*
X118736011Y-117524733D01*
X118799485Y-117619728D01*
X118880272Y-117700515D01*
X118975267Y-117763989D01*
X119080820Y-117807711D01*
X119192875Y-117830000D01*
X119307125Y-117830000D01*
X119419180Y-117807711D01*
X119524733Y-117763989D01*
X119619728Y-117700515D01*
X119700515Y-117619728D01*
X119763989Y-117524733D01*
X119807711Y-117419180D01*
X119830000Y-117307125D01*
X119830000Y-117192875D01*
X125995000Y-117192875D01*
X125995000Y-117307125D01*
X126017289Y-117419180D01*
X126061011Y-117524733D01*
X126124485Y-117619728D01*
X126205272Y-117700515D01*
X126300267Y-117763989D01*
X126405820Y-117807711D01*
X126517875Y-117830000D01*
X126632125Y-117830000D01*
X126744180Y-117807711D01*
X126849733Y-117763989D01*
X126944728Y-117700515D01*
X127025515Y-117619728D01*
X127088989Y-117524733D01*
X127132711Y-117419180D01*
X127155000Y-117307125D01*
X127155000Y-117192875D01*
X127132711Y-117080820D01*
X127088989Y-116975267D01*
X127025515Y-116880272D01*
X126944728Y-116799485D01*
X126849733Y-116736011D01*
X126744180Y-116692289D01*
X126632125Y-116670000D01*
X126517875Y-116670000D01*
X126405820Y-116692289D01*
X126300267Y-116736011D01*
X126205272Y-116799485D01*
X126124485Y-116880272D01*
X126061011Y-116975267D01*
X126017289Y-117080820D01*
X125995000Y-117192875D01*
X119830000Y-117192875D01*
X119807711Y-117080820D01*
X119763989Y-116975267D01*
X119700515Y-116880272D01*
X119619728Y-116799485D01*
X119524733Y-116736011D01*
X119419180Y-116692289D01*
X119307125Y-116670000D01*
X119192875Y-116670000D01*
X119080820Y-116692289D01*
X118975267Y-116736011D01*
X118880272Y-116799485D01*
X118799485Y-116880272D01*
X118736011Y-116975267D01*
X118692289Y-117080820D01*
X118670000Y-117192875D01*
X90600000Y-117192875D01*
X90600000Y-116192875D01*
X187670000Y-116192875D01*
X187670000Y-116307125D01*
X187692289Y-116419180D01*
X187736011Y-116524733D01*
X187799485Y-116619728D01*
X187880272Y-116700515D01*
X187975267Y-116763989D01*
X188080820Y-116807711D01*
X188192875Y-116830000D01*
X188307125Y-116830000D01*
X188419180Y-116807711D01*
X188524733Y-116763989D01*
X188619728Y-116700515D01*
X188700515Y-116619728D01*
X188763989Y-116524733D01*
X188807711Y-116419180D01*
X188830000Y-116307125D01*
X188830000Y-116192875D01*
X188807711Y-116080820D01*
X188763989Y-115975267D01*
X188700515Y-115880272D01*
X188619728Y-115799485D01*
X188524733Y-115736011D01*
X188419180Y-115692289D01*
X188307125Y-115670000D01*
X188192875Y-115670000D01*
X188080820Y-115692289D01*
X187975267Y-115736011D01*
X187880272Y-115799485D01*
X187799485Y-115880272D01*
X187736011Y-115975267D01*
X187692289Y-116080820D01*
X187670000Y-116192875D01*
X90600000Y-116192875D01*
X90600000Y-114942875D01*
X97420000Y-114942875D01*
X97420000Y-115057125D01*
X97442289Y-115169180D01*
X97486011Y-115274733D01*
X97549485Y-115369728D01*
X97630272Y-115450515D01*
X97725267Y-115513989D01*
X97830820Y-115557711D01*
X97942875Y-115580000D01*
X98057125Y-115580000D01*
X98169180Y-115557711D01*
X98274733Y-115513989D01*
X98369728Y-115450515D01*
X98450515Y-115369728D01*
X98513989Y-115274733D01*
X98557711Y-115169180D01*
X98580000Y-115057125D01*
X98580000Y-114942875D01*
X98557711Y-114830820D01*
X98513989Y-114725267D01*
X98450515Y-114630272D01*
X98369728Y-114549485D01*
X98274733Y-114486011D01*
X98169180Y-114442289D01*
X98057125Y-114420000D01*
X97942875Y-114420000D01*
X97830820Y-114442289D01*
X97725267Y-114486011D01*
X97630272Y-114549485D01*
X97549485Y-114630272D01*
X97486011Y-114725267D01*
X97442289Y-114830820D01*
X97420000Y-114942875D01*
X90600000Y-114942875D01*
X90600000Y-114192875D01*
X159845000Y-114192875D01*
X159845000Y-114307125D01*
X159867289Y-114419180D01*
X159911011Y-114524733D01*
X159974485Y-114619728D01*
X160055272Y-114700515D01*
X160150267Y-114763989D01*
X160255820Y-114807711D01*
X160367875Y-114830000D01*
X160482125Y-114830000D01*
X160594180Y-114807711D01*
X160699733Y-114763989D01*
X160794728Y-114700515D01*
X160875515Y-114619728D01*
X160938989Y-114524733D01*
X160982711Y-114419180D01*
X161005000Y-114307125D01*
X161005000Y-114192875D01*
X165170000Y-114192875D01*
X165170000Y-114307125D01*
X165192289Y-114419180D01*
X165236011Y-114524733D01*
X165299485Y-114619728D01*
X165380272Y-114700515D01*
X165475267Y-114763989D01*
X165580820Y-114807711D01*
X165692875Y-114830000D01*
X165807125Y-114830000D01*
X165919180Y-114807711D01*
X166024733Y-114763989D01*
X166119728Y-114700515D01*
X166200515Y-114619728D01*
X166263989Y-114524733D01*
X166307711Y-114419180D01*
X166330000Y-114307125D01*
X166330000Y-114192875D01*
X167270000Y-114192875D01*
X167270000Y-114307125D01*
X167292289Y-114419180D01*
X167336011Y-114524733D01*
X167399485Y-114619728D01*
X167480272Y-114700515D01*
X167575267Y-114763989D01*
X167680820Y-114807711D01*
X167792875Y-114830000D01*
X167907125Y-114830000D01*
X168019180Y-114807711D01*
X168124733Y-114763989D01*
X168219728Y-114700515D01*
X168300515Y-114619728D01*
X168363989Y-114524733D01*
X168407711Y-114419180D01*
X168430000Y-114307125D01*
X168430000Y-114192875D01*
X172570000Y-114192875D01*
X172570000Y-114307125D01*
X172592289Y-114419180D01*
X172636011Y-114524733D01*
X172699485Y-114619728D01*
X172780272Y-114700515D01*
X172875267Y-114763989D01*
X172980820Y-114807711D01*
X173092875Y-114830000D01*
X173207125Y-114830000D01*
X173319180Y-114807711D01*
X173424733Y-114763989D01*
X173519728Y-114700515D01*
X173527368Y-114692875D01*
X175670000Y-114692875D01*
X175670000Y-114807125D01*
X175692289Y-114919180D01*
X175736011Y-115024733D01*
X175799485Y-115119728D01*
X175880272Y-115200515D01*
X175975267Y-115263989D01*
X176080820Y-115307711D01*
X176192875Y-115330000D01*
X176307125Y-115330000D01*
X176419180Y-115307711D01*
X176524733Y-115263989D01*
X176619728Y-115200515D01*
X176627368Y-115192875D01*
X188670000Y-115192875D01*
X188670000Y-115307125D01*
X188692289Y-115419180D01*
X188736011Y-115524733D01*
X188799485Y-115619728D01*
X188880272Y-115700515D01*
X188975267Y-115763989D01*
X189080820Y-115807711D01*
X189192875Y-115830000D01*
X189307125Y-115830000D01*
X189419180Y-115807711D01*
X189524733Y-115763989D01*
X189619728Y-115700515D01*
X189700515Y-115619728D01*
X189763989Y-115524733D01*
X189807711Y-115419180D01*
X189830000Y-115307125D01*
X189830000Y-115192875D01*
X189807711Y-115080820D01*
X189763989Y-114975267D01*
X189700515Y-114880272D01*
X189619728Y-114799485D01*
X189524733Y-114736011D01*
X189419180Y-114692289D01*
X189307125Y-114670000D01*
X189192875Y-114670000D01*
X189080820Y-114692289D01*
X188975267Y-114736011D01*
X188880272Y-114799485D01*
X188799485Y-114880272D01*
X188736011Y-114975267D01*
X188692289Y-115080820D01*
X188670000Y-115192875D01*
X176627368Y-115192875D01*
X176700515Y-115119728D01*
X176763989Y-115024733D01*
X176807711Y-114919180D01*
X176830000Y-114807125D01*
X176830000Y-114692875D01*
X176807711Y-114580820D01*
X176763989Y-114475267D01*
X176700515Y-114380272D01*
X176619728Y-114299485D01*
X176524733Y-114236011D01*
X176419180Y-114192289D01*
X176307125Y-114170000D01*
X176192875Y-114170000D01*
X176080820Y-114192289D01*
X175975267Y-114236011D01*
X175880272Y-114299485D01*
X175799485Y-114380272D01*
X175736011Y-114475267D01*
X175692289Y-114580820D01*
X175670000Y-114692875D01*
X173527368Y-114692875D01*
X173600515Y-114619728D01*
X173663989Y-114524733D01*
X173707711Y-114419180D01*
X173730000Y-114307125D01*
X173730000Y-114192875D01*
X173707711Y-114080820D01*
X173663989Y-113975267D01*
X173600515Y-113880272D01*
X173519728Y-113799485D01*
X173424733Y-113736011D01*
X173319180Y-113692289D01*
X173207125Y-113670000D01*
X173092875Y-113670000D01*
X172980820Y-113692289D01*
X172875267Y-113736011D01*
X172780272Y-113799485D01*
X172699485Y-113880272D01*
X172636011Y-113975267D01*
X172592289Y-114080820D01*
X172570000Y-114192875D01*
X168430000Y-114192875D01*
X168407711Y-114080820D01*
X168363989Y-113975267D01*
X168300515Y-113880272D01*
X168219728Y-113799485D01*
X168124733Y-113736011D01*
X168019180Y-113692289D01*
X167907125Y-113670000D01*
X167792875Y-113670000D01*
X167680820Y-113692289D01*
X167575267Y-113736011D01*
X167480272Y-113799485D01*
X167399485Y-113880272D01*
X167336011Y-113975267D01*
X167292289Y-114080820D01*
X167270000Y-114192875D01*
X166330000Y-114192875D01*
X166307711Y-114080820D01*
X166263989Y-113975267D01*
X166200515Y-113880272D01*
X166119728Y-113799485D01*
X166024733Y-113736011D01*
X165919180Y-113692289D01*
X165807125Y-113670000D01*
X165692875Y-113670000D01*
X165580820Y-113692289D01*
X165475267Y-113736011D01*
X165380272Y-113799485D01*
X165299485Y-113880272D01*
X165236011Y-113975267D01*
X165192289Y-114080820D01*
X165170000Y-114192875D01*
X161005000Y-114192875D01*
X160982711Y-114080820D01*
X160938989Y-113975267D01*
X160875515Y-113880272D01*
X160794728Y-113799485D01*
X160699733Y-113736011D01*
X160594180Y-113692289D01*
X160482125Y-113670000D01*
X160367875Y-113670000D01*
X160255820Y-113692289D01*
X160150267Y-113736011D01*
X160055272Y-113799485D01*
X159974485Y-113880272D01*
X159911011Y-113975267D01*
X159867289Y-114080820D01*
X159845000Y-114192875D01*
X90600000Y-114192875D01*
X90600000Y-113192875D01*
X101670000Y-113192875D01*
X101670000Y-113307125D01*
X101692289Y-113419180D01*
X101736011Y-113524733D01*
X101799485Y-113619728D01*
X101880272Y-113700515D01*
X101975267Y-113763989D01*
X102080820Y-113807711D01*
X102192875Y-113830000D01*
X102307125Y-113830000D01*
X102419180Y-113807711D01*
X102524733Y-113763989D01*
X102619728Y-113700515D01*
X102700515Y-113619728D01*
X102763989Y-113524733D01*
X102807711Y-113419180D01*
X102830000Y-113307125D01*
X102830000Y-113192875D01*
X102807711Y-113080820D01*
X102763989Y-112975267D01*
X102700515Y-112880272D01*
X102619728Y-112799485D01*
X102524733Y-112736011D01*
X102419180Y-112692289D01*
X102307125Y-112670000D01*
X102192875Y-112670000D01*
X102080820Y-112692289D01*
X101975267Y-112736011D01*
X101880272Y-112799485D01*
X101799485Y-112880272D01*
X101736011Y-112975267D01*
X101692289Y-113080820D01*
X101670000Y-113192875D01*
X90600000Y-113192875D01*
X90600000Y-112541422D01*
X91041422Y-112100000D01*
X96500000Y-112100000D01*
X96519509Y-112098079D01*
X96538268Y-112092388D01*
X96555557Y-112083147D01*
X96570711Y-112070711D01*
X96583147Y-112055557D01*
X96592388Y-112038268D01*
X96598079Y-112019509D01*
X96600000Y-112000000D01*
X96600000Y-110192875D01*
X175670000Y-110192875D01*
X175670000Y-110307125D01*
X175692289Y-110419180D01*
X175736011Y-110524733D01*
X175799485Y-110619728D01*
X175880272Y-110700515D01*
X175975267Y-110763989D01*
X176080820Y-110807711D01*
X176192875Y-110830000D01*
X176307125Y-110830000D01*
X176419180Y-110807711D01*
X176524733Y-110763989D01*
X176619728Y-110700515D01*
X176700515Y-110619728D01*
X176763989Y-110524733D01*
X176807711Y-110419180D01*
X176830000Y-110307125D01*
X176830000Y-110192875D01*
X176807711Y-110080820D01*
X176763989Y-109975267D01*
X176700515Y-109880272D01*
X176619728Y-109799485D01*
X176524733Y-109736011D01*
X176419180Y-109692289D01*
X176307125Y-109670000D01*
X176192875Y-109670000D01*
X176080820Y-109692289D01*
X175975267Y-109736011D01*
X175880272Y-109799485D01*
X175799485Y-109880272D01*
X175736011Y-109975267D01*
X175692289Y-110080820D01*
X175670000Y-110192875D01*
X96600000Y-110192875D01*
X96600000Y-108692875D01*
X99420000Y-108692875D01*
X99420000Y-108807125D01*
X99442289Y-108919180D01*
X99486011Y-109024733D01*
X99549485Y-109119728D01*
X99630272Y-109200515D01*
X99725267Y-109263989D01*
X99830820Y-109307711D01*
X99942875Y-109330000D01*
X100057125Y-109330000D01*
X100169180Y-109307711D01*
X100274733Y-109263989D01*
X100369728Y-109200515D01*
X100450515Y-109119728D01*
X100513989Y-109024733D01*
X100557711Y-108919180D01*
X100580000Y-108807125D01*
X100580000Y-108692875D01*
X100557711Y-108580820D01*
X100513989Y-108475267D01*
X100450515Y-108380272D01*
X100369728Y-108299485D01*
X100274733Y-108236011D01*
X100169180Y-108192289D01*
X100057125Y-108170000D01*
X99942875Y-108170000D01*
X99830820Y-108192289D01*
X99725267Y-108236011D01*
X99630272Y-108299485D01*
X99549485Y-108380272D01*
X99486011Y-108475267D01*
X99442289Y-108580820D01*
X99420000Y-108692875D01*
X96600000Y-108692875D01*
X96600000Y-107192875D01*
X118670000Y-107192875D01*
X118670000Y-107307125D01*
X118692289Y-107419180D01*
X118736011Y-107524733D01*
X118799485Y-107619728D01*
X118880272Y-107700515D01*
X118975267Y-107763989D01*
X119080820Y-107807711D01*
X119192875Y-107830000D01*
X119307125Y-107830000D01*
X119419180Y-107807711D01*
X119524733Y-107763989D01*
X119619728Y-107700515D01*
X119700515Y-107619728D01*
X119763989Y-107524733D01*
X119807711Y-107419180D01*
X119830000Y-107307125D01*
X119830000Y-107192875D01*
X119807711Y-107080820D01*
X119763989Y-106975267D01*
X119700515Y-106880272D01*
X119619728Y-106799485D01*
X119524733Y-106736011D01*
X119419180Y-106692289D01*
X119307125Y-106670000D01*
X119192875Y-106670000D01*
X119080820Y-106692289D01*
X118975267Y-106736011D01*
X118880272Y-106799485D01*
X118799485Y-106880272D01*
X118736011Y-106975267D01*
X118692289Y-107080820D01*
X118670000Y-107192875D01*
X96600000Y-107192875D01*
X96600000Y-95942875D01*
X126020000Y-95942875D01*
X126020000Y-96057125D01*
X126042289Y-96169180D01*
X126086011Y-96274733D01*
X126149485Y-96369728D01*
X126230272Y-96450515D01*
X126325267Y-96513989D01*
X126430820Y-96557711D01*
X126542875Y-96580000D01*
X126657125Y-96580000D01*
X126769180Y-96557711D01*
X126874733Y-96513989D01*
X126969728Y-96450515D01*
X127050515Y-96369728D01*
X127113989Y-96274733D01*
X127157711Y-96169180D01*
X127180000Y-96057125D01*
X127180000Y-95942875D01*
X127157711Y-95830820D01*
X127113989Y-95725267D01*
X127050515Y-95630272D01*
X126969728Y-95549485D01*
X126874733Y-95486011D01*
X126769180Y-95442289D01*
X126657125Y-95420000D01*
X126542875Y-95420000D01*
X126430820Y-95442289D01*
X126325267Y-95486011D01*
X126230272Y-95549485D01*
X126149485Y-95630272D01*
X126086011Y-95725267D01*
X126042289Y-95830820D01*
X126020000Y-95942875D01*
X96600000Y-95942875D01*
X96600000Y-93431056D01*
X120550000Y-93431056D01*
X120550000Y-93568944D01*
X120576901Y-93704182D01*
X120629668Y-93831574D01*
X120706274Y-93946224D01*
X120803776Y-94043726D01*
X120918426Y-94120332D01*
X121045818Y-94173099D01*
X121181056Y-94200000D01*
X121318944Y-94200000D01*
X121454182Y-94173099D01*
X121581574Y-94120332D01*
X121696224Y-94043726D01*
X121793726Y-93946224D01*
X121870332Y-93831574D01*
X121923099Y-93704182D01*
X121950000Y-93568944D01*
X121950000Y-93431056D01*
X121923099Y-93295818D01*
X121870332Y-93168426D01*
X121793726Y-93053776D01*
X121696224Y-92956274D01*
X121581574Y-92879668D01*
X121454182Y-92826901D01*
X121318944Y-92800000D01*
X121181056Y-92800000D01*
X121045818Y-92826901D01*
X120918426Y-92879668D01*
X120803776Y-92956274D01*
X120706274Y-93053776D01*
X120629668Y-93168426D01*
X120576901Y-93295818D01*
X120550000Y-93431056D01*
X96600000Y-93431056D01*
X96600000Y-91192886D01*
X113420000Y-91192886D01*
X113420000Y-91307136D01*
X113442289Y-91419191D01*
X113486011Y-91524744D01*
X113549485Y-91619739D01*
X113630272Y-91700526D01*
X113725267Y-91764000D01*
X113830820Y-91807722D01*
X113942875Y-91830011D01*
X114057125Y-91830011D01*
X114169180Y-91807722D01*
X114274733Y-91764000D01*
X114369728Y-91700526D01*
X114450515Y-91619739D01*
X114513989Y-91524744D01*
X114557711Y-91419191D01*
X114580000Y-91307136D01*
X114580000Y-91192886D01*
X114557711Y-91080831D01*
X114513989Y-90975278D01*
X114492338Y-90942875D01*
X126670000Y-90942875D01*
X126670000Y-91057125D01*
X126692289Y-91169180D01*
X126736011Y-91274733D01*
X126799485Y-91369728D01*
X126880272Y-91450515D01*
X126975267Y-91513989D01*
X127080820Y-91557711D01*
X127192875Y-91580000D01*
X127307125Y-91580000D01*
X127419180Y-91557711D01*
X127524733Y-91513989D01*
X127619728Y-91450515D01*
X127700515Y-91369728D01*
X127763989Y-91274733D01*
X127807711Y-91169180D01*
X127830000Y-91057125D01*
X127830000Y-90942875D01*
X127807711Y-90830820D01*
X127763989Y-90725267D01*
X127700515Y-90630272D01*
X127619728Y-90549485D01*
X127524733Y-90486011D01*
X127419180Y-90442289D01*
X127307125Y-90420000D01*
X127192875Y-90420000D01*
X127080820Y-90442289D01*
X126975267Y-90486011D01*
X126880272Y-90549485D01*
X126799485Y-90630272D01*
X126736011Y-90725267D01*
X126692289Y-90830820D01*
X126670000Y-90942875D01*
X114492338Y-90942875D01*
X114450515Y-90880283D01*
X114369728Y-90799496D01*
X114274733Y-90736022D01*
X114169180Y-90692300D01*
X114057125Y-90670011D01*
X113942875Y-90670011D01*
X113830820Y-90692300D01*
X113725267Y-90736022D01*
X113630272Y-90799496D01*
X113549485Y-90880283D01*
X113486011Y-90975278D01*
X113442289Y-91080831D01*
X113420000Y-91192886D01*
X96600000Y-91192886D01*
X96600000Y-90500000D01*
X96598079Y-90480491D01*
X96592388Y-90461732D01*
X96583147Y-90444443D01*
X96570711Y-90429289D01*
X96555557Y-90416853D01*
X96538268Y-90407612D01*
X96519509Y-90401921D01*
X96500000Y-90400000D01*
X91041422Y-90400000D01*
X90600000Y-89958578D01*
X90600000Y-87421207D01*
X99180000Y-87421207D01*
X99180000Y-87578793D01*
X99210743Y-87733351D01*
X99271049Y-87878942D01*
X99358599Y-88009970D01*
X99470030Y-88121401D01*
X99490382Y-88135000D01*
X99470030Y-88148599D01*
X99358599Y-88260030D01*
X99271049Y-88391058D01*
X99210743Y-88536649D01*
X99180000Y-88691207D01*
X99180000Y-88848793D01*
X99210743Y-89003351D01*
X99271049Y-89148942D01*
X99358599Y-89279970D01*
X99470030Y-89391401D01*
X99601058Y-89478951D01*
X99746649Y-89539257D01*
X99901207Y-89570000D01*
X100058793Y-89570000D01*
X100213351Y-89539257D01*
X100358942Y-89478951D01*
X100489970Y-89391401D01*
X100601401Y-89279970D01*
X100615000Y-89259618D01*
X100628599Y-89279970D01*
X100740030Y-89391401D01*
X100871058Y-89478951D01*
X101016649Y-89539257D01*
X101171207Y-89570000D01*
X101328793Y-89570000D01*
X101483351Y-89539257D01*
X101628942Y-89478951D01*
X101759970Y-89391401D01*
X101871401Y-89279970D01*
X101885000Y-89259618D01*
X101898599Y-89279970D01*
X102010030Y-89391401D01*
X102141058Y-89478951D01*
X102286649Y-89539257D01*
X102441207Y-89570000D01*
X102598793Y-89570000D01*
X102753351Y-89539257D01*
X102898942Y-89478951D01*
X103029970Y-89391401D01*
X103141401Y-89279970D01*
X103228951Y-89148942D01*
X103289257Y-89003351D01*
X103320000Y-88848793D01*
X103320000Y-88691207D01*
X103289257Y-88536649D01*
X103228951Y-88391058D01*
X103141401Y-88260030D01*
X103029970Y-88148599D01*
X103009618Y-88135000D01*
X103029970Y-88121401D01*
X103141401Y-88009970D01*
X103228951Y-87878942D01*
X103289257Y-87733351D01*
X103320000Y-87578793D01*
X103320000Y-87421207D01*
X103289257Y-87266649D01*
X103228951Y-87121058D01*
X103141401Y-86990030D01*
X103029970Y-86878599D01*
X102898942Y-86791049D01*
X102753351Y-86730743D01*
X102598793Y-86700000D01*
X102441207Y-86700000D01*
X102286649Y-86730743D01*
X102141058Y-86791049D01*
X102010030Y-86878599D01*
X101898599Y-86990030D01*
X101811049Y-87121058D01*
X101789818Y-87172314D01*
X101462132Y-87500000D01*
X101789818Y-87827686D01*
X101811049Y-87878942D01*
X101898599Y-88009970D01*
X102010030Y-88121401D01*
X102030382Y-88135000D01*
X102010030Y-88148599D01*
X101898599Y-88260030D01*
X101885000Y-88280382D01*
X101871401Y-88260030D01*
X101759970Y-88148599D01*
X101628942Y-88061049D01*
X101577686Y-88039818D01*
X101250000Y-87712132D01*
X100922314Y-88039818D01*
X100871058Y-88061049D01*
X100740030Y-88148599D01*
X100628599Y-88260030D01*
X100615000Y-88280382D01*
X100601401Y-88260030D01*
X100489970Y-88148599D01*
X100469618Y-88135000D01*
X100489970Y-88121401D01*
X100601401Y-88009970D01*
X100688951Y-87878942D01*
X100710182Y-87827686D01*
X101037868Y-87500000D01*
X100710182Y-87172314D01*
X100688951Y-87121058D01*
X100601401Y-86990030D01*
X100489970Y-86878599D01*
X100465630Y-86862335D01*
X100824467Y-86862335D01*
X101250000Y-87287868D01*
X101675533Y-86862335D01*
X101622880Y-86731580D01*
X101465804Y-86673599D01*
X101300434Y-86647377D01*
X101133127Y-86653921D01*
X100970311Y-86692979D01*
X100877120Y-86731580D01*
X100824467Y-86862335D01*
X100465630Y-86862335D01*
X100358942Y-86791049D01*
X100213351Y-86730743D01*
X100058793Y-86700000D01*
X99901207Y-86700000D01*
X99746649Y-86730743D01*
X99601058Y-86791049D01*
X99470030Y-86878599D01*
X99358599Y-86990030D01*
X99271049Y-87121058D01*
X99210743Y-87266649D01*
X99180000Y-87421207D01*
X90600000Y-87421207D01*
X90600000Y-84192875D01*
X98920000Y-84192875D01*
X98920000Y-84307125D01*
X98942289Y-84419180D01*
X98986011Y-84524733D01*
X99049485Y-84619728D01*
X99130272Y-84700515D01*
X99225267Y-84763989D01*
X99330820Y-84807711D01*
X99442875Y-84830000D01*
X99557125Y-84830000D01*
X99669180Y-84807711D01*
X99774733Y-84763989D01*
X99869728Y-84700515D01*
X99950515Y-84619728D01*
X100013989Y-84524733D01*
X100057711Y-84419180D01*
X100080000Y-84307125D01*
X100080000Y-84192875D01*
X100057711Y-84080820D01*
X100013989Y-83975267D01*
X99950515Y-83880272D01*
X99869728Y-83799485D01*
X99774733Y-83736011D01*
X99669180Y-83692289D01*
X99557125Y-83670000D01*
X99442875Y-83670000D01*
X99330820Y-83692289D01*
X99225267Y-83736011D01*
X99130272Y-83799485D01*
X99049485Y-83880272D01*
X98986011Y-83975267D01*
X98942289Y-84080820D01*
X98920000Y-84192875D01*
X90600000Y-84192875D01*
X90600000Y-81542875D01*
X92670000Y-81542875D01*
X92670000Y-81657125D01*
X92692289Y-81769180D01*
X92736011Y-81874733D01*
X92799485Y-81969728D01*
X92880272Y-82050515D01*
X92975267Y-82113989D01*
X93080820Y-82157711D01*
X93192875Y-82180000D01*
X93307125Y-82180000D01*
X93419180Y-82157711D01*
X93524733Y-82113989D01*
X93619728Y-82050515D01*
X93700515Y-81969728D01*
X93763989Y-81874733D01*
X93807711Y-81769180D01*
X93830000Y-81657125D01*
X93830000Y-81542875D01*
X96820000Y-81542875D01*
X96820000Y-81657125D01*
X96842289Y-81769180D01*
X96886011Y-81874733D01*
X96949485Y-81969728D01*
X97030272Y-82050515D01*
X97125267Y-82113989D01*
X97230820Y-82157711D01*
X97342875Y-82180000D01*
X97457125Y-82180000D01*
X97569180Y-82157711D01*
X97674733Y-82113989D01*
X97769728Y-82050515D01*
X97850515Y-81969728D01*
X97913989Y-81874733D01*
X97957711Y-81769180D01*
X97980000Y-81657125D01*
X97980000Y-81542875D01*
X97957711Y-81430820D01*
X97913989Y-81325267D01*
X97850515Y-81230272D01*
X97769728Y-81149485D01*
X97674733Y-81086011D01*
X97569180Y-81042289D01*
X97457125Y-81020000D01*
X97342875Y-81020000D01*
X97230820Y-81042289D01*
X97125267Y-81086011D01*
X97030272Y-81149485D01*
X96949485Y-81230272D01*
X96886011Y-81325267D01*
X96842289Y-81430820D01*
X96820000Y-81542875D01*
X93830000Y-81542875D01*
X93807711Y-81430820D01*
X93763989Y-81325267D01*
X93700515Y-81230272D01*
X93619728Y-81149485D01*
X93524733Y-81086011D01*
X93419180Y-81042289D01*
X93307125Y-81020000D01*
X93192875Y-81020000D01*
X93080820Y-81042289D01*
X92975267Y-81086011D01*
X92880272Y-81149485D01*
X92799485Y-81230272D01*
X92736011Y-81325267D01*
X92692289Y-81430820D01*
X92670000Y-81542875D01*
X90600000Y-81542875D01*
X90600000Y-76791422D01*
X91041422Y-76350000D01*
X97958578Y-76350000D01*
X98400000Y-76791422D01*
X98400000Y-79000000D01*
X98401921Y-79019509D01*
X98407612Y-79038268D01*
X98416853Y-79055557D01*
X98429289Y-79070711D01*
X101929289Y-82570711D01*
X101944443Y-82583147D01*
X101961732Y-82592388D01*
X101980491Y-82598079D01*
X102000000Y-82600000D01*
X115458578Y-82600000D01*
X115900000Y-83041422D01*
X115900000Y-85750000D01*
X115901921Y-85769509D01*
X115907612Y-85788268D01*
X115916853Y-85805557D01*
X115929289Y-85820711D01*
X116929289Y-86820711D01*
X116944443Y-86833147D01*
X116961732Y-86842388D01*
X116980491Y-86848079D01*
X117000000Y-86850000D01*
X123708578Y-86850000D01*
X124679289Y-87820711D01*
X124694443Y-87833147D01*
X124711732Y-87842388D01*
X124730491Y-87848079D01*
X124750000Y-87850000D01*
X134208578Y-87850000D01*
X135150000Y-88791422D01*
X135150000Y-92708578D01*
X134208578Y-93650000D01*
X130250000Y-93650000D01*
X130230491Y-93651921D01*
X130211732Y-93657612D01*
X130194443Y-93666853D01*
X130179289Y-93679289D01*
X128679289Y-95179289D01*
X128666853Y-95194443D01*
X128657612Y-95211732D01*
X128651921Y-95230491D01*
X128650000Y-95250000D01*
X128650000Y-105250000D01*
X128651921Y-105269509D01*
X128657612Y-105288268D01*
X128666853Y-105305557D01*
X128679289Y-105320711D01*
X129679289Y-106320711D01*
X129694443Y-106333147D01*
X129711732Y-106342388D01*
X129730491Y-106348079D01*
X129750000Y-106350000D01*
X153250000Y-106350000D01*
X153269509Y-106348079D01*
X153288268Y-106342388D01*
X153305557Y-106333147D01*
X153320711Y-106320711D01*
X156948547Y-102692875D01*
X191420000Y-102692875D01*
X191420000Y-102807125D01*
X191442289Y-102919180D01*
X191486011Y-103024733D01*
X191549485Y-103119728D01*
X191630272Y-103200515D01*
X191725267Y-103263989D01*
X191830820Y-103307711D01*
X191942875Y-103330000D01*
X192057125Y-103330000D01*
X192169180Y-103307711D01*
X192274733Y-103263989D01*
X192369728Y-103200515D01*
X192450515Y-103119728D01*
X192513989Y-103024733D01*
X192557711Y-102919180D01*
X192580000Y-102807125D01*
X192580000Y-102692875D01*
X192557711Y-102580820D01*
X192513989Y-102475267D01*
X192450515Y-102380272D01*
X192369728Y-102299485D01*
X192274733Y-102236011D01*
X192169180Y-102192289D01*
X192057125Y-102170000D01*
X191942875Y-102170000D01*
X191830820Y-102192289D01*
X191725267Y-102236011D01*
X191630272Y-102299485D01*
X191549485Y-102380272D01*
X191486011Y-102475267D01*
X191442289Y-102580820D01*
X191420000Y-102692875D01*
X156948547Y-102692875D01*
X160210366Y-99431056D01*
X166300000Y-99431056D01*
X166300000Y-99568944D01*
X166326901Y-99704182D01*
X166379668Y-99831574D01*
X166456274Y-99946224D01*
X166553776Y-100043726D01*
X166668426Y-100120332D01*
X166795818Y-100173099D01*
X166931056Y-100200000D01*
X167068944Y-100200000D01*
X167204182Y-100173099D01*
X167331574Y-100120332D01*
X167446224Y-100043726D01*
X167543726Y-99946224D01*
X167620332Y-99831574D01*
X167673099Y-99704182D01*
X167700000Y-99568944D01*
X167700000Y-99431056D01*
X167673099Y-99295818D01*
X167620332Y-99168426D01*
X167543726Y-99053776D01*
X167446224Y-98956274D01*
X167331574Y-98879668D01*
X167204182Y-98826901D01*
X167068944Y-98800000D01*
X166931056Y-98800000D01*
X166795818Y-98826901D01*
X166668426Y-98879668D01*
X166553776Y-98956274D01*
X166456274Y-99053776D01*
X166379668Y-99168426D01*
X166326901Y-99295818D01*
X166300000Y-99431056D01*
X160210366Y-99431056D01*
X161320711Y-98320711D01*
X161333147Y-98305557D01*
X161342388Y-98288268D01*
X161348079Y-98269509D01*
X161350000Y-98250000D01*
X161350000Y-96969955D01*
X161520744Y-97084043D01*
X161712559Y-97163496D01*
X161916190Y-97204000D01*
X162123810Y-97204000D01*
X162327441Y-97163496D01*
X162519256Y-97084043D01*
X162691886Y-96968695D01*
X162756581Y-96904000D01*
X163454306Y-96904000D01*
X163461064Y-96972612D01*
X163481077Y-97038587D01*
X163513577Y-97099391D01*
X163557315Y-97152685D01*
X163610609Y-97196423D01*
X163671413Y-97228923D01*
X163737388Y-97248936D01*
X163806000Y-97255694D01*
X164322500Y-97254000D01*
X164410000Y-97166500D01*
X164410000Y-96300000D01*
X164710000Y-96300000D01*
X164710000Y-97166500D01*
X164797500Y-97254000D01*
X165314000Y-97255694D01*
X165382612Y-97248936D01*
X165448587Y-97228923D01*
X165509391Y-97196423D01*
X165562685Y-97152685D01*
X165606423Y-97099391D01*
X165638923Y-97038587D01*
X165658936Y-96972612D01*
X165665694Y-96904000D01*
X165664000Y-96387500D01*
X165576500Y-96300000D01*
X164710000Y-96300000D01*
X164410000Y-96300000D01*
X163543500Y-96300000D01*
X163456000Y-96387500D01*
X163454306Y-96904000D01*
X162756581Y-96904000D01*
X162838695Y-96821886D01*
X162954043Y-96649256D01*
X163033496Y-96457441D01*
X163074000Y-96253810D01*
X163074000Y-96046190D01*
X163033496Y-95842559D01*
X162954043Y-95650744D01*
X162838695Y-95478114D01*
X162756581Y-95396000D01*
X163454306Y-95396000D01*
X163456000Y-95912500D01*
X163543500Y-96000000D01*
X164410000Y-96000000D01*
X164410000Y-95133500D01*
X164710000Y-95133500D01*
X164710000Y-96000000D01*
X165576500Y-96000000D01*
X165664000Y-95912500D01*
X165665694Y-95396000D01*
X165658936Y-95327388D01*
X165638923Y-95261413D01*
X165606423Y-95200609D01*
X165562685Y-95147315D01*
X165509391Y-95103577D01*
X165448587Y-95071077D01*
X165382612Y-95051064D01*
X165314000Y-95044306D01*
X164797500Y-95046000D01*
X164710000Y-95133500D01*
X164410000Y-95133500D01*
X164322500Y-95046000D01*
X163806000Y-95044306D01*
X163737388Y-95051064D01*
X163671413Y-95071077D01*
X163610609Y-95103577D01*
X163557315Y-95147315D01*
X163513577Y-95200609D01*
X163481077Y-95261413D01*
X163461064Y-95327388D01*
X163454306Y-95396000D01*
X162756581Y-95396000D01*
X162691886Y-95331305D01*
X162519256Y-95215957D01*
X162327441Y-95136504D01*
X162123810Y-95096000D01*
X161916190Y-95096000D01*
X161712559Y-95136504D01*
X161520744Y-95215957D01*
X161350000Y-95330045D01*
X161350000Y-95041422D01*
X161791422Y-94600000D01*
X170250000Y-94600000D01*
X170269509Y-94598079D01*
X170288268Y-94592388D01*
X170305557Y-94583147D01*
X170320711Y-94570711D01*
X171320711Y-93570711D01*
X171333147Y-93555557D01*
X171342388Y-93538268D01*
X171348079Y-93519509D01*
X171350000Y-93500000D01*
X171350000Y-92192875D01*
X171920000Y-92192875D01*
X171920000Y-92307125D01*
X171942289Y-92419180D01*
X171986011Y-92524733D01*
X172049485Y-92619728D01*
X172130272Y-92700515D01*
X172225267Y-92763989D01*
X172330820Y-92807711D01*
X172442875Y-92830000D01*
X172557125Y-92830000D01*
X172669180Y-92807711D01*
X172774733Y-92763989D01*
X172869728Y-92700515D01*
X172950515Y-92619728D01*
X173013989Y-92524733D01*
X173057711Y-92419180D01*
X173080000Y-92307125D01*
X173080000Y-92192875D01*
X173057711Y-92080820D01*
X173013989Y-91975267D01*
X172950515Y-91880272D01*
X172869728Y-91799485D01*
X172774733Y-91736011D01*
X172669180Y-91692289D01*
X172557125Y-91670000D01*
X172442875Y-91670000D01*
X172330820Y-91692289D01*
X172225267Y-91736011D01*
X172130272Y-91799485D01*
X172049485Y-91880272D01*
X171986011Y-91975267D01*
X171942289Y-92080820D01*
X171920000Y-92192875D01*
X171350000Y-92192875D01*
X171350000Y-84541422D01*
X175157196Y-80734226D01*
X187737907Y-80734226D01*
X187848752Y-80913444D01*
X188087363Y-81019212D01*
X188342023Y-81076397D01*
X188602947Y-81082802D01*
X188860107Y-81038180D01*
X189103620Y-80944246D01*
X189161248Y-80913444D01*
X189272093Y-80734226D01*
X188505000Y-79967132D01*
X187737907Y-80734226D01*
X175157196Y-80734226D01*
X176038475Y-79852947D01*
X187177198Y-79852947D01*
X187221820Y-80110107D01*
X187315754Y-80353620D01*
X187346556Y-80411248D01*
X187525774Y-80522093D01*
X188292868Y-79755000D01*
X188717132Y-79755000D01*
X189484226Y-80522093D01*
X189663444Y-80411248D01*
X189769212Y-80172637D01*
X189826397Y-79917977D01*
X189832802Y-79657053D01*
X189788180Y-79399893D01*
X189694246Y-79156380D01*
X189663444Y-79098752D01*
X189484226Y-78987907D01*
X188717132Y-79755000D01*
X188292868Y-79755000D01*
X187525774Y-78987907D01*
X187346556Y-79098752D01*
X187240788Y-79337363D01*
X187183603Y-79592023D01*
X187177198Y-79852947D01*
X176038475Y-79852947D01*
X177115648Y-78775774D01*
X187737907Y-78775774D01*
X188505000Y-79542868D01*
X189272093Y-78775774D01*
X189161248Y-78596556D01*
X188922637Y-78490788D01*
X188667977Y-78433603D01*
X188407053Y-78427198D01*
X188149893Y-78471820D01*
X187906380Y-78565754D01*
X187848752Y-78596556D01*
X187737907Y-78775774D01*
X177115648Y-78775774D01*
X177494740Y-78396682D01*
X189946000Y-78396682D01*
X189946000Y-78603318D01*
X189986312Y-78805982D01*
X190065388Y-78996888D01*
X190180188Y-79168699D01*
X190326301Y-79314812D01*
X190498112Y-79429612D01*
X190689018Y-79508688D01*
X190891682Y-79549000D01*
X191098318Y-79549000D01*
X191300982Y-79508688D01*
X191491888Y-79429612D01*
X191663699Y-79314812D01*
X191809812Y-79168699D01*
X191924612Y-78996888D01*
X192003688Y-78805982D01*
X192044000Y-78603318D01*
X192044000Y-78396682D01*
X192003688Y-78194018D01*
X191924612Y-78003112D01*
X191809812Y-77831301D01*
X191663699Y-77685188D01*
X191491888Y-77570388D01*
X191300982Y-77491312D01*
X191098318Y-77451000D01*
X190891682Y-77451000D01*
X190689018Y-77491312D01*
X190498112Y-77570388D01*
X190326301Y-77685188D01*
X190180188Y-77831301D01*
X190065388Y-78003112D01*
X189986312Y-78194018D01*
X189946000Y-78396682D01*
X177494740Y-78396682D01*
X180070711Y-75820711D01*
X180083147Y-75805557D01*
X180092388Y-75788268D01*
X180098079Y-75769509D01*
X180100000Y-75750000D01*
X180100000Y-74817198D01*
X190389934Y-74817198D01*
X190473267Y-74973300D01*
X190673173Y-75056384D01*
X190885447Y-75098871D01*
X191101931Y-75099129D01*
X191314305Y-75057149D01*
X191514410Y-74974543D01*
X191516733Y-74973300D01*
X191600066Y-74817198D01*
X190995000Y-74212132D01*
X190389934Y-74817198D01*
X180100000Y-74817198D01*
X180100000Y-74106931D01*
X189895871Y-74106931D01*
X189937851Y-74319305D01*
X190020457Y-74519410D01*
X190021700Y-74521733D01*
X190177802Y-74605066D01*
X190782868Y-74000000D01*
X191207132Y-74000000D01*
X191812198Y-74605066D01*
X191968300Y-74521733D01*
X192051384Y-74321827D01*
X192093871Y-74109553D01*
X192094129Y-73893069D01*
X192052149Y-73680695D01*
X191969543Y-73480590D01*
X191968300Y-73478267D01*
X191812198Y-73394934D01*
X191207132Y-74000000D01*
X190782868Y-74000000D01*
X190177802Y-73394934D01*
X190021700Y-73478267D01*
X189938616Y-73678173D01*
X189896129Y-73890447D01*
X189895871Y-74106931D01*
X180100000Y-74106931D01*
X180100000Y-73724226D01*
X187737907Y-73724226D01*
X187848752Y-73903444D01*
X188087363Y-74009212D01*
X188342023Y-74066397D01*
X188602947Y-74072802D01*
X188860107Y-74028180D01*
X189103620Y-73934246D01*
X189161248Y-73903444D01*
X189272093Y-73724226D01*
X188505000Y-72957132D01*
X187737907Y-73724226D01*
X180100000Y-73724226D01*
X180100000Y-72842947D01*
X187177198Y-72842947D01*
X187221820Y-73100107D01*
X187315754Y-73343620D01*
X187346556Y-73401248D01*
X187525774Y-73512093D01*
X188292868Y-72745000D01*
X188717132Y-72745000D01*
X189484226Y-73512093D01*
X189663444Y-73401248D01*
X189760273Y-73182802D01*
X190389934Y-73182802D01*
X190995000Y-73787868D01*
X191600066Y-73182802D01*
X191516733Y-73026700D01*
X191316827Y-72943616D01*
X191104553Y-72901129D01*
X190888069Y-72900871D01*
X190675695Y-72942851D01*
X190475590Y-73025457D01*
X190473267Y-73026700D01*
X190389934Y-73182802D01*
X189760273Y-73182802D01*
X189769212Y-73162637D01*
X189826397Y-72907977D01*
X189832802Y-72647053D01*
X189788180Y-72389893D01*
X189694246Y-72146380D01*
X189663444Y-72088752D01*
X189484226Y-71977907D01*
X188717132Y-72745000D01*
X188292868Y-72745000D01*
X187525774Y-71977907D01*
X187346556Y-72088752D01*
X187240788Y-72327363D01*
X187183603Y-72582023D01*
X187177198Y-72842947D01*
X180100000Y-72842947D01*
X180100000Y-71765774D01*
X187737907Y-71765774D01*
X188505000Y-72532868D01*
X189272093Y-71765774D01*
X189161248Y-71586556D01*
X188922637Y-71480788D01*
X188667977Y-71423603D01*
X188407053Y-71417198D01*
X188149893Y-71461820D01*
X187906380Y-71555754D01*
X187848752Y-71586556D01*
X187737907Y-71765774D01*
X180100000Y-71765774D01*
X180100000Y-63541422D01*
X180541422Y-63100000D01*
X193458578Y-63100000D01*
X193900000Y-63541422D01*
G37*
%TD.AperFunction*%
%TD*%
M02*
