%TF.GenerationSoftware,KiCad,Pcbnew,(5.1.8)-1*%
%TF.CreationDate,2022-12-08T11:32:54+02:00*%
%TF.ProjectId,Scale,5363616c-652e-46b6-9963-61645f706362,rev?*%
%TF.SameCoordinates,Original*%
%TF.FileFunction,Legend,Top*%
%TF.FilePolarity,Positive*%
%FSLAX46Y46*%
G04 Gerber Fmt 4.6, Leading zero omitted, Abs format (unit mm)*
G04 Created by KiCad (PCBNEW (5.1.8)-1) date 2022-12-08 11:32:54*
%MOMM*%
%LPD*%
G01*
G04 APERTURE LIST*
%ADD10C,0.120000*%
%ADD11C,0.200000*%
%ADD12C,0.127000*%
%ADD13C,0.150000*%
%ADD14C,0.100000*%
%ADD15C,0.152400*%
%ADD16C,0.300000*%
G04 APERTURE END LIST*
D10*
X119500000Y-133750000D02*
X119750000Y-133750000D01*
X119750000Y-134000000D02*
X119500000Y-133750000D01*
X119750000Y-133750000D02*
X119750000Y-134000000D01*
X119500000Y-134000000D02*
X119750000Y-133750000D01*
X117750000Y-134000000D02*
X119500000Y-134000000D01*
X117500000Y-134250000D02*
X117750000Y-134000000D01*
X117500000Y-137250000D02*
X117500000Y-134250000D01*
X170500000Y-116750000D02*
X170250000Y-116750000D01*
X170250000Y-116500000D02*
X170500000Y-116750000D01*
X170250000Y-116750000D02*
X170250000Y-116500000D01*
X170750000Y-116250000D02*
X170250000Y-116750000D01*
X170750000Y-107250000D02*
X170750000Y-116250000D01*
X170500000Y-107000000D02*
X170750000Y-107250000D01*
X168250000Y-116500000D02*
X168000000Y-116500000D01*
X168000000Y-116250000D02*
X168250000Y-116500000D01*
X168000000Y-116500000D02*
X168000000Y-116250000D01*
X168250000Y-116250000D02*
X168000000Y-116500000D01*
X170000000Y-116250000D02*
X168250000Y-116250000D01*
X170250000Y-116000000D02*
X170000000Y-116250000D01*
X170250000Y-108750000D02*
X170250000Y-116000000D01*
X167000000Y-116000000D02*
X166750000Y-116250000D01*
X166500000Y-116000000D02*
X167000000Y-116000000D01*
X166750000Y-116250000D02*
X166500000Y-116000000D01*
X166750000Y-114500000D02*
X166750000Y-116250000D01*
X177250000Y-116750000D02*
X177250000Y-116500000D01*
X177500000Y-116500000D02*
X177250000Y-116750000D01*
X177250000Y-116500000D02*
X177500000Y-116500000D01*
X178000000Y-117250000D02*
X177250000Y-116500000D01*
X109250000Y-68500000D02*
X109000000Y-68500000D01*
X109000000Y-68250000D02*
X109250000Y-68500000D01*
X109000000Y-68500000D02*
X109000000Y-68250000D01*
X109500000Y-68000000D02*
X109000000Y-68500000D01*
X114000000Y-68000000D02*
X109500000Y-68000000D01*
%TO.C,C43*%
X153711200Y-87311252D02*
X153711200Y-86788748D01*
X152288800Y-87311252D02*
X152288800Y-86788748D01*
%TO.C,C40*%
X152288800Y-90438748D02*
X152288800Y-90961252D01*
X153711200Y-90438748D02*
X153711200Y-90961252D01*
%TO.C,U21*%
X92940000Y-80750000D02*
X92940000Y-82700000D01*
X92940000Y-80750000D02*
X92940000Y-78800000D01*
X98060000Y-80750000D02*
X98060000Y-82700000D01*
X98060000Y-80750000D02*
X98060000Y-77300000D01*
%TO.C,R37*%
X92272500Y-79312258D02*
X92272500Y-78837742D01*
X91227500Y-79312258D02*
X91227500Y-78837742D01*
%TO.C,R36*%
X91227500Y-82187742D02*
X91227500Y-82662258D01*
X92272500Y-82187742D02*
X92272500Y-82662258D01*
%TO.C,C64*%
X98990000Y-82640580D02*
X98990000Y-82359420D01*
X100010000Y-82640580D02*
X100010000Y-82359420D01*
%TO.C,D12*%
X162910000Y-78930000D02*
X162910000Y-77520000D01*
X160590000Y-77520000D02*
X160590000Y-79550000D01*
X160590000Y-77520000D02*
X161250000Y-77520000D01*
X162250000Y-77520000D02*
X162910000Y-77520000D01*
%TO.C,D11*%
X165910000Y-78930000D02*
X165910000Y-77520000D01*
X163590000Y-77520000D02*
X163590000Y-79550000D01*
X163590000Y-77520000D02*
X164250000Y-77520000D01*
X165250000Y-77520000D02*
X165910000Y-77520000D01*
%TO.C,D10*%
X152910000Y-78930000D02*
X152910000Y-77520000D01*
X150590000Y-77520000D02*
X150590000Y-79550000D01*
X150590000Y-77520000D02*
X151250000Y-77520000D01*
X152250000Y-77520000D02*
X152910000Y-77520000D01*
%TO.C,D9*%
X155910000Y-78930000D02*
X155910000Y-77520000D01*
X153590000Y-77520000D02*
X153590000Y-79550000D01*
X153590000Y-77520000D02*
X154250000Y-77520000D01*
X155250000Y-77520000D02*
X155910000Y-77520000D01*
D11*
%TO.C,U7*%
X140900000Y-100730000D02*
G75*
G03*
X140900000Y-100730000I-100000J0D01*
G01*
D12*
X140275000Y-99900000D02*
X140275000Y-99160000D01*
X140275000Y-97640000D02*
X140275000Y-96900000D01*
X143275000Y-99900000D02*
X143275000Y-99160000D01*
X143275000Y-97640000D02*
X143275000Y-96900000D01*
%TO.C,SW1*%
X193605000Y-78005000D02*
X194145000Y-78005000D01*
X194145000Y-78005000D02*
X194145000Y-74495000D01*
X194145000Y-74495000D02*
X193605000Y-74495000D01*
X186985000Y-73850000D02*
X186985000Y-78650000D01*
X189750000Y-79805000D02*
X193585000Y-79805000D01*
X193585000Y-79805000D02*
X193585000Y-72695000D01*
X193585000Y-72695000D02*
X189750000Y-72695000D01*
D10*
%TO.C,C8*%
X180740000Y-120134420D02*
X180740000Y-120415580D01*
X181760000Y-120134420D02*
X181760000Y-120415580D01*
D13*
%TO.C,U12*%
X171758600Y-84325000D02*
X168050000Y-84325000D01*
X173429300Y-89725000D02*
X168045700Y-89725000D01*
%TO.C,U9*%
X134175000Y-88758600D02*
X134175000Y-85050000D01*
X128775000Y-90429300D02*
X128775000Y-85045700D01*
%TO.C,U5*%
X127395700Y-104175000D02*
X131104300Y-104175000D01*
X125725000Y-98775000D02*
X131108600Y-98775000D01*
D11*
%TO.C,J3*%
X98450000Y-134050000D02*
G75*
G03*
X98450000Y-134050000I-100000J0D01*
G01*
D12*
X111550000Y-147050000D02*
X95150000Y-147050000D01*
X111550000Y-135050000D02*
X111550000Y-147050000D01*
X95150000Y-135050000D02*
X111550000Y-135050000D01*
X95150000Y-147050000D02*
X95150000Y-135050000D01*
%TO.C,U19*%
X90000000Y-110250000D02*
X90000000Y-92250000D01*
X90000000Y-92250000D02*
X96720000Y-92250000D01*
X96720000Y-110250000D02*
X90000000Y-110250000D01*
D11*
X97590000Y-111450000D02*
G75*
G03*
X97590000Y-111450000I-100000J0D01*
G01*
D12*
X114770000Y-110250000D02*
X115500000Y-110250000D01*
X115500000Y-110250000D02*
X115500000Y-109005000D01*
X114770000Y-92250000D02*
X115500000Y-92250000D01*
X115500000Y-92250000D02*
X115500000Y-93495000D01*
D10*
%TO.C,D16*%
X100875000Y-71050000D02*
X99675000Y-71050000D01*
X100875000Y-72900000D02*
X100875000Y-71050000D01*
X99675000Y-72900000D02*
X99675000Y-71050000D01*
%TO.C,D15*%
X105925000Y-71050000D02*
X104725000Y-71050000D01*
X105925000Y-72900000D02*
X105925000Y-71050000D01*
X104725000Y-72900000D02*
X104725000Y-71050000D01*
%TO.C,D14*%
X111400000Y-71050000D02*
X110200000Y-71050000D01*
X111400000Y-72900000D02*
X111400000Y-71050000D01*
X110200000Y-72900000D02*
X110200000Y-71050000D01*
%TO.C,R40*%
X189687742Y-103522500D02*
X190162258Y-103522500D01*
X189687742Y-102477500D02*
X190162258Y-102477500D01*
%TO.C,R39*%
X189687742Y-101772500D02*
X190162258Y-101772500D01*
X189687742Y-100727500D02*
X190162258Y-100727500D01*
%TO.C,R38*%
X189687742Y-100022500D02*
X190162258Y-100022500D01*
X189687742Y-98977500D02*
X190162258Y-98977500D01*
D14*
%TO.C,D17*%
X193080000Y-103350000D02*
G75*
G03*
X193080000Y-103350000I-50000J0D01*
G01*
D12*
X193250000Y-100420000D02*
X193250000Y-102080000D01*
X193640000Y-100330000D02*
G75*
G02*
X193640000Y-102170000I-390517J-920000D01*
G01*
%TO.C,J1*%
X116500000Y-55450000D02*
X116500000Y-67450000D01*
X116500000Y-67450000D02*
X95100000Y-67450000D01*
X95100000Y-67450000D02*
X95100000Y-55450000D01*
X95100000Y-55450000D02*
X116500000Y-55450000D01*
D11*
X113400000Y-68450000D02*
G75*
G03*
X113400000Y-68450000I-100000J0D01*
G01*
D10*
%TO.C,U20*%
X100831800Y-78249699D02*
X100831800Y-83050299D01*
X111398200Y-83050299D02*
X111398200Y-78249699D01*
X111356876Y-80998740D02*
G75*
G02*
X111365001Y-80300000I58124J348741D01*
G01*
%TO.C,R35*%
X102522500Y-72087742D02*
X102522500Y-72562258D01*
X101477500Y-72087742D02*
X101477500Y-72562258D01*
%TO.C,R34*%
X101022936Y-70160000D02*
X102477064Y-70160000D01*
X101022936Y-68340000D02*
X102477064Y-68340000D01*
%TO.C,C63*%
X103240000Y-72134420D02*
X103240000Y-72415580D01*
X104260000Y-72134420D02*
X104260000Y-72415580D01*
D11*
%TO.C,J5*%
X130900000Y-68450000D02*
G75*
G03*
X130900000Y-68450000I-100000J0D01*
G01*
D12*
X117600000Y-55450000D02*
X134000000Y-55450000D01*
X117600000Y-67450000D02*
X117600000Y-55450000D01*
X134000000Y-67450000D02*
X117600000Y-67450000D01*
X134000000Y-55450000D02*
X134000000Y-67450000D01*
D11*
%TO.C,J2*%
X175900000Y-68450000D02*
G75*
G03*
X175900000Y-68450000I-100000J0D01*
G01*
D12*
X147600000Y-55450000D02*
X179000000Y-55450000D01*
X147600000Y-67450000D02*
X147600000Y-55450000D01*
X179000000Y-67450000D02*
X147600000Y-67450000D01*
X179000000Y-55450000D02*
X179000000Y-67450000D01*
D11*
%TO.C,J4*%
X143400000Y-68450000D02*
G75*
G03*
X143400000Y-68450000I-100000J0D01*
G01*
D12*
X135100000Y-55450000D02*
X146500000Y-55450000D01*
X135100000Y-67450000D02*
X135100000Y-55450000D01*
X146500000Y-67450000D02*
X135100000Y-67450000D01*
X146500000Y-55450000D02*
X146500000Y-67450000D01*
%TO.C,X1*%
X190825000Y-113925000D02*
X192525000Y-113925000D01*
X190825000Y-110825000D02*
X192525000Y-110825000D01*
X192525000Y-110825000D02*
X192525000Y-110925000D01*
X190825000Y-110825000D02*
X190825000Y-110925000D01*
X190825000Y-113925000D02*
X190825000Y-113825000D01*
X192525000Y-113925000D02*
X192525000Y-113825000D01*
D11*
X193905812Y-113325000D02*
G75*
G03*
X193905812Y-113325000I-61812J0D01*
G01*
D10*
%TO.C,U18*%
X98760000Y-116580000D02*
X98760000Y-115650000D01*
X98760000Y-113420000D02*
X98760000Y-114350000D01*
X98760000Y-113420000D02*
X96600000Y-113420000D01*
X98760000Y-116580000D02*
X97300000Y-116580000D01*
%TO.C,U17*%
X174877301Y-72815600D02*
G75*
G03*
X174877301Y-72815600I-127000J0D01*
G01*
X174480301Y-73846030D02*
X174480301Y-74198171D01*
X172219701Y-74198171D02*
X172219701Y-73846030D01*
%TO.C,U16*%
X147018000Y-94673000D02*
X147018000Y-98827000D01*
X152172000Y-98827000D02*
X152172000Y-94673000D01*
D12*
%TO.C,U15*%
X165640000Y-95250000D02*
X166550000Y-95250000D01*
X154950000Y-95250000D02*
X155860000Y-95250000D01*
X166550000Y-101250000D02*
X166550000Y-95250000D01*
X154950000Y-101250000D02*
X166550000Y-101250000D01*
X154950000Y-95250000D02*
X154950000Y-101250000D01*
D11*
X167660000Y-96150000D02*
G75*
G03*
X167660000Y-96150000I-100000J0D01*
G01*
D15*
%TO.C,U14*%
X154227000Y-70277000D02*
X154227000Y-68723000D01*
X152273000Y-68723000D02*
X152273000Y-70277000D01*
%TO.C,U13*%
X164227000Y-70329401D02*
X164227000Y-68775401D01*
X162273000Y-68775401D02*
X162273000Y-70329401D01*
D10*
%TO.C,U11*%
X157562785Y-91501698D02*
X161576015Y-91501698D01*
X161576015Y-83348298D02*
X157562785Y-83348298D01*
%TO.C,U10*%
X133175000Y-78975000D02*
X133175000Y-77025000D01*
X133175000Y-78975000D02*
X133175000Y-80925000D01*
X128055000Y-78975000D02*
X128055000Y-77025000D01*
X128055000Y-78975000D02*
X128055000Y-82425000D01*
D11*
%TO.C,U8*%
X126550000Y-90500000D02*
G75*
G03*
X126550000Y-90500000I-100000J0D01*
G01*
D12*
X125450000Y-91220000D02*
X118450000Y-91220000D01*
X125450000Y-82160000D02*
X118450000Y-82160000D01*
X118450000Y-88510000D02*
X118450000Y-83600000D01*
X125450000Y-88510000D02*
X125450000Y-84870000D01*
D10*
%TO.C,U6*%
X136300000Y-100040000D02*
X134400000Y-100040000D01*
X134900000Y-102360000D02*
X136300000Y-102360000D01*
%TO.C,U4*%
X130020000Y-125530000D02*
X130020000Y-124430000D01*
X129550000Y-125530000D02*
X130020000Y-125530000D01*
X129550000Y-127030000D02*
X129550000Y-125530000D01*
X135980000Y-125530000D02*
X135980000Y-122700000D01*
X136450000Y-125530000D02*
X135980000Y-125530000D01*
X136450000Y-127030000D02*
X136450000Y-125530000D01*
%TO.C,U3*%
X122500000Y-131610000D02*
X121000000Y-131610000D01*
X124000000Y-128390000D02*
X121000000Y-128390000D01*
D12*
%TO.C,U2*%
X178950000Y-116620000D02*
X178950000Y-116290000D01*
X179280000Y-116620000D02*
X178950000Y-116620000D01*
X186050000Y-116620000D02*
X185720000Y-116620000D01*
X186050000Y-116290000D02*
X186050000Y-116620000D01*
X186050000Y-109520000D02*
X186050000Y-109850000D01*
X185720000Y-109520000D02*
X186050000Y-109520000D01*
X178950000Y-109520000D02*
X179280000Y-109520000D01*
X178950000Y-109850000D02*
X178950000Y-109520000D01*
D11*
X177149950Y-110319920D02*
G75*
G03*
X177149950Y-110319920I-100000J0D01*
G01*
%TO.C,U1*%
X156855000Y-121960000D02*
G75*
G03*
X156855000Y-121960000I-100000J0D01*
G01*
D12*
X137625000Y-117390000D02*
X137625000Y-107690000D01*
X156075000Y-107690000D02*
X156075000Y-117390000D01*
X137625000Y-141790000D02*
X137625000Y-120510000D01*
X156075000Y-141790000D02*
X137625000Y-141790000D01*
X156075000Y-120510000D02*
X156075000Y-141790000D01*
X137625000Y-107690000D02*
X156075000Y-107690000D01*
D10*
%TO.C,R33*%
X106477500Y-72087742D02*
X106477500Y-72562258D01*
X107522500Y-72087742D02*
X107522500Y-72562258D01*
%TO.C,R32*%
X106060436Y-68340000D02*
X107514564Y-68340000D01*
X106060436Y-70160000D02*
X107514564Y-70160000D01*
%TO.C,R31*%
X101522500Y-116562258D02*
X101522500Y-116087742D01*
X100477500Y-116562258D02*
X100477500Y-116087742D01*
%TO.C,R30*%
X111977500Y-72087742D02*
X111977500Y-72562258D01*
X113022500Y-72087742D02*
X113022500Y-72562258D01*
%TO.C,R29*%
X118562258Y-107727500D02*
X118087742Y-107727500D01*
X118562258Y-108772500D02*
X118087742Y-108772500D01*
%TO.C,R28*%
X100477500Y-112837742D02*
X100477500Y-113312258D01*
X101522500Y-112837742D02*
X101522500Y-113312258D01*
%TO.C,R27*%
X111022936Y-68340000D02*
X112477064Y-68340000D01*
X111022936Y-70160000D02*
X112477064Y-70160000D01*
%TO.C,R26*%
X150314564Y-86765000D02*
X149860436Y-86765000D01*
X150314564Y-88235000D02*
X149860436Y-88235000D01*
%TO.C,R25*%
X162910000Y-72985436D02*
X162910000Y-74439564D01*
X161090000Y-72985436D02*
X161090000Y-74439564D01*
%TO.C,R24*%
X165410000Y-72985436D02*
X165410000Y-74439564D01*
X163590000Y-72985436D02*
X163590000Y-74439564D01*
%TO.C,R23*%
X152910000Y-72985436D02*
X152910000Y-74439564D01*
X151090000Y-72985436D02*
X151090000Y-74439564D01*
%TO.C,R22*%
X155410000Y-72985436D02*
X155410000Y-74439564D01*
X153590000Y-72985436D02*
X153590000Y-74439564D01*
%TO.C,R21*%
X140387742Y-103772500D02*
X140862258Y-103772500D01*
X140387742Y-102727500D02*
X140862258Y-102727500D01*
%TO.C,R20*%
X137727500Y-101137742D02*
X137727500Y-101612258D01*
X138772500Y-101137742D02*
X138772500Y-101612258D01*
%TO.C,R19*%
X140862258Y-100977500D02*
X140387742Y-100977500D01*
X140862258Y-102022500D02*
X140387742Y-102022500D01*
%TO.C,R18*%
X138772500Y-98162258D02*
X138772500Y-97687742D01*
X137727500Y-98162258D02*
X137727500Y-97687742D01*
%TO.C,R17*%
X123412258Y-124977500D02*
X122937742Y-124977500D01*
X123412258Y-126022500D02*
X122937742Y-126022500D01*
%TO.C,R16*%
X119522500Y-126912258D02*
X119522500Y-126437742D01*
X118477500Y-126912258D02*
X118477500Y-126437742D01*
%TO.C,R15*%
X126962258Y-126977500D02*
X126487742Y-126977500D01*
X126962258Y-128022500D02*
X126487742Y-128022500D01*
%TO.C,R14*%
X126437742Y-126022500D02*
X126912258Y-126022500D01*
X126437742Y-124977500D02*
X126912258Y-124977500D01*
%TO.C,R13*%
X175737258Y-115227500D02*
X175262742Y-115227500D01*
X175737258Y-116272500D02*
X175262742Y-116272500D01*
%TO.C,R12*%
X168912258Y-114727500D02*
X168437742Y-114727500D01*
X168912258Y-115772500D02*
X168437742Y-115772500D01*
%TO.C,R11*%
X172087742Y-115772500D02*
X172562258Y-115772500D01*
X172087742Y-114727500D02*
X172562258Y-114727500D01*
%TO.C,R10*%
X182227500Y-131587742D02*
X182227500Y-132062258D01*
X183272500Y-131587742D02*
X183272500Y-132062258D01*
%TO.C,R9*%
X184227500Y-131587742D02*
X184227500Y-132062258D01*
X185272500Y-131587742D02*
X185272500Y-132062258D01*
%TO.C,R8*%
X191087742Y-108022500D02*
X191562258Y-108022500D01*
X191087742Y-106977500D02*
X191562258Y-106977500D01*
%TO.C,R7*%
X168977500Y-112437742D02*
X168977500Y-112912258D01*
X170022500Y-112437742D02*
X170022500Y-112912258D01*
%TO.C,R6*%
X170977500Y-112437742D02*
X170977500Y-112912258D01*
X172022500Y-112437742D02*
X172022500Y-112912258D01*
%TO.C,R5*%
X163577500Y-112437742D02*
X163577500Y-112912258D01*
X164622500Y-112437742D02*
X164622500Y-112912258D01*
%TO.C,R4*%
X161552500Y-112437742D02*
X161552500Y-112912258D01*
X162597500Y-112437742D02*
X162597500Y-112912258D01*
%TO.C,R3*%
X163977500Y-117687742D02*
X163977500Y-118162258D01*
X165022500Y-117687742D02*
X165022500Y-118162258D01*
%TO.C,R2*%
X165162258Y-114727500D02*
X164687742Y-114727500D01*
X165162258Y-115772500D02*
X164687742Y-115772500D01*
%TO.C,R1*%
X161012742Y-115772500D02*
X161487258Y-115772500D01*
X161012742Y-114727500D02*
X161487258Y-114727500D01*
%TO.C,Q1*%
X144160000Y-88740000D02*
X142900000Y-88740000D01*
X137340000Y-88740000D02*
X138600000Y-88740000D01*
X144160000Y-92500000D02*
X144160000Y-88740000D01*
X137340000Y-94750000D02*
X137340000Y-88740000D01*
%TO.C,L4*%
X150440000Y-91337122D02*
X150440000Y-90537878D01*
X151560000Y-91337122D02*
X151560000Y-90537878D01*
%TO.C,L2*%
X129000000Y-134950000D02*
X129000000Y-136750000D01*
X123000000Y-134950000D02*
X123000000Y-136750000D01*
X123500000Y-134450000D02*
X123500000Y-132850000D01*
X123500000Y-137250000D02*
X123500000Y-138850000D01*
X123000000Y-136750000D02*
X123500000Y-137250000D01*
X123000000Y-134950000D02*
X123500000Y-134450000D01*
X128500000Y-137250000D02*
X128500000Y-138850000D01*
X129000000Y-136750000D02*
X128500000Y-137250000D01*
X128500000Y-134450000D02*
X128500000Y-132850000D01*
X129000000Y-134950000D02*
X128500000Y-134450000D01*
%TO.C,L1*%
X189890000Y-120162878D02*
X189890000Y-120962122D01*
X191010000Y-120162878D02*
X191010000Y-120962122D01*
D15*
%TO.C,J6*%
X95789000Y-90763900D02*
X106698300Y-90763900D01*
X106711000Y-90763900D02*
X106711000Y-85506100D01*
X106711000Y-85506100D02*
X95789000Y-85506100D01*
X95789000Y-85506100D02*
X95789000Y-90763900D01*
X95535000Y-88770000D02*
G75*
G03*
X95535000Y-88770000I-381000J0D01*
G01*
D12*
%TO.C,FL1*%
X113525000Y-128811500D02*
X108225000Y-128811500D01*
X108225000Y-130138500D02*
X108225000Y-132811500D01*
X108225000Y-134138500D02*
X113525000Y-134138500D01*
X113525000Y-132811500D02*
X113525000Y-130138500D01*
D11*
X109600000Y-134600000D02*
G75*
G03*
X109600000Y-134600000I-100000J0D01*
G01*
D10*
%TO.C,F3*%
X125497936Y-68340000D02*
X126702064Y-68340000D01*
X125497936Y-70160000D02*
X126702064Y-70160000D01*
%TO.C,F2*%
X131147936Y-68340000D02*
X132352064Y-68340000D01*
X131147936Y-70160000D02*
X132352064Y-70160000D01*
%TO.C,F1*%
X108650000Y-122250000D02*
X108650000Y-127750000D01*
X104650000Y-122250000D02*
X108650000Y-122250000D01*
X104650000Y-127750000D02*
X104650000Y-122250000D01*
X108650000Y-127750000D02*
X104650000Y-127750000D01*
%TO.C,D13*%
X172412500Y-69735000D02*
X174697500Y-69735000D01*
X174697500Y-69735000D02*
X174697500Y-68265000D01*
X174697500Y-68265000D02*
X172412500Y-68265000D01*
%TO.C,D8*%
X130190000Y-71700000D02*
X130190000Y-73500000D01*
X133410000Y-73500000D02*
X133410000Y-71050000D01*
%TO.C,D7*%
X129410000Y-73500000D02*
X129410000Y-71700000D01*
X126190000Y-71700000D02*
X126190000Y-74150000D01*
%TO.C,D6*%
X145381500Y-77378200D02*
X145381500Y-70621800D01*
X145381500Y-70621800D02*
X144507740Y-70621800D01*
X136618500Y-70621800D02*
X136618500Y-77378200D01*
X136618500Y-77378200D02*
X137492260Y-77378200D01*
X139402340Y-77378200D02*
X142597660Y-77378200D01*
X144507740Y-77378200D02*
X145381500Y-77378200D01*
X142597660Y-70621800D02*
X139402340Y-70621800D01*
X137492260Y-70621800D02*
X136618500Y-70621800D01*
%TO.C,D5*%
X138678000Y-85600200D02*
X143529400Y-85600200D01*
X143529400Y-85600200D02*
X143529400Y-85209040D01*
X143529400Y-82399800D02*
X138678000Y-82399800D01*
X138678000Y-82399800D02*
X138678000Y-82790960D01*
X138678000Y-85209040D02*
X138678000Y-85600200D01*
X143529400Y-82790960D02*
X143529400Y-82399800D01*
D13*
%TO.C,D4*%
X121000000Y-135900000D02*
X120050000Y-135900000D01*
X121000000Y-134100000D02*
X120050000Y-134100000D01*
D16*
X120850000Y-135810000D02*
X120850000Y-134190000D01*
D10*
%TO.C,D2*%
X94050000Y-127275000D02*
X99950000Y-127275000D01*
X99950000Y-122775000D02*
X94050000Y-122775000D01*
%TO.C,C62*%
X109260000Y-72134420D02*
X109260000Y-72415580D01*
X108240000Y-72134420D02*
X108240000Y-72415580D01*
%TO.C,C61*%
X103260000Y-116134420D02*
X103260000Y-116415580D01*
X102240000Y-116134420D02*
X102240000Y-116415580D01*
%TO.C,C60*%
X114760000Y-72134420D02*
X114760000Y-72415580D01*
X113740000Y-72134420D02*
X113740000Y-72415580D01*
%TO.C,C59*%
X98115580Y-112760000D02*
X97834420Y-112760000D01*
X98115580Y-111740000D02*
X97834420Y-111740000D01*
%TO.C,C58*%
X173365580Y-71510000D02*
X173084420Y-71510000D01*
X173365580Y-70490000D02*
X173084420Y-70490000D01*
%TO.C,C57*%
X173415580Y-77510000D02*
X173134420Y-77510000D01*
X173415580Y-76490000D02*
X173134420Y-76490000D01*
%TO.C,C56*%
X150365580Y-86010000D02*
X150084420Y-86010000D01*
X150365580Y-84990000D02*
X150084420Y-84990000D01*
%TO.C,C55*%
X148615580Y-90760000D02*
X148334420Y-90760000D01*
X148615580Y-89740000D02*
X148334420Y-89740000D01*
%TO.C,C54*%
X148615580Y-92510000D02*
X148334420Y-92510000D01*
X148615580Y-91490000D02*
X148334420Y-91490000D01*
%TO.C,C53*%
X152740000Y-98815580D02*
X152740000Y-98534420D01*
X153760000Y-98815580D02*
X153760000Y-98534420D01*
%TO.C,C52*%
X168760000Y-100109420D02*
X168760000Y-100390580D01*
X167740000Y-100109420D02*
X167740000Y-100390580D01*
%TO.C,C51*%
X160165580Y-81510000D02*
X159884420Y-81510000D01*
X160165580Y-80490000D02*
X159884420Y-80490000D01*
%TO.C,C50*%
X166359420Y-80490000D02*
X166640580Y-80490000D01*
X166359420Y-81510000D02*
X166640580Y-81510000D01*
%TO.C,C49*%
X163390580Y-81510000D02*
X163109420Y-81510000D01*
X163390580Y-80490000D02*
X163109420Y-80490000D01*
%TO.C,C48*%
X150140580Y-81510000D02*
X149859420Y-81510000D01*
X150140580Y-80490000D02*
X149859420Y-80490000D01*
%TO.C,C47*%
X156384420Y-80490000D02*
X156665580Y-80490000D01*
X156384420Y-81510000D02*
X156665580Y-81510000D01*
%TO.C,C46*%
X153415580Y-81510000D02*
X153134420Y-81510000D01*
X153415580Y-80490000D02*
X153134420Y-80490000D01*
%TO.C,C45*%
X167134420Y-90490000D02*
X167415580Y-90490000D01*
X167134420Y-91510000D02*
X167415580Y-91510000D01*
%TO.C,C44*%
X173109420Y-90490000D02*
X173390580Y-90490000D01*
X173109420Y-91510000D02*
X173390580Y-91510000D01*
%TO.C,C42*%
X154240000Y-87365580D02*
X154240000Y-87084420D01*
X155260000Y-87365580D02*
X155260000Y-87084420D01*
%TO.C,C41*%
X155260000Y-90384420D02*
X155260000Y-90665580D01*
X154240000Y-90384420D02*
X154240000Y-90665580D01*
%TO.C,C39*%
X126740000Y-89415580D02*
X126740000Y-89134420D01*
X127760000Y-89415580D02*
X127760000Y-89134420D01*
%TO.C,C38*%
X126740000Y-84390580D02*
X126740000Y-84109420D01*
X127760000Y-84390580D02*
X127760000Y-84109420D01*
%TO.C,C37*%
X127260000Y-78584420D02*
X127260000Y-78865580D01*
X126240000Y-78584420D02*
X126240000Y-78865580D01*
%TO.C,C36*%
X122109420Y-79990000D02*
X122390580Y-79990000D01*
X122109420Y-81010000D02*
X122390580Y-81010000D01*
%TO.C,C35*%
X121884420Y-92240000D02*
X122165580Y-92240000D01*
X121884420Y-93260000D02*
X122165580Y-93260000D01*
%TO.C,C34*%
X140788748Y-81711200D02*
X141311252Y-81711200D01*
X140788748Y-80288800D02*
X141311252Y-80288800D01*
%TO.C,C33*%
X135915580Y-97585000D02*
X135634420Y-97585000D01*
X135915580Y-96565000D02*
X135634420Y-96565000D01*
%TO.C,C32*%
X135915580Y-99260000D02*
X135634420Y-99260000D01*
X135915580Y-98240000D02*
X135634420Y-98240000D01*
%TO.C,C31*%
X132334420Y-96565000D02*
X132615580Y-96565000D01*
X132334420Y-97585000D02*
X132615580Y-97585000D01*
%TO.C,C30*%
X125965580Y-97535000D02*
X125684420Y-97535000D01*
X125965580Y-96515000D02*
X125684420Y-96515000D01*
%TO.C,C29*%
X126634420Y-128990000D02*
X126915580Y-128990000D01*
X126634420Y-130010000D02*
X126915580Y-130010000D01*
%TO.C,C28*%
X129740000Y-120615580D02*
X129740000Y-120334420D01*
X130760000Y-120615580D02*
X130760000Y-120334420D01*
%TO.C,C27*%
X131340000Y-120615580D02*
X131340000Y-120334420D01*
X132360000Y-120615580D02*
X132360000Y-120334420D01*
%TO.C,C26*%
X133640000Y-120615580D02*
X133640000Y-120334420D01*
X134660000Y-120615580D02*
X134660000Y-120334420D01*
%TO.C,C25*%
X133910000Y-137236252D02*
X133910000Y-135813748D01*
X132090000Y-137236252D02*
X132090000Y-135813748D01*
%TO.C,C24*%
X131410000Y-137211252D02*
X131410000Y-135788748D01*
X129590000Y-137211252D02*
X129590000Y-135788748D01*
%TO.C,C23*%
X117590000Y-130813748D02*
X117590000Y-132236252D01*
X119410000Y-130813748D02*
X119410000Y-132236252D01*
%TO.C,C22*%
X115090000Y-130813748D02*
X115090000Y-132236252D01*
X116910000Y-130813748D02*
X116910000Y-132236252D01*
%TO.C,C21*%
X121084420Y-132490000D02*
X121365580Y-132490000D01*
X121084420Y-133510000D02*
X121365580Y-133510000D01*
%TO.C,C20*%
X183510000Y-120134420D02*
X183510000Y-120415580D01*
X182490000Y-120134420D02*
X182490000Y-120415580D01*
%TO.C,C19*%
X188760000Y-120134420D02*
X188760000Y-120415580D01*
X187740000Y-120134420D02*
X187740000Y-120415580D01*
%TO.C,C18*%
X157090000Y-134538748D02*
X157090000Y-135961252D01*
X158910000Y-134538748D02*
X158910000Y-135961252D01*
%TO.C,C17*%
X165740000Y-118115580D02*
X165740000Y-117834420D01*
X166760000Y-118115580D02*
X166760000Y-117834420D01*
%TO.C,C16*%
X168360000Y-117834420D02*
X168360000Y-118115580D01*
X167340000Y-117834420D02*
X167340000Y-118115580D01*
%TO.C,C15*%
X191134420Y-108740000D02*
X191415580Y-108740000D01*
X191134420Y-109760000D02*
X191415580Y-109760000D01*
%TO.C,C14*%
X176590000Y-134563748D02*
X176590000Y-135986252D01*
X178410000Y-134563748D02*
X178410000Y-135986252D01*
%TO.C,C13*%
X170010000Y-117834420D02*
X170010000Y-118115580D01*
X168990000Y-117834420D02*
X168990000Y-118115580D01*
%TO.C,C12*%
X172010000Y-117834420D02*
X172010000Y-118115580D01*
X170990000Y-117834420D02*
X170990000Y-118115580D01*
%TO.C,C11*%
X135490000Y-117140580D02*
X135490000Y-116859420D01*
X136510000Y-117140580D02*
X136510000Y-116859420D01*
%TO.C,C10*%
X133740000Y-117115580D02*
X133740000Y-116834420D01*
X134760000Y-117115580D02*
X134760000Y-116834420D01*
%TO.C,C9*%
X187010000Y-120109420D02*
X187010000Y-120390580D01*
X185990000Y-120109420D02*
X185990000Y-120390580D01*
%TO.C,C7*%
X185260000Y-120134420D02*
X185260000Y-120415580D01*
X184240000Y-120134420D02*
X184240000Y-120415580D01*
%TO.C,C6*%
X180010000Y-120134420D02*
X180010000Y-120415580D01*
X178990000Y-120134420D02*
X178990000Y-120415580D01*
%TO.C,C5*%
X175615580Y-118010000D02*
X175334420Y-118010000D01*
X175615580Y-116990000D02*
X175334420Y-116990000D01*
%TO.C,C4*%
X175615580Y-114335000D02*
X175334420Y-114335000D01*
X175615580Y-113315000D02*
X175334420Y-113315000D01*
%TO.C,C3*%
X175615580Y-111760000D02*
X175334420Y-111760000D01*
X175615580Y-110740000D02*
X175334420Y-110740000D01*
%TO.C,C2*%
X191109420Y-114740000D02*
X191390580Y-114740000D01*
X191109420Y-115760000D02*
X191390580Y-115760000D01*
%TO.C,C1*%
X191084420Y-116490000D02*
X191365580Y-116490000D01*
X191084420Y-117510000D02*
X191365580Y-117510000D01*
%TO.C,C43*%
D13*
X151677142Y-87692857D02*
X151724761Y-87740476D01*
X151772380Y-87883333D01*
X151772380Y-87978571D01*
X151724761Y-88121428D01*
X151629523Y-88216666D01*
X151534285Y-88264285D01*
X151343809Y-88311904D01*
X151200952Y-88311904D01*
X151010476Y-88264285D01*
X150915238Y-88216666D01*
X150820000Y-88121428D01*
X150772380Y-87978571D01*
X150772380Y-87883333D01*
X150820000Y-87740476D01*
X150867619Y-87692857D01*
X151105714Y-86835714D02*
X151772380Y-86835714D01*
X150724761Y-87073809D02*
X151439047Y-87311904D01*
X151439047Y-86692857D01*
X150772380Y-86407142D02*
X150772380Y-85788095D01*
X151153333Y-86121428D01*
X151153333Y-85978571D01*
X151200952Y-85883333D01*
X151248571Y-85835714D01*
X151343809Y-85788095D01*
X151581904Y-85788095D01*
X151677142Y-85835714D01*
X151724761Y-85883333D01*
X151772380Y-85978571D01*
X151772380Y-86264285D01*
X151724761Y-86359523D01*
X151677142Y-86407142D01*
%TO.C,C40*%
X155037142Y-91342857D02*
X155084761Y-91390476D01*
X155132380Y-91533333D01*
X155132380Y-91628571D01*
X155084761Y-91771428D01*
X154989523Y-91866666D01*
X154894285Y-91914285D01*
X154703809Y-91961904D01*
X154560952Y-91961904D01*
X154370476Y-91914285D01*
X154275238Y-91866666D01*
X154180000Y-91771428D01*
X154132380Y-91628571D01*
X154132380Y-91533333D01*
X154180000Y-91390476D01*
X154227619Y-91342857D01*
X154465714Y-90485714D02*
X155132380Y-90485714D01*
X154084761Y-90723809D02*
X154799047Y-90961904D01*
X154799047Y-90342857D01*
X154132380Y-89771428D02*
X154132380Y-89676190D01*
X154180000Y-89580952D01*
X154227619Y-89533333D01*
X154322857Y-89485714D01*
X154513333Y-89438095D01*
X154751428Y-89438095D01*
X154941904Y-89485714D01*
X155037142Y-89533333D01*
X155084761Y-89580952D01*
X155132380Y-89676190D01*
X155132380Y-89771428D01*
X155084761Y-89866666D01*
X155037142Y-89914285D01*
X154941904Y-89961904D01*
X154751428Y-90009523D01*
X154513333Y-90009523D01*
X154322857Y-89961904D01*
X154227619Y-89914285D01*
X154180000Y-89866666D01*
X154132380Y-89771428D01*
%TO.C,U21*%
X94011904Y-75952380D02*
X94011904Y-76761904D01*
X94059523Y-76857142D01*
X94107142Y-76904761D01*
X94202380Y-76952380D01*
X94392857Y-76952380D01*
X94488095Y-76904761D01*
X94535714Y-76857142D01*
X94583333Y-76761904D01*
X94583333Y-75952380D01*
X95011904Y-76047619D02*
X95059523Y-76000000D01*
X95154761Y-75952380D01*
X95392857Y-75952380D01*
X95488095Y-76000000D01*
X95535714Y-76047619D01*
X95583333Y-76142857D01*
X95583333Y-76238095D01*
X95535714Y-76380952D01*
X94964285Y-76952380D01*
X95583333Y-76952380D01*
X96535714Y-76952380D02*
X95964285Y-76952380D01*
X96250000Y-76952380D02*
X96250000Y-75952380D01*
X96154761Y-76095238D01*
X96059523Y-76190476D01*
X95964285Y-76238095D01*
%TO.C,R37*%
X92202380Y-76892857D02*
X91726190Y-77226190D01*
X92202380Y-77464285D02*
X91202380Y-77464285D01*
X91202380Y-77083333D01*
X91250000Y-76988095D01*
X91297619Y-76940476D01*
X91392857Y-76892857D01*
X91535714Y-76892857D01*
X91630952Y-76940476D01*
X91678571Y-76988095D01*
X91726190Y-77083333D01*
X91726190Y-77464285D01*
X91202380Y-76559523D02*
X91202380Y-75940476D01*
X91583333Y-76273809D01*
X91583333Y-76130952D01*
X91630952Y-76035714D01*
X91678571Y-75988095D01*
X91773809Y-75940476D01*
X92011904Y-75940476D01*
X92107142Y-75988095D01*
X92154761Y-76035714D01*
X92202380Y-76130952D01*
X92202380Y-76416666D01*
X92154761Y-76511904D01*
X92107142Y-76559523D01*
X91202380Y-75607142D02*
X91202380Y-74940476D01*
X92202380Y-75369047D01*
%TO.C,R36*%
X92202380Y-85892857D02*
X91726190Y-86226190D01*
X92202380Y-86464285D02*
X91202380Y-86464285D01*
X91202380Y-86083333D01*
X91250000Y-85988095D01*
X91297619Y-85940476D01*
X91392857Y-85892857D01*
X91535714Y-85892857D01*
X91630952Y-85940476D01*
X91678571Y-85988095D01*
X91726190Y-86083333D01*
X91726190Y-86464285D01*
X91202380Y-85559523D02*
X91202380Y-84940476D01*
X91583333Y-85273809D01*
X91583333Y-85130952D01*
X91630952Y-85035714D01*
X91678571Y-84988095D01*
X91773809Y-84940476D01*
X92011904Y-84940476D01*
X92107142Y-84988095D01*
X92154761Y-85035714D01*
X92202380Y-85130952D01*
X92202380Y-85416666D01*
X92154761Y-85511904D01*
X92107142Y-85559523D01*
X91202380Y-84083333D02*
X91202380Y-84273809D01*
X91250000Y-84369047D01*
X91297619Y-84416666D01*
X91440476Y-84511904D01*
X91630952Y-84559523D01*
X92011904Y-84559523D01*
X92107142Y-84511904D01*
X92154761Y-84464285D01*
X92202380Y-84369047D01*
X92202380Y-84178571D01*
X92154761Y-84083333D01*
X92107142Y-84035714D01*
X92011904Y-83988095D01*
X91773809Y-83988095D01*
X91678571Y-84035714D01*
X91630952Y-84083333D01*
X91583333Y-84178571D01*
X91583333Y-84369047D01*
X91630952Y-84464285D01*
X91678571Y-84511904D01*
X91773809Y-84559523D01*
%TO.C,C64*%
X99857142Y-80392857D02*
X99904761Y-80440476D01*
X99952380Y-80583333D01*
X99952380Y-80678571D01*
X99904761Y-80821428D01*
X99809523Y-80916666D01*
X99714285Y-80964285D01*
X99523809Y-81011904D01*
X99380952Y-81011904D01*
X99190476Y-80964285D01*
X99095238Y-80916666D01*
X99000000Y-80821428D01*
X98952380Y-80678571D01*
X98952380Y-80583333D01*
X99000000Y-80440476D01*
X99047619Y-80392857D01*
X98952380Y-79535714D02*
X98952380Y-79726190D01*
X99000000Y-79821428D01*
X99047619Y-79869047D01*
X99190476Y-79964285D01*
X99380952Y-80011904D01*
X99761904Y-80011904D01*
X99857142Y-79964285D01*
X99904761Y-79916666D01*
X99952380Y-79821428D01*
X99952380Y-79630952D01*
X99904761Y-79535714D01*
X99857142Y-79488095D01*
X99761904Y-79440476D01*
X99523809Y-79440476D01*
X99428571Y-79488095D01*
X99380952Y-79535714D01*
X99333333Y-79630952D01*
X99333333Y-79821428D01*
X99380952Y-79916666D01*
X99428571Y-79964285D01*
X99523809Y-80011904D01*
X99285714Y-78583333D02*
X99952380Y-78583333D01*
X98904761Y-78821428D02*
X99619047Y-79059523D01*
X99619047Y-78440476D01*
%TO.C,D12*%
X157535714Y-79202380D02*
X157535714Y-78202380D01*
X157773809Y-78202380D01*
X157916666Y-78250000D01*
X158011904Y-78345238D01*
X158059523Y-78440476D01*
X158107142Y-78630952D01*
X158107142Y-78773809D01*
X158059523Y-78964285D01*
X158011904Y-79059523D01*
X157916666Y-79154761D01*
X157773809Y-79202380D01*
X157535714Y-79202380D01*
X159059523Y-79202380D02*
X158488095Y-79202380D01*
X158773809Y-79202380D02*
X158773809Y-78202380D01*
X158678571Y-78345238D01*
X158583333Y-78440476D01*
X158488095Y-78488095D01*
X159440476Y-78297619D02*
X159488095Y-78250000D01*
X159583333Y-78202380D01*
X159821428Y-78202380D01*
X159916666Y-78250000D01*
X159964285Y-78297619D01*
X160011904Y-78392857D01*
X160011904Y-78488095D01*
X159964285Y-78630952D01*
X159392857Y-79202380D01*
X160011904Y-79202380D01*
%TO.C,D11*%
X166285714Y-77952380D02*
X166285714Y-76952380D01*
X166523809Y-76952380D01*
X166666666Y-77000000D01*
X166761904Y-77095238D01*
X166809523Y-77190476D01*
X166857142Y-77380952D01*
X166857142Y-77523809D01*
X166809523Y-77714285D01*
X166761904Y-77809523D01*
X166666666Y-77904761D01*
X166523809Y-77952380D01*
X166285714Y-77952380D01*
X167809523Y-77952380D02*
X167238095Y-77952380D01*
X167523809Y-77952380D02*
X167523809Y-76952380D01*
X167428571Y-77095238D01*
X167333333Y-77190476D01*
X167238095Y-77238095D01*
X168761904Y-77952380D02*
X168190476Y-77952380D01*
X168476190Y-77952380D02*
X168476190Y-76952380D01*
X168380952Y-77095238D01*
X168285714Y-77190476D01*
X168190476Y-77238095D01*
%TO.C,D10*%
X147785714Y-77952380D02*
X147785714Y-76952380D01*
X148023809Y-76952380D01*
X148166666Y-77000000D01*
X148261904Y-77095238D01*
X148309523Y-77190476D01*
X148357142Y-77380952D01*
X148357142Y-77523809D01*
X148309523Y-77714285D01*
X148261904Y-77809523D01*
X148166666Y-77904761D01*
X148023809Y-77952380D01*
X147785714Y-77952380D01*
X149309523Y-77952380D02*
X148738095Y-77952380D01*
X149023809Y-77952380D02*
X149023809Y-76952380D01*
X148928571Y-77095238D01*
X148833333Y-77190476D01*
X148738095Y-77238095D01*
X149928571Y-76952380D02*
X150023809Y-76952380D01*
X150119047Y-77000000D01*
X150166666Y-77047619D01*
X150214285Y-77142857D01*
X150261904Y-77333333D01*
X150261904Y-77571428D01*
X150214285Y-77761904D01*
X150166666Y-77857142D01*
X150119047Y-77904761D01*
X150023809Y-77952380D01*
X149928571Y-77952380D01*
X149833333Y-77904761D01*
X149785714Y-77857142D01*
X149738095Y-77761904D01*
X149690476Y-77571428D01*
X149690476Y-77333333D01*
X149738095Y-77142857D01*
X149785714Y-77047619D01*
X149833333Y-77000000D01*
X149928571Y-76952380D01*
%TO.C,D9*%
X156261904Y-77702380D02*
X156261904Y-76702380D01*
X156500000Y-76702380D01*
X156642857Y-76750000D01*
X156738095Y-76845238D01*
X156785714Y-76940476D01*
X156833333Y-77130952D01*
X156833333Y-77273809D01*
X156785714Y-77464285D01*
X156738095Y-77559523D01*
X156642857Y-77654761D01*
X156500000Y-77702380D01*
X156261904Y-77702380D01*
X157309523Y-77702380D02*
X157500000Y-77702380D01*
X157595238Y-77654761D01*
X157642857Y-77607142D01*
X157738095Y-77464285D01*
X157785714Y-77273809D01*
X157785714Y-76892857D01*
X157738095Y-76797619D01*
X157690476Y-76750000D01*
X157595238Y-76702380D01*
X157404761Y-76702380D01*
X157309523Y-76750000D01*
X157261904Y-76797619D01*
X157214285Y-76892857D01*
X157214285Y-77130952D01*
X157261904Y-77226190D01*
X157309523Y-77273809D01*
X157404761Y-77321428D01*
X157595238Y-77321428D01*
X157690476Y-77273809D01*
X157738095Y-77226190D01*
X157785714Y-77130952D01*
%TO.C,U7*%
X143988095Y-97952380D02*
X143988095Y-98761904D01*
X144035714Y-98857142D01*
X144083333Y-98904761D01*
X144178571Y-98952380D01*
X144369047Y-98952380D01*
X144464285Y-98904761D01*
X144511904Y-98857142D01*
X144559523Y-98761904D01*
X144559523Y-97952380D01*
X144940476Y-97952380D02*
X145607142Y-97952380D01*
X145178571Y-98952380D01*
%TO.C,SW1*%
X183166257Y-76654886D02*
X183309158Y-76702519D01*
X183547326Y-76702519D01*
X183642594Y-76654886D01*
X183690227Y-76607252D01*
X183737861Y-76511985D01*
X183737861Y-76416717D01*
X183690227Y-76321450D01*
X183642594Y-76273816D01*
X183547326Y-76226183D01*
X183356792Y-76178549D01*
X183261524Y-76130915D01*
X183213891Y-76083282D01*
X183166257Y-75988014D01*
X183166257Y-75892747D01*
X183213891Y-75797480D01*
X183261524Y-75749846D01*
X183356792Y-75702212D01*
X183594960Y-75702212D01*
X183737861Y-75749846D01*
X184071297Y-75702212D02*
X184309465Y-76702519D01*
X184500000Y-75988014D01*
X184690534Y-76702519D01*
X184928703Y-75702212D01*
X185833742Y-76702519D02*
X185262138Y-76702519D01*
X185547940Y-76702519D02*
X185547940Y-75702212D01*
X185452673Y-75845113D01*
X185357406Y-75940381D01*
X185262138Y-75988014D01*
%TO.C,C8*%
X181607142Y-123666666D02*
X181654761Y-123714285D01*
X181702380Y-123857142D01*
X181702380Y-123952380D01*
X181654761Y-124095238D01*
X181559523Y-124190476D01*
X181464285Y-124238095D01*
X181273809Y-124285714D01*
X181130952Y-124285714D01*
X180940476Y-124238095D01*
X180845238Y-124190476D01*
X180750000Y-124095238D01*
X180702380Y-123952380D01*
X180702380Y-123857142D01*
X180750000Y-123714285D01*
X180797619Y-123666666D01*
X181130952Y-123095238D02*
X181083333Y-123190476D01*
X181035714Y-123238095D01*
X180940476Y-123285714D01*
X180892857Y-123285714D01*
X180797619Y-123238095D01*
X180750000Y-123190476D01*
X180702380Y-123095238D01*
X180702380Y-122904761D01*
X180750000Y-122809523D01*
X180797619Y-122761904D01*
X180892857Y-122714285D01*
X180940476Y-122714285D01*
X181035714Y-122761904D01*
X181083333Y-122809523D01*
X181130952Y-122904761D01*
X181130952Y-123095238D01*
X181178571Y-123190476D01*
X181226190Y-123238095D01*
X181321428Y-123285714D01*
X181511904Y-123285714D01*
X181607142Y-123238095D01*
X181654761Y-123190476D01*
X181702380Y-123095238D01*
X181702380Y-122904761D01*
X181654761Y-122809523D01*
X181607142Y-122761904D01*
X181511904Y-122714285D01*
X181321428Y-122714285D01*
X181226190Y-122761904D01*
X181178571Y-122809523D01*
X181130952Y-122904761D01*
%TO.C,U12*%
X168666204Y-82952380D02*
X168666204Y-83761904D01*
X168713823Y-83857142D01*
X168761442Y-83904761D01*
X168856680Y-83952380D01*
X169047157Y-83952380D01*
X169142395Y-83904761D01*
X169190014Y-83857142D01*
X169237633Y-83761904D01*
X169237633Y-82952380D01*
X170237633Y-83952380D02*
X169666204Y-83952380D01*
X169951919Y-83952380D02*
X169951919Y-82952380D01*
X169856680Y-83095238D01*
X169761442Y-83190476D01*
X169666204Y-83238095D01*
X170618585Y-83047619D02*
X170666204Y-83000000D01*
X170761442Y-82952380D01*
X170999538Y-82952380D01*
X171094776Y-83000000D01*
X171142395Y-83047619D01*
X171190014Y-83142857D01*
X171190014Y-83238095D01*
X171142395Y-83380952D01*
X170570966Y-83952380D01*
X171190014Y-83952380D01*
%TO.C,U9*%
X134488095Y-86356680D02*
X134488095Y-87166204D01*
X134535714Y-87261442D01*
X134583333Y-87309061D01*
X134678571Y-87356680D01*
X134869047Y-87356680D01*
X134964285Y-87309061D01*
X135011904Y-87261442D01*
X135059523Y-87166204D01*
X135059523Y-86356680D01*
X135583333Y-87356680D02*
X135773809Y-87356680D01*
X135869047Y-87309061D01*
X135916666Y-87261442D01*
X136011904Y-87118585D01*
X136059523Y-86928109D01*
X136059523Y-86547157D01*
X136011904Y-86451919D01*
X135964285Y-86404300D01*
X135869047Y-86356680D01*
X135678571Y-86356680D01*
X135583333Y-86404300D01*
X135535714Y-86451919D01*
X135488095Y-86547157D01*
X135488095Y-86785252D01*
X135535714Y-86880490D01*
X135583333Y-86928109D01*
X135678571Y-86975728D01*
X135869047Y-86975728D01*
X135964285Y-86928109D01*
X136011904Y-86880490D01*
X136059523Y-86785252D01*
%TO.C,U5*%
X128488095Y-97452380D02*
X128488095Y-98261904D01*
X128535714Y-98357142D01*
X128583333Y-98404761D01*
X128678571Y-98452380D01*
X128869047Y-98452380D01*
X128964285Y-98404761D01*
X129011904Y-98357142D01*
X129059523Y-98261904D01*
X129059523Y-97452380D01*
X130011904Y-97452380D02*
X129535714Y-97452380D01*
X129488095Y-97928571D01*
X129535714Y-97880952D01*
X129630952Y-97833333D01*
X129869047Y-97833333D01*
X129964285Y-97880952D01*
X130011904Y-97928571D01*
X130059523Y-98023809D01*
X130059523Y-98261904D01*
X130011904Y-98357142D01*
X129964285Y-98404761D01*
X129869047Y-98452380D01*
X129630952Y-98452380D01*
X129535714Y-98404761D01*
X129488095Y-98357142D01*
%TO.C,J3*%
X95416666Y-133702380D02*
X95416666Y-134416666D01*
X95369047Y-134559523D01*
X95273809Y-134654761D01*
X95130952Y-134702380D01*
X95035714Y-134702380D01*
X95797619Y-133702380D02*
X96416666Y-133702380D01*
X96083333Y-134083333D01*
X96226190Y-134083333D01*
X96321428Y-134130952D01*
X96369047Y-134178571D01*
X96416666Y-134273809D01*
X96416666Y-134511904D01*
X96369047Y-134607142D01*
X96321428Y-134654761D01*
X96226190Y-134702380D01*
X95940476Y-134702380D01*
X95845238Y-134654761D01*
X95797619Y-134607142D01*
%TO.C,U19*%
X116511904Y-100702380D02*
X116511904Y-101511904D01*
X116559523Y-101607142D01*
X116607142Y-101654761D01*
X116702380Y-101702380D01*
X116892857Y-101702380D01*
X116988095Y-101654761D01*
X117035714Y-101607142D01*
X117083333Y-101511904D01*
X117083333Y-100702380D01*
X118083333Y-101702380D02*
X117511904Y-101702380D01*
X117797619Y-101702380D02*
X117797619Y-100702380D01*
X117702380Y-100845238D01*
X117607142Y-100940476D01*
X117511904Y-100988095D01*
X118559523Y-101702380D02*
X118750000Y-101702380D01*
X118845238Y-101654761D01*
X118892857Y-101607142D01*
X118988095Y-101464285D01*
X119035714Y-101273809D01*
X119035714Y-100892857D01*
X118988095Y-100797619D01*
X118940476Y-100750000D01*
X118845238Y-100702380D01*
X118654761Y-100702380D01*
X118559523Y-100750000D01*
X118511904Y-100797619D01*
X118464285Y-100892857D01*
X118464285Y-101130952D01*
X118511904Y-101226190D01*
X118559523Y-101273809D01*
X118654761Y-101321428D01*
X118845238Y-101321428D01*
X118940476Y-101273809D01*
X118988095Y-101226190D01*
X119035714Y-101130952D01*
%TO.C,D16*%
X100702380Y-76464285D02*
X99702380Y-76464285D01*
X99702380Y-76226190D01*
X99750000Y-76083333D01*
X99845238Y-75988095D01*
X99940476Y-75940476D01*
X100130952Y-75892857D01*
X100273809Y-75892857D01*
X100464285Y-75940476D01*
X100559523Y-75988095D01*
X100654761Y-76083333D01*
X100702380Y-76226190D01*
X100702380Y-76464285D01*
X100702380Y-74940476D02*
X100702380Y-75511904D01*
X100702380Y-75226190D02*
X99702380Y-75226190D01*
X99845238Y-75321428D01*
X99940476Y-75416666D01*
X99988095Y-75511904D01*
X99702380Y-74083333D02*
X99702380Y-74273809D01*
X99750000Y-74369047D01*
X99797619Y-74416666D01*
X99940476Y-74511904D01*
X100130952Y-74559523D01*
X100511904Y-74559523D01*
X100607142Y-74511904D01*
X100654761Y-74464285D01*
X100702380Y-74369047D01*
X100702380Y-74178571D01*
X100654761Y-74083333D01*
X100607142Y-74035714D01*
X100511904Y-73988095D01*
X100273809Y-73988095D01*
X100178571Y-74035714D01*
X100130952Y-74083333D01*
X100083333Y-74178571D01*
X100083333Y-74369047D01*
X100130952Y-74464285D01*
X100178571Y-74511904D01*
X100273809Y-74559523D01*
%TO.C,D15*%
X105702380Y-76464285D02*
X104702380Y-76464285D01*
X104702380Y-76226190D01*
X104750000Y-76083333D01*
X104845238Y-75988095D01*
X104940476Y-75940476D01*
X105130952Y-75892857D01*
X105273809Y-75892857D01*
X105464285Y-75940476D01*
X105559523Y-75988095D01*
X105654761Y-76083333D01*
X105702380Y-76226190D01*
X105702380Y-76464285D01*
X105702380Y-74940476D02*
X105702380Y-75511904D01*
X105702380Y-75226190D02*
X104702380Y-75226190D01*
X104845238Y-75321428D01*
X104940476Y-75416666D01*
X104988095Y-75511904D01*
X104702380Y-74035714D02*
X104702380Y-74511904D01*
X105178571Y-74559523D01*
X105130952Y-74511904D01*
X105083333Y-74416666D01*
X105083333Y-74178571D01*
X105130952Y-74083333D01*
X105178571Y-74035714D01*
X105273809Y-73988095D01*
X105511904Y-73988095D01*
X105607142Y-74035714D01*
X105654761Y-74083333D01*
X105702380Y-74178571D01*
X105702380Y-74416666D01*
X105654761Y-74511904D01*
X105607142Y-74559523D01*
%TO.C,D14*%
X111202380Y-76464285D02*
X110202380Y-76464285D01*
X110202380Y-76226190D01*
X110250000Y-76083333D01*
X110345238Y-75988095D01*
X110440476Y-75940476D01*
X110630952Y-75892857D01*
X110773809Y-75892857D01*
X110964285Y-75940476D01*
X111059523Y-75988095D01*
X111154761Y-76083333D01*
X111202380Y-76226190D01*
X111202380Y-76464285D01*
X111202380Y-74940476D02*
X111202380Y-75511904D01*
X111202380Y-75226190D02*
X110202380Y-75226190D01*
X110345238Y-75321428D01*
X110440476Y-75416666D01*
X110488095Y-75511904D01*
X110535714Y-74083333D02*
X111202380Y-74083333D01*
X110154761Y-74321428D02*
X110869047Y-74559523D01*
X110869047Y-73940476D01*
%TO.C,R40*%
X186107142Y-103452380D02*
X185773809Y-102976190D01*
X185535714Y-103452380D02*
X185535714Y-102452380D01*
X185916666Y-102452380D01*
X186011904Y-102500000D01*
X186059523Y-102547619D01*
X186107142Y-102642857D01*
X186107142Y-102785714D01*
X186059523Y-102880952D01*
X186011904Y-102928571D01*
X185916666Y-102976190D01*
X185535714Y-102976190D01*
X186964285Y-102785714D02*
X186964285Y-103452380D01*
X186726190Y-102404761D02*
X186488095Y-103119047D01*
X187107142Y-103119047D01*
X187678571Y-102452380D02*
X187773809Y-102452380D01*
X187869047Y-102500000D01*
X187916666Y-102547619D01*
X187964285Y-102642857D01*
X188011904Y-102833333D01*
X188011904Y-103071428D01*
X187964285Y-103261904D01*
X187916666Y-103357142D01*
X187869047Y-103404761D01*
X187773809Y-103452380D01*
X187678571Y-103452380D01*
X187583333Y-103404761D01*
X187535714Y-103357142D01*
X187488095Y-103261904D01*
X187440476Y-103071428D01*
X187440476Y-102833333D01*
X187488095Y-102642857D01*
X187535714Y-102547619D01*
X187583333Y-102500000D01*
X187678571Y-102452380D01*
%TO.C,R39*%
X186107142Y-101702380D02*
X185773809Y-101226190D01*
X185535714Y-101702380D02*
X185535714Y-100702380D01*
X185916666Y-100702380D01*
X186011904Y-100750000D01*
X186059523Y-100797619D01*
X186107142Y-100892857D01*
X186107142Y-101035714D01*
X186059523Y-101130952D01*
X186011904Y-101178571D01*
X185916666Y-101226190D01*
X185535714Y-101226190D01*
X186440476Y-100702380D02*
X187059523Y-100702380D01*
X186726190Y-101083333D01*
X186869047Y-101083333D01*
X186964285Y-101130952D01*
X187011904Y-101178571D01*
X187059523Y-101273809D01*
X187059523Y-101511904D01*
X187011904Y-101607142D01*
X186964285Y-101654761D01*
X186869047Y-101702380D01*
X186583333Y-101702380D01*
X186488095Y-101654761D01*
X186440476Y-101607142D01*
X187535714Y-101702380D02*
X187726190Y-101702380D01*
X187821428Y-101654761D01*
X187869047Y-101607142D01*
X187964285Y-101464285D01*
X188011904Y-101273809D01*
X188011904Y-100892857D01*
X187964285Y-100797619D01*
X187916666Y-100750000D01*
X187821428Y-100702380D01*
X187630952Y-100702380D01*
X187535714Y-100750000D01*
X187488095Y-100797619D01*
X187440476Y-100892857D01*
X187440476Y-101130952D01*
X187488095Y-101226190D01*
X187535714Y-101273809D01*
X187630952Y-101321428D01*
X187821428Y-101321428D01*
X187916666Y-101273809D01*
X187964285Y-101226190D01*
X188011904Y-101130952D01*
%TO.C,R38*%
X186107142Y-99952380D02*
X185773809Y-99476190D01*
X185535714Y-99952380D02*
X185535714Y-98952380D01*
X185916666Y-98952380D01*
X186011904Y-99000000D01*
X186059523Y-99047619D01*
X186107142Y-99142857D01*
X186107142Y-99285714D01*
X186059523Y-99380952D01*
X186011904Y-99428571D01*
X185916666Y-99476190D01*
X185535714Y-99476190D01*
X186440476Y-98952380D02*
X187059523Y-98952380D01*
X186726190Y-99333333D01*
X186869047Y-99333333D01*
X186964285Y-99380952D01*
X187011904Y-99428571D01*
X187059523Y-99523809D01*
X187059523Y-99761904D01*
X187011904Y-99857142D01*
X186964285Y-99904761D01*
X186869047Y-99952380D01*
X186583333Y-99952380D01*
X186488095Y-99904761D01*
X186440476Y-99857142D01*
X187630952Y-99380952D02*
X187535714Y-99333333D01*
X187488095Y-99285714D01*
X187440476Y-99190476D01*
X187440476Y-99142857D01*
X187488095Y-99047619D01*
X187535714Y-99000000D01*
X187630952Y-98952380D01*
X187821428Y-98952380D01*
X187916666Y-99000000D01*
X187964285Y-99047619D01*
X188011904Y-99142857D01*
X188011904Y-99190476D01*
X187964285Y-99285714D01*
X187916666Y-99333333D01*
X187821428Y-99380952D01*
X187630952Y-99380952D01*
X187535714Y-99428571D01*
X187488095Y-99476190D01*
X187440476Y-99571428D01*
X187440476Y-99761904D01*
X187488095Y-99857142D01*
X187535714Y-99904761D01*
X187630952Y-99952380D01*
X187821428Y-99952380D01*
X187916666Y-99904761D01*
X187964285Y-99857142D01*
X188011904Y-99761904D01*
X188011904Y-99571428D01*
X187964285Y-99476190D01*
X187916666Y-99428571D01*
X187821428Y-99380952D01*
%TO.C,D17*%
X193202380Y-98964285D02*
X192202380Y-98964285D01*
X192202380Y-98726190D01*
X192250000Y-98583333D01*
X192345238Y-98488095D01*
X192440476Y-98440476D01*
X192630952Y-98392857D01*
X192773809Y-98392857D01*
X192964285Y-98440476D01*
X193059523Y-98488095D01*
X193154761Y-98583333D01*
X193202380Y-98726190D01*
X193202380Y-98964285D01*
X193202380Y-97440476D02*
X193202380Y-98011904D01*
X193202380Y-97726190D02*
X192202380Y-97726190D01*
X192345238Y-97821428D01*
X192440476Y-97916666D01*
X192488095Y-98011904D01*
X192202380Y-97107142D02*
X192202380Y-96440476D01*
X193202380Y-96869047D01*
%TO.C,J1*%
X94666666Y-67952380D02*
X94666666Y-68666666D01*
X94619047Y-68809523D01*
X94523809Y-68904761D01*
X94380952Y-68952380D01*
X94285714Y-68952380D01*
X95666666Y-68952380D02*
X95095238Y-68952380D01*
X95380952Y-68952380D02*
X95380952Y-67952380D01*
X95285714Y-68095238D01*
X95190476Y-68190476D01*
X95095238Y-68238095D01*
%TO.C,U20*%
X111761904Y-80102379D02*
X111761904Y-80911903D01*
X111809523Y-81007141D01*
X111857142Y-81054760D01*
X111952380Y-81102379D01*
X112142857Y-81102379D01*
X112238095Y-81054760D01*
X112285714Y-81007141D01*
X112333333Y-80911903D01*
X112333333Y-80102379D01*
X112761904Y-80197618D02*
X112809523Y-80149999D01*
X112904761Y-80102379D01*
X113142857Y-80102379D01*
X113238095Y-80149999D01*
X113285714Y-80197618D01*
X113333333Y-80292856D01*
X113333333Y-80388094D01*
X113285714Y-80530951D01*
X112714285Y-81102379D01*
X113333333Y-81102379D01*
X113952380Y-80102379D02*
X114047619Y-80102379D01*
X114142857Y-80149999D01*
X114190476Y-80197618D01*
X114238095Y-80292856D01*
X114285714Y-80483332D01*
X114285714Y-80721427D01*
X114238095Y-80911903D01*
X114190476Y-81007141D01*
X114142857Y-81054760D01*
X114047619Y-81102379D01*
X113952380Y-81102379D01*
X113857142Y-81054760D01*
X113809523Y-81007141D01*
X113761904Y-80911903D01*
X113714285Y-80721427D01*
X113714285Y-80483332D01*
X113761904Y-80292856D01*
X113809523Y-80197618D01*
X113857142Y-80149999D01*
X113952380Y-80102379D01*
%TO.C,R35*%
X102452380Y-75892857D02*
X101976190Y-76226190D01*
X102452380Y-76464285D02*
X101452380Y-76464285D01*
X101452380Y-76083333D01*
X101500000Y-75988095D01*
X101547619Y-75940476D01*
X101642857Y-75892857D01*
X101785714Y-75892857D01*
X101880952Y-75940476D01*
X101928571Y-75988095D01*
X101976190Y-76083333D01*
X101976190Y-76464285D01*
X101452380Y-75559523D02*
X101452380Y-74940476D01*
X101833333Y-75273809D01*
X101833333Y-75130952D01*
X101880952Y-75035714D01*
X101928571Y-74988095D01*
X102023809Y-74940476D01*
X102261904Y-74940476D01*
X102357142Y-74988095D01*
X102404761Y-75035714D01*
X102452380Y-75130952D01*
X102452380Y-75416666D01*
X102404761Y-75511904D01*
X102357142Y-75559523D01*
X101452380Y-74035714D02*
X101452380Y-74511904D01*
X101928571Y-74559523D01*
X101880952Y-74511904D01*
X101833333Y-74416666D01*
X101833333Y-74178571D01*
X101880952Y-74083333D01*
X101928571Y-74035714D01*
X102023809Y-73988095D01*
X102261904Y-73988095D01*
X102357142Y-74035714D01*
X102404761Y-74083333D01*
X102452380Y-74178571D01*
X102452380Y-74416666D01*
X102404761Y-74511904D01*
X102357142Y-74559523D01*
%TO.C,R34*%
X97357142Y-69702380D02*
X97023809Y-69226190D01*
X96785714Y-69702380D02*
X96785714Y-68702380D01*
X97166666Y-68702380D01*
X97261904Y-68750000D01*
X97309523Y-68797619D01*
X97357142Y-68892857D01*
X97357142Y-69035714D01*
X97309523Y-69130952D01*
X97261904Y-69178571D01*
X97166666Y-69226190D01*
X96785714Y-69226190D01*
X97690476Y-68702380D02*
X98309523Y-68702380D01*
X97976190Y-69083333D01*
X98119047Y-69083333D01*
X98214285Y-69130952D01*
X98261904Y-69178571D01*
X98309523Y-69273809D01*
X98309523Y-69511904D01*
X98261904Y-69607142D01*
X98214285Y-69654761D01*
X98119047Y-69702380D01*
X97833333Y-69702380D01*
X97738095Y-69654761D01*
X97690476Y-69607142D01*
X99166666Y-69035714D02*
X99166666Y-69702380D01*
X98928571Y-68654761D02*
X98690476Y-69369047D01*
X99309523Y-69369047D01*
%TO.C,C63*%
X104107142Y-75892857D02*
X104154761Y-75940476D01*
X104202380Y-76083333D01*
X104202380Y-76178571D01*
X104154761Y-76321428D01*
X104059523Y-76416666D01*
X103964285Y-76464285D01*
X103773809Y-76511904D01*
X103630952Y-76511904D01*
X103440476Y-76464285D01*
X103345238Y-76416666D01*
X103250000Y-76321428D01*
X103202380Y-76178571D01*
X103202380Y-76083333D01*
X103250000Y-75940476D01*
X103297619Y-75892857D01*
X103202380Y-75035714D02*
X103202380Y-75226190D01*
X103250000Y-75321428D01*
X103297619Y-75369047D01*
X103440476Y-75464285D01*
X103630952Y-75511904D01*
X104011904Y-75511904D01*
X104107142Y-75464285D01*
X104154761Y-75416666D01*
X104202380Y-75321428D01*
X104202380Y-75130952D01*
X104154761Y-75035714D01*
X104107142Y-74988095D01*
X104011904Y-74940476D01*
X103773809Y-74940476D01*
X103678571Y-74988095D01*
X103630952Y-75035714D01*
X103583333Y-75130952D01*
X103583333Y-75321428D01*
X103630952Y-75416666D01*
X103678571Y-75464285D01*
X103773809Y-75511904D01*
X103202380Y-74607142D02*
X103202380Y-73988095D01*
X103583333Y-74321428D01*
X103583333Y-74178571D01*
X103630952Y-74083333D01*
X103678571Y-74035714D01*
X103773809Y-73988095D01*
X104011904Y-73988095D01*
X104107142Y-74035714D01*
X104154761Y-74083333D01*
X104202380Y-74178571D01*
X104202380Y-74464285D01*
X104154761Y-74559523D01*
X104107142Y-74607142D01*
%TO.C,J5*%
X134371666Y-74457380D02*
X134371666Y-75171666D01*
X134324047Y-75314523D01*
X134228809Y-75409761D01*
X134085952Y-75457380D01*
X133990714Y-75457380D01*
X135324047Y-74457380D02*
X134847857Y-74457380D01*
X134800238Y-74933571D01*
X134847857Y-74885952D01*
X134943095Y-74838333D01*
X135181190Y-74838333D01*
X135276428Y-74885952D01*
X135324047Y-74933571D01*
X135371666Y-75028809D01*
X135371666Y-75266904D01*
X135324047Y-75362142D01*
X135276428Y-75409761D01*
X135181190Y-75457380D01*
X134943095Y-75457380D01*
X134847857Y-75409761D01*
X134800238Y-75362142D01*
%TO.C,J2*%
X148166666Y-67952380D02*
X148166666Y-68666666D01*
X148119047Y-68809523D01*
X148023809Y-68904761D01*
X147880952Y-68952380D01*
X147785714Y-68952380D01*
X148595238Y-68047619D02*
X148642857Y-68000000D01*
X148738095Y-67952380D01*
X148976190Y-67952380D01*
X149071428Y-68000000D01*
X149119047Y-68047619D01*
X149166666Y-68142857D01*
X149166666Y-68238095D01*
X149119047Y-68380952D01*
X148547619Y-68952380D01*
X149166666Y-68952380D01*
%TO.C,J4*%
X145416666Y-67952380D02*
X145416666Y-68666666D01*
X145369047Y-68809523D01*
X145273809Y-68904761D01*
X145130952Y-68952380D01*
X145035714Y-68952380D01*
X146321428Y-68285714D02*
X146321428Y-68952380D01*
X146083333Y-67904761D02*
X145845238Y-68619047D01*
X146464285Y-68619047D01*
%TO.C,X1*%
X188101915Y-111811589D02*
X188635632Y-112612164D01*
X188635632Y-111811589D02*
X188101915Y-112612164D01*
X189359961Y-112612164D02*
X188902490Y-112612164D01*
X189131226Y-112612164D02*
X189131226Y-111811589D01*
X189054980Y-111925957D01*
X188978735Y-112002202D01*
X188902490Y-112040325D01*
%TO.C,U18*%
X93511904Y-114452380D02*
X93511904Y-115261904D01*
X93559523Y-115357142D01*
X93607142Y-115404761D01*
X93702380Y-115452380D01*
X93892857Y-115452380D01*
X93988095Y-115404761D01*
X94035714Y-115357142D01*
X94083333Y-115261904D01*
X94083333Y-114452380D01*
X95083333Y-115452380D02*
X94511904Y-115452380D01*
X94797619Y-115452380D02*
X94797619Y-114452380D01*
X94702380Y-114595238D01*
X94607142Y-114690476D01*
X94511904Y-114738095D01*
X95654761Y-114880952D02*
X95559523Y-114833333D01*
X95511904Y-114785714D01*
X95464285Y-114690476D01*
X95464285Y-114642857D01*
X95511904Y-114547619D01*
X95559523Y-114500000D01*
X95654761Y-114452380D01*
X95845238Y-114452380D01*
X95940476Y-114500000D01*
X95988095Y-114547619D01*
X96035714Y-114642857D01*
X96035714Y-114690476D01*
X95988095Y-114785714D01*
X95940476Y-114833333D01*
X95845238Y-114880952D01*
X95654761Y-114880952D01*
X95559523Y-114928571D01*
X95511904Y-114976190D01*
X95464285Y-115071428D01*
X95464285Y-115261904D01*
X95511904Y-115357142D01*
X95559523Y-115404761D01*
X95654761Y-115452380D01*
X95845238Y-115452380D01*
X95940476Y-115404761D01*
X95988095Y-115357142D01*
X96035714Y-115261904D01*
X96035714Y-115071428D01*
X95988095Y-114976190D01*
X95940476Y-114928571D01*
X95845238Y-114880952D01*
%TO.C,U17*%
X175011904Y-73452380D02*
X175011904Y-74261904D01*
X175059523Y-74357142D01*
X175107142Y-74404761D01*
X175202380Y-74452380D01*
X175392857Y-74452380D01*
X175488095Y-74404761D01*
X175535714Y-74357142D01*
X175583333Y-74261904D01*
X175583333Y-73452380D01*
X176583333Y-74452380D02*
X176011904Y-74452380D01*
X176297619Y-74452380D02*
X176297619Y-73452380D01*
X176202380Y-73595238D01*
X176107142Y-73690476D01*
X176011904Y-73738095D01*
X176916666Y-73452380D02*
X177583333Y-73452380D01*
X177154761Y-74452380D01*
%TO.C,U16*%
X148261904Y-100952380D02*
X148261904Y-101761904D01*
X148309523Y-101857142D01*
X148357142Y-101904761D01*
X148452380Y-101952380D01*
X148642857Y-101952380D01*
X148738095Y-101904761D01*
X148785714Y-101857142D01*
X148833333Y-101761904D01*
X148833333Y-100952380D01*
X149833333Y-101952380D02*
X149261904Y-101952380D01*
X149547619Y-101952380D02*
X149547619Y-100952380D01*
X149452380Y-101095238D01*
X149357142Y-101190476D01*
X149261904Y-101238095D01*
X150690476Y-100952380D02*
X150500000Y-100952380D01*
X150404761Y-101000000D01*
X150357142Y-101047619D01*
X150261904Y-101190476D01*
X150214285Y-101380952D01*
X150214285Y-101761904D01*
X150261904Y-101857142D01*
X150309523Y-101904761D01*
X150404761Y-101952380D01*
X150595238Y-101952380D01*
X150690476Y-101904761D01*
X150738095Y-101857142D01*
X150785714Y-101761904D01*
X150785714Y-101523809D01*
X150738095Y-101428571D01*
X150690476Y-101380952D01*
X150595238Y-101333333D01*
X150404761Y-101333333D01*
X150309523Y-101380952D01*
X150261904Y-101428571D01*
X150214285Y-101523809D01*
%TO.C,U15*%
X159511904Y-102337380D02*
X159511904Y-103146904D01*
X159559523Y-103242142D01*
X159607142Y-103289761D01*
X159702380Y-103337380D01*
X159892857Y-103337380D01*
X159988095Y-103289761D01*
X160035714Y-103242142D01*
X160083333Y-103146904D01*
X160083333Y-102337380D01*
X161083333Y-103337380D02*
X160511904Y-103337380D01*
X160797619Y-103337380D02*
X160797619Y-102337380D01*
X160702380Y-102480238D01*
X160607142Y-102575476D01*
X160511904Y-102623095D01*
X161988095Y-102337380D02*
X161511904Y-102337380D01*
X161464285Y-102813571D01*
X161511904Y-102765952D01*
X161607142Y-102718333D01*
X161845238Y-102718333D01*
X161940476Y-102765952D01*
X161988095Y-102813571D01*
X162035714Y-102908809D01*
X162035714Y-103146904D01*
X161988095Y-103242142D01*
X161940476Y-103289761D01*
X161845238Y-103337380D01*
X161607142Y-103337380D01*
X161511904Y-103289761D01*
X161464285Y-103242142D01*
%TO.C,U14*%
X154761904Y-68952380D02*
X154761904Y-69761904D01*
X154809523Y-69857142D01*
X154857142Y-69904761D01*
X154952380Y-69952380D01*
X155142857Y-69952380D01*
X155238095Y-69904761D01*
X155285714Y-69857142D01*
X155333333Y-69761904D01*
X155333333Y-68952380D01*
X156333333Y-69952380D02*
X155761904Y-69952380D01*
X156047619Y-69952380D02*
X156047619Y-68952380D01*
X155952380Y-69095238D01*
X155857142Y-69190476D01*
X155761904Y-69238095D01*
X157190476Y-69285714D02*
X157190476Y-69952380D01*
X156952380Y-68904761D02*
X156714285Y-69619047D01*
X157333333Y-69619047D01*
%TO.C,U13*%
X164761904Y-68952380D02*
X164761904Y-69761904D01*
X164809523Y-69857142D01*
X164857142Y-69904761D01*
X164952380Y-69952380D01*
X165142857Y-69952380D01*
X165238095Y-69904761D01*
X165285714Y-69857142D01*
X165333333Y-69761904D01*
X165333333Y-68952380D01*
X166333333Y-69952380D02*
X165761904Y-69952380D01*
X166047619Y-69952380D02*
X166047619Y-68952380D01*
X165952380Y-69095238D01*
X165857142Y-69190476D01*
X165761904Y-69238095D01*
X166666666Y-68952380D02*
X167285714Y-68952380D01*
X166952380Y-69333333D01*
X167095238Y-69333333D01*
X167190476Y-69380952D01*
X167238095Y-69428571D01*
X167285714Y-69523809D01*
X167285714Y-69761904D01*
X167238095Y-69857142D01*
X167190476Y-69904761D01*
X167095238Y-69952380D01*
X166809523Y-69952380D01*
X166714285Y-69904761D01*
X166666666Y-69857142D01*
%TO.C,U11*%
X158331304Y-91952380D02*
X158331304Y-92761904D01*
X158378923Y-92857142D01*
X158426542Y-92904761D01*
X158521780Y-92952380D01*
X158712257Y-92952380D01*
X158807495Y-92904761D01*
X158855114Y-92857142D01*
X158902733Y-92761904D01*
X158902733Y-91952380D01*
X159902733Y-92952380D02*
X159331304Y-92952380D01*
X159617019Y-92952380D02*
X159617019Y-91952380D01*
X159521780Y-92095238D01*
X159426542Y-92190476D01*
X159331304Y-92238095D01*
X160855114Y-92952380D02*
X160283685Y-92952380D01*
X160569400Y-92952380D02*
X160569400Y-91952380D01*
X160474161Y-92095238D01*
X160378923Y-92190476D01*
X160283685Y-92238095D01*
%TO.C,U10*%
X133511904Y-78452380D02*
X133511904Y-79261904D01*
X133559523Y-79357142D01*
X133607142Y-79404761D01*
X133702380Y-79452380D01*
X133892857Y-79452380D01*
X133988095Y-79404761D01*
X134035714Y-79357142D01*
X134083333Y-79261904D01*
X134083333Y-78452380D01*
X135083333Y-79452380D02*
X134511904Y-79452380D01*
X134797619Y-79452380D02*
X134797619Y-78452380D01*
X134702380Y-78595238D01*
X134607142Y-78690476D01*
X134511904Y-78738095D01*
X135702380Y-78452380D02*
X135797619Y-78452380D01*
X135892857Y-78500000D01*
X135940476Y-78547619D01*
X135988095Y-78642857D01*
X136035714Y-78833333D01*
X136035714Y-79071428D01*
X135988095Y-79261904D01*
X135940476Y-79357142D01*
X135892857Y-79404761D01*
X135797619Y-79452380D01*
X135702380Y-79452380D01*
X135607142Y-79404761D01*
X135559523Y-79357142D01*
X135511904Y-79261904D01*
X135464285Y-79071428D01*
X135464285Y-78833333D01*
X135511904Y-78642857D01*
X135559523Y-78547619D01*
X135607142Y-78500000D01*
X135702380Y-78452380D01*
%TO.C,U8*%
X116238095Y-86202380D02*
X116238095Y-87011904D01*
X116285714Y-87107142D01*
X116333333Y-87154761D01*
X116428571Y-87202380D01*
X116619047Y-87202380D01*
X116714285Y-87154761D01*
X116761904Y-87107142D01*
X116809523Y-87011904D01*
X116809523Y-86202380D01*
X117428571Y-86630952D02*
X117333333Y-86583333D01*
X117285714Y-86535714D01*
X117238095Y-86440476D01*
X117238095Y-86392857D01*
X117285714Y-86297619D01*
X117333333Y-86250000D01*
X117428571Y-86202380D01*
X117619047Y-86202380D01*
X117714285Y-86250000D01*
X117761904Y-86297619D01*
X117809523Y-86392857D01*
X117809523Y-86440476D01*
X117761904Y-86535714D01*
X117714285Y-86583333D01*
X117619047Y-86630952D01*
X117428571Y-86630952D01*
X117333333Y-86678571D01*
X117285714Y-86726190D01*
X117238095Y-86821428D01*
X117238095Y-87011904D01*
X117285714Y-87107142D01*
X117333333Y-87154761D01*
X117428571Y-87202380D01*
X117619047Y-87202380D01*
X117714285Y-87154761D01*
X117761904Y-87107142D01*
X117809523Y-87011904D01*
X117809523Y-86821428D01*
X117761904Y-86726190D01*
X117714285Y-86678571D01*
X117619047Y-86630952D01*
%TO.C,U6*%
X134838095Y-102702380D02*
X134838095Y-103511904D01*
X134885714Y-103607142D01*
X134933333Y-103654761D01*
X135028571Y-103702380D01*
X135219047Y-103702380D01*
X135314285Y-103654761D01*
X135361904Y-103607142D01*
X135409523Y-103511904D01*
X135409523Y-102702380D01*
X136314285Y-102702380D02*
X136123809Y-102702380D01*
X136028571Y-102750000D01*
X135980952Y-102797619D01*
X135885714Y-102940476D01*
X135838095Y-103130952D01*
X135838095Y-103511904D01*
X135885714Y-103607142D01*
X135933333Y-103654761D01*
X136028571Y-103702380D01*
X136219047Y-103702380D01*
X136314285Y-103654761D01*
X136361904Y-103607142D01*
X136409523Y-103511904D01*
X136409523Y-103273809D01*
X136361904Y-103178571D01*
X136314285Y-103130952D01*
X136219047Y-103083333D01*
X136028571Y-103083333D01*
X135933333Y-103130952D01*
X135885714Y-103178571D01*
X135838095Y-103273809D01*
%TO.C,U4*%
X145738095Y-105952380D02*
X145738095Y-106761904D01*
X145785714Y-106857142D01*
X145833333Y-106904761D01*
X145928571Y-106952380D01*
X146119047Y-106952380D01*
X146214285Y-106904761D01*
X146261904Y-106857142D01*
X146309523Y-106761904D01*
X146309523Y-105952380D01*
X147214285Y-106285714D02*
X147214285Y-106952380D01*
X146976190Y-105904761D02*
X146738095Y-106619047D01*
X147357142Y-106619047D01*
%TO.C,U3*%
X123452380Y-128011904D02*
X124261904Y-128011904D01*
X124357142Y-127964285D01*
X124404761Y-127916666D01*
X124452380Y-127821428D01*
X124452380Y-127630952D01*
X124404761Y-127535714D01*
X124357142Y-127488095D01*
X124261904Y-127440476D01*
X123452380Y-127440476D01*
X123452380Y-127059523D02*
X123452380Y-126440476D01*
X123833333Y-126773809D01*
X123833333Y-126630952D01*
X123880952Y-126535714D01*
X123928571Y-126488095D01*
X124023809Y-126440476D01*
X124261904Y-126440476D01*
X124357142Y-126488095D01*
X124404761Y-126535714D01*
X124452380Y-126630952D01*
X124452380Y-126916666D01*
X124404761Y-127011904D01*
X124357142Y-127059523D01*
%TO.C,U2*%
X181486769Y-106451428D02*
X181486769Y-107262360D01*
X181534471Y-107357764D01*
X181582173Y-107405466D01*
X181677577Y-107453168D01*
X181868384Y-107453168D01*
X181963788Y-107405466D01*
X182011490Y-107357764D01*
X182059192Y-107262360D01*
X182059192Y-106451428D01*
X182488509Y-106546831D02*
X182536211Y-106499130D01*
X182631615Y-106451428D01*
X182870124Y-106451428D01*
X182965528Y-106499130D01*
X183013230Y-106546831D01*
X183060932Y-106642235D01*
X183060932Y-106737639D01*
X183013230Y-106880745D01*
X182440807Y-107453168D01*
X183060932Y-107453168D01*
%TO.C,U1*%
X134829333Y-138121666D02*
X135962666Y-138121666D01*
X136096000Y-138055000D01*
X136162666Y-137988333D01*
X136229333Y-137855000D01*
X136229333Y-137588333D01*
X136162666Y-137455000D01*
X136096000Y-137388333D01*
X135962666Y-137321666D01*
X134829333Y-137321666D01*
X136229333Y-135921666D02*
X136229333Y-136721666D01*
X136229333Y-136321666D02*
X134829333Y-136321666D01*
X135029333Y-136455000D01*
X135162666Y-136588333D01*
X135229333Y-136721666D01*
%TO.C,R33*%
X115107142Y-69202380D02*
X114773809Y-68726190D01*
X114535714Y-69202380D02*
X114535714Y-68202380D01*
X114916666Y-68202380D01*
X115011904Y-68250000D01*
X115059523Y-68297619D01*
X115107142Y-68392857D01*
X115107142Y-68535714D01*
X115059523Y-68630952D01*
X115011904Y-68678571D01*
X114916666Y-68726190D01*
X114535714Y-68726190D01*
X115440476Y-68202380D02*
X116059523Y-68202380D01*
X115726190Y-68583333D01*
X115869047Y-68583333D01*
X115964285Y-68630952D01*
X116011904Y-68678571D01*
X116059523Y-68773809D01*
X116059523Y-69011904D01*
X116011904Y-69107142D01*
X115964285Y-69154761D01*
X115869047Y-69202380D01*
X115583333Y-69202380D01*
X115488095Y-69154761D01*
X115440476Y-69107142D01*
X116392857Y-68202380D02*
X117011904Y-68202380D01*
X116678571Y-68583333D01*
X116821428Y-68583333D01*
X116916666Y-68630952D01*
X116964285Y-68678571D01*
X117011904Y-68773809D01*
X117011904Y-69011904D01*
X116964285Y-69107142D01*
X116916666Y-69154761D01*
X116821428Y-69202380D01*
X116535714Y-69202380D01*
X116440476Y-69154761D01*
X116392857Y-69107142D01*
%TO.C,R32*%
X107202380Y-75392857D02*
X106726190Y-75726190D01*
X107202380Y-75964285D02*
X106202380Y-75964285D01*
X106202380Y-75583333D01*
X106250000Y-75488095D01*
X106297619Y-75440476D01*
X106392857Y-75392857D01*
X106535714Y-75392857D01*
X106630952Y-75440476D01*
X106678571Y-75488095D01*
X106726190Y-75583333D01*
X106726190Y-75964285D01*
X106202380Y-75059523D02*
X106202380Y-74440476D01*
X106583333Y-74773809D01*
X106583333Y-74630952D01*
X106630952Y-74535714D01*
X106678571Y-74488095D01*
X106773809Y-74440476D01*
X107011904Y-74440476D01*
X107107142Y-74488095D01*
X107154761Y-74535714D01*
X107202380Y-74630952D01*
X107202380Y-74916666D01*
X107154761Y-75011904D01*
X107107142Y-75059523D01*
X106297619Y-74059523D02*
X106250000Y-74011904D01*
X106202380Y-73916666D01*
X106202380Y-73678571D01*
X106250000Y-73583333D01*
X106297619Y-73535714D01*
X106392857Y-73488095D01*
X106488095Y-73488095D01*
X106630952Y-73535714D01*
X107202380Y-74107142D01*
X107202380Y-73488095D01*
%TO.C,R31*%
X100357142Y-119202380D02*
X100023809Y-118726190D01*
X99785714Y-119202380D02*
X99785714Y-118202380D01*
X100166666Y-118202380D01*
X100261904Y-118250000D01*
X100309523Y-118297619D01*
X100357142Y-118392857D01*
X100357142Y-118535714D01*
X100309523Y-118630952D01*
X100261904Y-118678571D01*
X100166666Y-118726190D01*
X99785714Y-118726190D01*
X100690476Y-118202380D02*
X101309523Y-118202380D01*
X100976190Y-118583333D01*
X101119047Y-118583333D01*
X101214285Y-118630952D01*
X101261904Y-118678571D01*
X101309523Y-118773809D01*
X101309523Y-119011904D01*
X101261904Y-119107142D01*
X101214285Y-119154761D01*
X101119047Y-119202380D01*
X100833333Y-119202380D01*
X100738095Y-119154761D01*
X100690476Y-119107142D01*
X102261904Y-119202380D02*
X101690476Y-119202380D01*
X101976190Y-119202380D02*
X101976190Y-118202380D01*
X101880952Y-118345238D01*
X101785714Y-118440476D01*
X101690476Y-118488095D01*
%TO.C,R30*%
X112952380Y-75892857D02*
X112476190Y-76226190D01*
X112952380Y-76464285D02*
X111952380Y-76464285D01*
X111952380Y-76083333D01*
X112000000Y-75988095D01*
X112047619Y-75940476D01*
X112142857Y-75892857D01*
X112285714Y-75892857D01*
X112380952Y-75940476D01*
X112428571Y-75988095D01*
X112476190Y-76083333D01*
X112476190Y-76464285D01*
X111952380Y-75559523D02*
X111952380Y-74940476D01*
X112333333Y-75273809D01*
X112333333Y-75130952D01*
X112380952Y-75035714D01*
X112428571Y-74988095D01*
X112523809Y-74940476D01*
X112761904Y-74940476D01*
X112857142Y-74988095D01*
X112904761Y-75035714D01*
X112952380Y-75130952D01*
X112952380Y-75416666D01*
X112904761Y-75511904D01*
X112857142Y-75559523D01*
X111952380Y-74321428D02*
X111952380Y-74226190D01*
X112000000Y-74130952D01*
X112047619Y-74083333D01*
X112142857Y-74035714D01*
X112333333Y-73988095D01*
X112571428Y-73988095D01*
X112761904Y-74035714D01*
X112857142Y-74083333D01*
X112904761Y-74130952D01*
X112952380Y-74226190D01*
X112952380Y-74321428D01*
X112904761Y-74416666D01*
X112857142Y-74464285D01*
X112761904Y-74511904D01*
X112571428Y-74559523D01*
X112333333Y-74559523D01*
X112142857Y-74511904D01*
X112047619Y-74464285D01*
X112000000Y-74416666D01*
X111952380Y-74321428D01*
%TO.C,R29*%
X117682142Y-110132380D02*
X117348809Y-109656190D01*
X117110714Y-110132380D02*
X117110714Y-109132380D01*
X117491666Y-109132380D01*
X117586904Y-109180000D01*
X117634523Y-109227619D01*
X117682142Y-109322857D01*
X117682142Y-109465714D01*
X117634523Y-109560952D01*
X117586904Y-109608571D01*
X117491666Y-109656190D01*
X117110714Y-109656190D01*
X118063095Y-109227619D02*
X118110714Y-109180000D01*
X118205952Y-109132380D01*
X118444047Y-109132380D01*
X118539285Y-109180000D01*
X118586904Y-109227619D01*
X118634523Y-109322857D01*
X118634523Y-109418095D01*
X118586904Y-109560952D01*
X118015476Y-110132380D01*
X118634523Y-110132380D01*
X119110714Y-110132380D02*
X119301190Y-110132380D01*
X119396428Y-110084761D01*
X119444047Y-110037142D01*
X119539285Y-109894285D01*
X119586904Y-109703809D01*
X119586904Y-109322857D01*
X119539285Y-109227619D01*
X119491666Y-109180000D01*
X119396428Y-109132380D01*
X119205952Y-109132380D01*
X119110714Y-109180000D01*
X119063095Y-109227619D01*
X119015476Y-109322857D01*
X119015476Y-109560952D01*
X119063095Y-109656190D01*
X119110714Y-109703809D01*
X119205952Y-109751428D01*
X119396428Y-109751428D01*
X119491666Y-109703809D01*
X119539285Y-109656190D01*
X119586904Y-109560952D01*
%TO.C,R28*%
X102607142Y-112702380D02*
X102273809Y-112226190D01*
X102035714Y-112702380D02*
X102035714Y-111702380D01*
X102416666Y-111702380D01*
X102511904Y-111750000D01*
X102559523Y-111797619D01*
X102607142Y-111892857D01*
X102607142Y-112035714D01*
X102559523Y-112130952D01*
X102511904Y-112178571D01*
X102416666Y-112226190D01*
X102035714Y-112226190D01*
X102988095Y-111797619D02*
X103035714Y-111750000D01*
X103130952Y-111702380D01*
X103369047Y-111702380D01*
X103464285Y-111750000D01*
X103511904Y-111797619D01*
X103559523Y-111892857D01*
X103559523Y-111988095D01*
X103511904Y-112130952D01*
X102940476Y-112702380D01*
X103559523Y-112702380D01*
X104130952Y-112130952D02*
X104035714Y-112083333D01*
X103988095Y-112035714D01*
X103940476Y-111940476D01*
X103940476Y-111892857D01*
X103988095Y-111797619D01*
X104035714Y-111750000D01*
X104130952Y-111702380D01*
X104321428Y-111702380D01*
X104416666Y-111750000D01*
X104464285Y-111797619D01*
X104511904Y-111892857D01*
X104511904Y-111940476D01*
X104464285Y-112035714D01*
X104416666Y-112083333D01*
X104321428Y-112130952D01*
X104130952Y-112130952D01*
X104035714Y-112178571D01*
X103988095Y-112226190D01*
X103940476Y-112321428D01*
X103940476Y-112511904D01*
X103988095Y-112607142D01*
X104035714Y-112654761D01*
X104130952Y-112702380D01*
X104321428Y-112702380D01*
X104416666Y-112654761D01*
X104464285Y-112607142D01*
X104511904Y-112511904D01*
X104511904Y-112321428D01*
X104464285Y-112226190D01*
X104416666Y-112178571D01*
X104321428Y-112130952D01*
%TO.C,R27*%
X114857142Y-70202380D02*
X114523809Y-69726190D01*
X114285714Y-70202380D02*
X114285714Y-69202380D01*
X114666666Y-69202380D01*
X114761904Y-69250000D01*
X114809523Y-69297619D01*
X114857142Y-69392857D01*
X114857142Y-69535714D01*
X114809523Y-69630952D01*
X114761904Y-69678571D01*
X114666666Y-69726190D01*
X114285714Y-69726190D01*
X115238095Y-69297619D02*
X115285714Y-69250000D01*
X115380952Y-69202380D01*
X115619047Y-69202380D01*
X115714285Y-69250000D01*
X115761904Y-69297619D01*
X115809523Y-69392857D01*
X115809523Y-69488095D01*
X115761904Y-69630952D01*
X115190476Y-70202380D01*
X115809523Y-70202380D01*
X116142857Y-69202380D02*
X116809523Y-69202380D01*
X116380952Y-70202380D01*
%TO.C,R26*%
X146357142Y-87952380D02*
X146023809Y-87476190D01*
X145785714Y-87952380D02*
X145785714Y-86952380D01*
X146166666Y-86952380D01*
X146261904Y-87000000D01*
X146309523Y-87047619D01*
X146357142Y-87142857D01*
X146357142Y-87285714D01*
X146309523Y-87380952D01*
X146261904Y-87428571D01*
X146166666Y-87476190D01*
X145785714Y-87476190D01*
X146738095Y-87047619D02*
X146785714Y-87000000D01*
X146880952Y-86952380D01*
X147119047Y-86952380D01*
X147214285Y-87000000D01*
X147261904Y-87047619D01*
X147309523Y-87142857D01*
X147309523Y-87238095D01*
X147261904Y-87380952D01*
X146690476Y-87952380D01*
X147309523Y-87952380D01*
X148166666Y-86952380D02*
X147976190Y-86952380D01*
X147880952Y-87000000D01*
X147833333Y-87047619D01*
X147738095Y-87190476D01*
X147690476Y-87380952D01*
X147690476Y-87761904D01*
X147738095Y-87857142D01*
X147785714Y-87904761D01*
X147880952Y-87952380D01*
X148071428Y-87952380D01*
X148166666Y-87904761D01*
X148214285Y-87857142D01*
X148261904Y-87761904D01*
X148261904Y-87523809D01*
X148214285Y-87428571D01*
X148166666Y-87380952D01*
X148071428Y-87333333D01*
X147880952Y-87333333D01*
X147785714Y-87380952D01*
X147738095Y-87428571D01*
X147690476Y-87523809D01*
%TO.C,R25*%
X158607142Y-72702380D02*
X158273809Y-72226190D01*
X158035714Y-72702380D02*
X158035714Y-71702380D01*
X158416666Y-71702380D01*
X158511904Y-71750000D01*
X158559523Y-71797619D01*
X158607142Y-71892857D01*
X158607142Y-72035714D01*
X158559523Y-72130952D01*
X158511904Y-72178571D01*
X158416666Y-72226190D01*
X158035714Y-72226190D01*
X158988095Y-71797619D02*
X159035714Y-71750000D01*
X159130952Y-71702380D01*
X159369047Y-71702380D01*
X159464285Y-71750000D01*
X159511904Y-71797619D01*
X159559523Y-71892857D01*
X159559523Y-71988095D01*
X159511904Y-72130952D01*
X158940476Y-72702380D01*
X159559523Y-72702380D01*
X160464285Y-71702380D02*
X159988095Y-71702380D01*
X159940476Y-72178571D01*
X159988095Y-72130952D01*
X160083333Y-72083333D01*
X160321428Y-72083333D01*
X160416666Y-72130952D01*
X160464285Y-72178571D01*
X160511904Y-72273809D01*
X160511904Y-72511904D01*
X160464285Y-72607142D01*
X160416666Y-72654761D01*
X160321428Y-72702380D01*
X160083333Y-72702380D01*
X159988095Y-72654761D01*
X159940476Y-72607142D01*
%TO.C,R24*%
X166357142Y-75702380D02*
X166023809Y-75226190D01*
X165785714Y-75702380D02*
X165785714Y-74702380D01*
X166166666Y-74702380D01*
X166261904Y-74750000D01*
X166309523Y-74797619D01*
X166357142Y-74892857D01*
X166357142Y-75035714D01*
X166309523Y-75130952D01*
X166261904Y-75178571D01*
X166166666Y-75226190D01*
X165785714Y-75226190D01*
X166738095Y-74797619D02*
X166785714Y-74750000D01*
X166880952Y-74702380D01*
X167119047Y-74702380D01*
X167214285Y-74750000D01*
X167261904Y-74797619D01*
X167309523Y-74892857D01*
X167309523Y-74988095D01*
X167261904Y-75130952D01*
X166690476Y-75702380D01*
X167309523Y-75702380D01*
X168166666Y-75035714D02*
X168166666Y-75702380D01*
X167928571Y-74654761D02*
X167690476Y-75369047D01*
X168309523Y-75369047D01*
%TO.C,R23*%
X148607142Y-72702380D02*
X148273809Y-72226190D01*
X148035714Y-72702380D02*
X148035714Y-71702380D01*
X148416666Y-71702380D01*
X148511904Y-71750000D01*
X148559523Y-71797619D01*
X148607142Y-71892857D01*
X148607142Y-72035714D01*
X148559523Y-72130952D01*
X148511904Y-72178571D01*
X148416666Y-72226190D01*
X148035714Y-72226190D01*
X148988095Y-71797619D02*
X149035714Y-71750000D01*
X149130952Y-71702380D01*
X149369047Y-71702380D01*
X149464285Y-71750000D01*
X149511904Y-71797619D01*
X149559523Y-71892857D01*
X149559523Y-71988095D01*
X149511904Y-72130952D01*
X148940476Y-72702380D01*
X149559523Y-72702380D01*
X149892857Y-71702380D02*
X150511904Y-71702380D01*
X150178571Y-72083333D01*
X150321428Y-72083333D01*
X150416666Y-72130952D01*
X150464285Y-72178571D01*
X150511904Y-72273809D01*
X150511904Y-72511904D01*
X150464285Y-72607142D01*
X150416666Y-72654761D01*
X150321428Y-72702380D01*
X150035714Y-72702380D01*
X149940476Y-72654761D01*
X149892857Y-72607142D01*
%TO.C,R22*%
X156357142Y-75702380D02*
X156023809Y-75226190D01*
X155785714Y-75702380D02*
X155785714Y-74702380D01*
X156166666Y-74702380D01*
X156261904Y-74750000D01*
X156309523Y-74797619D01*
X156357142Y-74892857D01*
X156357142Y-75035714D01*
X156309523Y-75130952D01*
X156261904Y-75178571D01*
X156166666Y-75226190D01*
X155785714Y-75226190D01*
X156738095Y-74797619D02*
X156785714Y-74750000D01*
X156880952Y-74702380D01*
X157119047Y-74702380D01*
X157214285Y-74750000D01*
X157261904Y-74797619D01*
X157309523Y-74892857D01*
X157309523Y-74988095D01*
X157261904Y-75130952D01*
X156690476Y-75702380D01*
X157309523Y-75702380D01*
X157690476Y-74797619D02*
X157738095Y-74750000D01*
X157833333Y-74702380D01*
X158071428Y-74702380D01*
X158166666Y-74750000D01*
X158214285Y-74797619D01*
X158261904Y-74892857D01*
X158261904Y-74988095D01*
X158214285Y-75130952D01*
X157642857Y-75702380D01*
X158261904Y-75702380D01*
%TO.C,R21*%
X142857142Y-103702380D02*
X142523809Y-103226190D01*
X142285714Y-103702380D02*
X142285714Y-102702380D01*
X142666666Y-102702380D01*
X142761904Y-102750000D01*
X142809523Y-102797619D01*
X142857142Y-102892857D01*
X142857142Y-103035714D01*
X142809523Y-103130952D01*
X142761904Y-103178571D01*
X142666666Y-103226190D01*
X142285714Y-103226190D01*
X143238095Y-102797619D02*
X143285714Y-102750000D01*
X143380952Y-102702380D01*
X143619047Y-102702380D01*
X143714285Y-102750000D01*
X143761904Y-102797619D01*
X143809523Y-102892857D01*
X143809523Y-102988095D01*
X143761904Y-103130952D01*
X143190476Y-103702380D01*
X143809523Y-103702380D01*
X144761904Y-103702380D02*
X144190476Y-103702380D01*
X144476190Y-103702380D02*
X144476190Y-102702380D01*
X144380952Y-102845238D01*
X144285714Y-102940476D01*
X144190476Y-102988095D01*
%TO.C,R20*%
X138702380Y-105142857D02*
X138226190Y-105476190D01*
X138702380Y-105714285D02*
X137702380Y-105714285D01*
X137702380Y-105333333D01*
X137750000Y-105238095D01*
X137797619Y-105190476D01*
X137892857Y-105142857D01*
X138035714Y-105142857D01*
X138130952Y-105190476D01*
X138178571Y-105238095D01*
X138226190Y-105333333D01*
X138226190Y-105714285D01*
X137797619Y-104761904D02*
X137750000Y-104714285D01*
X137702380Y-104619047D01*
X137702380Y-104380952D01*
X137750000Y-104285714D01*
X137797619Y-104238095D01*
X137892857Y-104190476D01*
X137988095Y-104190476D01*
X138130952Y-104238095D01*
X138702380Y-104809523D01*
X138702380Y-104190476D01*
X137702380Y-103571428D02*
X137702380Y-103476190D01*
X137750000Y-103380952D01*
X137797619Y-103333333D01*
X137892857Y-103285714D01*
X138083333Y-103238095D01*
X138321428Y-103238095D01*
X138511904Y-103285714D01*
X138607142Y-103333333D01*
X138654761Y-103380952D01*
X138702380Y-103476190D01*
X138702380Y-103571428D01*
X138654761Y-103666666D01*
X138607142Y-103714285D01*
X138511904Y-103761904D01*
X138321428Y-103809523D01*
X138083333Y-103809523D01*
X137892857Y-103761904D01*
X137797619Y-103714285D01*
X137750000Y-103666666D01*
X137702380Y-103571428D01*
%TO.C,R19*%
X142857142Y-101952380D02*
X142523809Y-101476190D01*
X142285714Y-101952380D02*
X142285714Y-100952380D01*
X142666666Y-100952380D01*
X142761904Y-101000000D01*
X142809523Y-101047619D01*
X142857142Y-101142857D01*
X142857142Y-101285714D01*
X142809523Y-101380952D01*
X142761904Y-101428571D01*
X142666666Y-101476190D01*
X142285714Y-101476190D01*
X143809523Y-101952380D02*
X143238095Y-101952380D01*
X143523809Y-101952380D02*
X143523809Y-100952380D01*
X143428571Y-101095238D01*
X143333333Y-101190476D01*
X143238095Y-101238095D01*
X144285714Y-101952380D02*
X144476190Y-101952380D01*
X144571428Y-101904761D01*
X144619047Y-101857142D01*
X144714285Y-101714285D01*
X144761904Y-101523809D01*
X144761904Y-101142857D01*
X144714285Y-101047619D01*
X144666666Y-101000000D01*
X144571428Y-100952380D01*
X144380952Y-100952380D01*
X144285714Y-101000000D01*
X144238095Y-101047619D01*
X144190476Y-101142857D01*
X144190476Y-101380952D01*
X144238095Y-101476190D01*
X144285714Y-101523809D01*
X144380952Y-101571428D01*
X144571428Y-101571428D01*
X144666666Y-101523809D01*
X144714285Y-101476190D01*
X144761904Y-101380952D01*
%TO.C,R18*%
X137607142Y-96202380D02*
X137273809Y-95726190D01*
X137035714Y-96202380D02*
X137035714Y-95202380D01*
X137416666Y-95202380D01*
X137511904Y-95250000D01*
X137559523Y-95297619D01*
X137607142Y-95392857D01*
X137607142Y-95535714D01*
X137559523Y-95630952D01*
X137511904Y-95678571D01*
X137416666Y-95726190D01*
X137035714Y-95726190D01*
X138559523Y-96202380D02*
X137988095Y-96202380D01*
X138273809Y-96202380D02*
X138273809Y-95202380D01*
X138178571Y-95345238D01*
X138083333Y-95440476D01*
X137988095Y-95488095D01*
X139130952Y-95630952D02*
X139035714Y-95583333D01*
X138988095Y-95535714D01*
X138940476Y-95440476D01*
X138940476Y-95392857D01*
X138988095Y-95297619D01*
X139035714Y-95250000D01*
X139130952Y-95202380D01*
X139321428Y-95202380D01*
X139416666Y-95250000D01*
X139464285Y-95297619D01*
X139511904Y-95392857D01*
X139511904Y-95440476D01*
X139464285Y-95535714D01*
X139416666Y-95583333D01*
X139321428Y-95630952D01*
X139130952Y-95630952D01*
X139035714Y-95678571D01*
X138988095Y-95726190D01*
X138940476Y-95821428D01*
X138940476Y-96011904D01*
X138988095Y-96107142D01*
X139035714Y-96154761D01*
X139130952Y-96202380D01*
X139321428Y-96202380D01*
X139416666Y-96154761D01*
X139464285Y-96107142D01*
X139511904Y-96011904D01*
X139511904Y-95821428D01*
X139464285Y-95726190D01*
X139416666Y-95678571D01*
X139321428Y-95630952D01*
%TO.C,R17*%
X122532142Y-124452380D02*
X122198809Y-123976190D01*
X121960714Y-124452380D02*
X121960714Y-123452380D01*
X122341666Y-123452380D01*
X122436904Y-123500000D01*
X122484523Y-123547619D01*
X122532142Y-123642857D01*
X122532142Y-123785714D01*
X122484523Y-123880952D01*
X122436904Y-123928571D01*
X122341666Y-123976190D01*
X121960714Y-123976190D01*
X123484523Y-124452380D02*
X122913095Y-124452380D01*
X123198809Y-124452380D02*
X123198809Y-123452380D01*
X123103571Y-123595238D01*
X123008333Y-123690476D01*
X122913095Y-123738095D01*
X123817857Y-123452380D02*
X124484523Y-123452380D01*
X124055952Y-124452380D01*
%TO.C,R16*%
X117607142Y-125202380D02*
X117273809Y-124726190D01*
X117035714Y-125202380D02*
X117035714Y-124202380D01*
X117416666Y-124202380D01*
X117511904Y-124250000D01*
X117559523Y-124297619D01*
X117607142Y-124392857D01*
X117607142Y-124535714D01*
X117559523Y-124630952D01*
X117511904Y-124678571D01*
X117416666Y-124726190D01*
X117035714Y-124726190D01*
X118559523Y-125202380D02*
X117988095Y-125202380D01*
X118273809Y-125202380D02*
X118273809Y-124202380D01*
X118178571Y-124345238D01*
X118083333Y-124440476D01*
X117988095Y-124488095D01*
X119416666Y-124202380D02*
X119226190Y-124202380D01*
X119130952Y-124250000D01*
X119083333Y-124297619D01*
X118988095Y-124440476D01*
X118940476Y-124630952D01*
X118940476Y-125011904D01*
X118988095Y-125107142D01*
X119035714Y-125154761D01*
X119130952Y-125202380D01*
X119321428Y-125202380D01*
X119416666Y-125154761D01*
X119464285Y-125107142D01*
X119511904Y-125011904D01*
X119511904Y-124773809D01*
X119464285Y-124678571D01*
X119416666Y-124630952D01*
X119321428Y-124583333D01*
X119130952Y-124583333D01*
X119035714Y-124630952D01*
X118988095Y-124678571D01*
X118940476Y-124773809D01*
%TO.C,R15*%
X129202380Y-128142857D02*
X128726190Y-128476190D01*
X129202380Y-128714285D02*
X128202380Y-128714285D01*
X128202380Y-128333333D01*
X128250000Y-128238095D01*
X128297619Y-128190476D01*
X128392857Y-128142857D01*
X128535714Y-128142857D01*
X128630952Y-128190476D01*
X128678571Y-128238095D01*
X128726190Y-128333333D01*
X128726190Y-128714285D01*
X129202380Y-127190476D02*
X129202380Y-127761904D01*
X129202380Y-127476190D02*
X128202380Y-127476190D01*
X128345238Y-127571428D01*
X128440476Y-127666666D01*
X128488095Y-127761904D01*
X128202380Y-126285714D02*
X128202380Y-126761904D01*
X128678571Y-126809523D01*
X128630952Y-126761904D01*
X128583333Y-126666666D01*
X128583333Y-126428571D01*
X128630952Y-126333333D01*
X128678571Y-126285714D01*
X128773809Y-126238095D01*
X129011904Y-126238095D01*
X129107142Y-126285714D01*
X129154761Y-126333333D01*
X129202380Y-126428571D01*
X129202380Y-126666666D01*
X129154761Y-126761904D01*
X129107142Y-126809523D01*
%TO.C,R14*%
X126032142Y-124522380D02*
X125698809Y-124046190D01*
X125460714Y-124522380D02*
X125460714Y-123522380D01*
X125841666Y-123522380D01*
X125936904Y-123570000D01*
X125984523Y-123617619D01*
X126032142Y-123712857D01*
X126032142Y-123855714D01*
X125984523Y-123950952D01*
X125936904Y-123998571D01*
X125841666Y-124046190D01*
X125460714Y-124046190D01*
X126984523Y-124522380D02*
X126413095Y-124522380D01*
X126698809Y-124522380D02*
X126698809Y-123522380D01*
X126603571Y-123665238D01*
X126508333Y-123760476D01*
X126413095Y-123808095D01*
X127841666Y-123855714D02*
X127841666Y-124522380D01*
X127603571Y-123474761D02*
X127365476Y-124189047D01*
X127984523Y-124189047D01*
%TO.C,R13*%
X178452380Y-119392857D02*
X177976190Y-119726190D01*
X178452380Y-119964285D02*
X177452380Y-119964285D01*
X177452380Y-119583333D01*
X177500000Y-119488095D01*
X177547619Y-119440476D01*
X177642857Y-119392857D01*
X177785714Y-119392857D01*
X177880952Y-119440476D01*
X177928571Y-119488095D01*
X177976190Y-119583333D01*
X177976190Y-119964285D01*
X178452380Y-118440476D02*
X178452380Y-119011904D01*
X178452380Y-118726190D02*
X177452380Y-118726190D01*
X177595238Y-118821428D01*
X177690476Y-118916666D01*
X177738095Y-119011904D01*
X177452380Y-118107142D02*
X177452380Y-117488095D01*
X177833333Y-117821428D01*
X177833333Y-117678571D01*
X177880952Y-117583333D01*
X177928571Y-117535714D01*
X178023809Y-117488095D01*
X178261904Y-117488095D01*
X178357142Y-117535714D01*
X178404761Y-117583333D01*
X178452380Y-117678571D01*
X178452380Y-117964285D01*
X178404761Y-118059523D01*
X178357142Y-118107142D01*
%TO.C,R12*%
X168452380Y-113392857D02*
X167976190Y-113726190D01*
X168452380Y-113964285D02*
X167452380Y-113964285D01*
X167452380Y-113583333D01*
X167500000Y-113488095D01*
X167547619Y-113440476D01*
X167642857Y-113392857D01*
X167785714Y-113392857D01*
X167880952Y-113440476D01*
X167928571Y-113488095D01*
X167976190Y-113583333D01*
X167976190Y-113964285D01*
X168452380Y-112440476D02*
X168452380Y-113011904D01*
X168452380Y-112726190D02*
X167452380Y-112726190D01*
X167595238Y-112821428D01*
X167690476Y-112916666D01*
X167738095Y-113011904D01*
X167547619Y-112059523D02*
X167500000Y-112011904D01*
X167452380Y-111916666D01*
X167452380Y-111678571D01*
X167500000Y-111583333D01*
X167547619Y-111535714D01*
X167642857Y-111488095D01*
X167738095Y-111488095D01*
X167880952Y-111535714D01*
X168452380Y-112107142D01*
X168452380Y-111488095D01*
%TO.C,R11*%
X173452380Y-113392857D02*
X172976190Y-113726190D01*
X173452380Y-113964285D02*
X172452380Y-113964285D01*
X172452380Y-113583333D01*
X172500000Y-113488095D01*
X172547619Y-113440476D01*
X172642857Y-113392857D01*
X172785714Y-113392857D01*
X172880952Y-113440476D01*
X172928571Y-113488095D01*
X172976190Y-113583333D01*
X172976190Y-113964285D01*
X173452380Y-112440476D02*
X173452380Y-113011904D01*
X173452380Y-112726190D02*
X172452380Y-112726190D01*
X172595238Y-112821428D01*
X172690476Y-112916666D01*
X172738095Y-113011904D01*
X173452380Y-111488095D02*
X173452380Y-112059523D01*
X173452380Y-111773809D02*
X172452380Y-111773809D01*
X172595238Y-111869047D01*
X172690476Y-111964285D01*
X172738095Y-112059523D01*
%TO.C,R10*%
X183202380Y-129392857D02*
X182726190Y-129726190D01*
X183202380Y-129964285D02*
X182202380Y-129964285D01*
X182202380Y-129583333D01*
X182250000Y-129488095D01*
X182297619Y-129440476D01*
X182392857Y-129392857D01*
X182535714Y-129392857D01*
X182630952Y-129440476D01*
X182678571Y-129488095D01*
X182726190Y-129583333D01*
X182726190Y-129964285D01*
X183202380Y-128440476D02*
X183202380Y-129011904D01*
X183202380Y-128726190D02*
X182202380Y-128726190D01*
X182345238Y-128821428D01*
X182440476Y-128916666D01*
X182488095Y-129011904D01*
X182202380Y-127821428D02*
X182202380Y-127726190D01*
X182250000Y-127630952D01*
X182297619Y-127583333D01*
X182392857Y-127535714D01*
X182583333Y-127488095D01*
X182821428Y-127488095D01*
X183011904Y-127535714D01*
X183107142Y-127583333D01*
X183154761Y-127630952D01*
X183202380Y-127726190D01*
X183202380Y-127821428D01*
X183154761Y-127916666D01*
X183107142Y-127964285D01*
X183011904Y-128011904D01*
X182821428Y-128059523D01*
X182583333Y-128059523D01*
X182392857Y-128011904D01*
X182297619Y-127964285D01*
X182250000Y-127916666D01*
X182202380Y-127821428D01*
%TO.C,R9*%
X185202380Y-129416666D02*
X184726190Y-129750000D01*
X185202380Y-129988095D02*
X184202380Y-129988095D01*
X184202380Y-129607142D01*
X184250000Y-129511904D01*
X184297619Y-129464285D01*
X184392857Y-129416666D01*
X184535714Y-129416666D01*
X184630952Y-129464285D01*
X184678571Y-129511904D01*
X184726190Y-129607142D01*
X184726190Y-129988095D01*
X185202380Y-128940476D02*
X185202380Y-128750000D01*
X185154761Y-128654761D01*
X185107142Y-128607142D01*
X184964285Y-128511904D01*
X184773809Y-128464285D01*
X184392857Y-128464285D01*
X184297619Y-128511904D01*
X184250000Y-128559523D01*
X184202380Y-128654761D01*
X184202380Y-128845238D01*
X184250000Y-128940476D01*
X184297619Y-128988095D01*
X184392857Y-129035714D01*
X184630952Y-129035714D01*
X184726190Y-128988095D01*
X184773809Y-128940476D01*
X184821428Y-128845238D01*
X184821428Y-128654761D01*
X184773809Y-128559523D01*
X184726190Y-128511904D01*
X184630952Y-128464285D01*
%TO.C,R8*%
X188583333Y-107952380D02*
X188250000Y-107476190D01*
X188011904Y-107952380D02*
X188011904Y-106952380D01*
X188392857Y-106952380D01*
X188488095Y-107000000D01*
X188535714Y-107047619D01*
X188583333Y-107142857D01*
X188583333Y-107285714D01*
X188535714Y-107380952D01*
X188488095Y-107428571D01*
X188392857Y-107476190D01*
X188011904Y-107476190D01*
X189154761Y-107380952D02*
X189059523Y-107333333D01*
X189011904Y-107285714D01*
X188964285Y-107190476D01*
X188964285Y-107142857D01*
X189011904Y-107047619D01*
X189059523Y-107000000D01*
X189154761Y-106952380D01*
X189345238Y-106952380D01*
X189440476Y-107000000D01*
X189488095Y-107047619D01*
X189535714Y-107142857D01*
X189535714Y-107190476D01*
X189488095Y-107285714D01*
X189440476Y-107333333D01*
X189345238Y-107380952D01*
X189154761Y-107380952D01*
X189059523Y-107428571D01*
X189011904Y-107476190D01*
X188964285Y-107571428D01*
X188964285Y-107761904D01*
X189011904Y-107857142D01*
X189059523Y-107904761D01*
X189154761Y-107952380D01*
X189345238Y-107952380D01*
X189440476Y-107904761D01*
X189488095Y-107857142D01*
X189535714Y-107761904D01*
X189535714Y-107571428D01*
X189488095Y-107476190D01*
X189440476Y-107428571D01*
X189345238Y-107380952D01*
%TO.C,R7*%
X169952380Y-110416666D02*
X169476190Y-110750000D01*
X169952380Y-110988095D02*
X168952380Y-110988095D01*
X168952380Y-110607142D01*
X169000000Y-110511904D01*
X169047619Y-110464285D01*
X169142857Y-110416666D01*
X169285714Y-110416666D01*
X169380952Y-110464285D01*
X169428571Y-110511904D01*
X169476190Y-110607142D01*
X169476190Y-110988095D01*
X168952380Y-110083333D02*
X168952380Y-109416666D01*
X169952380Y-109845238D01*
%TO.C,R6*%
X171952380Y-110416666D02*
X171476190Y-110750000D01*
X171952380Y-110988095D02*
X170952380Y-110988095D01*
X170952380Y-110607142D01*
X171000000Y-110511904D01*
X171047619Y-110464285D01*
X171142857Y-110416666D01*
X171285714Y-110416666D01*
X171380952Y-110464285D01*
X171428571Y-110511904D01*
X171476190Y-110607142D01*
X171476190Y-110988095D01*
X170952380Y-109559523D02*
X170952380Y-109750000D01*
X171000000Y-109845238D01*
X171047619Y-109892857D01*
X171190476Y-109988095D01*
X171380952Y-110035714D01*
X171761904Y-110035714D01*
X171857142Y-109988095D01*
X171904761Y-109940476D01*
X171952380Y-109845238D01*
X171952380Y-109654761D01*
X171904761Y-109559523D01*
X171857142Y-109511904D01*
X171761904Y-109464285D01*
X171523809Y-109464285D01*
X171428571Y-109511904D01*
X171380952Y-109559523D01*
X171333333Y-109654761D01*
X171333333Y-109845238D01*
X171380952Y-109940476D01*
X171428571Y-109988095D01*
X171523809Y-110035714D01*
%TO.C,R5*%
X164702380Y-110416666D02*
X164226190Y-110750000D01*
X164702380Y-110988095D02*
X163702380Y-110988095D01*
X163702380Y-110607142D01*
X163750000Y-110511904D01*
X163797619Y-110464285D01*
X163892857Y-110416666D01*
X164035714Y-110416666D01*
X164130952Y-110464285D01*
X164178571Y-110511904D01*
X164226190Y-110607142D01*
X164226190Y-110988095D01*
X163702380Y-109511904D02*
X163702380Y-109988095D01*
X164178571Y-110035714D01*
X164130952Y-109988095D01*
X164083333Y-109892857D01*
X164083333Y-109654761D01*
X164130952Y-109559523D01*
X164178571Y-109511904D01*
X164273809Y-109464285D01*
X164511904Y-109464285D01*
X164607142Y-109511904D01*
X164654761Y-109559523D01*
X164702380Y-109654761D01*
X164702380Y-109892857D01*
X164654761Y-109988095D01*
X164607142Y-110035714D01*
%TO.C,R4*%
X162702380Y-110416666D02*
X162226190Y-110750000D01*
X162702380Y-110988095D02*
X161702380Y-110988095D01*
X161702380Y-110607142D01*
X161750000Y-110511904D01*
X161797619Y-110464285D01*
X161892857Y-110416666D01*
X162035714Y-110416666D01*
X162130952Y-110464285D01*
X162178571Y-110511904D01*
X162226190Y-110607142D01*
X162226190Y-110988095D01*
X162035714Y-109559523D02*
X162702380Y-109559523D01*
X161654761Y-109797619D02*
X162369047Y-110035714D01*
X162369047Y-109416666D01*
%TO.C,R3*%
X162333333Y-119452380D02*
X162000000Y-118976190D01*
X161761904Y-119452380D02*
X161761904Y-118452380D01*
X162142857Y-118452380D01*
X162238095Y-118500000D01*
X162285714Y-118547619D01*
X162333333Y-118642857D01*
X162333333Y-118785714D01*
X162285714Y-118880952D01*
X162238095Y-118928571D01*
X162142857Y-118976190D01*
X161761904Y-118976190D01*
X162666666Y-118452380D02*
X163285714Y-118452380D01*
X162952380Y-118833333D01*
X163095238Y-118833333D01*
X163190476Y-118880952D01*
X163238095Y-118928571D01*
X163285714Y-119023809D01*
X163285714Y-119261904D01*
X163238095Y-119357142D01*
X163190476Y-119404761D01*
X163095238Y-119452380D01*
X162809523Y-119452380D01*
X162714285Y-119404761D01*
X162666666Y-119357142D01*
%TO.C,R2*%
X165952380Y-113416666D02*
X165476190Y-113750000D01*
X165952380Y-113988095D02*
X164952380Y-113988095D01*
X164952380Y-113607142D01*
X165000000Y-113511904D01*
X165047619Y-113464285D01*
X165142857Y-113416666D01*
X165285714Y-113416666D01*
X165380952Y-113464285D01*
X165428571Y-113511904D01*
X165476190Y-113607142D01*
X165476190Y-113988095D01*
X165047619Y-113035714D02*
X165000000Y-112988095D01*
X164952380Y-112892857D01*
X164952380Y-112654761D01*
X165000000Y-112559523D01*
X165047619Y-112511904D01*
X165142857Y-112464285D01*
X165238095Y-112464285D01*
X165380952Y-112511904D01*
X165952380Y-113083333D01*
X165952380Y-112464285D01*
%TO.C,R1*%
X158583333Y-115702380D02*
X158250000Y-115226190D01*
X158011904Y-115702380D02*
X158011904Y-114702380D01*
X158392857Y-114702380D01*
X158488095Y-114750000D01*
X158535714Y-114797619D01*
X158583333Y-114892857D01*
X158583333Y-115035714D01*
X158535714Y-115130952D01*
X158488095Y-115178571D01*
X158392857Y-115226190D01*
X158011904Y-115226190D01*
X159535714Y-115702380D02*
X158964285Y-115702380D01*
X159250000Y-115702380D02*
X159250000Y-114702380D01*
X159154761Y-114845238D01*
X159059523Y-114940476D01*
X158964285Y-114988095D01*
%TO.C,Q1*%
X136154761Y-91197619D02*
X136059523Y-91150000D01*
X135964285Y-91054761D01*
X135821428Y-90911904D01*
X135726190Y-90864285D01*
X135630952Y-90864285D01*
X135678571Y-91102380D02*
X135583333Y-91054761D01*
X135488095Y-90959523D01*
X135440476Y-90769047D01*
X135440476Y-90435714D01*
X135488095Y-90245238D01*
X135583333Y-90150000D01*
X135678571Y-90102380D01*
X135869047Y-90102380D01*
X135964285Y-90150000D01*
X136059523Y-90245238D01*
X136107142Y-90435714D01*
X136107142Y-90769047D01*
X136059523Y-90959523D01*
X135964285Y-91054761D01*
X135869047Y-91102380D01*
X135678571Y-91102380D01*
X137059523Y-91102380D02*
X136488095Y-91102380D01*
X136773809Y-91102380D02*
X136773809Y-90102380D01*
X136678571Y-90245238D01*
X136583333Y-90340476D01*
X136488095Y-90388095D01*
%TO.C,L4*%
D10*
X149366666Y-89361904D02*
X148985714Y-89361904D01*
X148985714Y-88561904D01*
X149976190Y-88828571D02*
X149976190Y-89361904D01*
X149785714Y-88523809D02*
X149595238Y-89095238D01*
X150090476Y-89095238D01*
%TO.C,L3*%
D13*
X170083333Y-97452380D02*
X169607142Y-97452380D01*
X169607142Y-96452380D01*
X170321428Y-96452380D02*
X170940476Y-96452380D01*
X170607142Y-96833333D01*
X170750000Y-96833333D01*
X170845238Y-96880952D01*
X170892857Y-96928571D01*
X170940476Y-97023809D01*
X170940476Y-97261904D01*
X170892857Y-97357142D01*
X170845238Y-97404761D01*
X170750000Y-97452380D01*
X170464285Y-97452380D01*
X170369047Y-97404761D01*
X170321428Y-97357142D01*
%TO.C,L2*%
X121583333Y-139202380D02*
X121107142Y-139202380D01*
X121107142Y-138202380D01*
X121869047Y-138297619D02*
X121916666Y-138250000D01*
X122011904Y-138202380D01*
X122250000Y-138202380D01*
X122345238Y-138250000D01*
X122392857Y-138297619D01*
X122440476Y-138392857D01*
X122440476Y-138488095D01*
X122392857Y-138630952D01*
X121821428Y-139202380D01*
X122440476Y-139202380D01*
%TO.C,L1*%
X190952380Y-123666666D02*
X190952380Y-124142857D01*
X189952380Y-124142857D01*
X190952380Y-122809523D02*
X190952380Y-123380952D01*
X190952380Y-123095238D02*
X189952380Y-123095238D01*
X190095238Y-123190476D01*
X190190476Y-123285714D01*
X190238095Y-123380952D01*
%TO.C,J6*%
X107416666Y-87587380D02*
X107416666Y-88301666D01*
X107369047Y-88444523D01*
X107273809Y-88539761D01*
X107130952Y-88587380D01*
X107035714Y-88587380D01*
X108321428Y-87587380D02*
X108130952Y-87587380D01*
X108035714Y-87635000D01*
X107988095Y-87682619D01*
X107892857Y-87825476D01*
X107845238Y-88015952D01*
X107845238Y-88396904D01*
X107892857Y-88492142D01*
X107940476Y-88539761D01*
X108035714Y-88587380D01*
X108226190Y-88587380D01*
X108321428Y-88539761D01*
X108369047Y-88492142D01*
X108416666Y-88396904D01*
X108416666Y-88158809D01*
X108369047Y-88063571D01*
X108321428Y-88015952D01*
X108226190Y-87968333D01*
X108035714Y-87968333D01*
X107940476Y-88015952D01*
X107892857Y-88063571D01*
X107845238Y-88158809D01*
%TO.C,FL1*%
X112011904Y-127678571D02*
X111678571Y-127678571D01*
X111678571Y-128202380D02*
X111678571Y-127202380D01*
X112154761Y-127202380D01*
X113011904Y-128202380D02*
X112535714Y-128202380D01*
X112535714Y-127202380D01*
X113869047Y-128202380D02*
X113297619Y-128202380D01*
X113583333Y-128202380D02*
X113583333Y-127202380D01*
X113488095Y-127345238D01*
X113392857Y-127440476D01*
X113297619Y-127488095D01*
%TO.C,F3*%
X122416666Y-69178571D02*
X122083333Y-69178571D01*
X122083333Y-69702380D02*
X122083333Y-68702380D01*
X122559523Y-68702380D01*
X122845238Y-68702380D02*
X123464285Y-68702380D01*
X123130952Y-69083333D01*
X123273809Y-69083333D01*
X123369047Y-69130952D01*
X123416666Y-69178571D01*
X123464285Y-69273809D01*
X123464285Y-69511904D01*
X123416666Y-69607142D01*
X123369047Y-69654761D01*
X123273809Y-69702380D01*
X122988095Y-69702380D01*
X122892857Y-69654761D01*
X122845238Y-69607142D01*
%TO.C,F2*%
X134666666Y-69178571D02*
X134333333Y-69178571D01*
X134333333Y-69702380D02*
X134333333Y-68702380D01*
X134809523Y-68702380D01*
X135142857Y-68797619D02*
X135190476Y-68750000D01*
X135285714Y-68702380D01*
X135523809Y-68702380D01*
X135619047Y-68750000D01*
X135666666Y-68797619D01*
X135714285Y-68892857D01*
X135714285Y-68988095D01*
X135666666Y-69130952D01*
X135095238Y-69702380D01*
X135714285Y-69702380D01*
%TO.C,F1*%
X106416666Y-121178571D02*
X106083333Y-121178571D01*
X106083333Y-121702380D02*
X106083333Y-120702380D01*
X106559523Y-120702380D01*
X107464285Y-121702380D02*
X106892857Y-121702380D01*
X107178571Y-121702380D02*
X107178571Y-120702380D01*
X107083333Y-120845238D01*
X106988095Y-120940476D01*
X106892857Y-120988095D01*
%TO.C,D13*%
X175035714Y-69952380D02*
X175035714Y-68952380D01*
X175273809Y-68952380D01*
X175416666Y-69000000D01*
X175511904Y-69095238D01*
X175559523Y-69190476D01*
X175607142Y-69380952D01*
X175607142Y-69523809D01*
X175559523Y-69714285D01*
X175511904Y-69809523D01*
X175416666Y-69904761D01*
X175273809Y-69952380D01*
X175035714Y-69952380D01*
X176559523Y-69952380D02*
X175988095Y-69952380D01*
X176273809Y-69952380D02*
X176273809Y-68952380D01*
X176178571Y-69095238D01*
X176083333Y-69190476D01*
X175988095Y-69238095D01*
X176892857Y-68952380D02*
X177511904Y-68952380D01*
X177178571Y-69333333D01*
X177321428Y-69333333D01*
X177416666Y-69380952D01*
X177464285Y-69428571D01*
X177511904Y-69523809D01*
X177511904Y-69761904D01*
X177464285Y-69857142D01*
X177416666Y-69904761D01*
X177321428Y-69952380D01*
X177035714Y-69952380D01*
X176940476Y-69904761D01*
X176892857Y-69857142D01*
%TO.C,D8*%
X133961904Y-73052380D02*
X133961904Y-72052380D01*
X134200000Y-72052380D01*
X134342857Y-72100000D01*
X134438095Y-72195238D01*
X134485714Y-72290476D01*
X134533333Y-72480952D01*
X134533333Y-72623809D01*
X134485714Y-72814285D01*
X134438095Y-72909523D01*
X134342857Y-73004761D01*
X134200000Y-73052380D01*
X133961904Y-73052380D01*
X135104761Y-72480952D02*
X135009523Y-72433333D01*
X134961904Y-72385714D01*
X134914285Y-72290476D01*
X134914285Y-72242857D01*
X134961904Y-72147619D01*
X135009523Y-72100000D01*
X135104761Y-72052380D01*
X135295238Y-72052380D01*
X135390476Y-72100000D01*
X135438095Y-72147619D01*
X135485714Y-72242857D01*
X135485714Y-72290476D01*
X135438095Y-72385714D01*
X135390476Y-72433333D01*
X135295238Y-72480952D01*
X135104761Y-72480952D01*
X135009523Y-72528571D01*
X134961904Y-72576190D01*
X134914285Y-72671428D01*
X134914285Y-72861904D01*
X134961904Y-72957142D01*
X135009523Y-73004761D01*
X135104761Y-73052380D01*
X135295238Y-73052380D01*
X135390476Y-73004761D01*
X135438095Y-72957142D01*
X135485714Y-72861904D01*
X135485714Y-72671428D01*
X135438095Y-72576190D01*
X135390476Y-72528571D01*
X135295238Y-72480952D01*
%TO.C,D7*%
X124161904Y-73052380D02*
X124161904Y-72052380D01*
X124400000Y-72052380D01*
X124542857Y-72100000D01*
X124638095Y-72195238D01*
X124685714Y-72290476D01*
X124733333Y-72480952D01*
X124733333Y-72623809D01*
X124685714Y-72814285D01*
X124638095Y-72909523D01*
X124542857Y-73004761D01*
X124400000Y-73052380D01*
X124161904Y-73052380D01*
X125066666Y-72052380D02*
X125733333Y-72052380D01*
X125304761Y-73052380D01*
%TO.C,D6*%
X145761904Y-74452380D02*
X145761904Y-73452380D01*
X146000000Y-73452380D01*
X146142857Y-73500000D01*
X146238095Y-73595238D01*
X146285714Y-73690476D01*
X146333333Y-73880952D01*
X146333333Y-74023809D01*
X146285714Y-74214285D01*
X146238095Y-74309523D01*
X146142857Y-74404761D01*
X146000000Y-74452380D01*
X145761904Y-74452380D01*
X147190476Y-73452380D02*
X147000000Y-73452380D01*
X146904761Y-73500000D01*
X146857142Y-73547619D01*
X146761904Y-73690476D01*
X146714285Y-73880952D01*
X146714285Y-74261904D01*
X146761904Y-74357142D01*
X146809523Y-74404761D01*
X146904761Y-74452380D01*
X147095238Y-74452380D01*
X147190476Y-74404761D01*
X147238095Y-74357142D01*
X147285714Y-74261904D01*
X147285714Y-74023809D01*
X147238095Y-73928571D01*
X147190476Y-73880952D01*
X147095238Y-73833333D01*
X146904761Y-73833333D01*
X146809523Y-73880952D01*
X146761904Y-73928571D01*
X146714285Y-74023809D01*
%TO.C,D5*%
X140365604Y-84452380D02*
X140365604Y-83452380D01*
X140603700Y-83452380D01*
X140746557Y-83500000D01*
X140841795Y-83595238D01*
X140889414Y-83690476D01*
X140937033Y-83880952D01*
X140937033Y-84023809D01*
X140889414Y-84214285D01*
X140841795Y-84309523D01*
X140746557Y-84404761D01*
X140603700Y-84452380D01*
X140365604Y-84452380D01*
X141841795Y-83452380D02*
X141365604Y-83452380D01*
X141317985Y-83928571D01*
X141365604Y-83880952D01*
X141460842Y-83833333D01*
X141698938Y-83833333D01*
X141794176Y-83880952D01*
X141841795Y-83928571D01*
X141889414Y-84023809D01*
X141889414Y-84261904D01*
X141841795Y-84357142D01*
X141794176Y-84404761D01*
X141698938Y-84452380D01*
X141460842Y-84452380D01*
X141365604Y-84404761D01*
X141317985Y-84357142D01*
%TO.C,D4*%
X120438214Y-137202380D02*
X120438214Y-136202380D01*
X120676309Y-136202380D01*
X120819166Y-136250000D01*
X120914404Y-136345238D01*
X120962023Y-136440476D01*
X121009642Y-136630952D01*
X121009642Y-136773809D01*
X120962023Y-136964285D01*
X120914404Y-137059523D01*
X120819166Y-137154761D01*
X120676309Y-137202380D01*
X120438214Y-137202380D01*
X121866785Y-136535714D02*
X121866785Y-137202380D01*
X121628690Y-136154761D02*
X121390595Y-136869047D01*
X122009642Y-136869047D01*
X115384523Y-135514047D02*
X115565952Y-135574523D01*
X115868333Y-135574523D01*
X115989285Y-135514047D01*
X116049761Y-135453571D01*
X116110238Y-135332619D01*
X116110238Y-135211666D01*
X116049761Y-135090714D01*
X115989285Y-135030238D01*
X115868333Y-134969761D01*
X115626428Y-134909285D01*
X115505476Y-134848809D01*
X115445000Y-134788333D01*
X115384523Y-134667380D01*
X115384523Y-134546428D01*
X115445000Y-134425476D01*
X115505476Y-134365000D01*
X115626428Y-134304523D01*
X115928809Y-134304523D01*
X116110238Y-134365000D01*
X117259285Y-135574523D02*
X116654523Y-135574523D01*
X116654523Y-134304523D01*
X117561666Y-134304523D02*
X118347857Y-134304523D01*
X117924523Y-134788333D01*
X118105952Y-134788333D01*
X118226904Y-134848809D01*
X118287380Y-134909285D01*
X118347857Y-135030238D01*
X118347857Y-135332619D01*
X118287380Y-135453571D01*
X118226904Y-135514047D01*
X118105952Y-135574523D01*
X117743095Y-135574523D01*
X117622142Y-135514047D01*
X117561666Y-135453571D01*
X119436428Y-134304523D02*
X119194523Y-134304523D01*
X119073571Y-134365000D01*
X119013095Y-134425476D01*
X118892142Y-134606904D01*
X118831666Y-134848809D01*
X118831666Y-135332619D01*
X118892142Y-135453571D01*
X118952619Y-135514047D01*
X119073571Y-135574523D01*
X119315476Y-135574523D01*
X119436428Y-135514047D01*
X119496904Y-135453571D01*
X119557380Y-135332619D01*
X119557380Y-135030238D01*
X119496904Y-134909285D01*
X119436428Y-134848809D01*
X119315476Y-134788333D01*
X119073571Y-134788333D01*
X118952619Y-134848809D01*
X118892142Y-134909285D01*
X118831666Y-135030238D01*
X120101666Y-135574523D02*
X120101666Y-134304523D01*
X120585476Y-134304523D01*
X120706428Y-134365000D01*
X120766904Y-134425476D01*
X120827380Y-134546428D01*
X120827380Y-134727857D01*
X120766904Y-134848809D01*
X120706428Y-134909285D01*
X120585476Y-134969761D01*
X120101666Y-134969761D01*
X121976428Y-135574523D02*
X121371666Y-135574523D01*
X121371666Y-134304523D01*
X122399761Y-135090714D02*
X123367380Y-135090714D01*
X123790714Y-134304523D02*
X124516428Y-134304523D01*
X124153571Y-135574523D02*
X124153571Y-134304523D01*
X124939761Y-135574523D02*
X124939761Y-134304523D01*
X125423571Y-134304523D01*
X125544523Y-134365000D01*
X125605000Y-134425476D01*
X125665476Y-134546428D01*
X125665476Y-134727857D01*
X125605000Y-134848809D01*
X125544523Y-134909285D01*
X125423571Y-134969761D01*
X124939761Y-134969761D01*
%TO.C,D3*%
X101761904Y-130952380D02*
X101761904Y-129952380D01*
X102000000Y-129952380D01*
X102142857Y-130000000D01*
X102238095Y-130095238D01*
X102285714Y-130190476D01*
X102333333Y-130380952D01*
X102333333Y-130523809D01*
X102285714Y-130714285D01*
X102238095Y-130809523D01*
X102142857Y-130904761D01*
X102000000Y-130952380D01*
X101761904Y-130952380D01*
X102666666Y-129952380D02*
X103285714Y-129952380D01*
X102952380Y-130333333D01*
X103095238Y-130333333D01*
X103190476Y-130380952D01*
X103238095Y-130428571D01*
X103285714Y-130523809D01*
X103285714Y-130761904D01*
X103238095Y-130857142D01*
X103190476Y-130904761D01*
X103095238Y-130952380D01*
X102809523Y-130952380D01*
X102714285Y-130904761D01*
X102666666Y-130857142D01*
%TO.C,D2*%
X96511904Y-122202380D02*
X96511904Y-121202380D01*
X96750000Y-121202380D01*
X96892857Y-121250000D01*
X96988095Y-121345238D01*
X97035714Y-121440476D01*
X97083333Y-121630952D01*
X97083333Y-121773809D01*
X97035714Y-121964285D01*
X96988095Y-122059523D01*
X96892857Y-122154761D01*
X96750000Y-122202380D01*
X96511904Y-122202380D01*
X97464285Y-121297619D02*
X97511904Y-121250000D01*
X97607142Y-121202380D01*
X97845238Y-121202380D01*
X97940476Y-121250000D01*
X97988095Y-121297619D01*
X98035714Y-121392857D01*
X98035714Y-121488095D01*
X97988095Y-121630952D01*
X97416666Y-122202380D01*
X98035714Y-122202380D01*
%TO.C,D1*%
X98511904Y-130952380D02*
X98511904Y-129952380D01*
X98750000Y-129952380D01*
X98892857Y-130000000D01*
X98988095Y-130095238D01*
X99035714Y-130190476D01*
X99083333Y-130380952D01*
X99083333Y-130523809D01*
X99035714Y-130714285D01*
X98988095Y-130809523D01*
X98892857Y-130904761D01*
X98750000Y-130952380D01*
X98511904Y-130952380D01*
X100035714Y-130952380D02*
X99464285Y-130952380D01*
X99750000Y-130952380D02*
X99750000Y-129952380D01*
X99654761Y-130095238D01*
X99559523Y-130190476D01*
X99464285Y-130238095D01*
%TO.C,Con1*%
X176678470Y-131357176D02*
X176630847Y-131404799D01*
X176487976Y-131452423D01*
X176392729Y-131452423D01*
X176249859Y-131404799D01*
X176154611Y-131309552D01*
X176106988Y-131214305D01*
X176059364Y-131023811D01*
X176059364Y-130880941D01*
X176106988Y-130690447D01*
X176154611Y-130595200D01*
X176249859Y-130499953D01*
X176392729Y-130452329D01*
X176487976Y-130452329D01*
X176630847Y-130499953D01*
X176678470Y-130547576D01*
X177249953Y-131452423D02*
X177154705Y-131404799D01*
X177107082Y-131357176D01*
X177059458Y-131261929D01*
X177059458Y-130976188D01*
X177107082Y-130880941D01*
X177154705Y-130833317D01*
X177249953Y-130785694D01*
X177392823Y-130785694D01*
X177488070Y-130833317D01*
X177535694Y-130880941D01*
X177583317Y-130976188D01*
X177583317Y-131261929D01*
X177535694Y-131357176D01*
X177488070Y-131404799D01*
X177392823Y-131452423D01*
X177249953Y-131452423D01*
X178011929Y-130785694D02*
X178011929Y-131452423D01*
X178011929Y-130880941D02*
X178059552Y-130833317D01*
X178154799Y-130785694D01*
X178297670Y-130785694D01*
X178392917Y-130833317D01*
X178440541Y-130928564D01*
X178440541Y-131452423D01*
X179440635Y-131452423D02*
X178869152Y-131452423D01*
X179154893Y-131452423D02*
X179154893Y-130452329D01*
X179059646Y-130595200D01*
X178964399Y-130690447D01*
X178869152Y-130738070D01*
%TO.C,C62*%
X109107142Y-75892857D02*
X109154761Y-75940476D01*
X109202380Y-76083333D01*
X109202380Y-76178571D01*
X109154761Y-76321428D01*
X109059523Y-76416666D01*
X108964285Y-76464285D01*
X108773809Y-76511904D01*
X108630952Y-76511904D01*
X108440476Y-76464285D01*
X108345238Y-76416666D01*
X108250000Y-76321428D01*
X108202380Y-76178571D01*
X108202380Y-76083333D01*
X108250000Y-75940476D01*
X108297619Y-75892857D01*
X108202380Y-75035714D02*
X108202380Y-75226190D01*
X108250000Y-75321428D01*
X108297619Y-75369047D01*
X108440476Y-75464285D01*
X108630952Y-75511904D01*
X109011904Y-75511904D01*
X109107142Y-75464285D01*
X109154761Y-75416666D01*
X109202380Y-75321428D01*
X109202380Y-75130952D01*
X109154761Y-75035714D01*
X109107142Y-74988095D01*
X109011904Y-74940476D01*
X108773809Y-74940476D01*
X108678571Y-74988095D01*
X108630952Y-75035714D01*
X108583333Y-75130952D01*
X108583333Y-75321428D01*
X108630952Y-75416666D01*
X108678571Y-75464285D01*
X108773809Y-75511904D01*
X108297619Y-74559523D02*
X108250000Y-74511904D01*
X108202380Y-74416666D01*
X108202380Y-74178571D01*
X108250000Y-74083333D01*
X108297619Y-74035714D01*
X108392857Y-73988095D01*
X108488095Y-73988095D01*
X108630952Y-74035714D01*
X109202380Y-74607142D01*
X109202380Y-73988095D01*
%TO.C,C61*%
X104357142Y-116357142D02*
X104309523Y-116404761D01*
X104166666Y-116452380D01*
X104071428Y-116452380D01*
X103928571Y-116404761D01*
X103833333Y-116309523D01*
X103785714Y-116214285D01*
X103738095Y-116023809D01*
X103738095Y-115880952D01*
X103785714Y-115690476D01*
X103833333Y-115595238D01*
X103928571Y-115500000D01*
X104071428Y-115452380D01*
X104166666Y-115452380D01*
X104309523Y-115500000D01*
X104357142Y-115547619D01*
X105214285Y-115452380D02*
X105023809Y-115452380D01*
X104928571Y-115500000D01*
X104880952Y-115547619D01*
X104785714Y-115690476D01*
X104738095Y-115880952D01*
X104738095Y-116261904D01*
X104785714Y-116357142D01*
X104833333Y-116404761D01*
X104928571Y-116452380D01*
X105119047Y-116452380D01*
X105214285Y-116404761D01*
X105261904Y-116357142D01*
X105309523Y-116261904D01*
X105309523Y-116023809D01*
X105261904Y-115928571D01*
X105214285Y-115880952D01*
X105119047Y-115833333D01*
X104928571Y-115833333D01*
X104833333Y-115880952D01*
X104785714Y-115928571D01*
X104738095Y-116023809D01*
X106261904Y-116452380D02*
X105690476Y-116452380D01*
X105976190Y-116452380D02*
X105976190Y-115452380D01*
X105880952Y-115595238D01*
X105785714Y-115690476D01*
X105690476Y-115738095D01*
%TO.C,C60*%
X114707142Y-75892857D02*
X114754761Y-75940476D01*
X114802380Y-76083333D01*
X114802380Y-76178571D01*
X114754761Y-76321428D01*
X114659523Y-76416666D01*
X114564285Y-76464285D01*
X114373809Y-76511904D01*
X114230952Y-76511904D01*
X114040476Y-76464285D01*
X113945238Y-76416666D01*
X113850000Y-76321428D01*
X113802380Y-76178571D01*
X113802380Y-76083333D01*
X113850000Y-75940476D01*
X113897619Y-75892857D01*
X113802380Y-75035714D02*
X113802380Y-75226190D01*
X113850000Y-75321428D01*
X113897619Y-75369047D01*
X114040476Y-75464285D01*
X114230952Y-75511904D01*
X114611904Y-75511904D01*
X114707142Y-75464285D01*
X114754761Y-75416666D01*
X114802380Y-75321428D01*
X114802380Y-75130952D01*
X114754761Y-75035714D01*
X114707142Y-74988095D01*
X114611904Y-74940476D01*
X114373809Y-74940476D01*
X114278571Y-74988095D01*
X114230952Y-75035714D01*
X114183333Y-75130952D01*
X114183333Y-75321428D01*
X114230952Y-75416666D01*
X114278571Y-75464285D01*
X114373809Y-75511904D01*
X113802380Y-74321428D02*
X113802380Y-74226190D01*
X113850000Y-74130952D01*
X113897619Y-74083333D01*
X113992857Y-74035714D01*
X114183333Y-73988095D01*
X114421428Y-73988095D01*
X114611904Y-74035714D01*
X114707142Y-74083333D01*
X114754761Y-74130952D01*
X114802380Y-74226190D01*
X114802380Y-74321428D01*
X114754761Y-74416666D01*
X114707142Y-74464285D01*
X114611904Y-74511904D01*
X114421428Y-74559523D01*
X114183333Y-74559523D01*
X113992857Y-74511904D01*
X113897619Y-74464285D01*
X113850000Y-74416666D01*
X113802380Y-74321428D01*
%TO.C,C59*%
X94357142Y-113107142D02*
X94309523Y-113154761D01*
X94166666Y-113202380D01*
X94071428Y-113202380D01*
X93928571Y-113154761D01*
X93833333Y-113059523D01*
X93785714Y-112964285D01*
X93738095Y-112773809D01*
X93738095Y-112630952D01*
X93785714Y-112440476D01*
X93833333Y-112345238D01*
X93928571Y-112250000D01*
X94071428Y-112202380D01*
X94166666Y-112202380D01*
X94309523Y-112250000D01*
X94357142Y-112297619D01*
X95261904Y-112202380D02*
X94785714Y-112202380D01*
X94738095Y-112678571D01*
X94785714Y-112630952D01*
X94880952Y-112583333D01*
X95119047Y-112583333D01*
X95214285Y-112630952D01*
X95261904Y-112678571D01*
X95309523Y-112773809D01*
X95309523Y-113011904D01*
X95261904Y-113107142D01*
X95214285Y-113154761D01*
X95119047Y-113202380D01*
X94880952Y-113202380D01*
X94785714Y-113154761D01*
X94738095Y-113107142D01*
X95785714Y-113202380D02*
X95976190Y-113202380D01*
X96071428Y-113154761D01*
X96119047Y-113107142D01*
X96214285Y-112964285D01*
X96261904Y-112773809D01*
X96261904Y-112392857D01*
X96214285Y-112297619D01*
X96166666Y-112250000D01*
X96071428Y-112202380D01*
X95880952Y-112202380D01*
X95785714Y-112250000D01*
X95738095Y-112297619D01*
X95690476Y-112392857D01*
X95690476Y-112630952D01*
X95738095Y-112726190D01*
X95785714Y-112773809D01*
X95880952Y-112821428D01*
X96071428Y-112821428D01*
X96166666Y-112773809D01*
X96214285Y-112726190D01*
X96261904Y-112630952D01*
%TO.C,C58*%
X175607142Y-71357142D02*
X175559523Y-71404761D01*
X175416666Y-71452380D01*
X175321428Y-71452380D01*
X175178571Y-71404761D01*
X175083333Y-71309523D01*
X175035714Y-71214285D01*
X174988095Y-71023809D01*
X174988095Y-70880952D01*
X175035714Y-70690476D01*
X175083333Y-70595238D01*
X175178571Y-70500000D01*
X175321428Y-70452380D01*
X175416666Y-70452380D01*
X175559523Y-70500000D01*
X175607142Y-70547619D01*
X176511904Y-70452380D02*
X176035714Y-70452380D01*
X175988095Y-70928571D01*
X176035714Y-70880952D01*
X176130952Y-70833333D01*
X176369047Y-70833333D01*
X176464285Y-70880952D01*
X176511904Y-70928571D01*
X176559523Y-71023809D01*
X176559523Y-71261904D01*
X176511904Y-71357142D01*
X176464285Y-71404761D01*
X176369047Y-71452380D01*
X176130952Y-71452380D01*
X176035714Y-71404761D01*
X175988095Y-71357142D01*
X177130952Y-70880952D02*
X177035714Y-70833333D01*
X176988095Y-70785714D01*
X176940476Y-70690476D01*
X176940476Y-70642857D01*
X176988095Y-70547619D01*
X177035714Y-70500000D01*
X177130952Y-70452380D01*
X177321428Y-70452380D01*
X177416666Y-70500000D01*
X177464285Y-70547619D01*
X177511904Y-70642857D01*
X177511904Y-70690476D01*
X177464285Y-70785714D01*
X177416666Y-70833333D01*
X177321428Y-70880952D01*
X177130952Y-70880952D01*
X177035714Y-70928571D01*
X176988095Y-70976190D01*
X176940476Y-71071428D01*
X176940476Y-71261904D01*
X176988095Y-71357142D01*
X177035714Y-71404761D01*
X177130952Y-71452380D01*
X177321428Y-71452380D01*
X177416666Y-71404761D01*
X177464285Y-71357142D01*
X177511904Y-71261904D01*
X177511904Y-71071428D01*
X177464285Y-70976190D01*
X177416666Y-70928571D01*
X177321428Y-70880952D01*
%TO.C,C57*%
X175607142Y-77357142D02*
X175559523Y-77404761D01*
X175416666Y-77452380D01*
X175321428Y-77452380D01*
X175178571Y-77404761D01*
X175083333Y-77309523D01*
X175035714Y-77214285D01*
X174988095Y-77023809D01*
X174988095Y-76880952D01*
X175035714Y-76690476D01*
X175083333Y-76595238D01*
X175178571Y-76500000D01*
X175321428Y-76452380D01*
X175416666Y-76452380D01*
X175559523Y-76500000D01*
X175607142Y-76547619D01*
X176511904Y-76452380D02*
X176035714Y-76452380D01*
X175988095Y-76928571D01*
X176035714Y-76880952D01*
X176130952Y-76833333D01*
X176369047Y-76833333D01*
X176464285Y-76880952D01*
X176511904Y-76928571D01*
X176559523Y-77023809D01*
X176559523Y-77261904D01*
X176511904Y-77357142D01*
X176464285Y-77404761D01*
X176369047Y-77452380D01*
X176130952Y-77452380D01*
X176035714Y-77404761D01*
X175988095Y-77357142D01*
X176892857Y-76452380D02*
X177559523Y-76452380D01*
X177130952Y-77452380D01*
%TO.C,C56*%
X146607142Y-85857142D02*
X146559523Y-85904761D01*
X146416666Y-85952380D01*
X146321428Y-85952380D01*
X146178571Y-85904761D01*
X146083333Y-85809523D01*
X146035714Y-85714285D01*
X145988095Y-85523809D01*
X145988095Y-85380952D01*
X146035714Y-85190476D01*
X146083333Y-85095238D01*
X146178571Y-85000000D01*
X146321428Y-84952380D01*
X146416666Y-84952380D01*
X146559523Y-85000000D01*
X146607142Y-85047619D01*
X147511904Y-84952380D02*
X147035714Y-84952380D01*
X146988095Y-85428571D01*
X147035714Y-85380952D01*
X147130952Y-85333333D01*
X147369047Y-85333333D01*
X147464285Y-85380952D01*
X147511904Y-85428571D01*
X147559523Y-85523809D01*
X147559523Y-85761904D01*
X147511904Y-85857142D01*
X147464285Y-85904761D01*
X147369047Y-85952380D01*
X147130952Y-85952380D01*
X147035714Y-85904761D01*
X146988095Y-85857142D01*
X148416666Y-84952380D02*
X148226190Y-84952380D01*
X148130952Y-85000000D01*
X148083333Y-85047619D01*
X147988095Y-85190476D01*
X147940476Y-85380952D01*
X147940476Y-85761904D01*
X147988095Y-85857142D01*
X148035714Y-85904761D01*
X148130952Y-85952380D01*
X148321428Y-85952380D01*
X148416666Y-85904761D01*
X148464285Y-85857142D01*
X148511904Y-85761904D01*
X148511904Y-85523809D01*
X148464285Y-85428571D01*
X148416666Y-85380952D01*
X148321428Y-85333333D01*
X148130952Y-85333333D01*
X148035714Y-85380952D01*
X147988095Y-85428571D01*
X147940476Y-85523809D01*
%TO.C,C55*%
D10*
X145235714Y-90535714D02*
X145197619Y-90573809D01*
X145083333Y-90611904D01*
X145007142Y-90611904D01*
X144892857Y-90573809D01*
X144816666Y-90497619D01*
X144778571Y-90421428D01*
X144740476Y-90269047D01*
X144740476Y-90154761D01*
X144778571Y-90002380D01*
X144816666Y-89926190D01*
X144892857Y-89850000D01*
X145007142Y-89811904D01*
X145083333Y-89811904D01*
X145197619Y-89850000D01*
X145235714Y-89888095D01*
X145959523Y-89811904D02*
X145578571Y-89811904D01*
X145540476Y-90192857D01*
X145578571Y-90154761D01*
X145654761Y-90116666D01*
X145845238Y-90116666D01*
X145921428Y-90154761D01*
X145959523Y-90192857D01*
X145997619Y-90269047D01*
X145997619Y-90459523D01*
X145959523Y-90535714D01*
X145921428Y-90573809D01*
X145845238Y-90611904D01*
X145654761Y-90611904D01*
X145578571Y-90573809D01*
X145540476Y-90535714D01*
X146721428Y-89811904D02*
X146340476Y-89811904D01*
X146302380Y-90192857D01*
X146340476Y-90154761D01*
X146416666Y-90116666D01*
X146607142Y-90116666D01*
X146683333Y-90154761D01*
X146721428Y-90192857D01*
X146759523Y-90269047D01*
X146759523Y-90459523D01*
X146721428Y-90535714D01*
X146683333Y-90573809D01*
X146607142Y-90611904D01*
X146416666Y-90611904D01*
X146340476Y-90573809D01*
X146302380Y-90535714D01*
%TO.C,C54*%
X145235714Y-92285714D02*
X145197619Y-92323809D01*
X145083333Y-92361904D01*
X145007142Y-92361904D01*
X144892857Y-92323809D01*
X144816666Y-92247619D01*
X144778571Y-92171428D01*
X144740476Y-92019047D01*
X144740476Y-91904761D01*
X144778571Y-91752380D01*
X144816666Y-91676190D01*
X144892857Y-91600000D01*
X145007142Y-91561904D01*
X145083333Y-91561904D01*
X145197619Y-91600000D01*
X145235714Y-91638095D01*
X145959523Y-91561904D02*
X145578571Y-91561904D01*
X145540476Y-91942857D01*
X145578571Y-91904761D01*
X145654761Y-91866666D01*
X145845238Y-91866666D01*
X145921428Y-91904761D01*
X145959523Y-91942857D01*
X145997619Y-92019047D01*
X145997619Y-92209523D01*
X145959523Y-92285714D01*
X145921428Y-92323809D01*
X145845238Y-92361904D01*
X145654761Y-92361904D01*
X145578571Y-92323809D01*
X145540476Y-92285714D01*
X146683333Y-91828571D02*
X146683333Y-92361904D01*
X146492857Y-91523809D02*
X146302380Y-92095238D01*
X146797619Y-92095238D01*
%TO.C,C53*%
D13*
X153607142Y-102392857D02*
X153654761Y-102440476D01*
X153702380Y-102583333D01*
X153702380Y-102678571D01*
X153654761Y-102821428D01*
X153559523Y-102916666D01*
X153464285Y-102964285D01*
X153273809Y-103011904D01*
X153130952Y-103011904D01*
X152940476Y-102964285D01*
X152845238Y-102916666D01*
X152750000Y-102821428D01*
X152702380Y-102678571D01*
X152702380Y-102583333D01*
X152750000Y-102440476D01*
X152797619Y-102392857D01*
X152702380Y-101488095D02*
X152702380Y-101964285D01*
X153178571Y-102011904D01*
X153130952Y-101964285D01*
X153083333Y-101869047D01*
X153083333Y-101630952D01*
X153130952Y-101535714D01*
X153178571Y-101488095D01*
X153273809Y-101440476D01*
X153511904Y-101440476D01*
X153607142Y-101488095D01*
X153654761Y-101535714D01*
X153702380Y-101630952D01*
X153702380Y-101869047D01*
X153654761Y-101964285D01*
X153607142Y-102011904D01*
X152702380Y-101107142D02*
X152702380Y-100488095D01*
X153083333Y-100821428D01*
X153083333Y-100678571D01*
X153130952Y-100583333D01*
X153178571Y-100535714D01*
X153273809Y-100488095D01*
X153511904Y-100488095D01*
X153607142Y-100535714D01*
X153654761Y-100583333D01*
X153702380Y-100678571D01*
X153702380Y-100964285D01*
X153654761Y-101059523D01*
X153607142Y-101107142D01*
%TO.C,C52*%
X170107142Y-100607142D02*
X170059523Y-100654761D01*
X169916666Y-100702380D01*
X169821428Y-100702380D01*
X169678571Y-100654761D01*
X169583333Y-100559523D01*
X169535714Y-100464285D01*
X169488095Y-100273809D01*
X169488095Y-100130952D01*
X169535714Y-99940476D01*
X169583333Y-99845238D01*
X169678571Y-99750000D01*
X169821428Y-99702380D01*
X169916666Y-99702380D01*
X170059523Y-99750000D01*
X170107142Y-99797619D01*
X171011904Y-99702380D02*
X170535714Y-99702380D01*
X170488095Y-100178571D01*
X170535714Y-100130952D01*
X170630952Y-100083333D01*
X170869047Y-100083333D01*
X170964285Y-100130952D01*
X171011904Y-100178571D01*
X171059523Y-100273809D01*
X171059523Y-100511904D01*
X171011904Y-100607142D01*
X170964285Y-100654761D01*
X170869047Y-100702380D01*
X170630952Y-100702380D01*
X170535714Y-100654761D01*
X170488095Y-100607142D01*
X171440476Y-99797619D02*
X171488095Y-99750000D01*
X171583333Y-99702380D01*
X171821428Y-99702380D01*
X171916666Y-99750000D01*
X171964285Y-99797619D01*
X172011904Y-99892857D01*
X172011904Y-99988095D01*
X171964285Y-100130952D01*
X171392857Y-100702380D01*
X172011904Y-100702380D01*
%TO.C,C51*%
X159382142Y-82787142D02*
X159334523Y-82834761D01*
X159191666Y-82882380D01*
X159096428Y-82882380D01*
X158953571Y-82834761D01*
X158858333Y-82739523D01*
X158810714Y-82644285D01*
X158763095Y-82453809D01*
X158763095Y-82310952D01*
X158810714Y-82120476D01*
X158858333Y-82025238D01*
X158953571Y-81930000D01*
X159096428Y-81882380D01*
X159191666Y-81882380D01*
X159334523Y-81930000D01*
X159382142Y-81977619D01*
X160286904Y-81882380D02*
X159810714Y-81882380D01*
X159763095Y-82358571D01*
X159810714Y-82310952D01*
X159905952Y-82263333D01*
X160144047Y-82263333D01*
X160239285Y-82310952D01*
X160286904Y-82358571D01*
X160334523Y-82453809D01*
X160334523Y-82691904D01*
X160286904Y-82787142D01*
X160239285Y-82834761D01*
X160144047Y-82882380D01*
X159905952Y-82882380D01*
X159810714Y-82834761D01*
X159763095Y-82787142D01*
X161286904Y-82882380D02*
X160715476Y-82882380D01*
X161001190Y-82882380D02*
X161001190Y-81882380D01*
X160905952Y-82025238D01*
X160810714Y-82120476D01*
X160715476Y-82168095D01*
%TO.C,C50*%
X165857142Y-82857142D02*
X165809523Y-82904761D01*
X165666666Y-82952380D01*
X165571428Y-82952380D01*
X165428571Y-82904761D01*
X165333333Y-82809523D01*
X165285714Y-82714285D01*
X165238095Y-82523809D01*
X165238095Y-82380952D01*
X165285714Y-82190476D01*
X165333333Y-82095238D01*
X165428571Y-82000000D01*
X165571428Y-81952380D01*
X165666666Y-81952380D01*
X165809523Y-82000000D01*
X165857142Y-82047619D01*
X166761904Y-81952380D02*
X166285714Y-81952380D01*
X166238095Y-82428571D01*
X166285714Y-82380952D01*
X166380952Y-82333333D01*
X166619047Y-82333333D01*
X166714285Y-82380952D01*
X166761904Y-82428571D01*
X166809523Y-82523809D01*
X166809523Y-82761904D01*
X166761904Y-82857142D01*
X166714285Y-82904761D01*
X166619047Y-82952380D01*
X166380952Y-82952380D01*
X166285714Y-82904761D01*
X166238095Y-82857142D01*
X167428571Y-81952380D02*
X167523809Y-81952380D01*
X167619047Y-82000000D01*
X167666666Y-82047619D01*
X167714285Y-82142857D01*
X167761904Y-82333333D01*
X167761904Y-82571428D01*
X167714285Y-82761904D01*
X167666666Y-82857142D01*
X167619047Y-82904761D01*
X167523809Y-82952380D01*
X167428571Y-82952380D01*
X167333333Y-82904761D01*
X167285714Y-82857142D01*
X167238095Y-82761904D01*
X167190476Y-82571428D01*
X167190476Y-82333333D01*
X167238095Y-82142857D01*
X167285714Y-82047619D01*
X167333333Y-82000000D01*
X167428571Y-81952380D01*
%TO.C,C49*%
X162607142Y-82857142D02*
X162559523Y-82904761D01*
X162416666Y-82952380D01*
X162321428Y-82952380D01*
X162178571Y-82904761D01*
X162083333Y-82809523D01*
X162035714Y-82714285D01*
X161988095Y-82523809D01*
X161988095Y-82380952D01*
X162035714Y-82190476D01*
X162083333Y-82095238D01*
X162178571Y-82000000D01*
X162321428Y-81952380D01*
X162416666Y-81952380D01*
X162559523Y-82000000D01*
X162607142Y-82047619D01*
X163464285Y-82285714D02*
X163464285Y-82952380D01*
X163226190Y-81904761D02*
X162988095Y-82619047D01*
X163607142Y-82619047D01*
X164035714Y-82952380D02*
X164226190Y-82952380D01*
X164321428Y-82904761D01*
X164369047Y-82857142D01*
X164464285Y-82714285D01*
X164511904Y-82523809D01*
X164511904Y-82142857D01*
X164464285Y-82047619D01*
X164416666Y-82000000D01*
X164321428Y-81952380D01*
X164130952Y-81952380D01*
X164035714Y-82000000D01*
X163988095Y-82047619D01*
X163940476Y-82142857D01*
X163940476Y-82380952D01*
X163988095Y-82476190D01*
X164035714Y-82523809D01*
X164130952Y-82571428D01*
X164321428Y-82571428D01*
X164416666Y-82523809D01*
X164464285Y-82476190D01*
X164511904Y-82380952D01*
%TO.C,C48*%
X149357142Y-82787142D02*
X149309523Y-82834761D01*
X149166666Y-82882380D01*
X149071428Y-82882380D01*
X148928571Y-82834761D01*
X148833333Y-82739523D01*
X148785714Y-82644285D01*
X148738095Y-82453809D01*
X148738095Y-82310952D01*
X148785714Y-82120476D01*
X148833333Y-82025238D01*
X148928571Y-81930000D01*
X149071428Y-81882380D01*
X149166666Y-81882380D01*
X149309523Y-81930000D01*
X149357142Y-81977619D01*
X150214285Y-82215714D02*
X150214285Y-82882380D01*
X149976190Y-81834761D02*
X149738095Y-82549047D01*
X150357142Y-82549047D01*
X150880952Y-82310952D02*
X150785714Y-82263333D01*
X150738095Y-82215714D01*
X150690476Y-82120476D01*
X150690476Y-82072857D01*
X150738095Y-81977619D01*
X150785714Y-81930000D01*
X150880952Y-81882380D01*
X151071428Y-81882380D01*
X151166666Y-81930000D01*
X151214285Y-81977619D01*
X151261904Y-82072857D01*
X151261904Y-82120476D01*
X151214285Y-82215714D01*
X151166666Y-82263333D01*
X151071428Y-82310952D01*
X150880952Y-82310952D01*
X150785714Y-82358571D01*
X150738095Y-82406190D01*
X150690476Y-82501428D01*
X150690476Y-82691904D01*
X150738095Y-82787142D01*
X150785714Y-82834761D01*
X150880952Y-82882380D01*
X151071428Y-82882380D01*
X151166666Y-82834761D01*
X151214285Y-82787142D01*
X151261904Y-82691904D01*
X151261904Y-82501428D01*
X151214285Y-82406190D01*
X151166666Y-82358571D01*
X151071428Y-82310952D01*
%TO.C,C47*%
X155857142Y-82857142D02*
X155809523Y-82904761D01*
X155666666Y-82952380D01*
X155571428Y-82952380D01*
X155428571Y-82904761D01*
X155333333Y-82809523D01*
X155285714Y-82714285D01*
X155238095Y-82523809D01*
X155238095Y-82380952D01*
X155285714Y-82190476D01*
X155333333Y-82095238D01*
X155428571Y-82000000D01*
X155571428Y-81952380D01*
X155666666Y-81952380D01*
X155809523Y-82000000D01*
X155857142Y-82047619D01*
X156714285Y-82285714D02*
X156714285Y-82952380D01*
X156476190Y-81904761D02*
X156238095Y-82619047D01*
X156857142Y-82619047D01*
X157142857Y-81952380D02*
X157809523Y-81952380D01*
X157380952Y-82952380D01*
%TO.C,C46*%
X152632142Y-82787142D02*
X152584523Y-82834761D01*
X152441666Y-82882380D01*
X152346428Y-82882380D01*
X152203571Y-82834761D01*
X152108333Y-82739523D01*
X152060714Y-82644285D01*
X152013095Y-82453809D01*
X152013095Y-82310952D01*
X152060714Y-82120476D01*
X152108333Y-82025238D01*
X152203571Y-81930000D01*
X152346428Y-81882380D01*
X152441666Y-81882380D01*
X152584523Y-81930000D01*
X152632142Y-81977619D01*
X153489285Y-82215714D02*
X153489285Y-82882380D01*
X153251190Y-81834761D02*
X153013095Y-82549047D01*
X153632142Y-82549047D01*
X154441666Y-81882380D02*
X154251190Y-81882380D01*
X154155952Y-81930000D01*
X154108333Y-81977619D01*
X154013095Y-82120476D01*
X153965476Y-82310952D01*
X153965476Y-82691904D01*
X154013095Y-82787142D01*
X154060714Y-82834761D01*
X154155952Y-82882380D01*
X154346428Y-82882380D01*
X154441666Y-82834761D01*
X154489285Y-82787142D01*
X154536904Y-82691904D01*
X154536904Y-82453809D01*
X154489285Y-82358571D01*
X154441666Y-82310952D01*
X154346428Y-82263333D01*
X154155952Y-82263333D01*
X154060714Y-82310952D01*
X154013095Y-82358571D01*
X153965476Y-82453809D01*
%TO.C,C45*%
X165107142Y-93107142D02*
X165059523Y-93154761D01*
X164916666Y-93202380D01*
X164821428Y-93202380D01*
X164678571Y-93154761D01*
X164583333Y-93059523D01*
X164535714Y-92964285D01*
X164488095Y-92773809D01*
X164488095Y-92630952D01*
X164535714Y-92440476D01*
X164583333Y-92345238D01*
X164678571Y-92250000D01*
X164821428Y-92202380D01*
X164916666Y-92202380D01*
X165059523Y-92250000D01*
X165107142Y-92297619D01*
X165964285Y-92535714D02*
X165964285Y-93202380D01*
X165726190Y-92154761D02*
X165488095Y-92869047D01*
X166107142Y-92869047D01*
X166964285Y-92202380D02*
X166488095Y-92202380D01*
X166440476Y-92678571D01*
X166488095Y-92630952D01*
X166583333Y-92583333D01*
X166821428Y-92583333D01*
X166916666Y-92630952D01*
X166964285Y-92678571D01*
X167011904Y-92773809D01*
X167011904Y-93011904D01*
X166964285Y-93107142D01*
X166916666Y-93154761D01*
X166821428Y-93202380D01*
X166583333Y-93202380D01*
X166488095Y-93154761D01*
X166440476Y-93107142D01*
%TO.C,C44*%
X175607142Y-91357142D02*
X175559523Y-91404761D01*
X175416666Y-91452380D01*
X175321428Y-91452380D01*
X175178571Y-91404761D01*
X175083333Y-91309523D01*
X175035714Y-91214285D01*
X174988095Y-91023809D01*
X174988095Y-90880952D01*
X175035714Y-90690476D01*
X175083333Y-90595238D01*
X175178571Y-90500000D01*
X175321428Y-90452380D01*
X175416666Y-90452380D01*
X175559523Y-90500000D01*
X175607142Y-90547619D01*
X176464285Y-90785714D02*
X176464285Y-91452380D01*
X176226190Y-90404761D02*
X175988095Y-91119047D01*
X176607142Y-91119047D01*
X177416666Y-90785714D02*
X177416666Y-91452380D01*
X177178571Y-90404761D02*
X176940476Y-91119047D01*
X177559523Y-91119047D01*
%TO.C,C42*%
D10*
X154285714Y-85014285D02*
X154323809Y-85052380D01*
X154361904Y-85166666D01*
X154361904Y-85242857D01*
X154323809Y-85357142D01*
X154247619Y-85433333D01*
X154171428Y-85471428D01*
X154019047Y-85509523D01*
X153904761Y-85509523D01*
X153752380Y-85471428D01*
X153676190Y-85433333D01*
X153600000Y-85357142D01*
X153561904Y-85242857D01*
X153561904Y-85166666D01*
X153600000Y-85052380D01*
X153638095Y-85014285D01*
X153828571Y-84328571D02*
X154361904Y-84328571D01*
X153523809Y-84519047D02*
X154095238Y-84709523D01*
X154095238Y-84214285D01*
X153638095Y-83947619D02*
X153600000Y-83909523D01*
X153561904Y-83833333D01*
X153561904Y-83642857D01*
X153600000Y-83566666D01*
X153638095Y-83528571D01*
X153714285Y-83490476D01*
X153790476Y-83490476D01*
X153904761Y-83528571D01*
X154361904Y-83985714D01*
X154361904Y-83490476D01*
%TO.C,C41*%
D13*
X156107142Y-93892857D02*
X156154761Y-93940476D01*
X156202380Y-94083333D01*
X156202380Y-94178571D01*
X156154761Y-94321428D01*
X156059523Y-94416666D01*
X155964285Y-94464285D01*
X155773809Y-94511904D01*
X155630952Y-94511904D01*
X155440476Y-94464285D01*
X155345238Y-94416666D01*
X155250000Y-94321428D01*
X155202380Y-94178571D01*
X155202380Y-94083333D01*
X155250000Y-93940476D01*
X155297619Y-93892857D01*
X155535714Y-93035714D02*
X156202380Y-93035714D01*
X155154761Y-93273809D02*
X155869047Y-93511904D01*
X155869047Y-92892857D01*
X156202380Y-91988095D02*
X156202380Y-92559523D01*
X156202380Y-92273809D02*
X155202380Y-92273809D01*
X155345238Y-92369047D01*
X155440476Y-92464285D01*
X155488095Y-92559523D01*
%TO.C,C39*%
X126357142Y-87607142D02*
X126309523Y-87654761D01*
X126166666Y-87702380D01*
X126071428Y-87702380D01*
X125928571Y-87654761D01*
X125833333Y-87559523D01*
X125785714Y-87464285D01*
X125738095Y-87273809D01*
X125738095Y-87130952D01*
X125785714Y-86940476D01*
X125833333Y-86845238D01*
X125928571Y-86750000D01*
X126071428Y-86702380D01*
X126166666Y-86702380D01*
X126309523Y-86750000D01*
X126357142Y-86797619D01*
X126690476Y-86702380D02*
X127309523Y-86702380D01*
X126976190Y-87083333D01*
X127119047Y-87083333D01*
X127214285Y-87130952D01*
X127261904Y-87178571D01*
X127309523Y-87273809D01*
X127309523Y-87511904D01*
X127261904Y-87607142D01*
X127214285Y-87654761D01*
X127119047Y-87702380D01*
X126833333Y-87702380D01*
X126738095Y-87654761D01*
X126690476Y-87607142D01*
X127785714Y-87702380D02*
X127976190Y-87702380D01*
X128071428Y-87654761D01*
X128119047Y-87607142D01*
X128214285Y-87464285D01*
X128261904Y-87273809D01*
X128261904Y-86892857D01*
X128214285Y-86797619D01*
X128166666Y-86750000D01*
X128071428Y-86702380D01*
X127880952Y-86702380D01*
X127785714Y-86750000D01*
X127738095Y-86797619D01*
X127690476Y-86892857D01*
X127690476Y-87130952D01*
X127738095Y-87226190D01*
X127785714Y-87273809D01*
X127880952Y-87321428D01*
X128071428Y-87321428D01*
X128166666Y-87273809D01*
X128214285Y-87226190D01*
X128261904Y-87130952D01*
%TO.C,C38*%
X125857142Y-81857142D02*
X125809523Y-81904761D01*
X125666666Y-81952380D01*
X125571428Y-81952380D01*
X125428571Y-81904761D01*
X125333333Y-81809523D01*
X125285714Y-81714285D01*
X125238095Y-81523809D01*
X125238095Y-81380952D01*
X125285714Y-81190476D01*
X125333333Y-81095238D01*
X125428571Y-81000000D01*
X125571428Y-80952380D01*
X125666666Y-80952380D01*
X125809523Y-81000000D01*
X125857142Y-81047619D01*
X126190476Y-80952380D02*
X126809523Y-80952380D01*
X126476190Y-81333333D01*
X126619047Y-81333333D01*
X126714285Y-81380952D01*
X126761904Y-81428571D01*
X126809523Y-81523809D01*
X126809523Y-81761904D01*
X126761904Y-81857142D01*
X126714285Y-81904761D01*
X126619047Y-81952380D01*
X126333333Y-81952380D01*
X126238095Y-81904761D01*
X126190476Y-81857142D01*
X127380952Y-81380952D02*
X127285714Y-81333333D01*
X127238095Y-81285714D01*
X127190476Y-81190476D01*
X127190476Y-81142857D01*
X127238095Y-81047619D01*
X127285714Y-81000000D01*
X127380952Y-80952380D01*
X127571428Y-80952380D01*
X127666666Y-81000000D01*
X127714285Y-81047619D01*
X127761904Y-81142857D01*
X127761904Y-81190476D01*
X127714285Y-81285714D01*
X127666666Y-81333333D01*
X127571428Y-81380952D01*
X127380952Y-81380952D01*
X127285714Y-81428571D01*
X127238095Y-81476190D01*
X127190476Y-81571428D01*
X127190476Y-81761904D01*
X127238095Y-81857142D01*
X127285714Y-81904761D01*
X127380952Y-81952380D01*
X127571428Y-81952380D01*
X127666666Y-81904761D01*
X127714285Y-81857142D01*
X127761904Y-81761904D01*
X127761904Y-81571428D01*
X127714285Y-81476190D01*
X127666666Y-81428571D01*
X127571428Y-81380952D01*
%TO.C,C37*%
X125607142Y-76607142D02*
X125559523Y-76654761D01*
X125416666Y-76702380D01*
X125321428Y-76702380D01*
X125178571Y-76654761D01*
X125083333Y-76559523D01*
X125035714Y-76464285D01*
X124988095Y-76273809D01*
X124988095Y-76130952D01*
X125035714Y-75940476D01*
X125083333Y-75845238D01*
X125178571Y-75750000D01*
X125321428Y-75702380D01*
X125416666Y-75702380D01*
X125559523Y-75750000D01*
X125607142Y-75797619D01*
X125940476Y-75702380D02*
X126559523Y-75702380D01*
X126226190Y-76083333D01*
X126369047Y-76083333D01*
X126464285Y-76130952D01*
X126511904Y-76178571D01*
X126559523Y-76273809D01*
X126559523Y-76511904D01*
X126511904Y-76607142D01*
X126464285Y-76654761D01*
X126369047Y-76702380D01*
X126083333Y-76702380D01*
X125988095Y-76654761D01*
X125940476Y-76607142D01*
X126892857Y-75702380D02*
X127559523Y-75702380D01*
X127130952Y-76702380D01*
%TO.C,C36*%
X121607142Y-79427142D02*
X121559523Y-79474761D01*
X121416666Y-79522380D01*
X121321428Y-79522380D01*
X121178571Y-79474761D01*
X121083333Y-79379523D01*
X121035714Y-79284285D01*
X120988095Y-79093809D01*
X120988095Y-78950952D01*
X121035714Y-78760476D01*
X121083333Y-78665238D01*
X121178571Y-78570000D01*
X121321428Y-78522380D01*
X121416666Y-78522380D01*
X121559523Y-78570000D01*
X121607142Y-78617619D01*
X121940476Y-78522380D02*
X122559523Y-78522380D01*
X122226190Y-78903333D01*
X122369047Y-78903333D01*
X122464285Y-78950952D01*
X122511904Y-78998571D01*
X122559523Y-79093809D01*
X122559523Y-79331904D01*
X122511904Y-79427142D01*
X122464285Y-79474761D01*
X122369047Y-79522380D01*
X122083333Y-79522380D01*
X121988095Y-79474761D01*
X121940476Y-79427142D01*
X123416666Y-78522380D02*
X123226190Y-78522380D01*
X123130952Y-78570000D01*
X123083333Y-78617619D01*
X122988095Y-78760476D01*
X122940476Y-78950952D01*
X122940476Y-79331904D01*
X122988095Y-79427142D01*
X123035714Y-79474761D01*
X123130952Y-79522380D01*
X123321428Y-79522380D01*
X123416666Y-79474761D01*
X123464285Y-79427142D01*
X123511904Y-79331904D01*
X123511904Y-79093809D01*
X123464285Y-78998571D01*
X123416666Y-78950952D01*
X123321428Y-78903333D01*
X123130952Y-78903333D01*
X123035714Y-78950952D01*
X122988095Y-78998571D01*
X122940476Y-79093809D01*
%TO.C,C35*%
X124357142Y-93107142D02*
X124309523Y-93154761D01*
X124166666Y-93202380D01*
X124071428Y-93202380D01*
X123928571Y-93154761D01*
X123833333Y-93059523D01*
X123785714Y-92964285D01*
X123738095Y-92773809D01*
X123738095Y-92630952D01*
X123785714Y-92440476D01*
X123833333Y-92345238D01*
X123928571Y-92250000D01*
X124071428Y-92202380D01*
X124166666Y-92202380D01*
X124309523Y-92250000D01*
X124357142Y-92297619D01*
X124690476Y-92202380D02*
X125309523Y-92202380D01*
X124976190Y-92583333D01*
X125119047Y-92583333D01*
X125214285Y-92630952D01*
X125261904Y-92678571D01*
X125309523Y-92773809D01*
X125309523Y-93011904D01*
X125261904Y-93107142D01*
X125214285Y-93154761D01*
X125119047Y-93202380D01*
X124833333Y-93202380D01*
X124738095Y-93154761D01*
X124690476Y-93107142D01*
X126214285Y-92202380D02*
X125738095Y-92202380D01*
X125690476Y-92678571D01*
X125738095Y-92630952D01*
X125833333Y-92583333D01*
X126071428Y-92583333D01*
X126166666Y-92630952D01*
X126214285Y-92678571D01*
X126261904Y-92773809D01*
X126261904Y-93011904D01*
X126214285Y-93107142D01*
X126166666Y-93154761D01*
X126071428Y-93202380D01*
X125833333Y-93202380D01*
X125738095Y-93154761D01*
X125690476Y-93107142D01*
%TO.C,C34*%
X143357142Y-81357142D02*
X143309523Y-81404761D01*
X143166666Y-81452380D01*
X143071428Y-81452380D01*
X142928571Y-81404761D01*
X142833333Y-81309523D01*
X142785714Y-81214285D01*
X142738095Y-81023809D01*
X142738095Y-80880952D01*
X142785714Y-80690476D01*
X142833333Y-80595238D01*
X142928571Y-80500000D01*
X143071428Y-80452380D01*
X143166666Y-80452380D01*
X143309523Y-80500000D01*
X143357142Y-80547619D01*
X143690476Y-80452380D02*
X144309523Y-80452380D01*
X143976190Y-80833333D01*
X144119047Y-80833333D01*
X144214285Y-80880952D01*
X144261904Y-80928571D01*
X144309523Y-81023809D01*
X144309523Y-81261904D01*
X144261904Y-81357142D01*
X144214285Y-81404761D01*
X144119047Y-81452380D01*
X143833333Y-81452380D01*
X143738095Y-81404761D01*
X143690476Y-81357142D01*
X145166666Y-80785714D02*
X145166666Y-81452380D01*
X144928571Y-80404761D02*
X144690476Y-81119047D01*
X145309523Y-81119047D01*
%TO.C,C33*%
X134607142Y-96107142D02*
X134559523Y-96154761D01*
X134416666Y-96202380D01*
X134321428Y-96202380D01*
X134178571Y-96154761D01*
X134083333Y-96059523D01*
X134035714Y-95964285D01*
X133988095Y-95773809D01*
X133988095Y-95630952D01*
X134035714Y-95440476D01*
X134083333Y-95345238D01*
X134178571Y-95250000D01*
X134321428Y-95202380D01*
X134416666Y-95202380D01*
X134559523Y-95250000D01*
X134607142Y-95297619D01*
X134940476Y-95202380D02*
X135559523Y-95202380D01*
X135226190Y-95583333D01*
X135369047Y-95583333D01*
X135464285Y-95630952D01*
X135511904Y-95678571D01*
X135559523Y-95773809D01*
X135559523Y-96011904D01*
X135511904Y-96107142D01*
X135464285Y-96154761D01*
X135369047Y-96202380D01*
X135083333Y-96202380D01*
X134988095Y-96154761D01*
X134940476Y-96107142D01*
X135892857Y-95202380D02*
X136511904Y-95202380D01*
X136178571Y-95583333D01*
X136321428Y-95583333D01*
X136416666Y-95630952D01*
X136464285Y-95678571D01*
X136511904Y-95773809D01*
X136511904Y-96011904D01*
X136464285Y-96107142D01*
X136416666Y-96154761D01*
X136321428Y-96202380D01*
X136035714Y-96202380D01*
X135940476Y-96154761D01*
X135892857Y-96107142D01*
%TO.C,C32*%
X133857142Y-100142857D02*
X133904761Y-100190476D01*
X133952380Y-100333333D01*
X133952380Y-100428571D01*
X133904761Y-100571428D01*
X133809523Y-100666666D01*
X133714285Y-100714285D01*
X133523809Y-100761904D01*
X133380952Y-100761904D01*
X133190476Y-100714285D01*
X133095238Y-100666666D01*
X133000000Y-100571428D01*
X132952380Y-100428571D01*
X132952380Y-100333333D01*
X133000000Y-100190476D01*
X133047619Y-100142857D01*
X132952380Y-99809523D02*
X132952380Y-99190476D01*
X133333333Y-99523809D01*
X133333333Y-99380952D01*
X133380952Y-99285714D01*
X133428571Y-99238095D01*
X133523809Y-99190476D01*
X133761904Y-99190476D01*
X133857142Y-99238095D01*
X133904761Y-99285714D01*
X133952380Y-99380952D01*
X133952380Y-99666666D01*
X133904761Y-99761904D01*
X133857142Y-99809523D01*
X133047619Y-98809523D02*
X133000000Y-98761904D01*
X132952380Y-98666666D01*
X132952380Y-98428571D01*
X133000000Y-98333333D01*
X133047619Y-98285714D01*
X133142857Y-98238095D01*
X133238095Y-98238095D01*
X133380952Y-98285714D01*
X133952380Y-98857142D01*
X133952380Y-98238095D01*
%TO.C,C31*%
X131832142Y-96002142D02*
X131784523Y-96049761D01*
X131641666Y-96097380D01*
X131546428Y-96097380D01*
X131403571Y-96049761D01*
X131308333Y-95954523D01*
X131260714Y-95859285D01*
X131213095Y-95668809D01*
X131213095Y-95525952D01*
X131260714Y-95335476D01*
X131308333Y-95240238D01*
X131403571Y-95145000D01*
X131546428Y-95097380D01*
X131641666Y-95097380D01*
X131784523Y-95145000D01*
X131832142Y-95192619D01*
X132165476Y-95097380D02*
X132784523Y-95097380D01*
X132451190Y-95478333D01*
X132594047Y-95478333D01*
X132689285Y-95525952D01*
X132736904Y-95573571D01*
X132784523Y-95668809D01*
X132784523Y-95906904D01*
X132736904Y-96002142D01*
X132689285Y-96049761D01*
X132594047Y-96097380D01*
X132308333Y-96097380D01*
X132213095Y-96049761D01*
X132165476Y-96002142D01*
X133736904Y-96097380D02*
X133165476Y-96097380D01*
X133451190Y-96097380D02*
X133451190Y-95097380D01*
X133355952Y-95240238D01*
X133260714Y-95335476D01*
X133165476Y-95383095D01*
%TO.C,C30*%
X122107142Y-97357142D02*
X122059523Y-97404761D01*
X121916666Y-97452380D01*
X121821428Y-97452380D01*
X121678571Y-97404761D01*
X121583333Y-97309523D01*
X121535714Y-97214285D01*
X121488095Y-97023809D01*
X121488095Y-96880952D01*
X121535714Y-96690476D01*
X121583333Y-96595238D01*
X121678571Y-96500000D01*
X121821428Y-96452380D01*
X121916666Y-96452380D01*
X122059523Y-96500000D01*
X122107142Y-96547619D01*
X122440476Y-96452380D02*
X123059523Y-96452380D01*
X122726190Y-96833333D01*
X122869047Y-96833333D01*
X122964285Y-96880952D01*
X123011904Y-96928571D01*
X123059523Y-97023809D01*
X123059523Y-97261904D01*
X123011904Y-97357142D01*
X122964285Y-97404761D01*
X122869047Y-97452380D01*
X122583333Y-97452380D01*
X122488095Y-97404761D01*
X122440476Y-97357142D01*
X123678571Y-96452380D02*
X123773809Y-96452380D01*
X123869047Y-96500000D01*
X123916666Y-96547619D01*
X123964285Y-96642857D01*
X124011904Y-96833333D01*
X124011904Y-97071428D01*
X123964285Y-97261904D01*
X123916666Y-97357142D01*
X123869047Y-97404761D01*
X123773809Y-97452380D01*
X123678571Y-97452380D01*
X123583333Y-97404761D01*
X123535714Y-97357142D01*
X123488095Y-97261904D01*
X123440476Y-97071428D01*
X123440476Y-96833333D01*
X123488095Y-96642857D01*
X123535714Y-96547619D01*
X123583333Y-96500000D01*
X123678571Y-96452380D01*
%TO.C,C29*%
X126107142Y-131357142D02*
X126059523Y-131404761D01*
X125916666Y-131452380D01*
X125821428Y-131452380D01*
X125678571Y-131404761D01*
X125583333Y-131309523D01*
X125535714Y-131214285D01*
X125488095Y-131023809D01*
X125488095Y-130880952D01*
X125535714Y-130690476D01*
X125583333Y-130595238D01*
X125678571Y-130500000D01*
X125821428Y-130452380D01*
X125916666Y-130452380D01*
X126059523Y-130500000D01*
X126107142Y-130547619D01*
X126488095Y-130547619D02*
X126535714Y-130500000D01*
X126630952Y-130452380D01*
X126869047Y-130452380D01*
X126964285Y-130500000D01*
X127011904Y-130547619D01*
X127059523Y-130642857D01*
X127059523Y-130738095D01*
X127011904Y-130880952D01*
X126440476Y-131452380D01*
X127059523Y-131452380D01*
X127535714Y-131452380D02*
X127726190Y-131452380D01*
X127821428Y-131404761D01*
X127869047Y-131357142D01*
X127964285Y-131214285D01*
X128011904Y-131023809D01*
X128011904Y-130642857D01*
X127964285Y-130547619D01*
X127916666Y-130500000D01*
X127821428Y-130452380D01*
X127630952Y-130452380D01*
X127535714Y-130500000D01*
X127488095Y-130547619D01*
X127440476Y-130642857D01*
X127440476Y-130880952D01*
X127488095Y-130976190D01*
X127535714Y-131023809D01*
X127630952Y-131071428D01*
X127821428Y-131071428D01*
X127916666Y-131023809D01*
X127964285Y-130976190D01*
X128011904Y-130880952D01*
%TO.C,C28*%
X127357142Y-120857142D02*
X127309523Y-120904761D01*
X127166666Y-120952380D01*
X127071428Y-120952380D01*
X126928571Y-120904761D01*
X126833333Y-120809523D01*
X126785714Y-120714285D01*
X126738095Y-120523809D01*
X126738095Y-120380952D01*
X126785714Y-120190476D01*
X126833333Y-120095238D01*
X126928571Y-120000000D01*
X127071428Y-119952380D01*
X127166666Y-119952380D01*
X127309523Y-120000000D01*
X127357142Y-120047619D01*
X127738095Y-120047619D02*
X127785714Y-120000000D01*
X127880952Y-119952380D01*
X128119047Y-119952380D01*
X128214285Y-120000000D01*
X128261904Y-120047619D01*
X128309523Y-120142857D01*
X128309523Y-120238095D01*
X128261904Y-120380952D01*
X127690476Y-120952380D01*
X128309523Y-120952380D01*
X128880952Y-120380952D02*
X128785714Y-120333333D01*
X128738095Y-120285714D01*
X128690476Y-120190476D01*
X128690476Y-120142857D01*
X128738095Y-120047619D01*
X128785714Y-120000000D01*
X128880952Y-119952380D01*
X129071428Y-119952380D01*
X129166666Y-120000000D01*
X129214285Y-120047619D01*
X129261904Y-120142857D01*
X129261904Y-120190476D01*
X129214285Y-120285714D01*
X129166666Y-120333333D01*
X129071428Y-120380952D01*
X128880952Y-120380952D01*
X128785714Y-120428571D01*
X128738095Y-120476190D01*
X128690476Y-120571428D01*
X128690476Y-120761904D01*
X128738095Y-120857142D01*
X128785714Y-120904761D01*
X128880952Y-120952380D01*
X129071428Y-120952380D01*
X129166666Y-120904761D01*
X129214285Y-120857142D01*
X129261904Y-120761904D01*
X129261904Y-120571428D01*
X129214285Y-120476190D01*
X129166666Y-120428571D01*
X129071428Y-120380952D01*
%TO.C,C27*%
D10*
X133285714Y-121014285D02*
X133323809Y-121052380D01*
X133361904Y-121166666D01*
X133361904Y-121242857D01*
X133323809Y-121357142D01*
X133247619Y-121433333D01*
X133171428Y-121471428D01*
X133019047Y-121509523D01*
X132904761Y-121509523D01*
X132752380Y-121471428D01*
X132676190Y-121433333D01*
X132600000Y-121357142D01*
X132561904Y-121242857D01*
X132561904Y-121166666D01*
X132600000Y-121052380D01*
X132638095Y-121014285D01*
X132638095Y-120709523D02*
X132600000Y-120671428D01*
X132561904Y-120595238D01*
X132561904Y-120404761D01*
X132600000Y-120328571D01*
X132638095Y-120290476D01*
X132714285Y-120252380D01*
X132790476Y-120252380D01*
X132904761Y-120290476D01*
X133361904Y-120747619D01*
X133361904Y-120252380D01*
X132561904Y-119985714D02*
X132561904Y-119452380D01*
X133361904Y-119795238D01*
%TO.C,C26*%
X135485714Y-120785714D02*
X135447619Y-120823809D01*
X135333333Y-120861904D01*
X135257142Y-120861904D01*
X135142857Y-120823809D01*
X135066666Y-120747619D01*
X135028571Y-120671428D01*
X134990476Y-120519047D01*
X134990476Y-120404761D01*
X135028571Y-120252380D01*
X135066666Y-120176190D01*
X135142857Y-120100000D01*
X135257142Y-120061904D01*
X135333333Y-120061904D01*
X135447619Y-120100000D01*
X135485714Y-120138095D01*
X135790476Y-120138095D02*
X135828571Y-120100000D01*
X135904761Y-120061904D01*
X136095238Y-120061904D01*
X136171428Y-120100000D01*
X136209523Y-120138095D01*
X136247619Y-120214285D01*
X136247619Y-120290476D01*
X136209523Y-120404761D01*
X135752380Y-120861904D01*
X136247619Y-120861904D01*
X136933333Y-120061904D02*
X136780952Y-120061904D01*
X136704761Y-120100000D01*
X136666666Y-120138095D01*
X136590476Y-120252380D01*
X136552380Y-120404761D01*
X136552380Y-120709523D01*
X136590476Y-120785714D01*
X136628571Y-120823809D01*
X136704761Y-120861904D01*
X136857142Y-120861904D01*
X136933333Y-120823809D01*
X136971428Y-120785714D01*
X137009523Y-120709523D01*
X137009523Y-120519047D01*
X136971428Y-120442857D01*
X136933333Y-120404761D01*
X136857142Y-120366666D01*
X136704761Y-120366666D01*
X136628571Y-120404761D01*
X136590476Y-120442857D01*
X136552380Y-120519047D01*
%TO.C,C25*%
X132485714Y-134285714D02*
X132447619Y-134323809D01*
X132333333Y-134361904D01*
X132257142Y-134361904D01*
X132142857Y-134323809D01*
X132066666Y-134247619D01*
X132028571Y-134171428D01*
X131990476Y-134019047D01*
X131990476Y-133904761D01*
X132028571Y-133752380D01*
X132066666Y-133676190D01*
X132142857Y-133600000D01*
X132257142Y-133561904D01*
X132333333Y-133561904D01*
X132447619Y-133600000D01*
X132485714Y-133638095D01*
X132790476Y-133638095D02*
X132828571Y-133600000D01*
X132904761Y-133561904D01*
X133095238Y-133561904D01*
X133171428Y-133600000D01*
X133209523Y-133638095D01*
X133247619Y-133714285D01*
X133247619Y-133790476D01*
X133209523Y-133904761D01*
X132752380Y-134361904D01*
X133247619Y-134361904D01*
X133971428Y-133561904D02*
X133590476Y-133561904D01*
X133552380Y-133942857D01*
X133590476Y-133904761D01*
X133666666Y-133866666D01*
X133857142Y-133866666D01*
X133933333Y-133904761D01*
X133971428Y-133942857D01*
X134009523Y-134019047D01*
X134009523Y-134209523D01*
X133971428Y-134285714D01*
X133933333Y-134323809D01*
X133857142Y-134361904D01*
X133666666Y-134361904D01*
X133590476Y-134323809D01*
X133552380Y-134285714D01*
%TO.C,C24*%
X129985714Y-134285714D02*
X129947619Y-134323809D01*
X129833333Y-134361904D01*
X129757142Y-134361904D01*
X129642857Y-134323809D01*
X129566666Y-134247619D01*
X129528571Y-134171428D01*
X129490476Y-134019047D01*
X129490476Y-133904761D01*
X129528571Y-133752380D01*
X129566666Y-133676190D01*
X129642857Y-133600000D01*
X129757142Y-133561904D01*
X129833333Y-133561904D01*
X129947619Y-133600000D01*
X129985714Y-133638095D01*
X130290476Y-133638095D02*
X130328571Y-133600000D01*
X130404761Y-133561904D01*
X130595238Y-133561904D01*
X130671428Y-133600000D01*
X130709523Y-133638095D01*
X130747619Y-133714285D01*
X130747619Y-133790476D01*
X130709523Y-133904761D01*
X130252380Y-134361904D01*
X130747619Y-134361904D01*
X131433333Y-133828571D02*
X131433333Y-134361904D01*
X131242857Y-133523809D02*
X131052380Y-134095238D01*
X131547619Y-134095238D01*
%TO.C,C23*%
D13*
X118107142Y-128392857D02*
X118154761Y-128440476D01*
X118202380Y-128583333D01*
X118202380Y-128678571D01*
X118154761Y-128821428D01*
X118059523Y-128916666D01*
X117964285Y-128964285D01*
X117773809Y-129011904D01*
X117630952Y-129011904D01*
X117440476Y-128964285D01*
X117345238Y-128916666D01*
X117250000Y-128821428D01*
X117202380Y-128678571D01*
X117202380Y-128583333D01*
X117250000Y-128440476D01*
X117297619Y-128392857D01*
X117297619Y-128011904D02*
X117250000Y-127964285D01*
X117202380Y-127869047D01*
X117202380Y-127630952D01*
X117250000Y-127535714D01*
X117297619Y-127488095D01*
X117392857Y-127440476D01*
X117488095Y-127440476D01*
X117630952Y-127488095D01*
X118202380Y-128059523D01*
X118202380Y-127440476D01*
X117202380Y-127107142D02*
X117202380Y-126488095D01*
X117583333Y-126821428D01*
X117583333Y-126678571D01*
X117630952Y-126583333D01*
X117678571Y-126535714D01*
X117773809Y-126488095D01*
X118011904Y-126488095D01*
X118107142Y-126535714D01*
X118154761Y-126583333D01*
X118202380Y-126678571D01*
X118202380Y-126964285D01*
X118154761Y-127059523D01*
X118107142Y-127107142D01*
%TO.C,C22*%
X116357142Y-128392857D02*
X116404761Y-128440476D01*
X116452380Y-128583333D01*
X116452380Y-128678571D01*
X116404761Y-128821428D01*
X116309523Y-128916666D01*
X116214285Y-128964285D01*
X116023809Y-129011904D01*
X115880952Y-129011904D01*
X115690476Y-128964285D01*
X115595238Y-128916666D01*
X115500000Y-128821428D01*
X115452380Y-128678571D01*
X115452380Y-128583333D01*
X115500000Y-128440476D01*
X115547619Y-128392857D01*
X115547619Y-128011904D02*
X115500000Y-127964285D01*
X115452380Y-127869047D01*
X115452380Y-127630952D01*
X115500000Y-127535714D01*
X115547619Y-127488095D01*
X115642857Y-127440476D01*
X115738095Y-127440476D01*
X115880952Y-127488095D01*
X116452380Y-128059523D01*
X116452380Y-127440476D01*
X115547619Y-127059523D02*
X115500000Y-127011904D01*
X115452380Y-126916666D01*
X115452380Y-126678571D01*
X115500000Y-126583333D01*
X115547619Y-126535714D01*
X115642857Y-126488095D01*
X115738095Y-126488095D01*
X115880952Y-126535714D01*
X116452380Y-127107142D01*
X116452380Y-126488095D01*
%TO.C,C21*%
X116607142Y-138357142D02*
X116559523Y-138404761D01*
X116416666Y-138452380D01*
X116321428Y-138452380D01*
X116178571Y-138404761D01*
X116083333Y-138309523D01*
X116035714Y-138214285D01*
X115988095Y-138023809D01*
X115988095Y-137880952D01*
X116035714Y-137690476D01*
X116083333Y-137595238D01*
X116178571Y-137500000D01*
X116321428Y-137452380D01*
X116416666Y-137452380D01*
X116559523Y-137500000D01*
X116607142Y-137547619D01*
X116988095Y-137547619D02*
X117035714Y-137500000D01*
X117130952Y-137452380D01*
X117369047Y-137452380D01*
X117464285Y-137500000D01*
X117511904Y-137547619D01*
X117559523Y-137642857D01*
X117559523Y-137738095D01*
X117511904Y-137880952D01*
X116940476Y-138452380D01*
X117559523Y-138452380D01*
X118511904Y-138452380D02*
X117940476Y-138452380D01*
X118226190Y-138452380D02*
X118226190Y-137452380D01*
X118130952Y-137595238D01*
X118035714Y-137690476D01*
X117940476Y-137738095D01*
%TO.C,C20*%
X183357142Y-124392857D02*
X183404761Y-124440476D01*
X183452380Y-124583333D01*
X183452380Y-124678571D01*
X183404761Y-124821428D01*
X183309523Y-124916666D01*
X183214285Y-124964285D01*
X183023809Y-125011904D01*
X182880952Y-125011904D01*
X182690476Y-124964285D01*
X182595238Y-124916666D01*
X182500000Y-124821428D01*
X182452380Y-124678571D01*
X182452380Y-124583333D01*
X182500000Y-124440476D01*
X182547619Y-124392857D01*
X182547619Y-124011904D02*
X182500000Y-123964285D01*
X182452380Y-123869047D01*
X182452380Y-123630952D01*
X182500000Y-123535714D01*
X182547619Y-123488095D01*
X182642857Y-123440476D01*
X182738095Y-123440476D01*
X182880952Y-123488095D01*
X183452380Y-124059523D01*
X183452380Y-123440476D01*
X182452380Y-122821428D02*
X182452380Y-122726190D01*
X182500000Y-122630952D01*
X182547619Y-122583333D01*
X182642857Y-122535714D01*
X182833333Y-122488095D01*
X183071428Y-122488095D01*
X183261904Y-122535714D01*
X183357142Y-122583333D01*
X183404761Y-122630952D01*
X183452380Y-122726190D01*
X183452380Y-122821428D01*
X183404761Y-122916666D01*
X183357142Y-122964285D01*
X183261904Y-123011904D01*
X183071428Y-123059523D01*
X182833333Y-123059523D01*
X182642857Y-123011904D01*
X182547619Y-122964285D01*
X182500000Y-122916666D01*
X182452380Y-122821428D01*
%TO.C,C19*%
X188607142Y-123892857D02*
X188654761Y-123940476D01*
X188702380Y-124083333D01*
X188702380Y-124178571D01*
X188654761Y-124321428D01*
X188559523Y-124416666D01*
X188464285Y-124464285D01*
X188273809Y-124511904D01*
X188130952Y-124511904D01*
X187940476Y-124464285D01*
X187845238Y-124416666D01*
X187750000Y-124321428D01*
X187702380Y-124178571D01*
X187702380Y-124083333D01*
X187750000Y-123940476D01*
X187797619Y-123892857D01*
X188702380Y-122940476D02*
X188702380Y-123511904D01*
X188702380Y-123226190D02*
X187702380Y-123226190D01*
X187845238Y-123321428D01*
X187940476Y-123416666D01*
X187988095Y-123511904D01*
X188702380Y-122464285D02*
X188702380Y-122273809D01*
X188654761Y-122178571D01*
X188607142Y-122130952D01*
X188464285Y-122035714D01*
X188273809Y-121988095D01*
X187892857Y-121988095D01*
X187797619Y-122035714D01*
X187750000Y-122083333D01*
X187702380Y-122178571D01*
X187702380Y-122369047D01*
X187750000Y-122464285D01*
X187797619Y-122511904D01*
X187892857Y-122559523D01*
X188130952Y-122559523D01*
X188226190Y-122511904D01*
X188273809Y-122464285D01*
X188321428Y-122369047D01*
X188321428Y-122178571D01*
X188273809Y-122083333D01*
X188226190Y-122035714D01*
X188130952Y-121988095D01*
%TO.C,C18*%
X157357142Y-132357142D02*
X157309523Y-132404761D01*
X157166666Y-132452380D01*
X157071428Y-132452380D01*
X156928571Y-132404761D01*
X156833333Y-132309523D01*
X156785714Y-132214285D01*
X156738095Y-132023809D01*
X156738095Y-131880952D01*
X156785714Y-131690476D01*
X156833333Y-131595238D01*
X156928571Y-131500000D01*
X157071428Y-131452380D01*
X157166666Y-131452380D01*
X157309523Y-131500000D01*
X157357142Y-131547619D01*
X158309523Y-132452380D02*
X157738095Y-132452380D01*
X158023809Y-132452380D02*
X158023809Y-131452380D01*
X157928571Y-131595238D01*
X157833333Y-131690476D01*
X157738095Y-131738095D01*
X158880952Y-131880952D02*
X158785714Y-131833333D01*
X158738095Y-131785714D01*
X158690476Y-131690476D01*
X158690476Y-131642857D01*
X158738095Y-131547619D01*
X158785714Y-131500000D01*
X158880952Y-131452380D01*
X159071428Y-131452380D01*
X159166666Y-131500000D01*
X159214285Y-131547619D01*
X159261904Y-131642857D01*
X159261904Y-131690476D01*
X159214285Y-131785714D01*
X159166666Y-131833333D01*
X159071428Y-131880952D01*
X158880952Y-131880952D01*
X158785714Y-131928571D01*
X158738095Y-131976190D01*
X158690476Y-132071428D01*
X158690476Y-132261904D01*
X158738095Y-132357142D01*
X158785714Y-132404761D01*
X158880952Y-132452380D01*
X159071428Y-132452380D01*
X159166666Y-132404761D01*
X159214285Y-132357142D01*
X159261904Y-132261904D01*
X159261904Y-132071428D01*
X159214285Y-131976190D01*
X159166666Y-131928571D01*
X159071428Y-131880952D01*
%TO.C,C17*%
X167107142Y-113392857D02*
X167154761Y-113440476D01*
X167202380Y-113583333D01*
X167202380Y-113678571D01*
X167154761Y-113821428D01*
X167059523Y-113916666D01*
X166964285Y-113964285D01*
X166773809Y-114011904D01*
X166630952Y-114011904D01*
X166440476Y-113964285D01*
X166345238Y-113916666D01*
X166250000Y-113821428D01*
X166202380Y-113678571D01*
X166202380Y-113583333D01*
X166250000Y-113440476D01*
X166297619Y-113392857D01*
X167202380Y-112440476D02*
X167202380Y-113011904D01*
X167202380Y-112726190D02*
X166202380Y-112726190D01*
X166345238Y-112821428D01*
X166440476Y-112916666D01*
X166488095Y-113011904D01*
X166202380Y-112107142D02*
X166202380Y-111440476D01*
X167202380Y-111869047D01*
%TO.C,C16*%
X168357142Y-108607142D02*
X168309523Y-108654761D01*
X168166666Y-108702380D01*
X168071428Y-108702380D01*
X167928571Y-108654761D01*
X167833333Y-108559523D01*
X167785714Y-108464285D01*
X167738095Y-108273809D01*
X167738095Y-108130952D01*
X167785714Y-107940476D01*
X167833333Y-107845238D01*
X167928571Y-107750000D01*
X168071428Y-107702380D01*
X168166666Y-107702380D01*
X168309523Y-107750000D01*
X168357142Y-107797619D01*
X169309523Y-108702380D02*
X168738095Y-108702380D01*
X169023809Y-108702380D02*
X169023809Y-107702380D01*
X168928571Y-107845238D01*
X168833333Y-107940476D01*
X168738095Y-107988095D01*
X170166666Y-107702380D02*
X169976190Y-107702380D01*
X169880952Y-107750000D01*
X169833333Y-107797619D01*
X169738095Y-107940476D01*
X169690476Y-108130952D01*
X169690476Y-108511904D01*
X169738095Y-108607142D01*
X169785714Y-108654761D01*
X169880952Y-108702380D01*
X170071428Y-108702380D01*
X170166666Y-108654761D01*
X170214285Y-108607142D01*
X170261904Y-108511904D01*
X170261904Y-108273809D01*
X170214285Y-108178571D01*
X170166666Y-108130952D01*
X170071428Y-108083333D01*
X169880952Y-108083333D01*
X169785714Y-108130952D01*
X169738095Y-108178571D01*
X169690476Y-108273809D01*
%TO.C,C15*%
X187607142Y-109607142D02*
X187559523Y-109654761D01*
X187416666Y-109702380D01*
X187321428Y-109702380D01*
X187178571Y-109654761D01*
X187083333Y-109559523D01*
X187035714Y-109464285D01*
X186988095Y-109273809D01*
X186988095Y-109130952D01*
X187035714Y-108940476D01*
X187083333Y-108845238D01*
X187178571Y-108750000D01*
X187321428Y-108702380D01*
X187416666Y-108702380D01*
X187559523Y-108750000D01*
X187607142Y-108797619D01*
X188559523Y-109702380D02*
X187988095Y-109702380D01*
X188273809Y-109702380D02*
X188273809Y-108702380D01*
X188178571Y-108845238D01*
X188083333Y-108940476D01*
X187988095Y-108988095D01*
X189464285Y-108702380D02*
X188988095Y-108702380D01*
X188940476Y-109178571D01*
X188988095Y-109130952D01*
X189083333Y-109083333D01*
X189321428Y-109083333D01*
X189416666Y-109130952D01*
X189464285Y-109178571D01*
X189511904Y-109273809D01*
X189511904Y-109511904D01*
X189464285Y-109607142D01*
X189416666Y-109654761D01*
X189321428Y-109702380D01*
X189083333Y-109702380D01*
X188988095Y-109654761D01*
X188940476Y-109607142D01*
%TO.C,C14*%
X179357142Y-135607142D02*
X179309523Y-135654761D01*
X179166666Y-135702380D01*
X179071428Y-135702380D01*
X178928571Y-135654761D01*
X178833333Y-135559523D01*
X178785714Y-135464285D01*
X178738095Y-135273809D01*
X178738095Y-135130952D01*
X178785714Y-134940476D01*
X178833333Y-134845238D01*
X178928571Y-134750000D01*
X179071428Y-134702380D01*
X179166666Y-134702380D01*
X179309523Y-134750000D01*
X179357142Y-134797619D01*
X180309523Y-135702380D02*
X179738095Y-135702380D01*
X180023809Y-135702380D02*
X180023809Y-134702380D01*
X179928571Y-134845238D01*
X179833333Y-134940476D01*
X179738095Y-134988095D01*
X181166666Y-135035714D02*
X181166666Y-135702380D01*
X180928571Y-134654761D02*
X180690476Y-135369047D01*
X181309523Y-135369047D01*
%TO.C,C13*%
X168357142Y-107107142D02*
X168309523Y-107154761D01*
X168166666Y-107202380D01*
X168071428Y-107202380D01*
X167928571Y-107154761D01*
X167833333Y-107059523D01*
X167785714Y-106964285D01*
X167738095Y-106773809D01*
X167738095Y-106630952D01*
X167785714Y-106440476D01*
X167833333Y-106345238D01*
X167928571Y-106250000D01*
X168071428Y-106202380D01*
X168166666Y-106202380D01*
X168309523Y-106250000D01*
X168357142Y-106297619D01*
X169309523Y-107202380D02*
X168738095Y-107202380D01*
X169023809Y-107202380D02*
X169023809Y-106202380D01*
X168928571Y-106345238D01*
X168833333Y-106440476D01*
X168738095Y-106488095D01*
X169642857Y-106202380D02*
X170261904Y-106202380D01*
X169928571Y-106583333D01*
X170071428Y-106583333D01*
X170166666Y-106630952D01*
X170214285Y-106678571D01*
X170261904Y-106773809D01*
X170261904Y-107011904D01*
X170214285Y-107107142D01*
X170166666Y-107154761D01*
X170071428Y-107202380D01*
X169785714Y-107202380D01*
X169690476Y-107154761D01*
X169642857Y-107107142D01*
%TO.C,C12*%
X173107142Y-119357142D02*
X173059523Y-119404761D01*
X172916666Y-119452380D01*
X172821428Y-119452380D01*
X172678571Y-119404761D01*
X172583333Y-119309523D01*
X172535714Y-119214285D01*
X172488095Y-119023809D01*
X172488095Y-118880952D01*
X172535714Y-118690476D01*
X172583333Y-118595238D01*
X172678571Y-118500000D01*
X172821428Y-118452380D01*
X172916666Y-118452380D01*
X173059523Y-118500000D01*
X173107142Y-118547619D01*
X174059523Y-119452380D02*
X173488095Y-119452380D01*
X173773809Y-119452380D02*
X173773809Y-118452380D01*
X173678571Y-118595238D01*
X173583333Y-118690476D01*
X173488095Y-118738095D01*
X174440476Y-118547619D02*
X174488095Y-118500000D01*
X174583333Y-118452380D01*
X174821428Y-118452380D01*
X174916666Y-118500000D01*
X174964285Y-118547619D01*
X175011904Y-118642857D01*
X175011904Y-118738095D01*
X174964285Y-118880952D01*
X174392857Y-119452380D01*
X175011904Y-119452380D01*
%TO.C,C11*%
X136357142Y-114642857D02*
X136404761Y-114690476D01*
X136452380Y-114833333D01*
X136452380Y-114928571D01*
X136404761Y-115071428D01*
X136309523Y-115166666D01*
X136214285Y-115214285D01*
X136023809Y-115261904D01*
X135880952Y-115261904D01*
X135690476Y-115214285D01*
X135595238Y-115166666D01*
X135500000Y-115071428D01*
X135452380Y-114928571D01*
X135452380Y-114833333D01*
X135500000Y-114690476D01*
X135547619Y-114642857D01*
X136452380Y-113690476D02*
X136452380Y-114261904D01*
X136452380Y-113976190D02*
X135452380Y-113976190D01*
X135595238Y-114071428D01*
X135690476Y-114166666D01*
X135738095Y-114261904D01*
X136452380Y-112738095D02*
X136452380Y-113309523D01*
X136452380Y-113023809D02*
X135452380Y-113023809D01*
X135595238Y-113119047D01*
X135690476Y-113214285D01*
X135738095Y-113309523D01*
%TO.C,C10*%
X134607142Y-114642857D02*
X134654761Y-114690476D01*
X134702380Y-114833333D01*
X134702380Y-114928571D01*
X134654761Y-115071428D01*
X134559523Y-115166666D01*
X134464285Y-115214285D01*
X134273809Y-115261904D01*
X134130952Y-115261904D01*
X133940476Y-115214285D01*
X133845238Y-115166666D01*
X133750000Y-115071428D01*
X133702380Y-114928571D01*
X133702380Y-114833333D01*
X133750000Y-114690476D01*
X133797619Y-114642857D01*
X134702380Y-113690476D02*
X134702380Y-114261904D01*
X134702380Y-113976190D02*
X133702380Y-113976190D01*
X133845238Y-114071428D01*
X133940476Y-114166666D01*
X133988095Y-114261904D01*
X133702380Y-113071428D02*
X133702380Y-112976190D01*
X133750000Y-112880952D01*
X133797619Y-112833333D01*
X133892857Y-112785714D01*
X134083333Y-112738095D01*
X134321428Y-112738095D01*
X134511904Y-112785714D01*
X134607142Y-112833333D01*
X134654761Y-112880952D01*
X134702380Y-112976190D01*
X134702380Y-113071428D01*
X134654761Y-113166666D01*
X134607142Y-113214285D01*
X134511904Y-113261904D01*
X134321428Y-113309523D01*
X134083333Y-113309523D01*
X133892857Y-113261904D01*
X133797619Y-113214285D01*
X133750000Y-113166666D01*
X133702380Y-113071428D01*
%TO.C,C9*%
X186857142Y-123416666D02*
X186904761Y-123464285D01*
X186952380Y-123607142D01*
X186952380Y-123702380D01*
X186904761Y-123845238D01*
X186809523Y-123940476D01*
X186714285Y-123988095D01*
X186523809Y-124035714D01*
X186380952Y-124035714D01*
X186190476Y-123988095D01*
X186095238Y-123940476D01*
X186000000Y-123845238D01*
X185952380Y-123702380D01*
X185952380Y-123607142D01*
X186000000Y-123464285D01*
X186047619Y-123416666D01*
X186952380Y-122940476D02*
X186952380Y-122750000D01*
X186904761Y-122654761D01*
X186857142Y-122607142D01*
X186714285Y-122511904D01*
X186523809Y-122464285D01*
X186142857Y-122464285D01*
X186047619Y-122511904D01*
X186000000Y-122559523D01*
X185952380Y-122654761D01*
X185952380Y-122845238D01*
X186000000Y-122940476D01*
X186047619Y-122988095D01*
X186142857Y-123035714D01*
X186380952Y-123035714D01*
X186476190Y-122988095D01*
X186523809Y-122940476D01*
X186571428Y-122845238D01*
X186571428Y-122654761D01*
X186523809Y-122559523D01*
X186476190Y-122511904D01*
X186380952Y-122464285D01*
%TO.C,C7*%
X185107142Y-123416666D02*
X185154761Y-123464285D01*
X185202380Y-123607142D01*
X185202380Y-123702380D01*
X185154761Y-123845238D01*
X185059523Y-123940476D01*
X184964285Y-123988095D01*
X184773809Y-124035714D01*
X184630952Y-124035714D01*
X184440476Y-123988095D01*
X184345238Y-123940476D01*
X184250000Y-123845238D01*
X184202380Y-123702380D01*
X184202380Y-123607142D01*
X184250000Y-123464285D01*
X184297619Y-123416666D01*
X184202380Y-123083333D02*
X184202380Y-122416666D01*
X185202380Y-122845238D01*
%TO.C,C6*%
X179857142Y-123666666D02*
X179904761Y-123714285D01*
X179952380Y-123857142D01*
X179952380Y-123952380D01*
X179904761Y-124095238D01*
X179809523Y-124190476D01*
X179714285Y-124238095D01*
X179523809Y-124285714D01*
X179380952Y-124285714D01*
X179190476Y-124238095D01*
X179095238Y-124190476D01*
X179000000Y-124095238D01*
X178952380Y-123952380D01*
X178952380Y-123857142D01*
X179000000Y-123714285D01*
X179047619Y-123666666D01*
X178952380Y-122809523D02*
X178952380Y-123000000D01*
X179000000Y-123095238D01*
X179047619Y-123142857D01*
X179190476Y-123238095D01*
X179380952Y-123285714D01*
X179761904Y-123285714D01*
X179857142Y-123238095D01*
X179904761Y-123190476D01*
X179952380Y-123095238D01*
X179952380Y-122904761D01*
X179904761Y-122809523D01*
X179857142Y-122761904D01*
X179761904Y-122714285D01*
X179523809Y-122714285D01*
X179428571Y-122761904D01*
X179380952Y-122809523D01*
X179333333Y-122904761D01*
X179333333Y-123095238D01*
X179380952Y-123190476D01*
X179428571Y-123238095D01*
X179523809Y-123285714D01*
%TO.C,C5*%
X176083333Y-119287142D02*
X176035714Y-119334761D01*
X175892857Y-119382380D01*
X175797619Y-119382380D01*
X175654761Y-119334761D01*
X175559523Y-119239523D01*
X175511904Y-119144285D01*
X175464285Y-118953809D01*
X175464285Y-118810952D01*
X175511904Y-118620476D01*
X175559523Y-118525238D01*
X175654761Y-118430000D01*
X175797619Y-118382380D01*
X175892857Y-118382380D01*
X176035714Y-118430000D01*
X176083333Y-118477619D01*
X176988095Y-118382380D02*
X176511904Y-118382380D01*
X176464285Y-118858571D01*
X176511904Y-118810952D01*
X176607142Y-118763333D01*
X176845238Y-118763333D01*
X176940476Y-118810952D01*
X176988095Y-118858571D01*
X177035714Y-118953809D01*
X177035714Y-119191904D01*
X176988095Y-119287142D01*
X176940476Y-119334761D01*
X176845238Y-119382380D01*
X176607142Y-119382380D01*
X176511904Y-119334761D01*
X176464285Y-119287142D01*
%TO.C,C4*%
X175083333Y-113107142D02*
X175035714Y-113154761D01*
X174892857Y-113202380D01*
X174797619Y-113202380D01*
X174654761Y-113154761D01*
X174559523Y-113059523D01*
X174511904Y-112964285D01*
X174464285Y-112773809D01*
X174464285Y-112630952D01*
X174511904Y-112440476D01*
X174559523Y-112345238D01*
X174654761Y-112250000D01*
X174797619Y-112202380D01*
X174892857Y-112202380D01*
X175035714Y-112250000D01*
X175083333Y-112297619D01*
X175940476Y-112535714D02*
X175940476Y-113202380D01*
X175702380Y-112154761D02*
X175464285Y-112869047D01*
X176083333Y-112869047D01*
%TO.C,C3*%
X173333333Y-110107142D02*
X173285714Y-110154761D01*
X173142857Y-110202380D01*
X173047619Y-110202380D01*
X172904761Y-110154761D01*
X172809523Y-110059523D01*
X172761904Y-109964285D01*
X172714285Y-109773809D01*
X172714285Y-109630952D01*
X172761904Y-109440476D01*
X172809523Y-109345238D01*
X172904761Y-109250000D01*
X173047619Y-109202380D01*
X173142857Y-109202380D01*
X173285714Y-109250000D01*
X173333333Y-109297619D01*
X173666666Y-109202380D02*
X174285714Y-109202380D01*
X173952380Y-109583333D01*
X174095238Y-109583333D01*
X174190476Y-109630952D01*
X174238095Y-109678571D01*
X174285714Y-109773809D01*
X174285714Y-110011904D01*
X174238095Y-110107142D01*
X174190476Y-110154761D01*
X174095238Y-110202380D01*
X173809523Y-110202380D01*
X173714285Y-110154761D01*
X173666666Y-110107142D01*
%TO.C,C2*%
X188583333Y-114857142D02*
X188535714Y-114904761D01*
X188392857Y-114952380D01*
X188297619Y-114952380D01*
X188154761Y-114904761D01*
X188059523Y-114809523D01*
X188011904Y-114714285D01*
X187964285Y-114523809D01*
X187964285Y-114380952D01*
X188011904Y-114190476D01*
X188059523Y-114095238D01*
X188154761Y-114000000D01*
X188297619Y-113952380D01*
X188392857Y-113952380D01*
X188535714Y-114000000D01*
X188583333Y-114047619D01*
X188964285Y-114047619D02*
X189011904Y-114000000D01*
X189107142Y-113952380D01*
X189345238Y-113952380D01*
X189440476Y-114000000D01*
X189488095Y-114047619D01*
X189535714Y-114142857D01*
X189535714Y-114238095D01*
X189488095Y-114380952D01*
X188916666Y-114952380D01*
X189535714Y-114952380D01*
%TO.C,C1*%
X188583333Y-117357142D02*
X188535714Y-117404761D01*
X188392857Y-117452380D01*
X188297619Y-117452380D01*
X188154761Y-117404761D01*
X188059523Y-117309523D01*
X188011904Y-117214285D01*
X187964285Y-117023809D01*
X187964285Y-116880952D01*
X188011904Y-116690476D01*
X188059523Y-116595238D01*
X188154761Y-116500000D01*
X188297619Y-116452380D01*
X188392857Y-116452380D01*
X188535714Y-116500000D01*
X188583333Y-116547619D01*
X189535714Y-117452380D02*
X188964285Y-117452380D01*
X189250000Y-117452380D02*
X189250000Y-116452380D01*
X189154761Y-116595238D01*
X189059523Y-116690476D01*
X188964285Y-116738095D01*
%TD*%
M02*
