M48
; DRILL file {KiCad (5.1.8)-1} date 12/08/22 11:32:48
; FORMAT={-:-/ absolute / inch / decimal}
; #@! TF.CreationDate,2022-12-08T11:32:48+02:00
; #@! TF.GenerationSoftware,Kicad,Pcbnew,(5.1.8)-1
FMAT,2
INCH
T1C0.0118
T2C0.0157
T3C0.0236
T4C0.0276
T5C0.0354
T6C0.0374
T7C0.0390
T8C0.0394
T9C0.0512
T10C0.0630
T11C0.0650
T12C0.0669
T13C0.1299
%
G90
G05
T1
X3.6516Y-3.0807
X3.6713Y-3.2126
X3.8346Y-3.2126
X3.8386Y-3.7008
X3.8386Y-4.2815
X3.8583Y-4.5276
X3.9173Y-3.1791
X3.9173Y-3.3169
X3.937Y-4.2815
X3.9478Y-2.9035
X3.9665Y-3.2579
X3.9665Y-3.7598
X3.9665Y-3.8189
X3.9665Y-3.878
X3.9665Y-3.937
X3.9665Y-3.9961
X3.9665Y-4.0551
X3.9665Y-4.1142
X3.9665Y-4.1732
X4.0256Y-3.7598
X4.0256Y-3.8189
X4.0256Y-3.878
X4.0256Y-3.937
X4.0256Y-3.9961
X4.0256Y-4.0551
X4.0256Y-4.1142
X4.0256Y-4.1732
X4.0256Y-4.2323
X4.0256Y-4.4587
X4.0846Y-3.7598
X4.0846Y-3.8189
X4.0846Y-3.878
X4.0846Y-3.937
X4.0846Y-4.1732
X4.0846Y-4.2323
X4.0945Y-4.6063
X4.1437Y-3.7598
X4.1437Y-3.8189
X4.1437Y-3.878
X4.1437Y-3.937
X4.1437Y-4.1732
X4.1437Y-4.2323
X4.1467Y-2.9035
X4.2028Y-3.7598
X4.2028Y-3.8189
X4.2028Y-3.878
X4.2028Y-3.937
X4.2028Y-4.1732
X4.2028Y-4.2323
X4.2618Y-3.7598
X4.2618Y-3.8189
X4.2618Y-3.878
X4.2618Y-3.937
X4.2618Y-3.9961
X4.2618Y-4.0551
X4.2618Y-4.1142
X4.2618Y-4.1732
X4.2618Y-4.2323
X4.3209Y-3.7598
X4.3209Y-3.8189
X4.3209Y-3.878
X4.3209Y-3.937
X4.3209Y-3.9961
X4.3209Y-4.0551
X4.3209Y-4.1142
X4.3209Y-4.1732
X4.3209Y-4.2323
X4.3622Y-2.9035
X4.3799Y-3.7598
X4.3799Y-3.8189
X4.3799Y-3.878
X4.3799Y-3.937
X4.3799Y-3.9961
X4.3799Y-4.0551
X4.3799Y-4.1142
X4.3799Y-4.1732
X4.3799Y-4.2323
X4.4094Y-3.0906
X4.4094Y-5.2953
X4.4094Y-5.3346
X4.4094Y-5.374
X4.439Y-3.7598
X4.439Y-3.8189
X4.439Y-3.878
X4.439Y-3.937
X4.439Y-3.9961
X4.439Y-4.0551
X4.439Y-4.1142
X4.439Y-4.1732
X4.439Y-4.2323
X4.4488Y-5.2953
X4.4488Y-5.3346
X4.4488Y-5.374
X4.4882Y-3.5925
X4.4882Y-5.2953
X4.4882Y-5.3346
X4.4882Y-5.374
X4.5276Y-5.2953
X4.5276Y-5.3346
X4.5276Y-5.374
X4.5669Y-5.2953
X4.5669Y-5.3346
X4.5669Y-5.374
X4.6063Y-5.2953
X4.6063Y-5.3346
X4.6063Y-5.374
X4.6457Y-5.2953
X4.6457Y-5.3346
X4.6457Y-5.374
X4.685Y-5.374
X4.6949Y-4.2224
X4.6949Y-4.6161
X4.7244Y-4.9213
X4.7244Y-4.9606
X4.7244Y-5.0
X4.7244Y-5.0394
X4.7244Y-5.374
X4.7638Y-4.9213
X4.7638Y-4.9606
X4.7638Y-5.0
X4.7638Y-5.0394
X4.8031Y-5.0
X4.8031Y-5.0394
X4.8031Y-5.0787
X4.8031Y-5.1181
X4.8031Y-5.1575
X4.8031Y-5.1969
X4.8346Y-3.6811
X4.8425Y-5.0
X4.8425Y-5.0394
X4.8425Y-5.0787
X4.8425Y-5.1181
X4.8425Y-5.1575
X4.8425Y-5.1969
X4.8622Y-3.5138
X4.8819Y-3.1693
X4.9114Y-3.2185
X4.9213Y-3.9341
X4.9213Y-4.0827
X4.9213Y-5.0
X4.9213Y-5.0394
X4.9242Y-3.7795
X4.9705Y-3.4843
X4.9833Y-4.6161
X4.9843Y-3.7795
X4.9902Y-3.1693
X5.0Y-3.248
X5.0098Y-3.5827
X5.0689Y-2.8642
X5.1083Y-3.5827
X5.128Y-4.6654
X5.1378Y-5.0
X5.1378Y-5.0394
X5.1378Y-5.0787
X5.1378Y-5.1181
X5.1378Y-5.1575
X5.1378Y-5.1969
X5.1378Y-5.2362
X5.1516Y-2.8642
X5.1772Y-5.0
X5.1772Y-5.0394
X5.1772Y-5.0787
X5.1772Y-5.1181
X5.1772Y-5.1575
X5.1772Y-5.1969
X5.1772Y-5.2362
X5.2165Y-5.0
X5.2165Y-5.0394
X5.2165Y-5.0787
X5.2165Y-5.1181
X5.2165Y-5.1575
X5.2165Y-5.1969
X5.2165Y-5.2362
X5.248Y-3.0118
X5.2559Y-5.0
X5.2559Y-5.0394
X5.2559Y-5.0787
X5.2559Y-5.1181
X5.2559Y-5.1575
X5.2559Y-5.1969
X5.2559Y-5.2362
X5.2657Y-3.2677
X5.2657Y-3.5827
X5.2756Y-4.0846
X5.2825Y-3.8219
X5.2953Y-5.0
X5.2953Y-5.0394
X5.2953Y-5.0787
X5.2953Y-5.1181
X5.2953Y-5.1575
X5.2953Y-5.1969
X5.2953Y-5.2362
X5.3346Y-5.0
X5.3346Y-5.0394
X5.3346Y-5.0787
X5.3346Y-5.1181
X5.3346Y-5.1575
X5.3346Y-5.1969
X5.3346Y-5.2362
X5.4035Y-4.0551
X5.5118Y-3.7697
X5.5591Y-3.874
X5.5817Y-3.8563
X5.5817Y-3.8917
X5.6004Y-3.7697
X5.6043Y-3.874
X5.8563Y-3.7795
X5.8563Y-3.8386
X5.876Y-3.1496
X5.8858Y-3.3268
X5.8858Y-3.8091
X5.9154Y-3.7795
X5.9154Y-3.8386
X5.9252Y-3.1201
X5.9449Y-3.3268
X6.0Y-3.0906
X6.0039Y-3.6516
X6.0335Y-2.6673
X6.0335Y-3.8189
X6.0433Y-3.1201
X6.0925Y-3.3661
X6.0925Y-3.6417
X6.1181Y-3.0906
X6.1929Y-3.1496
X6.2205Y-3.4547
X6.2697Y-3.1496
X6.3159Y-4.498
X6.3189Y-3.1201
X6.3484Y-3.376
X6.3937Y-3.0906
X6.4272Y-2.6673
X6.437Y-3.1201
X6.5118Y-3.0906
X6.5157Y-3.5827
X6.5256Y-4.498
X6.5384Y-3.3632
X6.5453Y-4.5768
X6.5846Y-3.1496
X6.5846Y-3.3071
X6.6083Y-4.498
X6.6161Y-3.6198
X6.6644Y-3.9774
X6.7913Y-3.0709
X6.7913Y-3.6319
X6.8169Y-4.498
X6.8406Y-4.626
X6.8504Y-3.6319
X6.8524Y-3.0709
X6.878Y-4.3406
X6.8799Y-3.3376
X6.939Y-4.3406
X6.939Y-4.5177
X7.0571Y-4.2434
X7.0669Y-4.813
X7.0768Y-4.3829
X7.0768Y-4.5
X7.0965Y-4.5669
X7.1358Y-4.5669
X7.1358Y-4.813
X7.1949Y-4.5669
X7.1949Y-5.3445
X7.2047Y-4.813
X7.2343Y-4.3406
X7.2736Y-4.5669
X7.2736Y-4.813
X7.2736Y-5.4035
X7.2933Y-4.4803
X7.3425Y-4.813
X7.376Y-4.7343
X7.4114Y-4.5768
X7.4114Y-5.0591
X7.4508Y-4.5374
X7.4508Y-5.0886
X7.5394Y-4.2717
X7.5591Y-4.0453
X7.5984Y-4.5374
X7.5984Y-4.6063
T2
X4.7736Y-3.6811
X5.187Y-4.6654
X5.2362Y-4.5669
X5.3051Y-5.315
X5.3248Y-4.7146
X5.3346Y-4.7736
X6.5748Y-3.9173
T3
X6.2205Y-5.4685
X6.9882Y-5.4685
T4
X3.9362Y-3.4449
X3.9362Y-3.4949
X3.9862Y-3.4449
X3.9862Y-3.4949
X4.0362Y-3.4449
X4.0362Y-3.4949
T5
X6.3567Y-5.3444
X6.4307Y-4.9016
X6.4567Y-5.2846
X6.4807Y-4.8016
X6.5307Y-4.9016
X6.5807Y-4.8016
X6.6307Y-4.9016
X6.6807Y-4.8016
X6.7307Y-4.9016
X6.7547Y-5.3444
X6.7807Y-4.8016
X6.8548Y-5.2846
T6
X5.6065Y-4.9016
X5.6565Y-4.8016
X5.7065Y-4.9016
X5.7565Y-4.8016
X5.8065Y-4.9016
X5.8565Y-4.8016
X5.9065Y-4.9016
X5.9565Y-4.8016
T7
X7.5195Y-2.9134
X7.5195Y-3.0906
T8
X6.1787Y-3.7854
X6.2787Y-3.7854
X6.3787Y-3.7854
X6.4787Y-3.7854
T9
X7.4215Y-2.864
X7.4215Y-3.14
T10
X6.2957Y-5.0315
X6.9157Y-5.0315
T11
X5.4656Y-4.6831
X6.0974Y-4.6831
T12
X4.7559Y-2.5768
X4.9528Y-2.5768
X5.1496Y-2.5768
X5.4449Y-2.5768
X5.6417Y-2.5768
X3.872Y-5.3957
X4.0689Y-5.3957
X4.2657Y-5.3957
X3.8701Y-2.5768
X4.0669Y-2.5768
X4.2638Y-2.5768
X4.4606Y-2.5768
X5.937Y-2.5768
X6.1339Y-2.5768
X6.3307Y-2.5768
X6.5276Y-2.5768
X6.7244Y-2.5768
X6.9213Y-2.5768
T13
X6.3807Y-5.1516
X6.8307Y-5.1516
X5.5394Y-5.1516
X6.0236Y-5.1516
T0
M30
